<?xml version="1.0" encoding="utf-8"?>
<!-- Generator: Adobe Illustrator 24.1.0, SVG Export Plug-In . SVG Version: 6.00 Build 0)  -->
<svg version="1.1" id="Calque_1" xmlns="http://www.w3.org/2000/svg" xmlns:xlink="http://www.w3.org/1999/xlink" x="0px" y="0px"
	 width="136px" height="24px" viewBox="0 0 136 24" style="enable-background:new 0 0 136 24;" xml:space="preserve">
<style type="text/css">
	.st0{fill:#158876;}
	.st1{fill:#41B38A;}
	.st2{fill:#243746;}
	.st3{fill-rule:evenodd;clip-rule:evenodd;fill:#243746;}
	.st4{fill-rule:evenodd;clip-rule:evenodd;fill:#41B38A;}
</style>
<path class="st0" d="M30.83,20.69L21.88,4.72c-0.74-1.3-2.64-1.3-3.38,0l-0.96,1.71l1.11,1.97l1.55-2.71l8.92,15.86h-3.18
	c0.17,1.01-0.71,2-1.95,2h5.14C30.61,23.55,31.53,21.95,30.83,20.69z"/>
<path class="st1" d="M9.23,21.55H1.95L12.94,2l3.57,6.29l1.04-1.86l-3.12-5.55c-0.67-1.18-2.32-1.17-2.98,0.01L0.22,20.94
	c-0.66,1.18,0.21,2.61,1.58,2.61h9.38C9.94,23.55,9.07,22.56,9.23,21.55z"/>
<path class="st2" d="M25.95,21.55c-0.03-0.18-0.09-0.36-0.19-0.54L18.66,8.4l-1.11-1.97l-1.04,1.86L9.42,21.02
	c-0.1,0.18-0.16,0.36-0.19,0.53c-0.17,1.01,0.71,2,1.95,2h0.35H24c0,0,0,0,0,0C25.24,23.55,26.11,22.56,25.95,21.55z M11.27,21.55
	l6.33-11.22l6.3,11.22H11.27z"/>
<path class="st3" d="M53.6,6.09v17.45l-1.02,0c-0.62,0-1.2-0.3-1.56-0.81l-8.66-12.31v13.11h-0.78c-0.7,0-1.27-0.57-1.27-1.27V6.1
	l0.77,0c0.62,0,1.2,0.29,1.55,0.79l8.91,12.43v-12c-0.02-0.69,0.33-1.2,1.31-1.22H53.6z"/>
<path class="st3" d="M71.59,6.07v10.65c0.02,1.21-0.26,2.42-0.81,3.48c-0.52,1.03-1.29,1.87-2.24,2.44
	c-0.97,0.61-2.07,0.92-3.21,0.9c-1.12,0-2.24-0.29-3.24-0.88c-0.94-0.57-1.72-1.41-2.24-2.42c-0.55-1.07-0.83-2.28-0.81-3.5V6.09
	c0,0,0.86,0,1.15,0s0.58,0.11,0.8,0.34c0.21,0.22,0.33,0.51,0.33,0.84v9.42c-0.02,0.81,0.17,1.6,0.55,2.31
	c0.71,1.32,2.03,2.14,3.46,2.14c2.28,0.01,4.14-1.95,4.15-4.38c0-0.02,0-0.05,0-0.07V7.28c0-0.31,0.09-0.62,0.27-0.86
	c0.21-0.24,0.48-0.37,0.78-0.35C70.83,6.07,71.59,6.07,71.59,6.07z"/>
<path class="st3" d="M88.95,23.54c-0.93-0.04-1.34-0.3-1.89-1.04l-4.16-5.88l-4.09,5.88c-0.38,0.55-0.69,1-1.66,1.04
	c-0.28,0-1.6,0-1.6,0l6.06-8.72L75.5,6.09l1.62,0c1.04,0,1.39,0.41,1.97,1.2l3.98,5.66l3.98-5.66c0.62-0.89,0.82-1.14,1.9-1.2
	l1.54,0.01l-6.15,8.67l6.19,8.78C90.54,23.54,89.22,23.54,88.95,23.54z"/>
<path class="st3" d="M106.98,7.24c0,0.32-0.12,0.61-0.34,0.82c-0.21,0.2-0.5,0.32-0.79,0.3h-4.1v15.18l-1.11,0
	c-0.02,0-0.04,0-0.06,0c-0.3,0-0.6-0.11-0.84-0.34c-0.22-0.21-0.34-0.52-0.34-0.84v-14h-4.1c-0.29,0-0.57-0.09-0.79-0.32
	c-0.22-0.21-0.34-0.52-0.33-0.84l-0.01-1.12h12.81L106.98,7.24z"/>
<path class="st4" d="M111.7,22.83c-0.73-0.44-1.36-1.1-1.79-1.88c-0.12-0.18-0.19-0.42-0.2-0.66c0-0.31,0.12-0.6,0.34-0.8
	c0.19-0.22,0.44-0.33,0.72-0.37c0.41,0.06,0.78,0.27,1.02,0.62c0.51,0.91,1.43,1.46,2.4,1.43c1.62,0.05,2.97-1.32,3.01-3.05
	c0-0.03,0-0.06,0-0.09V7.27c-0.01-0.32,0.12-0.63,0.34-0.84c0.22-0.22,0.51-0.35,0.8-0.35l1.13,0.01l0,11.95
	c0.04,1.97-0.95,3.8-2.56,4.76c-1.61,0.98-3.58,1-5.2,0.04L111.7,22.83L111.7,22.83z"/>
<path class="st1" d="M130.06,6.1h0.2c0.88,0,1.75,0.21,2.6,0.64c0.27,0.15,0.54,0.32,0.8,0.51c0.13,0.09,0.34,0.27,0.63,0.53
	c0.3,0.33,0.52,0.59,0.65,0.79c0.12,0.17,0.22,0.34,0.31,0.51l-1.09,0.54c-0.52,0.26-1.14,0.15-1.56-0.26
	c-0.66-0.65-1.37-0.98-2.46-1.02c-1.04,0-1.88,0.31-2.52,0.92c-0.24,0.26-0.39,0.47-0.45,0.63c-0.18,0.36-0.28,0.72-0.28,1.1v0.08
	c0,0.53,0.2,0.95,0.59,1.24c0.18,0.14,0.35,0.25,0.51,0.34c0.4,0.22,1,0.44,1.79,0.66c0.59,0.17,1.3,0.34,2.13,0.52
	c0.46,0.13,0.85,0.27,1.16,0.42c0.3,0.15,0.62,0.34,0.94,0.59c0.29,0.24,0.54,0.5,0.76,0.77c0.61,0.83,0.92,1.75,0.92,2.75v0.06
	c0,0.99-0.3,1.93-0.89,2.82c-0.1,0.16-0.28,0.38-0.54,0.66c-0.36,0.33-0.65,0.56-0.88,0.7c-0.25,0.15-0.52,0.29-0.81,0.42
	c-0.81,0.34-1.65,0.51-2.52,0.51c-1.34,0-2.57-0.4-3.68-1.18c-0.2-0.15-0.41-0.33-0.63-0.53c-0.84-0.82-0.99-1.87-0.24-2.4
	c0.5-0.37,1.09-0.14,1.34,0.26c0.1,0.15,0.26,0.32,0.47,0.52c0.3,0.27,0.54,0.46,0.73,0.56c0.63,0.35,1.28,0.52,1.98,0.52h0.08
	c0.69,0,1.35-0.17,1.97-0.51c0.17-0.1,0.35-0.23,0.53-0.4c0.21-0.21,0.36-0.4,0.46-0.57c0.26-0.46,0.4-0.93,0.4-1.42
	c0-0.79-0.33-1.43-1-1.91c-0.2-0.12-0.37-0.22-0.52-0.28c-0.27-0.12-0.69-0.24-1.27-0.35c-1.63-0.37-2.81-0.75-3.55-1.14
	c-1.64-0.81-2.46-2.04-2.46-3.7c0-1.1,0.36-2.1,1.08-3c0.23-0.28,0.48-0.52,0.74-0.73c0.32-0.24,0.6-0.42,0.83-0.55
	c0.26-0.14,0.58-0.27,0.95-0.38C128.85,6.19,129.46,6.1,130.06,6.1z"/>
</svg>
