<svg width="600" height="400" viewBox="0 0 600 400" fill="none" xmlns="http://www.w3.org/2000/svg">
<rect width="600" height="401" fill="#2B4152"/>
<mask id="mask0" mask-type="alpha" maskUnits="userSpaceOnUse" x="366" y="42" width="234" height="312">
<rect x="366" y="42" width="234" height="312" fill="#C4C4C4"/>
</mask>
<g mask="url(#mask0)">
<g opacity="0.9">
<path opacity="0.9" d="M426.811 221.953C437.347 221.953 445.889 213.431 445.889 202.92C445.889 192.408 437.347 183.886 426.811 183.886C416.274 183.886 407.732 192.408 407.732 202.92C407.732 213.431 416.274 221.953 426.811 221.953Z" fill="#476983"/>
<g opacity="0.9">
<path opacity="0.9" d="M431.477 203C431.477 201.771 432.485 200.775 433.73 200.775H437.017C438.262 200.775 439.301 201.771 439.301 203C439.301 204.229 438.262 205.225 437.017 205.225H433.73C432.485 205.225 431.477 204.229 431.477 203Z" fill="white"/>
<path opacity="0.9" d="M424.585 203.004C424.585 201.771 425.588 200.775 426.824 200.775C428.06 200.775 429.063 201.771 429.063 203.004C429.063 204.238 428.06 205.234 426.824 205.234C425.588 205.234 424.585 204.233 424.585 203.004Z" fill="white"/>
<path opacity="0.9" fill-rule="evenodd" clip-rule="evenodd" d="M429.001 192.585C429.05 193.787 428.114 194.797 426.91 194.846C421.71 195.061 418.539 199.122 418.692 202.973C418.741 204.175 417.823 205.185 416.618 205.234C415.413 205.283 414.357 204.314 414.307 203.112C414.056 196.83 419.319 190.619 426.731 190.499C427.931 190.454 428.947 191.388 429.001 192.585Z" fill="white"/>
<path opacity="0.9" fill-rule="evenodd" clip-rule="evenodd" d="M414.298 202.884C414.329 210.475 420.576 215.488 426.9 215.331C434.361 215.068 439.749 208.607 439.301 202.844C439.198 201.646 438.132 200.717 436.927 200.775C435.723 200.833 434.796 201.852 434.854 203.049C435.024 206.552 431.782 210.841 426.793 210.98C422.829 211.078 418.866 207.977 418.691 203.152C418.646 204.269 417.759 205.185 416.617 205.23C415.413 205.279 414.356 204.309 414.307 203.107C414.302 203.04 414.302 202.964 414.298 202.884Z" fill="url(#paint0_linear)"/>
</g>
</g>
<g opacity="0.8">
<path opacity="0.8" d="M462.105 138.233C472.642 138.233 481.184 129.712 481.184 119.2C481.184 108.688 472.642 100.167 462.105 100.167C451.569 100.167 443.027 108.688 443.027 119.2C443.027 129.712 451.569 138.233 462.105 138.233Z" fill="#476983"/>
<path opacity="0.8" fill-rule="evenodd" clip-rule="evenodd" d="M455.527 116.578C456.404 113.079 458.599 111.328 462.106 111.328C467.368 111.328 468.026 115.264 470.66 115.921C472.415 116.359 473.951 115.702 475.263 113.95C474.386 117.449 472.191 119.2 468.684 119.2C463.422 119.2 462.764 115.264 460.131 114.607C458.375 114.169 456.839 114.826 455.527 116.578ZM448.948 124.45C449.825 120.952 452.02 119.2 455.527 119.2C460.789 119.2 461.447 123.136 464.081 123.793C465.836 124.231 467.372 123.574 468.684 121.823C467.807 125.321 465.612 127.073 462.106 127.073C456.843 127.073 456.185 123.136 453.552 122.48C451.796 122.046 450.26 122.703 448.948 124.45Z" fill="white"/>
</g>
<g opacity="0.9">
<path opacity="0.9" d="M500.567 176.179C511.104 176.179 519.645 167.658 519.645 157.146C519.645 146.634 511.104 138.113 500.567 138.113C490.03 138.113 481.489 146.634 481.489 157.146C481.489 167.658 490.03 176.179 500.567 176.179Z" fill="#476983"/>
<g opacity="0.9">
<path opacity="0.9" d="M489.017 165.698C489.017 167.337 490.352 168.669 491.995 168.669H509.134C510.778 168.669 512.113 167.337 512.113 165.698V148.599C512.113 146.959 510.778 145.628 509.134 145.628H491.995C490.352 145.628 489.017 146.959 489.017 148.599V165.698Z" stroke="white" stroke-miterlimit="10"/>
<path opacity="0.9" d="M498.596 155.819V152.557H501.476C501.749 152.557 502.014 152.58 502.269 152.624C502.524 152.669 502.748 152.75 502.945 152.87C503.142 152.986 503.299 153.152 503.415 153.357C503.532 153.567 503.59 153.831 503.59 154.157C503.59 154.742 503.415 155.167 503.062 155.426C502.708 155.685 502.26 155.814 501.709 155.814H498.596V155.819ZM495.52 150.172V164.12H502.296C502.923 164.12 503.532 164.044 504.127 163.888C504.723 163.732 505.251 163.49 505.713 163.164C506.174 162.838 506.546 162.418 506.819 161.904C507.092 161.39 507.231 160.783 507.231 160.077C507.231 159.206 507.02 158.459 506.595 157.838C506.17 157.217 505.529 156.788 504.665 156.538C505.292 156.239 505.767 155.855 506.085 155.386C506.402 154.916 506.564 154.331 506.564 153.625C506.564 152.973 506.456 152.428 506.241 151.986C506.026 151.543 505.722 151.186 505.332 150.922C504.942 150.659 504.472 150.462 503.921 150.346C503.375 150.23 502.766 150.172 502.099 150.172H495.52ZM498.596 161.739V157.91H501.946C502.614 157.91 503.147 158.062 503.554 158.37C503.957 158.678 504.163 159.188 504.163 159.903C504.163 160.269 504.101 160.568 503.975 160.801C503.85 161.033 503.684 161.221 503.474 161.359C503.263 161.498 503.021 161.591 502.748 161.654C502.475 161.712 502.188 161.743 501.888 161.743H498.596V161.739Z" fill="white"/>
</g>
</g>
<g opacity="0.4">
<path opacity="0.4" d="M419.887 171.591C430.424 171.591 438.965 163.069 438.965 152.557C438.965 142.046 430.424 133.524 419.887 133.524C409.35 133.524 400.808 142.046 400.808 152.557C400.808 163.069 409.35 171.591 419.887 171.591Z" fill="#476983"/>
<g opacity="0.4">
<path opacity="0.4" d="M419.887 140.758H414.53L419.887 153.393" fill="white"/>
<path opacity="0.4" d="M419.887 140.758H425.248L419.887 153.393" fill="white"/>
<path opacity="0.4" d="M419.887 157.039V166.81L408.458 144.547H414.445" fill="white"/>
<path opacity="0.4" d="M419.887 157.039V166.81L431.316 144.547H425.333" fill="white"/>
</g>
</g>
<g opacity="0.9">
<path opacity="0.9" d="M554.251 199.301C564.788 199.301 573.329 190.779 573.329 180.267C573.329 169.756 564.788 161.234 554.251 161.234C543.714 161.234 535.172 169.756 535.172 180.267C535.172 190.779 543.714 199.301 554.251 199.301Z" fill="#476983"/>
<g opacity="0.9">
<path opacity="0.9" d="M565.586 185.249L558.958 173.445C558.411 172.484 557.001 172.484 556.454 173.445L555.747 174.705L556.571 176.166L557.717 174.164L564.328 185.888H561.972C562.093 186.634 561.448 187.367 560.525 187.367H564.337C565.42 187.362 566.11 186.183 565.586 185.249Z" fill="white"/>
<path opacity="0.9" d="M549.584 185.888H544.192L552.334 171.434L554.981 176.085L555.751 174.709L553.436 170.608C552.943 169.737 551.712 169.741 551.223 170.612L542.911 185.437C542.423 186.304 543.068 187.367 544.08 187.367H551.035C550.108 187.362 549.459 186.634 549.584 185.888Z" fill="white"/>
<path opacity="0.9" d="M561.967 185.888C561.945 185.754 561.9 185.62 561.829 185.49L556.571 176.166L555.747 174.705L554.977 176.081L549.723 185.49C549.652 185.62 549.607 185.754 549.584 185.884C549.464 186.63 550.108 187.362 551.031 187.362H551.291H560.521C561.443 187.362 562.088 186.634 561.967 185.888ZM551.094 185.888L555.787 177.596L560.454 185.888H551.094Z" fill="white"/>
</g>
</g>
<g opacity="0.8">
<path opacity="0.8" d="M535.173 255.167C545.709 255.167 554.251 246.646 554.251 236.134C554.251 225.622 545.709 217.101 535.173 217.101C524.636 217.101 516.094 225.622 516.094 236.134C516.094 246.646 524.636 255.167 535.173 255.167Z" fill="#476983"/>
<g opacity="0.8">
<path opacity="0.8" d="M542.571 227.296L535.172 240.075L527.778 227.296H522.848L535.172 248.595L547.502 227.296H542.571Z" fill="white"/>
<g opacity="0.8">
<path opacity="0.8" d="M538.021 227.296L535.172 232.216L532.324 227.296H527.774L535.168 240.075L542.562 227.296H538.021Z" fill="white"/>
</g>
</g>
</g>
<g opacity="0.2">
<path opacity="0.2" d="M587.634 237.461C598.17 237.461 606.712 228.939 606.712 218.428C606.712 207.916 598.17 199.394 587.634 199.394C577.097 199.394 568.555 207.916 568.555 218.428C568.555 228.939 577.097 237.461 587.634 237.461Z" fill="#476983"/>
<path opacity="0.5" fill-rule="evenodd" clip-rule="evenodd" d="M597.997 210.376L587.876 228.364L577.248 210.376H575.533L587.714 231.416L599.887 210.376H597.997V210.376Z" fill="white"/>
<path opacity="0.69" d="M575.282 206.954H599.976L587.589 228.36L575.282 206.954Z" fill="white"/>
<path opacity="0.2" fill-rule="evenodd" clip-rule="evenodd" d="M595.386 211.9L587.643 225.29L579.886 211.9H574.722L587.638 234.213L600.541 211.9H595.386V211.9Z" fill="white"/>
<path opacity="0.2" fill-rule="evenodd" clip-rule="evenodd" d="M584.427 209.429H588.717C589.501 209.429 590.133 209.608 590.616 209.97C591.096 210.323 591.324 210.868 591.324 211.596C591.324 212.052 591.221 212.427 591.006 212.745C590.791 213.062 590.473 213.299 590.07 213.477V213.504C590.612 213.616 591.019 213.87 591.31 214.273C591.588 214.666 591.727 215.171 591.727 215.76C591.727 216.113 591.664 216.431 591.539 216.734C591.413 217.038 591.221 217.288 590.957 217.503C590.692 217.731 590.361 217.896 589.945 218.021C589.541 218.16 589.044 218.222 588.476 218.222H584.427V209.429ZM585.972 213.115H588.489C588.856 213.115 589.174 213.004 589.412 212.798C589.662 212.584 589.779 212.28 589.779 211.891C589.779 211.449 589.676 211.136 589.452 210.944C589.237 210.765 588.91 210.68 588.489 210.68H585.972V213.115V213.115ZM585.972 216.962H588.704C589.174 216.962 589.537 216.837 589.792 216.596C590.043 216.355 590.186 216.015 590.186 215.573C590.186 215.13 590.061 214.804 589.792 214.563C589.528 214.322 589.174 214.21 588.704 214.21H585.972V216.962Z" fill="white"/>
</g>
<g opacity="0.7">
<path opacity="0.7" d="M431.477 284.36C442.014 284.36 450.556 275.839 450.556 265.327C450.556 254.815 442.014 246.294 431.477 246.294C420.94 246.294 412.399 254.815 412.399 265.327C412.399 275.839 420.94 284.36 431.477 284.36Z" fill="#476983"/>
<path opacity="0.7" d="M423.962 258.746L430.546 252.241L438.746 260.359L433.999 265.327L440.582 271.989L430.438 278.414L422.372 269.943L423.962 258.746Z" fill="white"/>
</g>
<g opacity="0.2">
<path opacity="0.2" d="M378.541 193.309C388.024 193.309 395.712 185.64 395.712 176.179C395.712 166.719 388.024 159.049 378.541 159.049C369.058 159.049 361.37 166.719 361.37 176.179C361.37 185.64 369.058 193.309 378.541 193.309Z" fill="#476983"/>
<path opacity="0.5" fill-rule="evenodd" clip-rule="evenodd" d="M387.865 168.932L378.756 185.119L369.19 168.932H367.649L378.613 187.867L389.567 168.932H387.865Z" fill="white"/>
<path opacity="0.69" d="M367.421 165.854H389.648L378.501 185.119L367.421 165.854Z" fill="white"/>
<path opacity="0.2" fill-rule="evenodd" clip-rule="evenodd" d="M385.514 170.308L378.545 182.363L371.563 170.308H366.919L378.545 190.392L390.158 170.308H385.514Z" fill="white"/>
<path opacity="0.2" fill-rule="evenodd" clip-rule="evenodd" d="M375.652 168.079H379.513C380.221 168.079 380.789 168.24 381.219 168.566C381.654 168.883 381.855 169.375 381.855 170.031C381.855 170.442 381.766 170.782 381.569 171.063C381.376 171.349 381.089 171.564 380.727 171.72V171.743C381.215 171.845 381.582 172.073 381.842 172.435C382.093 172.788 382.218 173.244 382.218 173.775C382.218 174.093 382.16 174.379 382.048 174.651C381.936 174.924 381.761 175.152 381.524 175.344C381.286 175.549 380.991 175.697 380.615 175.808C380.252 175.933 379.804 175.992 379.293 175.992H375.648V168.079H375.652ZM377.041 171.399H379.307C379.638 171.399 379.92 171.296 380.14 171.113C380.368 170.92 380.471 170.648 380.471 170.295C380.471 169.897 380.382 169.611 380.176 169.442C379.983 169.281 379.688 169.205 379.311 169.205H377.045V171.399H377.041ZM377.041 174.861H379.499C379.92 174.861 380.252 174.749 380.48 174.531C380.709 174.312 380.834 174.008 380.834 173.61C380.834 173.212 380.722 172.918 380.48 172.703C380.243 172.489 379.92 172.386 379.499 172.386H377.041V174.861Z" fill="white"/>
</g>
<g opacity="0.3">
<path opacity="0.3" d="M568.555 294.516C578.039 294.516 585.726 286.847 585.726 277.386C585.726 267.925 578.039 260.256 568.555 260.256C559.072 260.256 551.385 267.925 551.385 277.386C551.385 286.847 559.072 294.516 568.555 294.516Z" fill="#476983"/>
<g opacity="0.3">
<path opacity="0.3" d="M558.165 285.08C558.165 286.559 559.366 287.752 560.844 287.752H576.268C577.75 287.752 578.946 286.554 578.946 285.08V269.692C578.946 268.213 577.746 267.021 576.268 267.021H560.844C559.361 267.021 558.165 268.218 558.165 269.692V285.08Z" stroke="white" stroke-miterlimit="10"/>
<path opacity="0.3" d="M566.782 276.189V273.253H569.375C569.621 273.253 569.859 273.276 570.087 273.316C570.316 273.356 570.517 273.432 570.696 273.535C570.871 273.642 571.014 273.785 571.117 273.973C571.225 274.16 571.274 274.402 571.274 274.692C571.274 275.219 571.117 275.599 570.799 275.836C570.481 276.068 570.078 276.189 569.581 276.189H566.782V276.189ZM564.014 271.109V283.663H570.114C570.678 283.663 571.229 283.592 571.762 283.453C572.295 283.315 572.774 283.096 573.191 282.801C573.607 282.506 573.939 282.131 574.185 281.666C574.431 281.202 574.557 280.657 574.557 280.022C574.557 279.236 574.364 278.566 573.984 278.007C573.603 277.449 573.021 277.06 572.246 276.837C572.81 276.568 573.236 276.22 573.522 275.8C573.809 275.38 573.952 274.848 573.952 274.218C573.952 273.633 573.854 273.142 573.661 272.739C573.468 272.342 573.195 272.02 572.842 271.779C572.488 271.538 572.067 271.368 571.574 271.261C571.081 271.153 570.535 271.104 569.935 271.104H564.014V271.109ZM566.782 281.519V278.074H569.796C570.396 278.074 570.875 278.213 571.243 278.485C571.605 278.762 571.789 279.222 571.789 279.866C571.789 280.192 571.735 280.464 571.623 280.674C571.511 280.884 571.364 281.054 571.176 281.175C570.987 281.3 570.768 281.385 570.522 281.438C570.275 281.492 570.016 281.519 569.747 281.519H566.782V281.519Z" fill="white"/>
</g>
</g>
<g opacity="0.9">
<path opacity="0.9" d="M545.684 149.653C554.113 149.653 560.946 142.836 560.946 134.427C560.946 126.017 554.113 119.2 545.684 119.2C537.254 119.2 530.421 126.017 530.421 134.427C530.421 142.836 537.254 149.653 545.684 149.653Z" fill="#476983"/>
<g opacity="0.9">
<path opacity="0.9" d="M549.419 134.489C549.419 133.506 550.225 132.707 551.223 132.707H553.852C554.847 132.707 555.68 133.502 555.68 134.489C555.68 135.472 554.847 136.272 553.852 136.272H551.223C550.225 136.272 549.419 135.477 549.419 134.489Z" fill="white"/>
<path opacity="0.9" d="M543.901 134.494C543.901 133.511 544.703 132.711 545.693 132.711C546.682 132.711 547.484 133.511 547.484 134.494C547.484 135.477 546.682 136.276 545.693 136.276C544.703 136.276 543.901 135.477 543.901 134.494Z" fill="white"/>
<path opacity="0.9" fill-rule="evenodd" clip-rule="evenodd" d="M547.435 126.161C547.476 127.122 546.728 127.93 545.765 127.971C541.604 128.145 539.069 131.389 539.19 134.476C539.231 135.436 538.496 136.245 537.533 136.285C536.57 136.326 535.724 135.548 535.684 134.588C535.482 129.561 539.692 124.593 545.621 124.499C546.58 124.454 547.395 125.201 547.435 126.161Z" fill="white"/>
<path opacity="0.9" fill-rule="evenodd" clip-rule="evenodd" d="M535.674 134.4C535.697 140.472 540.699 144.484 545.755 144.359C551.725 144.144 556.033 138.979 555.675 134.369C555.59 133.412 554.739 132.666 553.776 132.715C552.813 132.76 552.07 133.578 552.115 134.538C552.249 137.34 549.656 140.776 545.666 140.883C542.495 140.959 539.324 138.479 539.185 134.623C539.149 135.517 538.442 136.25 537.528 136.285C536.565 136.326 535.719 135.548 535.679 134.588C535.679 134.525 535.674 134.462 535.674 134.4Z" fill="url(#paint1_linear)"/>
</g>
</g>
<g opacity="0.25">
<path opacity="0.25" d="M389.285 247.867C397.715 247.867 404.548 241.049 404.548 232.64C404.548 224.231 397.715 217.413 389.285 217.413C380.856 217.413 374.022 224.231 374.022 232.64C374.022 241.049 380.856 247.867 389.285 247.867Z" fill="#476983"/>
<g opacity="0.25">
<path opacity="0.25" d="M395.201 225.567L389.285 235.79L383.369 225.567H379.424L389.285 242.608L399.147 225.567H395.201Z" fill="white"/>
<g opacity="0.8">
<path opacity="0.8" d="M391.565 225.567L389.285 229.504L387.006 225.567H383.365L389.281 235.79L395.197 225.567H391.565V225.567Z" fill="white"/>
</g>
</g>
</g>
<g opacity="0.2">
<path opacity="0.2" d="M374.022 292.295C382.452 292.295 389.285 285.478 389.285 277.069C389.285 268.659 382.452 261.842 374.022 261.842C365.593 261.842 358.76 268.659 358.76 277.069C358.76 285.478 365.593 292.295 374.022 292.295Z" fill="#476983"/>
<g opacity="0.2">
<path opacity="0.2" d="M383.087 281.054L377.784 271.614C377.35 270.845 376.217 270.845 375.782 271.614L375.214 272.623L375.872 273.789L376.79 272.19L382.079 281.568H380.194C380.292 282.167 379.773 282.748 379.038 282.748H382.088C382.957 282.748 383.508 281.8 383.087 281.054Z" fill="white"/>
<path opacity="0.2" d="M370.287 281.564H365.975L372.486 270.001L374.605 273.722L375.218 272.623L373.364 269.339C372.97 268.642 371.985 268.647 371.595 269.344L364.945 281.202C364.555 281.899 365.07 282.748 365.881 282.748H371.443C370.704 282.748 370.189 282.162 370.287 281.564Z" fill="white"/>
<path opacity="0.2" d="M380.194 281.564C380.176 281.456 380.14 281.349 380.082 281.246L375.872 273.789L375.214 272.623L374.6 273.722L370.395 281.246C370.336 281.349 370.301 281.456 370.283 281.564C370.184 282.162 370.704 282.743 371.438 282.743H371.644H379.029C379.773 282.743 380.292 282.162 380.194 281.564ZM371.496 281.564L375.249 274.929L378.98 281.564H371.496Z" fill="white"/>
</g>
</g>
<g opacity="0.1">
<path opacity="0.1" d="M599.645 189.766C607.021 189.766 613 183.801 613 176.443C613 169.085 607.021 163.12 599.645 163.12C592.269 163.12 586.29 169.085 586.29 176.443C586.29 183.801 592.269 189.766 599.645 189.766Z" fill="#476983"/>
<path opacity="0.1" fill-rule="evenodd" clip-rule="evenodd" d="M595.037 174.602C595.65 172.154 597.186 170.925 599.64 170.925C603.326 170.925 603.788 173.682 605.628 174.142C606.855 174.45 607.93 173.99 608.853 172.766C608.239 175.214 606.703 176.443 604.249 176.443C600.563 176.443 600.102 173.686 598.261 173.226C597.034 172.918 595.959 173.378 595.037 174.602ZM590.433 180.115C591.046 177.667 592.582 176.438 595.037 176.438C598.722 176.438 599.184 179.195 601.024 179.655C602.251 179.963 603.326 179.503 604.249 178.279C603.635 180.727 602.099 181.956 599.645 181.956C595.959 181.956 595.498 179.199 593.657 178.739C592.43 178.431 591.355 178.891 590.433 180.115Z" fill="white"/>
</g>
<g opacity="0.1">
<path opacity="0.1" d="M591.727 149.609C599.103 149.609 605.082 143.644 605.082 136.285C605.082 128.927 599.103 122.962 591.727 122.962C584.351 122.962 578.372 128.927 578.372 136.285C578.372 143.644 584.351 149.609 591.727 149.609Z" fill="#476983"/>
<g opacity="0.1">
<path opacity="0.1" d="M596.904 130.093L591.727 139.042L586.55 130.093H583.102L591.727 145.007L600.357 130.093H596.904Z" fill="white"/>
<g opacity="0.8">
<path opacity="0.8" d="M593.72 130.093L591.727 133.538L589.734 130.093H586.55L591.727 139.038L596.904 130.093H593.72Z" fill="white"/>
</g>
</g>
</g>
<g opacity="0.9">
<path opacity="0.9" d="M513.407 124.647C520.783 124.647 526.762 118.682 526.762 111.323C526.762 103.965 520.783 98 513.407 98C506.031 98 500.052 103.965 500.052 111.323C500.052 118.682 506.031 124.647 513.407 124.647Z" fill="#476983"/>
<g opacity="0.9">
<path opacity="0.9" d="M513.407 103.067H509.654L513.407 111.909" fill="white"/>
<path opacity="0.9" d="M513.407 103.067H517.156L513.407 111.909" fill="white"/>
<path opacity="0.9" d="M513.407 114.46V121.305L505.404 105.721H509.596" fill="white"/>
<path opacity="0.9" d="M513.407 114.464V121.305L521.406 105.721H517.214" fill="white"/>
</g>
</g>
<g opacity="0.3">
<path opacity="0.15" d="M361.371 152.365C368.746 152.365 374.725 146.4 374.725 139.042C374.725 131.684 368.746 125.719 361.371 125.719C353.995 125.719 348.016 131.684 348.016 139.042C348.016 146.4 353.995 152.365 361.371 152.365Z" fill="#476983"/>
<path opacity="0.15" d="M356.108 134.431L360.717 129.878L366.458 135.562L363.135 139.042L367.744 143.702L360.641 148.201L354.998 142.272L356.108 134.431Z" fill="white"/>
</g>
<path opacity="0.81" d="M476.663 333.587C555.134 333.587 618.747 269.974 618.747 191.503C618.747 113.033 555.134 49.42 476.663 49.42C398.193 49.42 334.58 113.033 334.58 191.503C334.58 269.974 398.193 333.587 476.663 333.587Z" fill="url(#paint2_radial)"/>
</g>
<path d="M486.379 136.934H483.509V155.775H486.379V136.934Z" fill="#243746"/>
<path d="M488.622 135.677C488.622 137.707 486.976 139.353 484.946 139.353C482.915 139.353 481.269 137.707 481.269 135.677C481.269 133.646 482.915 132 484.946 132C486.976 132 488.622 133.646 488.622 135.677Z" fill="#101F2B"/>
<path d="M487.5 134.244C487.5 134.865 487 135.366 486.378 135.366C485.757 135.366 485.256 134.865 485.256 134.244C485.256 133.623 485.757 133.122 486.378 133.122C487 133.122 487.5 133.623 487.5 134.244Z" fill="white"/>
<path d="M496.779 157.464C496.686 157.476 496.628 156.94 496.181 156.109C496.181 156.109 495.972 155.721 495.731 155.391C494.958 154.331 492.35 154.354 492.144 154.354C488.075 154.389 485.458 154.133 485.458 154.156C485.458 154.176 487.368 154.137 488.766 154.11C492.711 154.028 495.059 153.819 496.069 154.875C496.488 155.313 496.698 155.884 496.698 155.884C496.985 156.661 496.888 157.449 496.779 157.464Z" fill="white"/>
<path opacity="0.59" d="M486.382 288C502.264 288 515.139 282.73 515.139 276.229C515.139 269.728 502.264 264.458 486.382 264.458C470.501 264.458 457.626 269.728 457.626 276.229C457.626 282.73 470.501 288 486.382 288Z" fill="#243746"/>
<path d="M450.395 257.959C450.473 243.971 448.648 241.164 451.52 237.903C451.85 237.529 453.533 235.619 456.239 235.187C458.393 234.843 460.322 235.576 461.231 236.12C466.747 239.425 464.754 253.123 460.857 261.707C460.008 263.578 457.727 268.599 455.105 268.413C454.031 268.335 453.258 267.413 452.717 266.746C450.317 263.804 450.382 260.069 450.395 257.959Z" fill="#243746"/>
<path d="M494.475 166.381H474.648C473.184 166.381 472 165.197 472 163.733V156.648C472 155.184 473.184 154 474.648 154H494.475C495.939 154 497.123 155.184 497.123 156.648V163.733C497.119 165.197 495.935 166.381 494.475 166.381Z" fill="#101F2B"/>
<path d="M529.892 207.36C529.892 218.805 520.613 228.084 509.168 228.084H460.724C449.325 228.084 440 218.759 440 207.36V196.594C440 176.313 456.593 159.72 476.874 159.72H493.025C513.306 159.72 529.899 176.313 529.899 196.594V207.36H529.892Z" fill="#243746"/>
<path d="M515.752 205.399C514.576 205.982 513.256 206.285 511.916 206.285H457.971C456.632 206.285 455.312 205.982 454.136 205.399C451.247 203.971 449.617 201.086 450.024 198.128L450.055 197.914C451.438 187.894 460.514 180.188 471.641 179.609C476.35 179.364 481.289 179.236 486.441 179.267C490.478 179.291 494.38 179.411 498.138 179.601C509.308 180.176 518.45 187.851 519.836 197.91C519.848 197.984 519.856 198.054 519.867 198.128C520.275 201.086 518.641 203.971 515.752 205.399Z" fill="#101F2B"/>
<rect x="470.529" y="213.839" width="27.7294" height="3.64861" fill="white"/>
<path d="M516.618 171.514C516.668 173.23 515.267 175.284 513.66 175.463C512.153 175.626 510.954 174.088 509.711 172.504C508.488 170.94 505.817 166.925 506.881 165.792C508.287 164.289 516.502 167.465 516.618 171.514Z" fill="white"/>
<path d="M502.867 164.969C503.572 164.969 504.144 164.397 504.144 163.691C504.144 162.986 503.572 162.414 502.867 162.414C502.161 162.414 501.59 162.986 501.59 163.691C501.59 164.397 502.161 164.969 502.867 164.969Z" fill="white"/>
<path d="M516.436 195.336C516.024 195.628 513.167 189.8 505.491 184.749C502.793 182.975 500.13 181.709 500.289 181.341C500.448 180.968 503.449 181.663 505.852 182.777C513.5 186.329 516.925 194.995 516.436 195.336Z" fill="white"/>
<path d="M517.166 240.915C517.166 241.039 517.166 241.156 517.162 241.272C517.119 242.402 516.855 243.252 516.727 243.636C513.019 254.969 510.795 260.944 507.677 265.777C507.137 266.612 506.575 267.412 505.965 268.2C505.169 269.248 504.296 270.273 503.329 271.329C501.174 273.67 497.921 274.73 496.869 275.099C493.029 276.454 489.64 276.209 487.384 276.229H486.992C484.732 276.205 481.347 276.454 477.507 275.099C476.459 274.734 473.194 273.674 471.047 271.329C465.127 264.884 462.848 259.531 457.649 243.64C457.525 243.275 457.277 242.483 457.218 241.424C457.203 241.117 457.195 240.81 457.214 240.503C457.327 238.605 458.096 236.741 459.466 235.041C461.807 232.125 465.426 230.526 469.168 230.51L487.194 230.437L504.893 230.367C508.714 230.351 512.417 231.955 514.848 234.909C516.02 236.342 516.77 237.887 517.045 239.478C517.084 239.704 517.115 239.937 517.138 240.162C517.15 240.402 517.166 240.659 517.166 240.915Z" fill="#243746"/>
<path d="M487.186 230.425L469.16 230.499C465.418 230.514 461.803 232.114 459.458 235.029C458.092 236.73 457.323 238.593 457.207 240.492C457.3 238.543 458.1 236.633 459.528 234.893C461.951 231.939 465.658 230.336 469.483 230.351L487.186 230.425Z" fill="url(#paint3_linear)"/>
<path d="M505.103 256.984C504.839 243 502.948 240.236 505.74 236.908C506.062 236.528 507.696 234.575 510.387 234.078C512.534 233.682 514.479 234.369 515.399 234.89C520.993 238.061 519.336 251.805 515.647 260.478C514.844 262.369 512.689 267.443 510.061 267.323C508.985 267.272 508.189 266.368 507.634 265.715C505.169 262.831 505.142 259.092 505.103 256.984Z" fill="#243746"/>
<path d="M507.673 265.774C507.134 266.608 506.571 267.408 505.961 268.196C505.767 267.998 505.596 267.796 505.441 267.614C502.975 264.729 502.948 260.994 502.909 258.882C502.645 244.898 500.751 242.138 503.546 238.811C503.752 238.562 504.497 237.673 505.716 236.936C502.96 240.251 504.839 243.039 505.103 256.98C505.142 259.088 505.173 262.827 507.634 265.715C507.65 265.735 507.665 265.754 507.673 265.774Z" fill="#101F2B"/>
<path d="M515.566 245.341C515.488 243.838 515.205 242.732 514.642 240.523C513.904 237.631 512.98 236.221 513.582 235.662C513.974 235.297 514.743 235.546 514.918 235.6C517.561 236.443 518.381 241.4 518.264 244.506C518.194 246.405 517.732 248.532 517.034 248.625C516.925 248.641 516.649 248.625 516.455 248.454C515.679 247.767 515.628 246.482 515.566 245.341Z" fill="white"/>
<path d="M517.379 250.644C517.379 250.947 517.134 251.192 516.831 251.192C516.529 251.192 516.284 250.947 516.284 250.644C516.284 250.341 516.529 250.097 516.831 250.097C517.134 250.097 517.379 250.341 517.379 250.644Z" fill="white"/>
<path d="M470.767 197.955H476.352V200H478.705V197.955H480.148V195.983H478.705V188.364H475.625L470.767 196.017V197.955ZM476.398 195.983H473.244V195.892L476.307 191.045H476.398V195.983ZM486.349 200.256C489.276 200.256 491.043 198.028 491.048 194.193C491.054 190.386 489.264 188.205 486.349 188.205C483.429 188.205 481.656 190.381 481.651 194.193C481.639 198.017 483.418 200.25 486.349 200.256ZM486.349 198.216C485.014 198.216 484.151 196.875 484.156 194.193C484.162 191.551 485.02 190.222 486.349 190.222C487.673 190.222 488.537 191.551 488.537 194.193C488.543 196.875 487.679 198.216 486.349 198.216ZM492.626 197.955H498.212V200H500.564V197.955H502.007V195.983H500.564V188.364H497.484L492.626 196.017V197.955ZM498.257 195.983H495.104V195.892L498.166 191.045H498.257V195.983Z" fill="white"/>
<defs>
<linearGradient id="paint0_linear" x1="426.814" y1="215.338" x2="426.814" y2="200.778" gradientUnits="userSpaceOnUse">
<stop stop-color="white" stop-opacity="0.95"/>
<stop offset="1" stop-color="white" stop-opacity="0.5"/>
</linearGradient>
<linearGradient id="paint1_linear" x1="545.686" y1="144.362" x2="545.686" y2="132.713" gradientUnits="userSpaceOnUse">
<stop stop-color="white" stop-opacity="0.95"/>
<stop offset="1" stop-color="white" stop-opacity="0.5"/>
</linearGradient>
<radialGradient id="paint2_radial" cx="0" cy="0" r="1" gradientUnits="userSpaceOnUse" gradientTransform="translate(476.664 191.505) scale(142.083)">
<stop offset="0.0397" stop-color="white"/>
<stop offset="1" stop-color="#2B4152" stop-opacity="0.3"/>
</radialGradient>
<linearGradient id="paint3_linear" x1="465.554" y1="241.772" x2="493.494" y2="209.144" gradientUnits="userSpaceOnUse">
<stop offset="0.0397" stop-color="#44BFE2"/>
<stop offset="1" stop-color="#DCE38C"/>
</linearGradient>
</defs>
</svg>
