<svg width="600" height="400" viewBox="0 0 600 400" fill="none" xmlns="http://www.w3.org/2000/svg">
<rect width="600" height="401" fill="#878585"/>
<path opacity="0.59" d="M484.658 282.629C503.352 282.629 518.506 276.426 518.506 268.774C518.506 261.122 503.352 254.919 484.658 254.919C465.965 254.919 450.811 261.122 450.811 268.774C450.811 276.426 465.965 282.629 484.658 282.629Z" fill="#292728"/>
<path d="M442.3 247.27C442.392 230.805 440.244 227.502 443.624 223.663C444.013 223.223 445.993 220.975 449.178 220.467C451.714 220.062 453.984 220.925 455.055 221.565C461.547 225.455 459.201 241.577 454.614 251.682C453.614 253.884 450.93 259.793 447.844 259.575C446.58 259.483 445.669 258.397 445.033 257.612C442.208 254.149 442.284 249.753 442.3 247.27Z" fill="#6D6E71"/>
<path d="M520.891 227.209C520.891 227.355 520.891 227.492 520.887 227.629C520.836 228.959 520.526 229.959 520.375 230.412C516.011 243.751 513.392 250.783 509.723 256.473C509.088 257.455 508.425 258.396 507.708 259.324C506.771 260.558 505.743 261.764 504.605 263.007C502.069 265.763 498.239 267.01 497.001 267.444C492.482 269.039 488.492 268.751 485.837 268.774H485.376C482.716 268.747 478.732 269.039 474.212 267.444C472.978 267.015 469.135 265.767 466.608 263.007C459.64 255.422 456.957 249.12 450.838 230.416C450.692 229.987 450.4 229.055 450.331 227.807C450.313 227.446 450.304 227.085 450.327 226.724C450.459 224.49 451.364 222.296 452.977 220.295C455.733 216.863 459.991 214.98 464.397 214.962L485.613 214.875L506.447 214.793C510.943 214.775 515.303 216.662 518.163 220.139C519.543 221.825 520.425 223.644 520.75 225.518C520.795 225.783 520.832 226.057 520.859 226.322C520.873 226.605 520.891 226.907 520.891 227.209Z" fill="#6D6E71"/>
<path d="M485.604 214.861L464.387 214.948C459.982 214.966 455.728 216.849 452.968 220.281C451.359 222.282 450.454 224.476 450.317 226.71C450.427 224.417 451.368 222.168 453.05 220.121C455.901 216.644 460.266 214.756 464.767 214.775L485.604 214.861Z" fill="url(#paint0_linear)"/>
<path d="M506.693 246.122C506.383 229.663 504.157 226.409 507.443 222.493C507.822 222.045 509.746 219.746 512.913 219.161C515.44 218.695 517.729 219.504 518.812 220.116C525.397 223.85 523.446 240.026 519.104 250.235C518.159 252.461 515.622 258.433 512.529 258.291C511.263 258.232 510.326 257.167 509.673 256.4C506.771 253.004 506.739 248.604 506.693 246.122Z" fill="#6D6E71"/>
<path d="M509.718 256.468C509.083 257.451 508.421 258.392 507.703 259.32C507.475 259.087 507.274 258.849 507.091 258.634C504.189 255.239 504.157 250.843 504.111 248.357C503.801 231.897 501.571 228.648 504.861 224.732C505.103 224.439 505.98 223.393 507.415 222.525C504.171 226.427 506.382 229.708 506.693 246.118C506.739 248.599 506.775 253 509.673 256.4C509.691 256.422 509.709 256.445 509.718 256.468Z" fill="#292728"/>
<path d="M519.009 232.418C518.917 230.65 518.584 229.347 517.921 226.747C517.053 223.343 515.965 221.684 516.673 221.026C517.135 220.596 518.04 220.889 518.245 220.953C521.357 221.944 522.321 227.78 522.184 231.435C522.102 233.67 521.558 236.174 520.736 236.284C520.608 236.302 520.283 236.284 520.055 236.083C519.141 235.274 519.082 233.761 519.009 232.418Z" fill="white"/>
<path d="M521.142 238.66C521.142 239.017 520.855 239.304 520.498 239.304C520.142 239.304 519.854 239.017 519.854 238.66C519.854 238.304 520.142 238.016 520.498 238.016C520.855 238.016 521.142 238.304 521.142 238.66Z" fill="white"/>
<path d="M499.059 108.641L496.56 106.202L480.545 122.614L483.044 125.053L499.059 108.641Z" fill="#6D6E71"/>
<path d="M502.083 109.453C500.357 111.222 497.524 111.256 495.755 109.53C493.987 107.804 493.952 104.971 495.678 103.203C497.404 101.434 500.237 101.399 502.006 103.125C503.774 104.851 503.809 107.684 502.083 109.453Z" fill="#292828"/>
<path d="M502.323 107.251C501.795 107.792 500.934 107.803 500.392 107.275C499.851 106.747 499.841 105.885 500.369 105.344C500.897 104.803 501.759 104.792 502.3 105.32C502.841 105.848 502.851 106.71 502.323 107.251Z" fill="white"/>
<path d="M496.092 126.95C495.978 126.964 495.907 126.312 495.364 125.301C495.364 125.301 495.109 124.828 494.816 124.427C493.876 123.137 490.7 123.165 490.45 123.165C485.498 123.208 482.313 122.896 482.313 122.924C482.313 122.948 484.638 122.901 486.339 122.867C491.14 122.768 493.999 122.513 495.227 123.798C495.737 124.332 495.993 125.027 495.993 125.027C496.342 125.972 496.224 126.931 496.092 126.95Z" fill="white"/>
<path d="M493.758 137.558H469.626C467.845 137.558 466.404 136.117 466.404 134.335V125.712C466.404 123.931 467.845 122.49 469.626 122.49H493.758C495.539 122.49 496.98 123.931 496.98 125.712V134.335C496.976 136.117 495.534 137.558 493.758 137.558Z" fill="#292728"/>
<path d="M536.392 187.677C536.392 201.607 525.099 212.9 511.17 212.9H452.209C438.336 212.9 426.987 201.55 426.987 187.677V174.575C426.987 149.891 447.182 129.695 471.866 129.695H491.523C516.207 129.695 536.402 149.891 536.402 174.575V187.677H536.392Z" fill="#6D6E71"/>
<path d="M519.184 185.291C517.752 186 516.145 186.369 514.515 186.369H448.859C447.229 186.369 445.623 186 444.191 185.291C440.675 183.552 438.691 180.042 439.187 176.441L439.225 176.181C440.907 163.986 451.954 154.606 465.497 153.902C471.228 153.604 477.239 153.448 483.509 153.486C488.423 153.515 493.172 153.661 497.746 153.893C511.34 154.592 522.468 163.934 524.154 176.176C524.169 176.266 524.178 176.351 524.192 176.441C524.688 180.042 522.699 183.552 519.184 185.291Z" fill="#292728"/>
<path d="M464.386 183.68C471.223 183.68 476.766 178.137 476.766 171.3C476.766 164.463 471.223 158.92 464.386 158.92C457.549 158.92 452.006 164.463 452.006 171.3C452.006 178.137 457.549 183.68 464.386 183.68Z" fill="url(#paint1_radial)"/>
<path d="M464.386 180.188C469.295 180.188 473.274 176.209 473.274 171.3C473.274 166.391 469.295 162.412 464.386 162.412C459.478 162.412 455.498 166.391 455.498 171.3C455.498 176.209 459.478 180.188 464.386 180.188Z" fill="#EFF8FC"/>
<path d="M464.386 178.766C468.509 178.766 471.852 175.423 471.852 171.3C471.852 167.177 468.509 163.834 464.386 163.834C460.263 163.834 456.92 167.177 456.92 171.3C456.92 175.423 460.263 178.766 464.386 178.766Z" fill="#292728"/>
<path d="M469.168 169.368C469.168 170.894 467.93 172.132 466.404 172.132C464.878 172.132 463.64 170.894 463.64 169.368C463.64 167.841 464.878 166.603 466.404 166.603C467.93 166.599 469.168 167.837 469.168 169.368Z" fill="#EFF8FC"/>
<path d="M463.281 178.123C463.889 178.123 464.381 177.63 464.381 177.022C464.381 176.414 463.889 175.921 463.281 175.921C462.672 175.921 462.18 176.414 462.18 177.022C462.18 177.63 462.672 178.123 463.281 178.123Z" fill="#EFF8FC"/>
<path d="M460.545 175.368C460.545 175.671 460.299 175.921 459.992 175.921C459.689 175.921 459.439 175.676 459.439 175.368C459.439 175.066 459.685 174.816 459.992 174.816C460.299 174.816 460.545 175.061 460.545 175.368Z" fill="#EFF8FC"/>
<path d="M497.831 183.68C504.668 183.68 510.211 178.137 510.211 171.3C510.211 164.463 504.668 158.92 497.831 158.92C490.993 158.92 485.451 164.463 485.451 171.3C485.451 178.137 490.993 183.68 497.831 183.68Z" fill="url(#paint2_radial)"/>
<path d="M497.831 180.188C502.739 180.188 506.719 176.209 506.719 171.3C506.719 166.391 502.739 162.412 497.831 162.412C492.922 162.412 488.943 166.391 488.943 171.3C488.943 176.209 492.922 180.188 497.831 180.188Z" fill="#EFF8FC"/>
<path d="M497.831 178.766C501.954 178.766 505.296 175.423 505.296 171.3C505.296 167.177 501.954 163.834 497.831 163.834C493.708 163.834 490.365 167.177 490.365 171.3C490.365 175.423 493.708 178.766 497.831 178.766Z" fill="#292728"/>
<path d="M502.613 169.368C502.613 170.894 501.375 172.132 499.848 172.132C498.322 172.132 497.084 170.894 497.084 169.368C497.084 167.841 498.322 166.603 499.848 166.603C501.375 166.599 502.613 167.837 502.613 169.368Z" fill="#EFF8FC"/>
<path d="M496.73 178.123C497.338 178.123 497.831 177.63 497.831 177.022C497.831 176.414 497.338 175.921 496.73 175.921C496.122 175.921 495.629 176.414 495.629 177.022C495.629 177.63 496.122 178.123 496.73 178.123Z" fill="#EFF8FC"/>
<path d="M493.994 175.368C493.994 175.671 493.748 175.921 493.441 175.921C493.139 175.921 492.888 175.676 492.888 175.368C492.888 175.066 493.134 174.816 493.441 174.816C493.743 174.816 493.994 175.061 493.994 175.368Z" fill="#EFF8FC"/>
<path d="M520.237 144.05C520.299 146.139 518.593 148.638 516.637 148.856C514.803 149.054 513.343 147.183 511.831 145.255C510.343 143.351 507.092 138.465 508.387 137.085C510.097 135.257 520.096 139.122 520.237 144.05Z" fill="white"/>
<path d="M503.501 136.084C504.36 136.084 505.055 135.388 505.055 134.529C505.055 133.671 504.36 132.975 503.501 132.975C502.642 132.975 501.946 133.671 501.946 134.529C501.946 135.388 502.642 136.084 503.501 136.084Z" fill="white"/>
<path d="M520.015 173.044C519.514 173.398 516.037 166.306 506.695 160.158C503.411 157.999 500.17 156.458 500.363 156.01C500.557 155.556 504.21 156.402 507.134 157.758C516.443 162.081 520.611 172.628 520.015 173.044Z" fill="white"/>
<rect x="468.352" y="196.001" width="26.7792" height="4.54742" fill="#292728"/>
<defs>
<linearGradient id="paint0_linear" x1="460.142" y1="228.217" x2="493.03" y2="189.813" gradientUnits="userSpaceOnUse">
<stop offset="0.0397" stop-color="#44BFE2"/>
<stop offset="1" stop-color="#DCE38C"/>
</linearGradient>
<radialGradient id="paint1_radial" cx="0" cy="0" r="1" gradientUnits="userSpaceOnUse" gradientTransform="translate(464.385 171.299) scale(12.2528)">
<stop offset="0.1296" stop-color="#333132"/>
<stop offset="1" stop-color="#020203"/>
</radialGradient>
<radialGradient id="paint2_radial" cx="0" cy="0" r="1" gradientUnits="userSpaceOnUse" gradientTransform="translate(497.831 171.299) scale(12.2528)">
<stop offset="0.1296" stop-color="#333132"/>
<stop offset="1" stop-color="#020203"/>
</radialGradient>
</defs>
</svg>
