<svg width="600" height="400" viewBox="0 0 600 400" fill="none" xmlns="http://www.w3.org/2000/svg">
<rect width="600" height="401" fill="#AAAAAA"/>
<path opacity="0.59" d="M485.17 282.629C503.863 282.629 519.017 276.426 519.017 268.774C519.017 261.122 503.863 254.919 485.17 254.919C466.476 254.919 451.322 261.122 451.322 268.774C451.322 276.426 466.476 282.629 485.17 282.629Z" fill="#414042"/>
<path d="M442.811 247.27C442.904 230.805 440.755 227.502 444.136 223.663C444.524 223.223 446.505 220.975 449.69 220.467C452.226 220.062 454.496 220.925 455.566 221.565C462.059 225.455 459.713 241.577 455.125 251.682C454.126 253.884 451.442 259.793 448.356 259.575C447.092 259.483 446.181 258.397 445.545 257.612C442.72 254.149 442.796 249.753 442.811 247.27Z" fill="#BCBEC0"/>
<path d="M521.403 227.209C521.403 227.355 521.403 227.492 521.398 227.629C521.348 228.959 521.037 229.959 520.886 230.412C516.522 243.751 513.904 250.783 510.235 256.473C509.599 257.455 508.937 258.396 508.219 259.324C507.283 260.558 506.254 261.764 505.117 263.007C502.58 265.763 498.751 267.01 497.513 267.444C492.993 269.039 489.004 268.751 486.349 268.774H485.887C483.228 268.747 479.243 269.039 474.724 267.444C473.49 267.015 469.647 265.767 467.12 263.007C460.151 255.422 457.469 249.12 451.35 230.416C451.204 229.987 450.911 229.055 450.843 227.807C450.824 227.446 450.815 227.085 450.838 226.724C450.971 224.49 451.875 222.296 453.489 220.295C456.244 216.863 460.503 214.98 464.908 214.962L486.125 214.875L506.958 214.793C511.455 214.775 515.814 216.662 518.675 220.139C520.055 221.825 520.937 223.644 521.261 225.518C521.307 225.783 521.343 226.057 521.371 226.322C521.384 226.605 521.403 226.907 521.403 227.209Z" fill="#BCBEC0"/>
<path d="M486.116 214.861L464.899 214.948C460.494 214.966 456.239 216.849 453.479 220.281C451.871 222.282 450.966 224.476 450.829 226.71C450.939 224.417 451.88 222.168 453.562 220.121C456.413 216.644 460.777 214.756 465.278 214.775L486.116 214.861Z" fill="url(#paint0_linear)"/>
<path d="M507.205 246.122C506.894 229.663 504.669 226.409 507.954 222.493C508.333 222.045 510.257 219.746 513.424 219.161C515.951 218.695 518.241 219.504 519.324 220.116C525.908 223.85 523.957 240.026 519.616 250.235C518.67 252.461 516.134 258.433 513.04 258.291C511.774 258.232 510.838 257.167 510.184 256.4C507.282 253.004 507.25 248.604 507.205 246.122Z" fill="#BCBEC0"/>
<path d="M510.23 256.468C509.595 257.451 508.932 258.392 508.215 259.32C507.986 259.087 507.785 258.849 507.602 258.634C504.701 255.239 504.669 250.843 504.623 248.357C504.312 231.897 502.082 228.648 505.372 224.732C505.615 224.439 506.492 223.393 507.927 222.525C504.682 226.427 506.894 229.708 507.205 246.118C507.25 248.599 507.287 253 510.184 256.4C510.203 256.422 510.221 256.445 510.23 256.468Z" fill="#414042"/>
<path d="M519.52 232.418C519.429 230.65 519.095 229.347 518.433 226.747C517.564 223.343 516.477 221.684 517.185 221.026C517.647 220.596 518.551 220.889 518.757 220.953C521.869 221.944 522.833 227.78 522.696 231.435C522.614 233.67 522.07 236.174 521.247 236.284C521.119 236.302 520.795 236.284 520.567 236.083C519.653 235.274 519.593 233.761 519.52 232.418Z" fill="white"/>
<path d="M521.654 238.66C521.654 239.017 521.366 239.304 521.01 239.304C520.653 239.304 520.365 239.017 520.365 238.66C520.365 238.304 520.653 238.016 521.01 238.016C521.366 238.016 521.654 238.304 521.654 238.66Z" fill="white"/>
<path d="M499.073 108.641L496.574 106.202L480.558 122.614L483.058 125.053L499.073 108.641Z" fill="#BCBEC0"/>
<path d="M502.097 109.453C500.371 111.222 497.538 111.256 495.769 109.53C494 107.804 493.965 104.971 495.691 103.203C497.417 101.434 500.25 101.399 502.019 103.125C503.788 104.851 503.822 107.684 502.097 109.453Z" fill="#414042"/>
<path d="M502.337 107.251C501.809 107.792 500.947 107.803 500.406 107.275C499.865 106.747 499.854 105.885 500.382 105.344C500.91 104.803 501.772 104.792 502.313 105.32C502.854 105.848 502.865 106.71 502.337 107.251Z" fill="white"/>
<path d="M496.105 126.95C495.992 126.964 495.921 126.312 495.377 125.301C495.377 125.301 495.122 124.828 494.829 124.427C493.889 123.137 490.714 123.165 490.463 123.165C485.511 123.208 482.327 122.896 482.327 122.924C482.327 122.948 484.651 122.901 486.352 122.867C491.153 122.768 494.012 122.513 495.24 123.798C495.751 124.332 496.006 125.027 496.006 125.027C496.356 125.972 496.237 126.931 496.105 126.95Z" fill="white"/>
<path d="M493.771 137.558H469.64C467.858 137.558 466.417 136.117 466.417 134.335V125.712C466.417 123.931 467.858 122.49 469.64 122.49H493.771C495.552 122.49 496.994 123.931 496.994 125.712V134.335C496.989 136.117 495.548 137.558 493.771 137.558Z" fill="#414042"/>
<path d="M536.406 187.677C536.406 201.607 525.113 212.9 511.183 212.9H452.223C438.35 212.9 427 201.55 427 187.677V174.575C427 149.891 447.195 129.695 471.879 129.695H491.536C516.22 129.695 536.415 149.891 536.415 174.575V187.677H536.406Z" fill="#BCBEC0"/>
<path d="M519.197 185.291C517.765 186 516.159 186.369 514.529 186.369H448.873C447.243 186.369 445.636 186 444.204 185.291C440.689 183.552 438.704 180.042 439.2 176.441L439.238 176.181C440.92 163.986 451.968 154.606 465.51 153.902C471.242 153.604 477.252 153.448 483.522 153.486C488.436 153.515 493.185 153.661 497.759 153.893C511.353 154.592 522.481 163.934 524.168 176.176C524.182 176.266 524.191 176.351 524.206 176.441C524.702 180.042 522.712 183.552 519.197 185.291Z" fill="#414042"/>
<path d="M464.4 183.68C471.237 183.68 476.779 178.137 476.779 171.3C476.779 164.463 471.237 158.92 464.4 158.92C457.562 158.92 452.02 164.463 452.02 171.3C452.02 178.137 457.562 183.68 464.4 183.68Z" fill="url(#paint1_radial)" fill-opacity="0.3"/>
<path d="M464.4 180.188C469.308 180.188 473.288 176.209 473.288 171.3C473.288 166.391 469.308 162.412 464.4 162.412C459.491 162.412 455.512 166.391 455.512 171.3C455.512 176.209 459.491 180.188 464.4 180.188Z" fill="#EFF8FC"/>
<path d="M464.399 178.766C468.523 178.766 471.865 175.423 471.865 171.3C471.865 167.177 468.523 163.834 464.399 163.834C460.276 163.834 456.934 167.177 456.934 171.3C456.934 175.423 460.276 178.766 464.399 178.766Z" fill="#414042"/>
<path d="M469.181 169.368C469.181 170.894 467.943 172.132 466.417 172.132C464.891 172.132 463.653 170.894 463.653 169.368C463.653 167.841 464.891 166.603 466.417 166.603C467.943 166.599 469.181 167.837 469.181 169.368Z" fill="#EFF8FC"/>
<path d="M463.294 178.123C463.902 178.123 464.395 177.63 464.395 177.022C464.395 176.414 463.902 175.921 463.294 175.921C462.686 175.921 462.193 176.414 462.193 177.022C462.193 177.63 462.686 178.123 463.294 178.123Z" fill="#EFF8FC"/>
<path d="M460.558 175.368C460.558 175.671 460.312 175.921 460.005 175.921C459.703 175.921 459.452 175.676 459.452 175.368C459.452 175.066 459.698 174.816 460.005 174.816C460.312 174.816 460.558 175.061 460.558 175.368Z" fill="#EFF8FC"/>
<path d="M497.844 183.68C504.681 183.68 510.224 178.137 510.224 171.3C510.224 164.463 504.681 158.92 497.844 158.92C491.007 158.92 485.464 164.463 485.464 171.3C485.464 178.137 491.007 183.68 497.844 183.68Z" fill="url(#paint2_radial)" fill-opacity="0.3"/>
<path d="M497.844 180.188C502.753 180.188 506.732 176.209 506.732 171.3C506.732 166.391 502.753 162.412 497.844 162.412C492.935 162.412 488.956 166.391 488.956 171.3C488.956 176.209 492.935 180.188 497.844 180.188Z" fill="#EFF8FC"/>
<path d="M497.844 178.766C501.967 178.766 505.31 175.423 505.31 171.3C505.31 167.177 501.967 163.834 497.844 163.834C493.721 163.834 490.378 167.177 490.378 171.3C490.378 175.423 493.721 178.766 497.844 178.766Z" fill="#414042"/>
<path d="M502.626 169.368C502.626 170.894 501.388 172.132 499.862 172.132C498.336 172.132 497.098 170.894 497.098 169.368C497.098 167.841 498.336 166.603 499.862 166.603C501.388 166.599 502.626 167.837 502.626 169.368Z" fill="#EFF8FC"/>
<path d="M496.743 178.123C497.351 178.123 497.844 177.63 497.844 177.022C497.844 176.414 497.351 175.921 496.743 175.921C496.135 175.921 495.642 176.414 495.642 177.022C495.642 177.63 496.135 178.123 496.743 178.123Z" fill="#EFF8FC"/>
<path d="M494.007 175.368C494.007 175.671 493.762 175.921 493.454 175.921C493.152 175.921 492.902 175.676 492.902 175.368C492.902 175.066 493.147 174.816 493.454 174.816C493.757 174.816 494.007 175.061 494.007 175.368Z" fill="#EFF8FC"/>
<path d="M520.251 144.05C520.312 146.139 518.606 148.638 516.65 148.856C514.817 149.054 513.357 147.183 511.845 145.255C510.356 143.351 507.105 138.465 508.4 137.085C510.11 135.257 520.109 139.122 520.251 144.05Z" fill="white"/>
<path d="M503.514 136.084C504.373 136.084 505.069 135.388 505.069 134.529C505.069 133.671 504.373 132.975 503.514 132.975C502.656 132.975 501.96 133.671 501.96 134.529C501.96 135.388 502.656 136.084 503.514 136.084Z" fill="white"/>
<path d="M520.029 173.044C519.528 173.398 516.05 166.306 506.708 160.158C503.424 157.999 500.183 156.458 500.377 156.01C500.57 155.556 504.223 156.402 507.148 157.758C516.456 162.081 520.624 172.628 520.029 173.044Z" fill="white"/>
<rect x="468.365" y="196.001" width="26.7792" height="4.54742" fill="#414042"/>
<defs>
<linearGradient id="paint0_linear" x1="460.654" y1="228.217" x2="493.541" y2="189.813" gradientUnits="userSpaceOnUse">
<stop offset="0.0397" stop-color="#44BFE2"/>
<stop offset="1" stop-color="#DCE38C"/>
</linearGradient>
<radialGradient id="paint1_radial" cx="0" cy="0" r="1" gradientUnits="userSpaceOnUse" gradientTransform="translate(464.398 171.299) scale(12.2528)">
<stop offset="0.1296" stop-color="#414042"/>
<stop offset="1" stop-color="#020203"/>
</radialGradient>
<radialGradient id="paint2_radial" cx="0" cy="0" r="1" gradientUnits="userSpaceOnUse" gradientTransform="translate(497.844 171.299) scale(12.2528)">
<stop offset="0.1296" stop-color="#414042"/>
<stop offset="1" stop-color="#020203"/>
</radialGradient>
</defs>
</svg>
