<svg width="21" height="22" viewBox="0 0 21 22" fill="none" xmlns="http://www.w3.org/2000/svg">
<path d="M10.3321 5.23412C13.1885 5.23412 15.5052 7.55173 15.5052 10.4072C15.5052 11.5717 15.1124 12.6995 14.3901 13.6128C13.7316 14.4464 13.4223 15.3414 13.4223 16.4026V17.0672C13.4223 17.2864 13.2439 17.4647 13.0247 17.4647H7.63949C7.42031 17.4647 7.24196 17.2864 7.24196 17.0672V16.4026C7.24196 15.3428 6.93125 14.4445 6.27417 13.6128C5.55185 12.699 5.15901 11.5721 5.15901 10.4072C5.15901 7.5522 7.47663 5.23412 10.3321 5.23412ZM10.3321 6.02918C7.91406 6.02918 5.95408 7.98869 5.95408 10.4072C5.95408 11.3971 6.28027 12.3461 6.89464 13.1228C7.66014 14.0911 8.03703 15.1678 8.03703 16.4026V16.6697H12.6272V16.4026C12.6272 15.1673 13.0036 14.092 13.7696 13.1228C14.3844 12.3451 14.7101 11.398 14.7101 10.4072C14.7101 7.98869 12.7516 6.02918 10.3321 6.02918Z" fill="white"/>
<path d="M13.7044 9.08179C13.7677 9.24466 13.6875 9.42911 13.5246 9.49247C13.3617 9.55583 13.1773 9.47557 13.1139 9.31271C12.6638 8.16939 11.5604 7.41938 10.3321 7.41938C10.1571 7.41938 10.0144 7.2767 10.0144 7.10164C10.0144 6.92657 10.1571 6.78389 10.3321 6.78389C11.8213 6.78389 13.1594 7.69629 13.7044 9.08179Z" fill="white"/>
<path d="M9.93459 0.397534C9.93459 0.17835 10.1129 0 10.3321 0C10.5513 0 10.7297 0.17835 10.7297 0.397534V3.1859C10.7297 3.40509 10.5513 3.58344 10.3321 3.58344C10.1129 3.58344 9.93459 3.40509 9.93459 3.1859V0.397534Z" fill="white"/>
<path d="M17.0756 3.02586C17.2305 2.87098 17.483 2.87098 17.6379 3.02586C17.7928 3.18074 17.7928 3.43325 17.6379 3.58813L15.6662 5.55985C15.5113 5.71473 15.2588 5.71473 15.1039 5.55985C14.949 5.40496 14.949 5.15246 15.1039 4.99757L17.0756 3.02586Z" fill="white"/>
<path d="M20.2667 9.93412C20.4859 9.93412 20.6643 10.1125 20.6643 10.3317C20.6643 10.5508 20.4859 10.7292 20.2667 10.7292H17.4779C17.2587 10.7292 17.0804 10.5508 17.0804 10.3317C17.0804 10.1125 17.2587 9.93412 17.4779 9.93412H20.2667Z" fill="white"/>
<path d="M17.6379 17.0752C17.7928 17.2301 17.7928 17.4826 17.6379 17.6375C17.483 17.7923 17.2305 17.7923 17.0756 17.6375L15.1039 15.6657C14.949 15.5109 14.949 15.2584 15.1039 15.1035C15.2588 14.9486 15.5113 14.9486 15.6662 15.1035L17.6379 17.0752Z" fill="white"/>
<path d="M3.02633 3.58813C2.87145 3.43325 2.87145 3.18074 3.02633 3.02586C3.18122 2.87098 3.43372 2.87098 3.58861 3.02586L5.56032 4.99757C5.7152 5.15246 5.7152 5.40496 5.56032 5.55985C5.40544 5.71473 5.15293 5.71473 4.99805 5.55985L3.02633 3.58813Z" fill="white"/>
<path d="M0.397534 10.7292C0.17835 10.7292 0 10.5508 0 10.3317C0 10.1125 0.17835 9.93412 0.397534 9.93412H3.18637C3.40556 9.93412 3.58391 10.1125 3.58391 10.3317C3.58391 10.5508 3.40556 10.7292 3.18637 10.7292H0.397534Z" fill="white"/>
<path d="M3.58861 17.6375C3.43372 17.7923 3.18122 17.7923 3.02633 17.6375C2.87145 17.4826 2.87145 17.2301 3.02633 17.0752L4.99805 15.1035C5.15293 14.9486 5.40544 14.9486 5.56032 15.1035C5.7152 15.2584 5.7152 15.5109 5.56032 15.6657L3.58861 17.6375Z" fill="white"/>
<path d="M7.8831 18.9343C7.59774 18.9343 7.36635 18.7029 7.36635 18.4175C7.36635 18.1321 7.59774 17.9008 7.8831 17.9008H12.7812C13.0665 17.9008 13.2979 18.1321 13.2979 18.4175C13.2979 18.7029 13.0665 18.9343 12.7812 18.9343H7.8831Z" fill="white"/>
<path d="M7.8831 20.3934C7.59774 20.3934 7.36635 20.1621 7.36635 19.8767C7.36635 19.5913 7.59774 19.36 7.8831 19.36H12.7812C13.0665 19.36 13.2979 19.5913 13.2979 19.8767C13.2979 20.1621 13.0665 20.3934 12.7812 20.3934H7.8831Z" fill="white"/>
<path fill-rule="evenodd" clip-rule="evenodd" d="M8.16281 20.8191H12.501L11.9912 21.9085C11.9645 21.9657 11.9105 22 11.8476 22H8.81614C8.75325 22 8.69927 21.9657 8.67252 21.9085L8.16281 20.8191Z" fill="white"/>
</svg>
