<svg width="217" height="374" viewBox="0 0 217 374" fill="none" xmlns="http://www.w3.org/2000/svg">
<path d="M142.642 24.1021L137.696 19.2755L106 51.7571L110.946 56.5837L142.642 24.1021Z" fill="#243746"/>
<path d="M148.627 25.7086C145.211 29.209 139.604 29.2777 136.103 25.8618C132.603 22.446 132.534 16.8388 135.95 13.3383C139.366 9.83785 144.973 9.76927 148.474 13.1851C151.974 16.601 152.043 22.2081 148.627 25.7086Z" fill="#101F2B"/>
<path d="M149.103 21.3512C148.058 22.4221 146.352 22.443 145.281 21.398C144.21 20.353 144.189 18.6471 145.234 17.5762C146.279 16.5053 147.985 16.4844 149.056 17.5294C150.127 18.5744 150.148 20.2803 149.103 21.3512Z" fill="white"/>
<path d="M136.769 60.338C136.545 60.366 136.404 59.0755 135.329 57.0742C135.329 57.0742 134.824 56.1391 134.244 55.3442C132.383 52.7911 126.099 52.8472 125.603 52.8472C115.803 52.9314 109.5 52.3142 109.5 52.3703C109.5 52.417 114.101 52.3235 117.467 52.2581C126.969 52.0617 132.626 51.5567 135.058 54.1004C136.068 55.1571 136.573 56.5318 136.573 56.5318C137.265 58.4022 137.031 60.3006 136.769 60.338Z" fill="white"/>
<path d="M132.149 81.3325H84.3901C80.8645 81.3325 78.0122 78.4803 78.0122 74.9547V57.8877C78.0122 54.3621 80.8645 51.5099 84.3901 51.5099H132.149C135.675 51.5099 138.527 54.3621 138.527 57.8877V74.9547C138.518 78.4803 135.666 81.3325 132.149 81.3325Z" fill="#101F2B"/>
<path d="M216.53 180.526C216.53 208.095 194.179 230.446 166.611 230.446H49.9196C22.4629 230.446 0 207.983 0 180.526V154.594C0 105.741 39.9693 65.7714 88.8227 65.7714H127.726C176.579 65.7714 216.549 105.741 216.549 154.594V180.526H216.53Z" fill="#243746"/>
<path d="M182.471 175.804C179.638 177.207 176.458 177.936 173.232 177.936H43.2893C40.0629 177.936 36.8833 177.207 34.0497 175.804C27.0921 172.362 23.1644 165.414 24.1463 158.288L24.2211 157.774C27.5503 133.637 49.4147 115.074 76.2167 113.68C87.5604 113.091 99.4558 112.782 111.866 112.857C121.591 112.913 130.99 113.203 140.042 113.662C166.947 115.046 188.971 133.534 192.309 157.764C192.337 157.942 192.356 158.11 192.384 158.288C193.366 165.414 189.429 172.362 182.471 175.804Z" fill="#101F2B"/>
<path d="M184.556 94.1819C184.678 98.3154 181.302 103.262 177.43 103.693C173.802 104.085 170.912 100.382 167.92 96.5666C164.974 92.7978 158.54 83.1281 161.102 80.3974C164.488 76.7783 184.276 84.4281 184.556 94.1819Z" fill="white"/>
<path d="M151.433 78.4148C153.132 78.4148 154.509 77.0373 154.509 75.3381C154.509 73.6389 153.132 72.2614 151.433 72.2614C149.733 72.2614 148.356 73.6389 148.356 75.3381C148.356 77.0373 149.733 78.4148 151.433 78.4148Z" fill="white"/>
<path d="M184.117 151.564C183.126 152.266 176.243 138.229 157.755 126.062C151.255 121.788 144.84 118.74 145.223 117.851C145.607 116.953 152.836 118.627 158.624 121.311C177.047 129.868 185.296 150.741 184.117 151.564Z" fill="white"/>
<path d="M69.7259 156.398H82.2926V161H87.5852V156.398H90.8324V151.962H87.5852V134.818H80.6562L69.7259 152.038V156.398ZM82.3949 151.962H75.2997V151.757L82.1903 140.852H82.3949V151.962ZM104.786 161.575C111.37 161.575 115.346 156.564 115.359 147.935C115.371 139.369 111.344 134.46 104.786 134.46C98.2152 134.46 94.2266 139.357 94.2138 147.935C94.1882 156.538 98.1896 161.562 104.786 161.575ZM104.786 156.986C101.782 156.986 99.8388 153.969 99.8516 147.935C99.8643 141.99 101.795 138.999 104.786 138.999C107.765 138.999 109.708 141.99 109.708 147.935C109.721 153.969 107.778 156.986 104.786 156.986ZM118.909 156.398H131.476V161H136.769V156.398H140.016V151.962H136.769V134.818H129.84L118.909 152.038V156.398ZM131.578 151.962H124.483V151.757L131.374 140.852H131.578V151.962Z" fill="white"/>
<rect x="81.8672" y="197" width="53" height="9" fill="white"/>
<path d="M114.418 3.4053C114.418 4.90158 113.212 6.10794 111.716 6.10794C110.22 6.10794 109.013 4.90158 109.013 3.4053C109.013 1.90902 110.22 0.702637 111.716 0.702637C113.212 0.702637 114.418 1.90902 114.418 3.4053Z" fill="white"/>
<path d="M136.769 59.338C136.545 59.366 136.404 58.0755 135.329 56.0742C135.329 56.0742 134.824 55.1391 134.244 54.3442C132.383 51.7911 126.099 51.8472 125.603 51.8472C115.803 51.9314 109.5 51.3142 109.5 51.3703C109.5 51.417 114.101 51.3235 117.467 51.2581C126.969 51.0617 132.626 50.5567 135.058 53.1004C136.068 54.1571 136.573 55.5318 136.573 55.5318C137.265 57.4022 137.031 59.3006 136.769 59.338Z" fill="white"/>
<path opacity="0.59" d="M111.725 373.771C149.981 373.771 180.994 361.077 180.994 345.417C180.994 329.757 149.981 317.062 111.725 317.062C73.4694 317.062 42.457 329.757 42.457 345.417C42.457 361.077 73.4694 373.771 111.725 373.771Z" fill="#243746"/>
<path d="M22.6702 295.812C27.4488 262.458 24.0146 255.161 31.9389 248.321C32.8489 247.537 37.4914 243.532 44.0902 243.391C49.3447 243.276 53.7066 245.659 55.6983 247.256C67.7758 256.954 58.5235 288.985 46.4047 308.191C43.7643 312.378 36.675 323.609 30.4788 322.306C27.9416 321.767 26.3982 319.312 25.3274 317.543C20.5659 309.734 21.9455 300.842 22.6702 295.812Z" fill="#243746"/>
<path d="M184.556 93.182C184.678 97.3154 181.302 102.262 177.43 102.693C173.802 103.085 170.912 99.3822 167.92 95.5667C164.974 91.7979 158.54 82.1282 161.102 79.3975C164.488 75.7784 184.276 83.4281 184.556 93.182Z" fill="white"/>
<path d="M151.433 77.4149C153.132 77.4149 154.509 76.0374 154.509 74.3382C154.509 72.6389 153.132 71.2615 151.433 71.2615C149.733 71.2615 148.356 72.6389 148.356 74.3382C148.356 76.0374 149.733 77.4149 151.433 77.4149Z" fill="white"/>
<path d="M185.875 260.353C185.875 260.653 185.875 260.933 185.866 261.214C185.763 263.935 185.127 265.983 184.818 266.909C175.888 294.207 170.529 308.599 163.019 320.242C161.72 322.253 160.364 324.179 158.895 326.077C156.978 328.602 154.874 331.071 152.546 333.615C147.355 339.254 139.519 341.807 136.984 342.695C127.735 345.959 119.571 345.37 114.138 345.417H113.193C107.751 345.361 99.5961 345.959 90.3472 342.695C87.8222 341.816 79.9574 339.263 74.7859 333.615C60.5245 318.091 55.0351 305.195 42.5131 266.918C42.2139 266.039 41.6153 264.132 41.475 261.579C41.4376 260.84 41.419 260.101 41.4657 259.362C41.7369 254.789 43.5886 250.3 46.8897 246.204C52.5288 239.181 61.2446 235.328 70.2597 235.291L113.68 235.113L156.314 234.945C165.516 234.907 174.438 238.77 180.292 245.886C183.116 249.337 184.921 253.059 185.585 256.893C185.679 257.436 185.754 257.997 185.81 258.539C185.838 259.119 185.875 259.736 185.875 260.353Z" fill="#243746"/>
<path d="M113.661 235.085L70.2412 235.263C61.2262 235.3 52.5197 239.153 46.8713 246.176C43.5794 250.272 41.7278 254.761 41.4473 259.334C41.6717 254.64 43.5981 250.038 47.0396 245.849C52.8751 238.732 61.806 234.87 71.0174 234.907L113.661 235.085Z" fill="url(#paint0_linear)"/>
<path d="M156.819 299.06C156.183 265.375 151.629 258.717 158.353 250.703C159.129 249.786 163.066 245.082 169.547 243.885C174.719 242.931 179.404 244.586 181.62 245.84C195.096 253.48 191.103 286.585 182.219 307.477C180.283 312.031 175.093 324.254 168.761 323.964C166.171 323.842 164.254 321.663 162.917 320.092C156.978 313.144 156.913 304.138 156.819 299.06Z" fill="#243746"/>
<path d="M163.01 320.233C161.71 322.243 160.354 324.17 158.886 326.068C158.419 325.591 158.007 325.105 157.633 324.665C151.695 317.717 151.629 308.721 151.536 303.633C150.9 269.948 146.336 263.299 153.069 255.285C153.565 254.686 155.36 252.545 158.297 250.768C151.657 258.754 156.183 265.469 156.819 299.051C156.913 304.129 156.988 313.135 162.917 320.092C162.954 320.139 162.992 320.186 163.01 320.233Z" fill="#1A2833"/>
<path d="M182.022 271.014C181.835 267.395 181.153 264.73 179.797 259.409C178.02 252.442 175.794 249.047 177.244 247.701C178.188 246.822 180.04 247.42 180.461 247.551C186.829 249.58 188.802 261.522 188.522 269.004C188.353 273.577 187.241 278.702 185.557 278.926C185.295 278.963 184.631 278.926 184.164 278.515C182.294 276.859 182.172 273.764 182.022 271.014Z" fill="white"/>
<path d="M186.39 283.789C186.39 284.518 185.801 285.108 185.071 285.108C184.342 285.108 183.752 284.518 183.752 283.789C183.752 283.059 184.342 282.47 185.071 282.47C185.801 282.47 186.39 283.059 186.39 283.789Z" fill="white"/>
<defs>
<linearGradient id="paint0_linear" x1="61.5541" y1="262.417" x2="128.857" y2="183.825" gradientUnits="userSpaceOnUse">
<stop offset="0.0397" stop-color="#44BFE2"/>
<stop offset="1" stop-color="#DCE38C"/>
</linearGradient>
</defs>
</svg>
