<svg width="1443" height="900" viewBox="0 0 1443 900" fill="none" xmlns="http://www.w3.org/2000/svg">
<path d="M1442 836C1372.9 837 1292.29 788 1158.11 784.5C930.791 784.5 760.921 849.732 608.844 851.5C399.901 853.93 234.758 678.284 0 696V0H1442V836Z" fill="#2B4152"/>
<path d="M397.469 803.075C444.918 784.176 497.588 765.918 548.313 753.952C512.366 743.797 475.277 734.154 436.536 725.889C285.602 693.687 223.653 701.755 162 712.324C221.446 727.999 277.457 752.078 332.701 775.826C354.355 785.135 375.891 794.393 397.469 803.075Z" fill="#506E85"/>
<path d="M1349.56 818.842C1384.29 828.548 1414.3 836.407 1442.4 836V803.981C1433.86 805.858 1398.71 813.236 1349.56 818.842Z" fill="#5C7B93"/>
<path d="M1015.44 792.695C936.758 775.046 774.048 741.863 655.624 740.033C579.057 738.849 480.05 769.928 397 802.993C465.541 830.58 534.508 852.367 609.049 851.5C676.278 850.718 746.982 837.54 824.588 823.076C883.698 812.059 946.813 800.295 1015.44 792.695Z" fill="#5C7B93"/>
<path d="M805.425 826.83C735.676 839.748 671.426 850.787 610.07 851.5C535.159 852.371 465.877 830.363 397 802.581C444.128 783.867 496.312 765.84 546.574 754C576.856 762.552 606.327 771.468 635.291 780.232C693.216 797.757 749.117 814.669 805.425 826.83Z" fill="#718DA3"/>
<path opacity="0.81" d="M1088 721C1265.28 721 1409 577.283 1409 400C1409 222.717 1265.28 79 1088 79C910.717 79 767 222.717 767 400C767 577.283 910.717 721 1088 721Z" fill="url(#paint0_radial)"/>
<path d="M1120.64 239.399L1115.7 234.573L1084 267.054L1088.95 271.881L1120.64 239.399Z" fill="#243746"/>
<path d="M1126.63 241.006C1123.21 244.506 1117.6 244.575 1114.1 241.159C1110.6 237.743 1110.53 232.136 1113.95 228.636C1117.37 225.135 1122.97 225.067 1126.47 228.482C1129.97 231.898 1130.04 237.505 1126.63 241.006Z" fill="#101F2B"/>
<path d="M1127.1 236.649C1126.06 237.719 1124.35 237.74 1123.28 236.695C1122.21 235.65 1122.19 233.944 1123.23 232.874C1124.28 231.803 1125.99 231.782 1127.06 232.827C1128.13 233.872 1128.15 235.578 1127.1 236.649Z" fill="white"/>
<path d="M1114.77 275.635C1114.54 275.663 1114.4 274.373 1113.33 272.372C1113.33 272.372 1112.82 271.436 1112.24 270.642C1110.38 268.089 1104.1 268.145 1103.6 268.145C1093.8 268.229 1087.5 267.612 1087.5 267.668C1087.5 267.714 1092.1 267.621 1095.47 267.555C1104.97 267.359 1110.63 266.854 1113.06 269.398C1114.07 270.454 1114.57 271.829 1114.57 271.829C1115.26 273.7 1115.03 275.598 1114.77 275.635Z" fill="white"/>
<path d="M1110.15 296.63H1062.39C1058.86 296.63 1056.01 293.778 1056.01 290.252V273.185C1056.01 269.66 1058.86 266.807 1062.39 266.807H1110.15C1113.68 266.807 1116.53 269.66 1116.53 273.185V290.252C1116.52 293.778 1113.67 296.63 1110.15 296.63Z" fill="#101F2B"/>
<path d="M1194.53 395.824C1194.53 423.393 1172.18 445.743 1144.61 445.743H1027.92C1000.46 445.743 978 423.281 978 395.824V369.891C978 321.038 1017.97 281.069 1066.82 281.069H1105.73C1154.58 281.069 1194.55 321.038 1194.55 369.891V395.824H1194.53Z" fill="#243746"/>
<path d="M1160.47 391.101C1157.64 392.504 1154.46 393.233 1151.23 393.233H1021.29C1018.06 393.233 1014.88 392.504 1012.05 391.101C1005.09 387.66 1001.16 380.711 1002.15 373.585L1002.22 373.071C1005.55 348.934 1027.41 330.371 1054.22 328.978C1065.56 328.388 1077.46 328.08 1089.87 328.155C1099.59 328.211 1108.99 328.501 1118.04 328.959C1144.95 330.343 1166.97 348.831 1170.31 373.062C1170.34 373.239 1170.36 373.408 1170.38 373.585C1171.37 380.711 1167.43 387.66 1160.47 391.101Z" fill="#101F2B"/>
<path d="M1162.56 309.479C1162.68 313.613 1159.3 318.56 1155.43 318.99C1151.8 319.383 1148.91 315.679 1145.92 311.864C1142.97 308.095 1136.54 298.425 1139.1 295.695C1142.49 292.076 1162.28 299.725 1162.56 309.479Z" fill="white"/>
<path d="M1129.43 293.712C1131.13 293.712 1132.51 292.335 1132.51 290.636C1132.51 288.936 1131.13 287.559 1129.43 287.559C1127.73 287.559 1126.36 288.936 1126.36 290.636C1126.36 292.335 1127.73 293.712 1129.43 293.712Z" fill="white"/>
<path d="M1162.12 366.861C1161.13 367.563 1154.24 353.526 1135.75 341.359C1129.26 337.086 1122.84 334.037 1123.22 333.149C1123.61 332.251 1130.84 333.925 1136.62 336.609C1155.05 345.165 1163.3 366.039 1162.12 366.861Z" fill="white"/>
<path d="M1047.73 371.695H1060.29V376.297H1065.59V371.695H1068.83V367.259H1065.59V350.116H1058.66L1047.73 367.336V371.695ZM1060.39 367.259H1053.3V367.054L1060.19 356.15H1060.39V367.259ZM1082.79 376.873C1089.37 376.873 1093.35 371.861 1093.36 363.232C1093.37 354.667 1089.34 349.758 1082.79 349.758C1076.22 349.758 1072.23 354.654 1072.21 363.232C1072.19 371.836 1076.19 376.86 1082.79 376.873ZM1082.79 372.283C1079.78 372.283 1077.84 369.266 1077.85 363.232C1077.86 357.287 1079.79 354.296 1082.79 354.296C1085.76 354.296 1087.71 357.287 1087.71 363.232C1087.72 369.266 1085.78 372.283 1082.79 372.283ZM1096.91 371.695H1109.48V376.297H1114.77V371.695H1118.02V367.259H1114.77V350.116H1107.84L1096.91 367.336V371.695ZM1109.58 367.259H1102.48V367.054L1109.37 356.15H1109.58V367.259Z" fill="white"/>
<rect x="1059.87" y="412.297" width="53" height="9" fill="white"/>
<path d="M1092.42 218.703C1092.42 220.199 1091.21 221.405 1089.72 221.405C1088.22 221.405 1087.01 220.199 1087.01 218.703C1087.01 217.206 1088.22 216 1089.72 216C1091.21 216 1092.42 217.206 1092.42 218.703Z" fill="white"/>
<path d="M1114.77 274.635C1114.54 274.663 1114.4 273.373 1113.33 271.372C1113.33 271.372 1112.82 270.436 1112.24 269.642C1110.38 267.089 1104.1 267.145 1103.6 267.145C1093.8 267.229 1087.5 266.612 1087.5 266.668C1087.5 266.714 1092.1 266.621 1095.47 266.555C1104.97 266.359 1110.63 265.854 1113.06 268.398C1114.07 269.454 1114.57 270.829 1114.57 270.829C1115.26 272.7 1115.03 274.598 1114.77 274.635Z" fill="white"/>
<path opacity="0.59" d="M1089.73 589.069C1127.98 589.069 1158.99 576.374 1158.99 560.714C1158.99 545.054 1127.98 532.36 1089.73 532.36C1051.47 532.36 1020.46 545.054 1020.46 560.714C1020.46 576.374 1051.47 589.069 1089.73 589.069Z" fill="#243746"/>
<path d="M1000.67 511.11C1005.45 477.756 1002.01 470.459 1009.94 463.618C1010.85 462.835 1015.49 458.83 1022.09 458.688C1027.34 458.574 1031.71 460.957 1033.7 462.553C1045.78 472.251 1036.52 504.283 1024.4 523.489C1021.76 527.676 1014.68 538.907 1008.48 537.603C1005.94 537.064 1004.4 534.61 1003.33 532.84C998.566 525.032 999.945 516.14 1000.67 511.11Z" fill="#243746"/>
<path d="M1162.56 308.479C1162.68 312.613 1159.3 317.56 1155.43 317.99C1151.8 318.383 1148.91 314.68 1145.92 310.864C1142.97 307.095 1136.54 297.426 1139.1 294.695C1142.49 291.076 1162.28 298.725 1162.56 308.479Z" fill="white"/>
<path d="M1129.43 292.712C1131.13 292.712 1132.51 291.335 1132.51 289.636C1132.51 287.936 1131.13 286.559 1129.43 286.559C1127.73 286.559 1126.36 287.936 1126.36 289.636C1126.36 291.335 1127.73 292.712 1129.43 292.712Z" fill="white"/>
<path d="M1163.88 475.651C1163.88 475.95 1163.88 476.231 1163.87 476.511C1163.76 479.233 1163.13 481.281 1162.82 482.206C1153.89 509.504 1148.53 523.896 1141.02 535.539C1139.72 537.55 1138.36 539.476 1136.9 541.375C1134.98 543.9 1132.87 546.369 1130.55 548.912C1125.36 554.551 1117.52 557.104 1114.98 557.993C1105.74 561.257 1097.57 560.667 1092.14 560.714H1091.19C1085.75 560.658 1077.6 561.257 1068.35 557.993C1065.82 557.114 1057.96 554.561 1052.79 548.912C1038.52 533.388 1033.04 520.492 1020.51 482.216C1020.21 481.337 1019.62 479.429 1019.48 476.876C1019.44 476.137 1019.42 475.398 1019.47 474.66C1019.74 470.087 1021.59 465.598 1024.89 461.502C1030.53 454.479 1039.24 450.626 1048.26 450.588L1091.68 450.411L1134.31 450.242C1143.52 450.205 1152.44 454.067 1158.29 461.184C1161.12 464.635 1162.92 468.356 1163.59 472.191C1163.68 472.733 1163.75 473.294 1163.81 473.837C1163.84 474.416 1163.88 475.034 1163.88 475.651Z" fill="#243746"/>
<path d="M1091.66 450.382L1048.24 450.56C1039.23 450.598 1030.52 454.45 1024.87 461.474C1021.58 465.57 1019.73 470.059 1019.45 474.632C1019.67 469.937 1021.6 465.336 1025.04 461.146C1030.87 454.03 1039.81 450.167 1049.02 450.205L1091.66 450.382Z" fill="url(#paint1_linear)"/>
<path d="M1134.82 514.358C1134.18 480.673 1129.63 474.014 1136.35 466C1137.13 465.083 1141.07 460.38 1147.55 459.182C1152.72 458.229 1157.4 459.884 1159.62 461.137C1173.1 468.777 1169.1 501.882 1160.22 522.774C1158.28 527.329 1153.09 539.551 1146.76 539.261C1144.17 539.14 1142.25 536.961 1140.92 535.39C1134.98 528.441 1134.91 519.436 1134.82 514.358Z" fill="#243746"/>
<path d="M1141.01 535.53C1139.71 537.541 1138.35 539.467 1136.89 541.365C1136.42 540.889 1136.01 540.402 1135.63 539.963C1129.69 533.014 1129.63 524.018 1129.54 518.931C1128.9 485.246 1124.34 478.597 1131.07 470.582C1131.56 469.984 1133.36 467.842 1136.3 466.065C1129.66 474.052 1134.18 480.766 1134.82 514.348C1134.91 519.426 1134.99 528.432 1140.92 535.39C1140.95 535.436 1140.99 535.483 1141.01 535.53Z" fill="#1A2833"/>
<path d="M1160.02 486.312C1159.84 482.693 1159.15 480.028 1157.8 474.706C1156.02 467.739 1153.79 464.345 1155.24 462.998C1156.19 462.119 1158.04 462.717 1158.46 462.848C1164.83 464.878 1166.8 476.82 1166.52 484.301C1166.35 488.874 1165.24 493.999 1163.56 494.223C1163.3 494.261 1162.63 494.223 1162.16 493.812C1160.29 492.157 1160.17 489.061 1160.02 486.312Z" fill="white"/>
<path d="M1164.39 499.086C1164.39 499.816 1163.8 500.405 1163.07 500.405C1162.34 500.405 1161.75 499.816 1161.75 499.086C1161.75 498.357 1162.34 497.768 1163.07 497.768C1163.8 497.768 1164.39 498.357 1164.39 499.086Z" fill="white"/>
<defs>
<radialGradient id="paint0_radial" cx="0" cy="0" r="1" gradientUnits="userSpaceOnUse" gradientTransform="translate(1088 400.003) scale(320.999)">
<stop offset="0.0397" stop-color="white"/>
<stop offset="1" stop-color="#2B4152" stop-opacity="0.3"/>
</radialGradient>
<linearGradient id="paint1_linear" x1="1039.55" y1="477.714" x2="1106.86" y2="399.122" gradientUnits="userSpaceOnUse">
<stop offset="0.0397" stop-color="#44BFE2"/>
<stop offset="1" stop-color="#DCE38C"/>
</linearGradient>
</defs>
</svg>
