<svg width="600" height="400" viewBox="0 0 600 400" fill="none" xmlns="http://www.w3.org/2000/svg">
<rect width="600" height="401" fill="#41B38A"/>
<mask id="mask0" mask-type="alpha" maskUnits="userSpaceOnUse" x="366" y="42" width="234" height="312">
<rect x="366" y="42" width="234" height="312" fill="#C4C4C4"/>
</mask>
<g mask="url(#mask0)">
<g opacity="0.9">
<path opacity="0.9" d="M426.811 221.953C437.347 221.953 445.889 213.431 445.889 202.92C445.889 192.408 437.347 183.886 426.811 183.886C416.274 183.886 407.732 192.408 407.732 202.92C407.732 213.431 416.274 221.953 426.811 221.953Z" fill="#158876"/>
<g opacity="0.9">
<path opacity="0.9" d="M431.477 203C431.477 201.771 432.485 200.775 433.73 200.775H437.017C438.262 200.775 439.301 201.771 439.301 203C439.301 204.229 438.262 205.225 437.017 205.225H433.73C432.485 205.225 431.477 204.229 431.477 203Z" fill="white"/>
<path opacity="0.9" d="M424.585 203.004C424.585 201.771 425.588 200.775 426.824 200.775C428.06 200.775 429.063 201.771 429.063 203.004C429.063 204.238 428.06 205.234 426.824 205.234C425.588 205.234 424.585 204.233 424.585 203.004Z" fill="white"/>
<path opacity="0.9" fill-rule="evenodd" clip-rule="evenodd" d="M429.001 192.585C429.05 193.787 428.114 194.797 426.91 194.846C421.71 195.061 418.539 199.122 418.692 202.973C418.741 204.175 417.823 205.185 416.618 205.234C415.413 205.283 414.357 204.314 414.307 203.112C414.056 196.83 419.319 190.619 426.731 190.499C427.931 190.454 428.947 191.388 429.001 192.585Z" fill="white"/>
<path opacity="0.9" fill-rule="evenodd" clip-rule="evenodd" d="M414.298 202.884C414.329 210.475 420.576 215.488 426.9 215.331C434.361 215.068 439.749 208.607 439.301 202.844C439.198 201.646 438.132 200.717 436.927 200.775C435.723 200.833 434.796 201.852 434.854 203.049C435.024 206.552 431.782 210.841 426.793 210.98C422.829 211.078 418.866 207.977 418.691 203.152C418.646 204.269 417.759 205.185 416.617 205.23C415.413 205.279 414.356 204.309 414.307 203.107C414.302 203.04 414.302 202.964 414.298 202.884Z" fill="url(#paint0_linear)"/>
</g>
</g>
<g opacity="0.8">
<path opacity="0.8" d="M462.105 138.233C472.642 138.233 481.184 129.712 481.184 119.2C481.184 108.688 472.642 100.167 462.105 100.167C451.569 100.167 443.027 108.688 443.027 119.2C443.027 129.712 451.569 138.233 462.105 138.233Z" fill="#158876"/>
<path opacity="0.8" fill-rule="evenodd" clip-rule="evenodd" d="M455.527 116.578C456.404 113.079 458.599 111.328 462.106 111.328C467.368 111.328 468.026 115.264 470.66 115.921C472.415 116.359 473.951 115.702 475.263 113.95C474.386 117.449 472.191 119.2 468.685 119.2C463.422 119.2 462.764 115.264 460.131 114.607C458.375 114.169 456.839 114.826 455.527 116.578ZM448.948 124.45C449.825 120.952 452.02 119.2 455.527 119.2C460.789 119.2 461.447 123.136 464.081 123.793C465.836 124.231 467.372 123.574 468.685 121.823C467.807 125.321 465.612 127.073 462.106 127.073C456.843 127.073 456.185 123.136 453.552 122.48C451.796 122.046 450.26 122.703 448.948 124.45Z" fill="white"/>
</g>
<g opacity="0.9">
<path opacity="0.9" d="M500.567 176.179C511.104 176.179 519.645 167.658 519.645 157.146C519.645 146.634 511.104 138.113 500.567 138.113C490.03 138.113 481.489 146.634 481.489 157.146C481.489 167.658 490.03 176.179 500.567 176.179Z" fill="#158876"/>
<g opacity="0.9">
<path opacity="0.9" d="M489.017 165.698C489.017 167.337 490.352 168.669 491.995 168.669H509.134C510.778 168.669 512.113 167.337 512.113 165.698V148.599C512.113 146.959 510.778 145.628 509.134 145.628H491.995C490.352 145.628 489.017 146.959 489.017 148.599V165.698Z" stroke="white" stroke-miterlimit="10"/>
<path opacity="0.9" d="M498.596 155.819V152.557H501.476C501.749 152.557 502.014 152.58 502.269 152.624C502.524 152.669 502.748 152.75 502.945 152.87C503.142 152.986 503.299 153.152 503.415 153.357C503.532 153.567 503.59 153.831 503.59 154.157C503.59 154.742 503.415 155.167 503.062 155.426C502.708 155.685 502.26 155.814 501.709 155.814H498.596V155.819ZM495.52 150.172V164.12H502.296C502.923 164.12 503.532 164.044 504.127 163.888C504.723 163.732 505.251 163.49 505.713 163.164C506.174 162.838 506.546 162.418 506.819 161.904C507.092 161.39 507.231 160.783 507.231 160.077C507.231 159.206 507.02 158.459 506.595 157.838C506.17 157.217 505.529 156.788 504.665 156.538C505.292 156.239 505.767 155.855 506.085 155.386C506.403 154.916 506.564 154.331 506.564 153.625C506.564 152.973 506.456 152.428 506.241 151.986C506.026 151.543 505.722 151.186 505.332 150.922C504.942 150.659 504.472 150.462 503.921 150.346C503.375 150.23 502.766 150.172 502.099 150.172H495.52ZM498.596 161.739V157.91H501.946C502.614 157.91 503.147 158.062 503.554 158.37C503.957 158.678 504.163 159.188 504.163 159.903C504.163 160.269 504.101 160.568 503.975 160.801C503.85 161.033 503.684 161.221 503.474 161.359C503.263 161.498 503.021 161.591 502.748 161.654C502.475 161.712 502.188 161.743 501.888 161.743H498.596V161.739Z" fill="white"/>
</g>
</g>
<g opacity="0.4">
<path opacity="0.4" d="M419.887 171.591C430.424 171.591 438.965 163.069 438.965 152.557C438.965 142.046 430.424 133.524 419.887 133.524C409.35 133.524 400.808 142.046 400.808 152.557C400.808 163.069 409.35 171.591 419.887 171.591Z" fill="#158876"/>
<g opacity="0.4">
<path opacity="0.4" d="M419.887 140.758H414.53L419.887 153.393" fill="white"/>
<path opacity="0.4" d="M419.887 140.758H425.248L419.887 153.393" fill="white"/>
<path opacity="0.4" d="M419.887 157.039V166.81L408.458 144.547H414.445" fill="white"/>
<path opacity="0.4" d="M419.887 157.039V166.81L431.316 144.547H425.333" fill="white"/>
</g>
</g>
<g opacity="0.9">
<path opacity="0.9" d="M554.251 199.301C564.788 199.301 573.329 190.779 573.329 180.267C573.329 169.756 564.788 161.234 554.251 161.234C543.714 161.234 535.173 169.756 535.173 180.267C535.173 190.779 543.714 199.301 554.251 199.301Z" fill="#158876"/>
<g opacity="0.9">
<path opacity="0.9" d="M565.586 185.249L558.958 173.445C558.411 172.484 557.001 172.484 556.454 173.445L555.747 174.705L556.571 176.166L557.717 174.164L564.328 185.888H561.972C562.093 186.634 561.448 187.367 560.525 187.367H564.337C565.42 187.362 566.11 186.183 565.586 185.249Z" fill="white"/>
<path opacity="0.9" d="M549.584 185.888H544.192L552.334 171.434L554.981 176.085L555.751 174.709L553.436 170.608C552.943 169.737 551.712 169.741 551.224 170.612L542.911 185.437C542.423 186.304 543.068 187.367 544.08 187.367H551.035C550.108 187.362 549.459 186.634 549.584 185.888Z" fill="white"/>
<path opacity="0.9" d="M561.967 185.888C561.945 185.754 561.9 185.62 561.829 185.49L556.571 176.166L555.747 174.705L554.977 176.081L549.723 185.49C549.652 185.62 549.607 185.754 549.584 185.884C549.464 186.63 550.108 187.362 551.031 187.362H551.291H560.521C561.444 187.362 562.088 186.634 561.967 185.888ZM551.094 185.888L555.787 177.596L560.454 185.888H551.094Z" fill="white"/>
</g>
</g>
<g opacity="0.8">
<path opacity="0.8" d="M535.173 255.167C545.709 255.167 554.251 246.646 554.251 236.134C554.251 225.622 545.709 217.101 535.173 217.101C524.636 217.101 516.094 225.622 516.094 236.134C516.094 246.646 524.636 255.167 535.173 255.167Z" fill="#158876"/>
<g opacity="0.8">
<path opacity="0.8" d="M542.571 227.296L535.172 240.075L527.778 227.296H522.848L535.172 248.595L547.502 227.296H542.571Z" fill="white"/>
<g opacity="0.8">
<path opacity="0.8" d="M538.021 227.296L535.172 232.216L532.324 227.296H527.774L535.168 240.075L542.562 227.296H538.021Z" fill="white"/>
</g>
</g>
</g>
<g opacity="0.2">
<path opacity="0.2" d="M587.634 237.461C598.17 237.461 606.712 228.939 606.712 218.428C606.712 207.916 598.17 199.394 587.634 199.394C577.097 199.394 568.555 207.916 568.555 218.428C568.555 228.939 577.097 237.461 587.634 237.461Z" fill="#158876"/>
<path opacity="0.5" fill-rule="evenodd" clip-rule="evenodd" d="M597.997 210.376L587.876 228.364L577.248 210.376H575.533L587.714 231.416L599.887 210.376H597.997Z" fill="white"/>
<path opacity="0.69" d="M575.282 206.954H599.976L587.589 228.36L575.282 206.954Z" fill="white"/>
<path opacity="0.2" fill-rule="evenodd" clip-rule="evenodd" d="M595.386 211.9L587.643 225.29L579.886 211.9H574.722L587.638 234.213L600.541 211.9H595.386Z" fill="white"/>
<path opacity="0.2" fill-rule="evenodd" clip-rule="evenodd" d="M584.427 209.429H588.717C589.501 209.429 590.133 209.608 590.616 209.97C591.096 210.323 591.324 210.868 591.324 211.596C591.324 212.052 591.221 212.427 591.006 212.745C590.791 213.062 590.473 213.299 590.07 213.477V213.504C590.612 213.616 591.019 213.87 591.311 214.273C591.588 214.666 591.727 215.171 591.727 215.76C591.727 216.113 591.664 216.431 591.539 216.734C591.414 217.038 591.221 217.288 590.957 217.503C590.692 217.731 590.361 217.896 589.945 218.021C589.542 218.16 589.044 218.222 588.476 218.222H584.427V209.429ZM585.972 213.115H588.489C588.856 213.115 589.174 213.004 589.412 212.798C589.662 212.584 589.779 212.28 589.779 211.891C589.779 211.449 589.676 211.136 589.452 210.944C589.237 210.765 588.91 210.68 588.489 210.68H585.972V213.115ZM585.972 216.962H588.704C589.174 216.962 589.537 216.837 589.792 216.596C590.043 216.355 590.186 216.015 590.186 215.573C590.186 215.13 590.061 214.804 589.792 214.563C589.528 214.322 589.174 214.21 588.704 214.21H585.972V216.962Z" fill="white"/>
</g>
<g opacity="0.7">
<path opacity="0.7" d="M431.477 284.36C442.014 284.36 450.556 275.839 450.556 265.327C450.556 254.815 442.014 246.294 431.477 246.294C420.94 246.294 412.399 254.815 412.399 265.327C412.399 275.839 420.94 284.36 431.477 284.36Z" fill="#158876"/>
<path opacity="0.7" d="M423.962 258.746L430.546 252.241L438.746 260.359L433.999 265.327L440.582 271.989L430.438 278.414L422.372 269.943L423.962 258.746Z" fill="white"/>
</g>
<g opacity="0.2">
<path opacity="0.2" d="M378.541 193.309C388.024 193.309 395.712 185.64 395.712 176.179C395.712 166.719 388.024 159.049 378.541 159.049C369.058 159.049 361.37 166.719 361.37 176.179C361.37 185.64 369.058 193.309 378.541 193.309Z" fill="#158876"/>
<path opacity="0.5" fill-rule="evenodd" clip-rule="evenodd" d="M387.865 168.932L378.756 185.119L369.19 168.932H367.649L378.613 187.867L389.567 168.932H387.865Z" fill="white"/>
<path opacity="0.69" d="M367.421 165.854H389.648L378.501 185.119L367.421 165.854Z" fill="white"/>
<path opacity="0.2" fill-rule="evenodd" clip-rule="evenodd" d="M385.514 170.308L378.545 182.363L371.563 170.308H366.919L378.545 190.392L390.158 170.308H385.514Z" fill="white"/>
<path opacity="0.2" fill-rule="evenodd" clip-rule="evenodd" d="M375.652 168.079H379.513C380.22 168.079 380.789 168.24 381.219 168.566C381.654 168.883 381.855 169.375 381.855 170.031C381.855 170.442 381.766 170.782 381.569 171.063C381.376 171.349 381.089 171.564 380.727 171.72V171.743C381.215 171.845 381.582 172.073 381.842 172.435C382.093 172.788 382.218 173.244 382.218 173.775C382.218 174.093 382.16 174.379 382.048 174.651C381.936 174.924 381.761 175.152 381.524 175.344C381.286 175.549 380.991 175.697 380.615 175.808C380.252 175.933 379.804 175.992 379.293 175.992H375.648V168.079H375.652ZM377.041 171.399H379.307C379.638 171.399 379.92 171.296 380.14 171.113C380.368 170.92 380.471 170.648 380.471 170.295C380.471 169.897 380.382 169.611 380.176 169.442C379.983 169.281 379.688 169.205 379.311 169.205H377.045V171.399H377.041ZM377.041 174.861H379.499C379.92 174.861 380.252 174.749 380.48 174.531C380.709 174.312 380.834 174.008 380.834 173.61C380.834 173.212 380.722 172.918 380.48 172.703C380.243 172.489 379.92 172.386 379.499 172.386H377.041V174.861Z" fill="white"/>
</g>
<g opacity="0.3">
<path opacity="0.3" d="M568.555 294.516C578.039 294.516 585.726 286.847 585.726 277.386C585.726 267.925 578.039 260.256 568.555 260.256C559.072 260.256 551.385 267.925 551.385 277.386C551.385 286.847 559.072 294.516 568.555 294.516Z" fill="#158876"/>
<g opacity="0.3">
<path opacity="0.3" d="M558.165 285.08C558.165 286.559 559.366 287.752 560.844 287.752H576.268C577.75 287.752 578.946 286.554 578.946 285.08V269.692C578.946 268.213 577.746 267.021 576.268 267.021H560.844C559.361 267.021 558.165 268.218 558.165 269.692V285.08Z" stroke="white" stroke-miterlimit="10"/>
<path opacity="0.3" d="M566.782 276.189V273.253H569.375C569.621 273.253 569.859 273.276 570.087 273.316C570.316 273.356 570.517 273.432 570.696 273.535C570.871 273.642 571.014 273.785 571.117 273.973C571.225 274.16 571.274 274.402 571.274 274.692C571.274 275.219 571.117 275.599 570.799 275.836C570.481 276.068 570.078 276.189 569.581 276.189H566.782ZM564.014 271.109V283.663H570.114C570.678 283.663 571.229 283.592 571.762 283.453C572.295 283.315 572.774 283.096 573.191 282.801C573.607 282.506 573.939 282.131 574.185 281.666C574.431 281.202 574.557 280.657 574.557 280.022C574.557 279.236 574.364 278.566 573.984 278.007C573.603 277.449 573.021 277.06 572.246 276.837C572.81 276.568 573.236 276.22 573.522 275.8C573.809 275.38 573.952 274.848 573.952 274.218C573.952 273.633 573.854 273.142 573.661 272.739C573.468 272.342 573.195 272.02 572.841 271.779C572.488 271.538 572.067 271.368 571.574 271.261C571.081 271.153 570.535 271.104 569.935 271.104H564.014V271.109ZM566.782 281.519V278.074H569.796C570.396 278.074 570.875 278.213 571.243 278.485C571.605 278.762 571.789 279.222 571.789 279.866C571.789 280.192 571.735 280.464 571.623 280.674C571.511 280.884 571.364 281.054 571.175 281.175C570.987 281.3 570.768 281.385 570.522 281.438C570.275 281.492 570.016 281.519 569.747 281.519H566.782Z" fill="white"/>
</g>
</g>
<g opacity="0.9">
<path opacity="0.9" d="M545.684 149.653C554.113 149.653 560.946 142.836 560.946 134.427C560.946 126.017 554.113 119.2 545.684 119.2C537.254 119.2 530.421 126.017 530.421 134.427C530.421 142.836 537.254 149.653 545.684 149.653Z" fill="#158876"/>
<g opacity="0.9">
<path opacity="0.9" d="M549.419 134.489C549.419 133.506 550.225 132.707 551.223 132.707H553.852C554.847 132.707 555.68 133.502 555.68 134.489C555.68 135.472 554.847 136.272 553.852 136.272H551.223C550.225 136.272 549.419 135.477 549.419 134.489Z" fill="white"/>
<path opacity="0.9" d="M543.901 134.494C543.901 133.511 544.703 132.711 545.693 132.711C546.682 132.711 547.484 133.511 547.484 134.494C547.484 135.477 546.682 136.276 545.693 136.276C544.703 136.276 543.901 135.477 543.901 134.494Z" fill="white"/>
<path opacity="0.9" fill-rule="evenodd" clip-rule="evenodd" d="M547.435 126.161C547.476 127.122 546.728 127.93 545.765 127.971C541.604 128.145 539.069 131.389 539.19 134.476C539.231 135.436 538.496 136.245 537.533 136.285C536.57 136.326 535.724 135.548 535.684 134.588C535.482 129.561 539.692 124.593 545.621 124.499C546.58 124.454 547.395 125.201 547.435 126.161Z" fill="white"/>
<path opacity="0.9" fill-rule="evenodd" clip-rule="evenodd" d="M535.674 134.4C535.697 140.472 540.699 144.484 545.755 144.359C551.725 144.144 556.033 138.979 555.675 134.369C555.59 133.412 554.739 132.666 553.776 132.715C552.813 132.76 552.07 133.578 552.115 134.538C552.249 137.34 549.656 140.776 545.666 140.883C542.495 140.959 539.324 138.479 539.185 134.623C539.149 135.517 538.442 136.25 537.528 136.285C536.565 136.326 535.719 135.548 535.679 134.588C535.679 134.525 535.674 134.462 535.674 134.4Z" fill="url(#paint1_linear)"/>
</g>
</g>
<g opacity="0.25">
<path opacity="0.25" d="M389.285 247.867C397.715 247.867 404.548 241.049 404.548 232.64C404.548 224.231 397.715 217.413 389.285 217.413C380.856 217.413 374.022 224.231 374.022 232.64C374.022 241.049 380.856 247.867 389.285 247.867Z" fill="#158876"/>
<g opacity="0.25">
<path opacity="0.25" d="M395.201 225.567L389.285 235.79L383.369 225.567H379.424L389.285 242.608L399.147 225.567H395.201Z" fill="white"/>
<g opacity="0.8">
<path opacity="0.8" d="M391.565 225.567L389.285 229.504L387.006 225.567H383.365L389.281 235.79L395.197 225.567H391.565Z" fill="white"/>
</g>
</g>
</g>
<g opacity="0.2">
<path opacity="0.2" d="M374.022 292.295C382.452 292.295 389.285 285.478 389.285 277.069C389.285 268.659 382.452 261.842 374.022 261.842C365.593 261.842 358.76 268.659 358.76 277.069C358.76 285.478 365.593 292.295 374.022 292.295Z" fill="#158876"/>
<g opacity="0.2">
<path opacity="0.2" d="M383.087 281.054L377.784 271.614C377.35 270.845 376.217 270.845 375.782 271.614L375.214 272.623L375.872 273.789L376.79 272.19L382.079 281.568H380.194C380.292 282.167 379.773 282.748 379.038 282.748H382.088C382.957 282.748 383.508 281.8 383.087 281.054Z" fill="white"/>
<path opacity="0.2" d="M370.287 281.564H365.975L372.486 270.001L374.605 273.722L375.218 272.623L373.364 269.339C372.97 268.642 371.985 268.647 371.595 269.344L364.945 281.202C364.555 281.899 365.07 282.748 365.881 282.748H371.443C370.704 282.748 370.189 282.162 370.287 281.564Z" fill="white"/>
<path opacity="0.2" d="M380.194 281.564C380.176 281.456 380.14 281.349 380.082 281.246L375.872 273.789L375.214 272.623L374.6 273.722L370.395 281.246C370.337 281.349 370.301 281.456 370.283 281.564C370.184 282.162 370.704 282.743 371.438 282.743H371.644H379.029C379.773 282.743 380.292 282.162 380.194 281.564ZM371.496 281.564L375.249 274.929L378.98 281.564H371.496Z" fill="white"/>
</g>
</g>
<g opacity="0.1">
<path opacity="0.1" d="M599.645 189.766C607.021 189.766 613 183.801 613 176.443C613 169.085 607.021 163.12 599.645 163.12C592.269 163.12 586.29 169.085 586.29 176.443C586.29 183.801 592.269 189.766 599.645 189.766Z" fill="#158876"/>
<path opacity="0.1" fill-rule="evenodd" clip-rule="evenodd" d="M595.037 174.602C595.65 172.154 597.186 170.925 599.64 170.925C603.326 170.925 603.788 173.682 605.628 174.142C606.855 174.45 607.93 173.99 608.853 172.766C608.239 175.214 606.703 176.443 604.249 176.443C600.563 176.443 600.102 173.686 598.261 173.226C597.034 172.918 595.959 173.378 595.037 174.602ZM590.433 180.115C591.046 177.667 592.582 176.438 595.037 176.438C598.722 176.438 599.184 179.195 601.024 179.655C602.251 179.963 603.326 179.503 604.249 178.279C603.635 180.727 602.099 181.956 599.645 181.956C595.959 181.956 595.498 179.199 593.657 178.739C592.43 178.431 591.355 178.891 590.433 180.115Z" fill="white"/>
</g>
<g opacity="0.1">
<path opacity="0.1" d="M591.727 149.609C599.103 149.609 605.082 143.644 605.082 136.285C605.082 128.927 599.103 122.962 591.727 122.962C584.351 122.962 578.372 128.927 578.372 136.285C578.372 143.644 584.351 149.609 591.727 149.609Z" fill="#158876"/>
<g opacity="0.1">
<path opacity="0.1" d="M596.904 130.093L591.727 139.042L586.55 130.093H583.102L591.727 145.007L600.357 130.093H596.904Z" fill="white"/>
<g opacity="0.8">
<path opacity="0.8" d="M593.72 130.093L591.727 133.538L589.734 130.093H586.55L591.727 139.038L596.904 130.093H593.72Z" fill="white"/>
</g>
</g>
</g>
<g opacity="0.9">
<path opacity="0.9" d="M513.407 124.647C520.783 124.647 526.762 118.682 526.762 111.323C526.762 103.965 520.783 98 513.407 98C506.031 98 500.052 103.965 500.052 111.323C500.052 118.682 506.031 124.647 513.407 124.647Z" fill="#158876"/>
<g opacity="0.9">
<path opacity="0.9" d="M513.407 103.067H509.654L513.407 111.909" fill="white"/>
<path opacity="0.9" d="M513.407 103.067H517.156L513.407 111.909" fill="white"/>
<path opacity="0.9" d="M513.407 114.46V121.305L505.404 105.721H509.596" fill="white"/>
<path opacity="0.9" d="M513.407 114.464V121.305L521.406 105.721H517.214" fill="white"/>
</g>
</g>
<g opacity="0.3">
<path opacity="0.15" d="M361.371 152.365C368.746 152.365 374.725 146.4 374.725 139.042C374.725 131.684 368.746 125.719 361.371 125.719C353.995 125.719 348.016 131.684 348.016 139.042C348.016 146.4 353.995 152.365 361.371 152.365Z" fill="#158876"/>
<path opacity="0.15" d="M356.108 134.431L360.717 129.878L366.458 135.562L363.135 139.042L367.743 143.702L360.641 148.201L354.998 142.272L356.108 134.431Z" fill="white"/>
</g>
<path opacity="0.81" d="M476.663 333.587C555.134 333.587 618.747 269.974 618.747 191.503C618.747 113.033 555.134 49.42 476.663 49.42C398.193 49.42 334.58 113.033 334.58 191.503C334.58 269.974 398.193 333.587 476.663 333.587Z" fill="url(#paint2_radial)"/>
<path d="M486.191 136.934H483.322V155.775H486.191V136.934Z" fill="#158876"/>
<path d="M488.435 135.677C488.435 137.707 486.789 139.353 484.758 139.353C482.728 139.353 481.082 137.707 481.082 135.677C481.082 133.646 482.728 132 484.758 132C486.789 132 488.435 133.646 488.435 135.677Z" fill="#137361"/>
<path d="M487.313 134.244C487.313 134.865 486.812 135.366 486.191 135.366C485.57 135.366 485.069 134.865 485.069 134.244C485.069 133.623 485.57 133.122 486.191 133.122C486.812 133.122 487.313 133.623 487.313 134.244Z" fill="white"/>
<path d="M496.591 157.464C496.498 157.476 496.44 156.94 495.994 156.109C495.994 156.109 495.784 155.721 495.543 155.391C494.771 154.331 492.162 154.354 491.956 154.354C487.887 154.389 485.271 154.133 485.271 154.156C485.271 154.176 487.181 154.137 488.578 154.11C492.523 154.028 494.872 153.819 495.881 154.875C496.3 155.313 496.51 155.884 496.51 155.884C496.797 156.661 496.7 157.449 496.591 157.464Z" fill="white"/>
<path opacity="0.59" d="M486.195 288C502.076 288 514.951 282.73 514.951 276.229C514.951 269.728 502.076 264.458 486.195 264.458C470.313 264.458 457.438 269.728 457.438 276.229C457.438 282.73 470.313 288 486.195 288Z" fill="#137361"/>
<path d="M450.207 257.959C450.286 243.971 448.46 241.164 451.332 237.903C451.662 237.529 453.345 235.619 456.051 235.187C458.206 234.843 460.134 235.576 461.044 236.12C466.56 239.425 464.567 253.123 460.669 261.707C459.82 263.578 457.54 268.599 454.918 268.413C453.844 268.335 453.07 267.413 452.53 266.746C450.129 263.804 450.194 260.069 450.207 257.959Z" fill="#158876"/>
<path d="M494.674 166.18H474.846C473.383 166.18 472.199 164.996 472.199 163.532V156.447C472.199 154.983 473.383 153.799 474.846 153.799H494.674C496.137 153.799 497.321 154.983 497.321 156.447V163.532C497.318 164.996 496.133 166.18 494.674 166.18Z" fill="#137361"/>
<path d="M529.704 207.36C529.704 218.805 520.425 228.084 508.98 228.084H460.536C449.138 228.084 439.812 218.759 439.812 207.36V196.594C439.812 176.313 456.405 159.72 476.687 159.72H492.837C513.118 159.72 529.712 176.313 529.712 196.594V207.36H529.704Z" fill="#158876"/>
<path d="M515.564 205.399C514.388 205.982 513.068 206.285 511.729 206.285H457.784C456.444 206.285 455.124 205.982 453.948 205.399C451.06 203.971 449.429 201.086 449.837 198.128L449.868 197.914C451.25 187.894 460.327 180.188 471.453 179.609C476.163 179.364 481.101 179.236 486.253 179.267C490.29 179.291 494.192 179.411 497.95 179.601C509.12 180.176 518.263 187.851 519.649 197.91C519.66 197.984 519.668 198.054 519.68 198.128C520.087 201.086 518.453 203.971 515.564 205.399Z" fill="#243746"/>
<rect x="470.341" y="213.839" width="27.7294" height="3.64861" fill="white"/>
<path d="M516.43 171.514C516.481 173.23 515.079 175.284 513.472 175.463C511.966 175.626 510.766 174.088 509.524 172.504C508.301 170.94 505.63 166.925 506.693 165.792C508.099 164.289 516.314 167.465 516.43 171.514Z" fill="white"/>
<path d="M502.679 164.969C503.385 164.969 503.956 164.397 503.956 163.691C503.956 162.986 503.385 162.414 502.679 162.414C501.974 162.414 501.402 162.986 501.402 163.691C501.402 164.397 501.974 164.969 502.679 164.969Z" fill="white"/>
<path d="M516.248 195.336C515.836 195.628 512.979 189.8 505.303 184.749C502.605 182.975 499.942 181.709 500.101 181.341C500.26 180.968 503.261 181.663 505.665 182.777C513.313 186.329 516.737 194.995 516.248 195.336Z" fill="white"/>
<path d="M516.978 240.915C516.978 241.039 516.978 241.156 516.974 241.272C516.931 242.402 516.667 243.252 516.539 243.636C512.831 254.969 510.607 260.944 507.489 265.777C506.95 266.612 506.387 267.412 505.777 268.2C504.981 269.248 504.108 270.273 503.141 271.329C500.986 273.67 497.733 274.73 496.681 275.099C492.841 276.454 489.452 276.209 487.196 276.229H486.804C484.545 276.205 481.159 276.454 477.32 275.099C476.271 274.734 473.006 273.674 470.859 271.329C464.939 264.884 462.66 259.531 457.461 243.64C457.337 243.275 457.089 242.483 457.031 241.424C457.015 241.117 457.007 240.81 457.027 240.503C457.139 238.605 457.908 236.741 459.278 235.041C461.619 232.125 465.238 230.526 468.98 230.51L487.006 230.437L504.706 230.367C508.526 230.351 512.23 231.955 514.66 234.909C515.832 236.342 516.582 237.887 516.857 239.478C516.896 239.704 516.927 239.937 516.951 240.162C516.962 240.402 516.978 240.659 516.978 240.915Z" fill="#158876"/>
<path d="M486.998 230.425L468.973 230.499C465.23 230.514 461.616 232.114 459.271 235.029C457.904 236.73 457.135 238.593 457.019 240.492C457.112 238.543 457.912 236.633 459.34 234.893C461.763 231.939 465.471 230.336 469.295 230.351L486.998 230.425Z" fill="url(#paint3_linear)"/>
<path d="M504.915 256.984C504.651 243 502.761 240.236 505.552 236.908C505.874 236.528 507.509 234.575 510.199 234.078C512.346 233.682 514.291 234.369 515.211 234.89C520.806 238.061 519.148 251.805 515.46 260.478C514.656 262.369 512.501 267.443 509.873 267.323C508.798 267.272 508.002 266.368 507.447 265.715C504.981 262.831 504.954 259.092 504.915 256.984Z" fill="#158876"/>
<path d="M507.485 265.774C506.946 266.608 506.383 267.408 505.773 268.196C505.579 267.998 505.408 267.796 505.253 267.614C502.788 264.729 502.761 260.994 502.722 258.882C502.458 244.898 500.563 242.138 503.358 238.811C503.564 238.562 504.31 237.673 505.529 236.936C502.772 240.251 504.651 243.039 504.915 256.98C504.954 259.088 504.985 262.827 507.447 265.715C507.462 265.735 507.478 265.754 507.485 265.774Z" fill="#137361"/>
<path d="M515.378 245.341C515.301 243.838 515.017 242.732 514.454 240.523C513.717 237.631 512.793 236.221 513.394 235.662C513.786 235.297 514.555 235.546 514.73 235.6C517.374 236.443 518.193 241.4 518.076 244.506C518.007 246.405 517.545 248.532 516.846 248.625C516.737 248.641 516.461 248.625 516.267 248.454C515.491 247.767 515.44 246.482 515.378 245.341Z" fill="white"/>
<path d="M517.191 250.644C517.191 250.947 516.947 251.192 516.644 251.192C516.341 251.192 516.096 250.947 516.096 250.644C516.096 250.341 516.341 250.097 516.644 250.097C516.947 250.097 517.191 250.341 517.191 250.644Z" fill="white"/>
</g>
<path d="M470.767 197.955H476.352V200H478.705V197.955H480.148V195.983H478.705V188.364H475.625L470.767 196.017V197.955ZM476.398 195.983H473.244V195.892L476.307 191.045H476.398V195.983ZM486.349 200.256C489.276 200.256 491.043 198.028 491.048 194.193C491.054 190.386 489.264 188.205 486.349 188.205C483.429 188.205 481.656 190.381 481.651 194.193C481.639 198.017 483.418 200.25 486.349 200.256ZM486.349 198.216C485.014 198.216 484.151 196.875 484.156 194.193C484.162 191.551 485.02 190.222 486.349 190.222C487.673 190.222 488.537 191.551 488.537 194.193C488.543 196.875 487.679 198.216 486.349 198.216ZM492.626 197.955H498.212V200H500.564V197.955H502.007V195.983H500.564V188.364H497.484L492.626 196.017V197.955ZM498.257 195.983H495.104V195.892L498.166 191.045H498.257V195.983Z" fill="white"/>
<defs>
<linearGradient id="paint0_linear" x1="426.814" y1="215.338" x2="426.814" y2="200.778" gradientUnits="userSpaceOnUse">
<stop stop-color="white" stop-opacity="0.95"/>
<stop offset="1" stop-color="white" stop-opacity="0.5"/>
</linearGradient>
<linearGradient id="paint1_linear" x1="545.686" y1="144.362" x2="545.686" y2="132.713" gradientUnits="userSpaceOnUse">
<stop stop-color="white" stop-opacity="0.95"/>
<stop offset="1" stop-color="white" stop-opacity="0.5"/>
</linearGradient>
<radialGradient id="paint2_radial" cx="0" cy="0" r="1" gradientUnits="userSpaceOnUse" gradientTransform="translate(476.664 191.505) scale(142.083)">
<stop offset="0.0397" stop-color="white"/>
<stop offset="1" stop-color="#41B38A" stop-opacity="0.3"/>
</radialGradient>
<linearGradient id="paint3_linear" x1="465.366" y1="241.772" x2="493.307" y2="209.144" gradientUnits="userSpaceOnUse">
<stop offset="0.0397" stop-color="#44BFE2"/>
<stop offset="1" stop-color="#DCE38C"/>
</linearGradient>
</defs>
</svg>
