<svg width="600" height="400" viewBox="0 0 600 400" fill="none" xmlns="http://www.w3.org/2000/svg">
<rect width="600" height="401" fill="#2B4152"/>
<mask id="mask0" mask-type="alpha" maskUnits="userSpaceOnUse" x="366" y="27" width="234" height="331">
<rect x="366" y="27" width="234" height="331" fill="#C4C4C4"/>
</mask>
<g mask="url(#mask0)">
<g opacity="0.9">
<path opacity="0.9" d="M431.991 220.236C442.503 220.236 451.024 211.714 451.024 201.203C451.024 190.691 442.503 182.169 431.991 182.169C421.479 182.169 412.958 190.691 412.958 201.203C412.958 211.714 421.479 220.236 431.991 220.236Z" fill="#476983"/>
<g opacity="0.9">
<path opacity="0.9" d="M436.646 201.283C436.646 200.055 437.652 199.058 438.894 199.058H442.173C443.415 199.058 444.452 200.055 444.452 201.283C444.452 202.512 443.415 203.508 442.173 203.508H438.894C437.652 203.508 436.646 202.512 436.646 201.283Z" fill="white"/>
<path opacity="0.9" d="M429.77 201.288C429.77 200.055 430.771 199.058 432.004 199.058C433.237 199.058 434.238 200.055 434.238 201.288C434.238 202.521 433.237 203.517 432.004 203.517C430.771 203.517 429.77 202.516 429.77 201.288Z" fill="white"/>
<path opacity="0.9" fill-rule="evenodd" clip-rule="evenodd" d="M434.176 190.868C434.225 192.07 433.292 193.08 432.09 193.129C426.903 193.344 423.739 197.405 423.891 201.256C423.94 202.458 423.024 203.468 421.823 203.517C420.621 203.566 419.566 202.597 419.517 201.395C419.267 195.113 424.517 188.903 431.911 188.782C433.108 188.737 434.123 189.671 434.176 190.868Z" fill="white"/>
<path opacity="0.9" fill-rule="evenodd" clip-rule="evenodd" d="M419.507 201.167C419.539 208.758 425.771 213.771 432.08 213.615C439.524 213.351 444.899 206.89 444.452 201.127C444.349 199.929 443.286 199 442.084 199.058C440.882 199.116 439.957 200.135 440.015 201.332C440.185 204.835 436.95 209.124 431.973 209.263C428.019 209.361 424.065 206.26 423.89 201.435C423.846 202.552 422.961 203.468 421.822 203.513C420.62 203.562 419.566 202.592 419.516 201.39C419.512 201.323 419.512 201.247 419.507 201.167Z" fill="url(#paint0_linear)"/>
</g>
</g>
<g opacity="0.8">
<path opacity="0.8" d="M467.202 136.517C477.714 136.517 486.235 127.995 486.235 117.483C486.235 106.972 477.714 98.45 467.202 98.45C456.69 98.45 448.169 106.972 448.169 117.483C448.169 127.995 456.69 136.517 467.202 136.517Z" fill="#476983"/>
<path opacity="0.8" fill-rule="evenodd" clip-rule="evenodd" d="M460.639 114.861C461.515 111.362 463.704 109.611 467.202 109.611C472.452 109.611 473.109 113.547 475.736 114.204C477.487 114.642 479.02 113.985 480.329 112.234C479.453 115.732 477.264 117.483 473.766 117.483C468.516 117.483 467.859 113.547 465.232 112.89C463.48 112.452 461.948 113.109 460.639 114.861ZM454.076 122.733C454.951 119.235 457.14 117.483 460.639 117.483C465.889 117.483 466.545 121.42 469.173 122.076C470.924 122.514 472.456 121.857 473.766 120.106C472.89 123.604 470.701 125.356 467.202 125.356C461.952 125.356 461.296 121.42 458.669 120.763C456.917 120.329 455.385 120.986 454.076 122.733Z" fill="white"/>
</g>
<g opacity="0.9">
<path opacity="0.9" d="M505.573 174.462C516.084 174.462 524.606 165.941 524.606 155.429C524.606 144.917 516.084 136.396 505.573 136.396C495.061 136.396 486.539 144.917 486.539 155.429C486.539 165.941 495.061 174.462 505.573 174.462Z" fill="#476983"/>
<g opacity="0.9">
<path opacity="0.9" d="M494.05 163.981C494.05 165.62 495.381 166.952 497.021 166.952H514.12C515.759 166.952 517.091 165.62 517.091 163.981V146.882C517.091 145.242 515.759 143.911 514.12 143.911H497.021C495.381 143.911 494.05 145.242 494.05 146.882V163.981Z" stroke="white" stroke-miterlimit="10"/>
<path opacity="0.9" d="M503.607 154.102V150.841H506.479C506.752 150.841 507.016 150.863 507.27 150.908C507.525 150.952 507.748 151.033 507.945 151.153C508.142 151.269 508.298 151.435 508.414 151.64C508.53 151.85 508.588 152.114 508.588 152.44C508.588 153.025 508.414 153.45 508.061 153.709C507.708 153.968 507.261 154.098 506.712 154.098H503.607V154.102ZM500.537 148.455V162.403H507.297C507.923 162.403 508.53 162.328 509.124 162.171C509.719 162.015 510.246 161.774 510.706 161.447C511.166 161.121 511.537 160.701 511.81 160.187C512.082 159.674 512.221 159.066 512.221 158.36C512.221 157.489 512.011 156.743 511.586 156.122C511.162 155.501 510.523 155.072 509.661 154.821C510.286 154.522 510.76 154.138 511.077 153.669C511.394 153.2 511.555 152.614 511.555 151.908C511.555 151.256 511.448 150.711 511.233 150.269C511.019 149.826 510.715 149.469 510.326 149.205C509.938 148.942 509.468 148.745 508.919 148.629C508.374 148.513 507.766 148.455 507.1 148.455H500.537ZM503.607 160.022V156.193H506.949C507.614 156.193 508.146 156.345 508.553 156.653C508.955 156.962 509.16 157.471 509.16 158.186C509.16 158.552 509.098 158.852 508.973 159.084C508.847 159.316 508.682 159.504 508.472 159.642C508.262 159.781 508.021 159.875 507.748 159.937C507.476 159.995 507.19 160.027 506.891 160.027H503.607V160.022Z" fill="white"/>
</g>
</g>
<g opacity="0.4">
<path opacity="0.4" d="M425.083 169.874C435.595 169.874 444.117 161.352 444.117 150.841C444.117 140.329 435.595 131.807 425.083 131.807C414.572 131.807 406.05 140.329 406.05 150.841C406.05 161.352 414.572 169.874 425.083 169.874Z" fill="#476983"/>
<g opacity="0.4">
<path opacity="0.4" d="M425.083 139.041H419.74L425.083 151.676" fill="white"/>
<path opacity="0.4" d="M425.083 139.041H430.432L425.083 151.676" fill="white"/>
<path opacity="0.4" d="M425.083 155.322V165.093L413.681 142.83H419.655" fill="white"/>
<path opacity="0.4" d="M425.083 155.322V165.093L436.485 142.83H430.516" fill="white"/>
</g>
</g>
<g opacity="0.9">
<path opacity="0.9" d="M559.129 197.584C569.641 197.584 578.163 189.062 578.163 178.551C578.163 168.039 569.641 159.517 559.129 159.517C548.617 159.517 540.096 168.039 540.096 178.551C540.096 189.062 548.617 197.584 559.129 197.584Z" fill="#476983"/>
<g opacity="0.9">
<path opacity="0.9" d="M570.438 183.532L563.825 171.728C563.28 170.768 561.873 170.768 561.327 171.728L560.621 172.988L561.444 174.449L562.587 172.448L569.182 184.171H566.832C566.953 184.917 566.309 185.65 565.389 185.65H569.191C570.272 185.646 570.96 184.466 570.438 183.532Z" fill="white"/>
<path opacity="0.9" d="M554.474 184.171H549.094L557.217 169.718L559.858 174.369L560.626 172.993L558.316 168.891C557.825 168.02 556.596 168.024 556.109 168.895L547.817 183.72C547.33 184.587 547.973 185.65 548.983 185.65H555.921C554.997 185.646 554.349 184.917 554.474 184.171Z" fill="white"/>
<path opacity="0.9" d="M566.828 184.171C566.805 184.037 566.761 183.903 566.689 183.774L561.444 174.449L560.622 172.988L559.853 174.364L554.612 183.774C554.541 183.903 554.496 184.037 554.474 184.167C554.353 184.913 554.997 185.646 555.917 185.646H556.176H565.384C566.305 185.646 566.948 184.917 566.828 184.171ZM555.98 184.171L560.662 175.879L565.317 184.171H555.98Z" fill="white"/>
</g>
</g>
<g opacity="0.8">
<path opacity="0.8" d="M540.096 253.45C550.608 253.45 559.129 244.929 559.129 234.417C559.129 223.905 550.608 215.384 540.096 215.384C529.584 215.384 521.063 223.905 521.063 234.417C521.063 244.929 529.584 253.45 540.096 253.45Z" fill="#476983"/>
<g opacity="0.8">
<path opacity="0.8" d="M547.477 225.58L540.096 238.358L532.719 225.58H527.8L540.096 246.878L552.396 225.58H547.477Z" fill="white"/>
<g opacity="0.8">
<path opacity="0.8" d="M542.937 225.58L540.096 230.499L537.254 225.58H532.715L540.091 238.358L547.468 225.58H542.937Z" fill="white"/>
</g>
</g>
</g>
<g opacity="0.2">
<path opacity="0.2" d="M592.433 235.744C602.945 235.744 611.466 227.223 611.466 216.711C611.466 206.199 602.945 197.678 592.433 197.678C581.921 197.678 573.4 206.199 573.4 216.711C573.4 227.223 581.921 235.744 592.433 235.744Z" fill="#476983"/>
<path opacity="0.5" fill-rule="evenodd" clip-rule="evenodd" d="M602.772 208.66L592.674 226.647L582.072 208.66H580.361L592.513 229.699L604.657 208.66H602.772Z" fill="white"/>
<path opacity="0.69" d="M580.11 205.237H604.746L592.388 226.643L580.11 205.237Z" fill="white"/>
<path opacity="0.2" fill-rule="evenodd" clip-rule="evenodd" d="M600.167 210.183L592.442 223.574L584.703 210.183H579.552L592.437 232.496L605.309 210.183H600.167Z" fill="white"/>
<path opacity="0.2" fill-rule="evenodd" clip-rule="evenodd" d="M589.234 207.713H593.514C594.296 207.713 594.926 207.891 595.409 208.253C595.887 208.606 596.114 209.151 596.114 209.879C596.114 210.335 596.012 210.71 595.797 211.028C595.583 211.345 595.266 211.582 594.863 211.76V211.787C595.404 211.899 595.811 212.154 596.101 212.556C596.378 212.949 596.517 213.454 596.517 214.044C596.517 214.396 596.454 214.714 596.329 215.018C596.204 215.321 596.012 215.572 595.748 215.786C595.484 216.014 595.154 216.179 594.738 216.304C594.336 216.443 593.84 216.505 593.273 216.505H589.234V207.713ZM590.775 211.399H593.286C593.653 211.399 593.97 211.287 594.207 211.081C594.457 210.867 594.573 210.563 594.573 210.174C594.573 209.732 594.47 209.419 594.247 209.227C594.032 209.048 593.706 208.964 593.286 208.964H590.775V211.399ZM590.775 215.245H593.501C593.97 215.245 594.332 215.12 594.586 214.879C594.837 214.638 594.98 214.298 594.98 213.856C594.98 213.414 594.854 213.087 594.586 212.846C594.323 212.605 593.97 212.493 593.501 212.493H590.775V215.245Z" fill="white"/>
</g>
<g opacity="0.7">
<path opacity="0.7" d="M436.646 282.644C447.158 282.644 455.68 274.122 455.68 263.61C455.68 253.099 447.158 244.577 436.646 244.577C426.135 244.577 417.613 253.099 417.613 263.61C417.613 274.122 426.135 282.644 436.646 282.644Z" fill="#476983"/>
<path opacity="0.7" d="M429.149 257.029L435.717 250.524L443.898 258.642L439.162 263.61L445.73 270.272L435.61 276.697L427.563 268.226L429.149 257.029Z" fill="white"/>
</g>
<g opacity="0.2">
<path opacity="0.2" d="M383.836 191.592C393.296 191.592 400.966 183.923 400.966 174.462C400.966 165.002 393.296 157.332 383.836 157.332C374.375 157.332 366.706 165.002 366.706 174.462C366.706 183.923 374.375 191.592 383.836 191.592Z" fill="#476983"/>
<path opacity="0.5" fill-rule="evenodd" clip-rule="evenodd" d="M393.138 167.215L384.05 183.403L374.507 167.215H372.97L383.907 186.15L394.836 167.215H393.138Z" fill="white"/>
<path opacity="0.69" d="M372.742 164.137H394.916L383.795 183.403L372.742 164.137Z" fill="white"/>
<path opacity="0.2" fill-rule="evenodd" clip-rule="evenodd" d="M390.792 168.592L383.84 180.646L376.875 168.592H372.241L383.84 188.675L395.425 168.592H390.792Z" fill="white"/>
<path opacity="0.2" fill-rule="evenodd" clip-rule="evenodd" d="M380.954 166.362H384.805C385.511 166.362 386.078 166.523 386.507 166.849C386.941 167.166 387.142 167.658 387.142 168.315C387.142 168.726 387.053 169.065 386.856 169.347C386.664 169.633 386.378 169.847 386.016 170.003V170.026C386.503 170.129 386.869 170.356 387.128 170.718C387.379 171.071 387.504 171.527 387.504 172.059C387.504 172.376 387.446 172.662 387.334 172.934C387.222 173.207 387.048 173.435 386.811 173.627C386.574 173.832 386.28 173.98 385.904 174.092C385.542 174.217 385.096 174.275 384.586 174.275H380.949V166.362H380.954ZM382.339 169.682H384.6C384.93 169.682 385.212 169.579 385.431 169.396C385.659 169.204 385.761 168.931 385.761 168.578C385.761 168.181 385.672 167.895 385.466 167.725C385.274 167.564 384.979 167.488 384.604 167.488H382.343V169.682H382.339ZM382.339 173.144H384.792C385.212 173.144 385.542 173.033 385.77 172.814C385.998 172.595 386.123 172.291 386.123 171.893C386.123 171.496 386.011 171.201 385.77 170.986C385.533 170.772 385.212 170.669 384.792 170.669H382.339V173.144Z" fill="white"/>
</g>
<g opacity="0.3">
<path opacity="0.3" d="M573.4 292.799C582.86 292.799 590.53 285.13 590.53 275.669C590.53 266.209 582.86 258.539 573.4 258.539C563.939 258.539 556.27 266.209 556.27 275.669C556.27 285.13 563.939 292.799 573.4 292.799Z" fill="#476983"/>
<g opacity="0.3">
<path opacity="0.3" d="M563.034 283.363C563.034 284.842 564.232 286.035 565.706 286.035H581.094C582.573 286.035 583.766 284.837 583.766 283.363V267.976C583.766 266.497 582.568 265.304 581.094 265.304H565.706C564.227 265.304 563.034 266.501 563.034 267.976V283.363Z" stroke="white" stroke-miterlimit="10"/>
<path opacity="0.3" d="M571.631 274.472V271.536H574.218C574.463 271.536 574.7 271.559 574.928 271.599C575.156 271.639 575.357 271.715 575.536 271.818C575.71 271.925 575.853 272.068 575.956 272.256C576.063 272.443 576.112 272.685 576.112 272.975C576.112 273.502 575.956 273.882 575.638 274.119C575.321 274.351 574.919 274.472 574.423 274.472H571.631ZM568.869 269.392V281.947H574.955C575.518 281.947 576.067 281.875 576.599 281.737C577.131 281.598 577.609 281.379 578.024 281.084C578.44 280.79 578.77 280.414 579.016 279.95C579.262 279.485 579.387 278.94 579.387 278.305C579.387 277.519 579.195 276.849 578.815 276.29C578.435 275.732 577.854 275.343 577.081 275.12C577.644 274.852 578.069 274.503 578.355 274.083C578.641 273.663 578.784 273.132 578.784 272.502C578.784 271.916 578.685 271.425 578.493 271.023C578.301 270.625 578.029 270.303 577.676 270.062C577.323 269.821 576.903 269.651 576.411 269.544C575.92 269.437 575.375 269.387 574.776 269.387H568.869V269.392ZM571.631 279.802V276.357H574.637C575.236 276.357 575.714 276.496 576.081 276.768C576.443 277.045 576.626 277.506 576.626 278.149C576.626 278.475 576.572 278.748 576.46 278.958C576.349 279.168 576.201 279.337 576.014 279.458C575.826 279.583 575.607 279.668 575.361 279.722C575.116 279.775 574.856 279.802 574.588 279.802H571.631Z" fill="white"/>
</g>
</g>
<g opacity="0.9">
<path opacity="0.9" d="M550.582 147.937C558.992 147.937 565.809 141.119 565.809 132.71C565.809 124.301 558.992 117.483 550.582 117.483C542.173 117.483 535.356 124.301 535.356 132.71C535.356 141.119 542.173 147.937 550.582 147.937Z" fill="#476983"/>
<g opacity="0.9">
<path opacity="0.9" d="M554.308 132.772C554.308 131.79 555.113 130.99 556.109 130.99H558.732C559.723 130.99 560.554 131.785 560.554 132.772C560.554 133.755 559.723 134.555 558.732 134.555H556.109C555.113 134.555 554.308 133.76 554.308 132.772Z" fill="white"/>
<path opacity="0.9" d="M548.804 132.777C548.804 131.794 549.604 130.994 550.591 130.994C551.579 130.994 552.378 131.794 552.378 132.777C552.378 133.76 551.579 134.56 550.591 134.56C549.604 134.56 548.804 133.76 548.804 132.777Z" fill="white"/>
<path opacity="0.9" fill-rule="evenodd" clip-rule="evenodd" d="M552.33 124.444C552.37 125.405 551.624 126.214 550.663 126.254C546.512 126.428 543.984 129.672 544.104 132.759C544.144 133.72 543.412 134.528 542.451 134.569C541.491 134.609 540.646 133.831 540.606 132.871C540.405 127.844 544.605 122.876 550.52 122.782C551.476 122.738 552.289 123.484 552.33 124.444Z" fill="white"/>
<path opacity="0.9" fill-rule="evenodd" clip-rule="evenodd" d="M540.596 132.683C540.619 138.755 545.609 142.767 550.654 142.642C556.609 142.428 560.907 137.263 560.55 132.652C560.465 131.696 559.616 130.95 558.656 130.999C557.695 131.043 556.953 131.861 556.998 132.822C557.132 135.623 554.545 139.059 550.564 139.166C547.401 139.242 544.238 136.762 544.099 132.906C544.064 133.8 543.358 134.533 542.446 134.569C541.486 134.609 540.641 133.831 540.601 132.871C540.601 132.808 540.596 132.746 540.596 132.683Z" fill="url(#paint1_linear)"/>
</g>
</g>
<g opacity="0.25">
<path opacity="0.25" d="M394.554 246.15C402.964 246.15 409.781 239.333 409.781 230.923C409.781 222.514 402.964 215.697 394.554 215.697C386.145 215.697 379.328 222.514 379.328 230.923C379.328 239.333 386.145 246.15 394.554 246.15Z" fill="#476983"/>
<g opacity="0.25">
<path opacity="0.25" d="M400.457 223.851L394.555 234.073L388.652 223.851H384.716L394.555 240.891L404.393 223.851H400.457Z" fill="white"/>
<g opacity="0.8">
<path opacity="0.8" d="M396.829 223.851L394.554 227.787L392.28 223.851H388.648L394.55 234.073L400.452 223.851H396.829Z" fill="white"/>
</g>
</g>
</g>
<g opacity="0.2">
<path opacity="0.2" d="M379.328 290.579C387.737 290.579 394.554 283.761 394.554 275.352C394.554 266.943 387.737 260.125 379.328 260.125C370.918 260.125 364.101 266.943 364.101 275.352C364.101 283.761 370.918 290.579 379.328 290.579Z" fill="#476983"/>
<g opacity="0.2">
<path opacity="0.2" d="M388.371 279.337L383.081 269.897C382.647 269.128 381.517 269.128 381.084 269.897L380.516 270.906L381.173 272.073L382.089 270.473L387.365 279.851H385.484C385.583 280.45 385.064 281.031 384.332 281.031H387.374C388.241 281.031 388.791 280.084 388.371 279.337Z" fill="white"/>
<path opacity="0.2" d="M375.602 279.847H371.299L377.795 268.284L379.909 272.006L380.521 270.906L378.671 267.623C378.278 266.926 377.295 266.93 376.906 267.627L370.271 279.485C369.883 280.182 370.396 281.031 371.205 281.031H376.754C376.017 281.031 375.503 280.445 375.602 279.847Z" fill="white"/>
<path opacity="0.2" d="M385.484 279.847C385.467 279.74 385.431 279.632 385.373 279.53L381.173 272.073L380.516 270.906L379.904 272.006L375.709 279.53C375.651 279.632 375.615 279.74 375.597 279.847C375.499 280.445 376.017 281.026 376.75 281.026H376.955H384.323C385.064 281.026 385.583 280.445 385.484 279.847ZM376.808 279.847L380.552 273.212L384.274 279.847H376.808Z" fill="white"/>
</g>
</g>
<g opacity="0.1">
<path opacity="0.1" d="M353.146 228.85C361.555 228.85 368.372 222.033 368.372 213.623C368.372 205.214 361.555 198.397 353.146 198.397C344.736 198.397 337.919 205.214 337.919 213.623C337.919 222.033 344.736 228.85 353.146 228.85Z" fill="#476983"/>
</g>
<g opacity="0.1">
<path opacity="0.1" d="M604.416 188.049C611.774 188.049 617.739 182.084 617.739 174.726C617.739 167.368 611.774 161.403 604.416 161.403C597.058 161.403 591.093 167.368 591.093 174.726C591.093 182.084 597.058 188.049 604.416 188.049Z" fill="#476983"/>
<path opacity="0.1" fill-rule="evenodd" clip-rule="evenodd" d="M599.818 172.885C600.43 170.437 601.963 169.208 604.411 169.208C608.088 169.208 608.549 171.965 610.385 172.425C611.609 172.733 612.681 172.273 613.602 171.049C612.99 173.497 611.457 174.726 609.009 174.726C605.332 174.726 604.871 171.969 603.035 171.509C601.811 171.201 600.739 171.661 599.818 172.885ZM595.225 178.399C595.837 175.95 597.37 174.721 599.818 174.721C603.495 174.721 603.956 177.478 605.792 177.938C607.016 178.247 608.088 177.786 609.009 176.562C608.397 179.011 606.864 180.239 604.416 180.239C600.739 180.239 600.278 177.483 598.442 177.022C597.218 176.714 596.146 177.174 595.225 178.399Z" fill="white"/>
</g>
<g opacity="0.1">
<path opacity="0.1" d="M596.517 147.892C603.875 147.892 609.84 141.927 609.84 134.569C609.84 127.21 603.875 121.245 596.517 121.245C589.158 121.245 583.193 127.21 583.193 134.569C583.193 141.927 589.158 147.892 596.517 147.892Z" fill="#476983"/>
<g opacity="0.1">
<path opacity="0.1" d="M601.682 128.376L596.517 137.325L591.352 128.376H587.911L596.517 143.29L605.126 128.376H601.682Z" fill="white"/>
<g opacity="0.8">
<path opacity="0.8" d="M598.505 128.376L596.517 131.821L594.529 128.376H591.352L596.517 137.321L601.682 128.376H598.505Z" fill="white"/>
</g>
</g>
</g>
<g opacity="0.9">
<path opacity="0.9" d="M518.382 122.93C525.74 122.93 531.705 116.965 531.705 109.606C531.705 102.248 525.74 96.2832 518.382 96.2832C511.024 96.2832 505.059 102.248 505.059 109.606C505.059 116.965 511.024 122.93 518.382 122.93Z" fill="#476983"/>
<g opacity="0.9">
<path opacity="0.9" d="M518.382 101.35H514.638L518.382 110.192" fill="white"/>
<path opacity="0.9" d="M518.382 101.35H522.122L518.382 110.192" fill="white"/>
<path opacity="0.9" d="M518.382 112.743V119.588L510.398 104.004H514.58" fill="white"/>
<path opacity="0.9" d="M518.382 112.747V119.588L526.362 104.004H522.18" fill="white"/>
</g>
</g>
<g opacity="0.3">
<path opacity="0.15" d="M366.706 150.649C374.064 150.649 380.029 144.683 380.029 137.325C380.029 129.967 374.064 124.002 366.706 124.002C359.348 124.002 353.383 129.967 353.383 137.325C353.383 144.683 359.348 150.649 366.706 150.649Z" fill="#476983"/>
<path opacity="0.15" d="M361.456 132.714L366.054 128.162L371.781 133.845L368.466 137.325L373.064 141.985L365.978 146.484L360.348 140.556L361.456 132.714Z" fill="white"/>
</g>
<path opacity="0.81" d="M476.667 333.583C555.137 333.583 618.75 269.97 618.75 191.5C618.75 113.03 555.137 49.4166 476.667 49.4166C398.196 49.4166 334.583 113.03 334.583 191.5C334.583 269.97 398.196 333.583 476.667 333.583Z" fill="url(#paint2_radial)"/>
<path d="M486.916 135.903H484.066V154.623H486.916V135.903Z" fill="#243746"/>
<path d="M489.146 134.653C489.146 136.67 487.51 138.306 485.493 138.306C483.475 138.306 481.84 136.67 481.84 134.653C481.84 132.636 483.475 131 485.493 131C487.51 131 489.146 132.636 489.146 134.653Z" fill="#1A2833"/>
<path d="M488.031 133.23C488.031 133.847 487.533 134.344 486.916 134.344C486.299 134.344 485.801 133.847 485.801 133.23C485.801 132.612 486.299 132.115 486.916 132.115C487.533 132.115 488.031 132.612 488.031 133.23Z" fill="white"/>
<path d="M497.25 156.301C497.158 156.313 497.1 155.78 496.656 154.955C496.656 154.955 496.448 154.569 496.209 154.241C495.441 153.188 492.849 153.211 492.644 153.211C488.602 153.246 486.002 152.991 486.002 153.014C486.002 153.034 487.9 152.995 489.288 152.968C493.208 152.887 495.541 152.679 496.544 153.728C496.961 154.164 497.169 154.731 497.169 154.731C497.455 155.503 497.358 156.286 497.25 156.301Z" fill="white"/>
<path opacity="0.59" d="M486.92 286C502.7 286 515.492 280.764 515.492 274.304C515.492 267.845 502.7 262.608 486.92 262.608C471.14 262.608 458.348 267.845 458.348 274.304C458.348 280.764 471.14 286 486.92 286Z" fill="#243746"/>
<path d="M451.182 256.701C451.26 242.803 449.446 240.014 452.3 236.774C452.628 236.402 454.3 234.505 456.988 234.076C459.129 233.734 461.046 234.462 461.949 235.003C467.43 238.287 465.449 251.896 461.577 260.426C460.733 262.285 458.468 267.273 455.862 267.088C454.795 267.011 454.027 266.095 453.49 265.432C451.105 262.509 451.169 258.798 451.182 256.701Z" fill="#243746"/>
<path d="M495.345 164.961H475.645C474.19 164.961 473.014 163.784 473.014 162.33V155.29C473.014 153.836 474.19 152.66 475.645 152.66H495.345C496.799 152.66 497.976 153.836 497.976 155.29V162.33C497.972 163.784 496.795 164.961 495.345 164.961Z" fill="#1A2833"/>
<path d="M530.15 205.877C530.15 217.249 520.931 226.468 509.559 226.468H461.426C450.101 226.468 440.835 217.202 440.835 205.877V195.18C440.835 175.029 457.322 158.542 477.473 158.542H493.52C513.671 158.542 530.158 175.029 530.158 195.18V205.877H530.15Z" fill="#243746"/>
<path d="M516.102 203.929C514.933 204.508 513.621 204.808 512.29 204.808H458.691C457.36 204.808 456.049 204.508 454.88 203.929C452.01 202.509 450.39 199.643 450.795 196.704L450.826 196.492C452.199 186.536 461.218 178.879 472.273 178.304C476.952 178.061 481.859 177.934 486.978 177.964C490.99 177.988 494.866 178.107 498.6 178.296C509.698 178.867 518.783 186.493 520.16 196.488C520.171 196.561 520.179 196.631 520.19 196.704C520.595 199.643 518.972 202.509 516.102 203.929Z" fill="#101F2B"/>
<path d="M469.067 196.607H474.652V198.653H477.004V196.607H478.447V194.636H477.004V187.016H473.925L469.067 194.67V196.607ZM474.697 194.636H471.544V194.545L474.607 189.698H474.697V194.636ZM484.649 198.909C487.575 198.909 489.342 196.681 489.348 192.846C489.354 189.039 487.564 186.857 484.649 186.857C481.729 186.857 479.956 189.034 479.95 192.846C479.939 196.67 481.717 198.903 484.649 198.909ZM484.649 196.869C483.314 196.869 482.45 195.528 482.456 192.846C482.462 190.204 483.32 188.874 484.649 188.874C485.973 188.874 486.837 190.204 486.837 192.846C486.842 195.528 485.979 196.869 484.649 196.869ZM490.926 196.607H496.511V198.653H498.864V196.607H500.307V194.636H498.864V187.016H495.784L490.926 194.67V196.607ZM496.557 194.636H493.403V194.545L496.466 189.698H496.557V194.636Z" fill="white"/>
<rect x="469" y="212" width="32" height="3" fill="white"/>
<path d="M516.962 170.261C517.012 171.966 515.619 174.007 514.022 174.184C512.526 174.346 511.334 172.819 510.099 171.245C508.884 169.69 506.23 165.702 507.287 164.575C508.684 163.082 516.846 166.238 516.962 170.261Z" fill="white"/>
<path d="M503.299 163.757C504 163.757 504.568 163.189 504.568 162.488C504.568 161.787 504 161.219 503.299 161.219C502.598 161.219 502.03 161.787 502.03 162.488C502.03 163.189 502.598 163.757 503.299 163.757Z" fill="white"/>
<path d="M516.781 193.93C516.372 194.22 513.533 188.43 505.906 183.411C503.225 181.648 500.579 180.391 500.737 180.024C500.896 179.654 503.877 180.344 506.265 181.452C513.864 184.981 517.267 193.591 516.781 193.93Z" fill="white"/>
<path d="M517.506 239.217C517.506 239.34 517.506 239.456 517.502 239.572C517.459 240.694 517.197 241.539 517.07 241.921C513.386 253.181 511.176 259.117 508.078 263.92C507.542 264.749 506.983 265.544 506.377 266.327C505.586 267.368 504.718 268.387 503.758 269.436C501.617 271.762 498.384 272.815 497.339 273.182C493.524 274.528 490.156 274.285 487.915 274.304H487.526C485.281 274.281 481.917 274.528 478.102 273.182C477.06 272.819 473.816 271.766 471.683 269.436C465.8 263.033 463.536 257.713 458.371 241.925C458.248 241.562 458.001 240.775 457.943 239.722C457.927 239.417 457.92 239.113 457.939 238.808C458.051 236.922 458.815 235.07 460.176 233.38C462.502 230.484 466.097 228.894 469.816 228.879L487.726 228.806L505.312 228.736C509.108 228.721 512.788 230.314 515.203 233.249C516.368 234.673 517.112 236.208 517.386 237.79C517.425 238.013 517.456 238.245 517.479 238.468C517.49 238.708 517.506 238.962 517.506 239.217Z" fill="#243746"/>
<path d="M487.719 228.794L469.808 228.867C466.09 228.883 462.498 230.472 460.169 233.369C458.811 235.058 458.047 236.91 457.931 238.796C458.024 236.86 458.818 234.962 460.238 233.234C462.645 230.298 466.329 228.705 470.129 228.721L487.719 228.794Z" fill="url(#paint3_linear)"/>
<path d="M505.521 255.183C505.258 241.288 503.38 238.542 506.153 235.236C506.473 234.858 508.097 232.918 510.771 232.424C512.904 232.03 514.836 232.713 515.751 233.23C521.309 236.382 519.662 250.037 515.998 258.655C515.199 260.533 513.058 265.575 510.447 265.455C509.378 265.405 508.587 264.506 508.036 263.858C505.586 260.992 505.559 257.277 505.521 255.183Z" fill="#243746"/>
<path d="M508.074 263.916C507.538 264.745 506.979 265.54 506.373 266.323C506.18 266.126 506.011 265.926 505.856 265.745C503.407 262.878 503.38 259.168 503.341 257.069C503.079 243.175 501.196 240.432 503.974 237.126C504.178 236.879 504.919 235.996 506.13 235.263C503.391 238.557 505.258 241.327 505.521 255.179C505.559 257.274 505.59 260.988 508.036 263.858C508.051 263.878 508.067 263.897 508.074 263.916Z" fill="#1A2833"/>
<path d="M515.916 243.614C515.839 242.121 515.558 241.022 514.998 238.827C514.266 235.953 513.347 234.553 513.945 233.998C514.335 233.635 515.099 233.882 515.272 233.936C517.899 234.773 518.713 239.699 518.597 242.785C518.528 244.671 518.069 246.785 517.375 246.878C517.267 246.893 516.993 246.878 516.8 246.708C516.028 246.025 515.978 244.748 515.916 243.614Z" fill="white"/>
<path d="M517.718 248.884C517.718 249.184 517.475 249.427 517.174 249.427C516.873 249.427 516.63 249.184 516.63 248.884C516.63 248.583 516.873 248.34 517.174 248.34C517.475 248.34 517.718 248.583 517.718 248.884Z" fill="white"/>
</g>
<defs>
<linearGradient id="paint0_linear" x1="431.994" y1="213.622" x2="431.994" y2="199.061" gradientUnits="userSpaceOnUse">
<stop stop-color="white" stop-opacity="0.95"/>
<stop offset="1" stop-color="white" stop-opacity="0.5"/>
</linearGradient>
<linearGradient id="paint1_linear" x1="550.585" y1="142.645" x2="550.585" y2="130.997" gradientUnits="userSpaceOnUse">
<stop stop-color="white" stop-opacity="0.95"/>
<stop offset="1" stop-color="white" stop-opacity="0.5"/>
</linearGradient>
<radialGradient id="paint2_radial" cx="0" cy="0" r="1" gradientUnits="userSpaceOnUse" gradientTransform="translate(476.667 191.501) scale(142.083)">
<stop offset="0.0397" stop-color="white"/>
<stop offset="1" stop-color="#2B4152" stop-opacity="0.3"/>
</radialGradient>
<linearGradient id="paint3_linear" x1="466.225" y1="240.068" x2="493.987" y2="207.65" gradientUnits="userSpaceOnUse">
<stop offset="0.0397" stop-color="#44BFE2"/>
<stop offset="1" stop-color="#DCE38C"/>
</linearGradient>
</defs>
</svg>
