<svg width="600" height="400" viewBox="0 0 600 400" fill="none" xmlns="http://www.w3.org/2000/svg">
<rect width="600" height="401" fill="#2B4152"/>
<mask id="mask0" mask-type="alpha" maskUnits="userSpaceOnUse" x="366" y="27" width="234" height="331">
<rect x="366" y="27" width="234" height="331" fill="#C4C4C4"/>
</mask>
<g mask="url(#mask0)">
<g opacity="0.9">
<path opacity="0.9" d="M431.991 220.236C442.503 220.236 451.024 211.714 451.024 201.203C451.024 190.691 442.503 182.169 431.991 182.169C421.479 182.169 412.958 190.691 412.958 201.203C412.958 211.714 421.479 220.236 431.991 220.236Z" fill="#476983"/>
<g opacity="0.9">
<path opacity="0.9" d="M436.646 201.283C436.646 200.055 437.652 199.058 438.894 199.058H442.173C443.415 199.058 444.452 200.055 444.452 201.283C444.452 202.512 443.415 203.508 442.173 203.508H438.894C437.652 203.508 436.646 202.512 436.646 201.283Z" fill="white"/>
<path opacity="0.9" d="M429.77 201.288C429.77 200.055 430.771 199.058 432.004 199.058C433.237 199.058 434.238 200.055 434.238 201.288C434.238 202.521 433.237 203.517 432.004 203.517C430.771 203.517 429.77 202.516 429.77 201.288Z" fill="white"/>
<path opacity="0.9" fill-rule="evenodd" clip-rule="evenodd" d="M434.176 190.868C434.225 192.07 433.292 193.08 432.09 193.129C426.903 193.344 423.739 197.405 423.891 201.256C423.94 202.458 423.024 203.468 421.823 203.517C420.621 203.566 419.566 202.597 419.517 201.395C419.267 195.113 424.517 188.903 431.911 188.782C433.108 188.737 434.123 189.671 434.176 190.868Z" fill="white"/>
<path opacity="0.9" fill-rule="evenodd" clip-rule="evenodd" d="M419.507 201.167C419.539 208.758 425.771 213.771 432.08 213.615C439.524 213.351 444.899 206.89 444.452 201.127C444.349 199.929 443.286 199 442.084 199.058C440.882 199.116 439.957 200.135 440.015 201.332C440.185 204.835 436.95 209.124 431.973 209.263C428.019 209.361 424.065 206.26 423.89 201.435C423.846 202.552 422.961 203.468 421.822 203.513C420.62 203.562 419.566 202.592 419.516 201.39C419.512 201.323 419.512 201.247 419.507 201.167Z" fill="url(#paint0_linear)"/>
</g>
</g>
<g opacity="0.8">
<path opacity="0.8" d="M467.202 136.517C477.714 136.517 486.235 127.995 486.235 117.483C486.235 106.972 477.714 98.45 467.202 98.45C456.69 98.45 448.169 106.972 448.169 117.483C448.169 127.995 456.69 136.517 467.202 136.517Z" fill="#476983"/>
<path opacity="0.8" fill-rule="evenodd" clip-rule="evenodd" d="M460.639 114.861C461.515 111.362 463.704 109.611 467.202 109.611C472.452 109.611 473.109 113.547 475.736 114.204C477.487 114.642 479.02 113.985 480.329 112.234C479.453 115.732 477.264 117.483 473.766 117.483C468.516 117.483 467.859 113.547 465.232 112.89C463.48 112.452 461.948 113.109 460.639 114.861ZM454.076 122.733C454.951 119.235 457.14 117.483 460.639 117.483C465.889 117.483 466.545 121.42 469.173 122.076C470.924 122.514 472.456 121.857 473.766 120.106C472.89 123.604 470.701 125.356 467.202 125.356C461.952 125.356 461.296 121.42 458.669 120.763C456.917 120.329 455.385 120.986 454.076 122.733Z" fill="white"/>
</g>
<g opacity="0.9">
<path opacity="0.9" d="M505.573 174.462C516.084 174.462 524.606 165.941 524.606 155.429C524.606 144.917 516.084 136.396 505.573 136.396C495.061 136.396 486.539 144.917 486.539 155.429C486.539 165.941 495.061 174.462 505.573 174.462Z" fill="#476983"/>
<g opacity="0.9">
<path opacity="0.9" d="M494.05 163.981C494.05 165.62 495.381 166.952 497.021 166.952H514.12C515.759 166.952 517.091 165.62 517.091 163.981V146.882C517.091 145.242 515.759 143.911 514.12 143.911H497.021C495.381 143.911 494.05 145.242 494.05 146.882V163.981Z" stroke="white" stroke-miterlimit="10"/>
<path opacity="0.9" d="M503.607 154.102V150.841H506.479C506.752 150.841 507.016 150.863 507.27 150.908C507.525 150.952 507.748 151.033 507.945 151.153C508.142 151.269 508.298 151.435 508.414 151.64C508.53 151.85 508.588 152.114 508.588 152.44C508.588 153.025 508.414 153.45 508.061 153.709C507.708 153.968 507.261 154.098 506.712 154.098H503.607V154.102ZM500.537 148.455V162.403H507.297C507.923 162.403 508.53 162.328 509.124 162.171C509.719 162.015 510.246 161.774 510.706 161.447C511.166 161.121 511.537 160.701 511.81 160.187C512.082 159.674 512.221 159.066 512.221 158.36C512.221 157.489 512.011 156.743 511.586 156.122C511.162 155.501 510.523 155.072 509.661 154.821C510.286 154.522 510.76 154.138 511.077 153.669C511.394 153.2 511.555 152.614 511.555 151.908C511.555 151.256 511.448 150.711 511.233 150.269C511.019 149.826 510.715 149.469 510.326 149.205C509.938 148.942 509.468 148.745 508.919 148.629C508.374 148.513 507.766 148.455 507.1 148.455H500.537ZM503.607 160.022V156.193H506.949C507.614 156.193 508.146 156.345 508.553 156.653C508.955 156.962 509.16 157.471 509.16 158.186C509.16 158.552 509.098 158.852 508.973 159.084C508.847 159.316 508.682 159.504 508.472 159.642C508.262 159.781 508.021 159.875 507.748 159.937C507.476 159.995 507.19 160.027 506.891 160.027H503.607V160.022Z" fill="white"/>
</g>
</g>
<g opacity="0.4">
<path opacity="0.4" d="M425.083 169.874C435.595 169.874 444.117 161.352 444.117 150.841C444.117 140.329 435.595 131.807 425.083 131.807C414.572 131.807 406.05 140.329 406.05 150.841C406.05 161.352 414.572 169.874 425.083 169.874Z" fill="#476983"/>
<g opacity="0.4">
<path opacity="0.4" d="M425.083 139.041H419.74L425.083 151.676" fill="white"/>
<path opacity="0.4" d="M425.083 139.041H430.431L425.083 151.676" fill="white"/>
<path opacity="0.4" d="M425.083 155.322V165.093L413.681 142.83H419.655" fill="white"/>
<path opacity="0.4" d="M425.083 155.322V165.093L436.485 142.83H430.516" fill="white"/>
</g>
</g>
<g opacity="0.9">
<path opacity="0.9" d="M559.129 197.584C569.641 197.584 578.163 189.062 578.163 178.551C578.163 168.039 569.641 159.517 559.129 159.517C548.617 159.517 540.096 168.039 540.096 178.551C540.096 189.062 548.617 197.584 559.129 197.584Z" fill="#476983"/>
<g opacity="0.9">
<path opacity="0.9" d="M570.438 183.532L563.825 171.728C563.28 170.768 561.873 170.768 561.327 171.728L560.621 172.988L561.444 174.449L562.587 172.448L569.182 184.171H566.832C566.953 184.917 566.309 185.65 565.389 185.65H569.191C570.272 185.646 570.96 184.466 570.438 183.532Z" fill="white"/>
<path opacity="0.9" d="M554.474 184.171H549.094L557.217 169.718L559.858 174.369L560.626 172.993L558.316 168.891C557.825 168.02 556.596 168.024 556.109 168.895L547.817 183.72C547.33 184.587 547.973 185.65 548.983 185.65H555.921C554.997 185.646 554.349 184.917 554.474 184.171Z" fill="white"/>
<path opacity="0.9" d="M566.828 184.171C566.805 184.037 566.761 183.903 566.689 183.774L561.444 174.449L560.622 172.988L559.853 174.364L554.612 183.774C554.541 183.903 554.496 184.037 554.474 184.167C554.353 184.913 554.997 185.646 555.917 185.646H556.176H565.384C566.305 185.646 566.948 184.917 566.828 184.171ZM555.98 184.171L560.662 175.879L565.317 184.171H555.98Z" fill="white"/>
</g>
</g>
<g opacity="0.8">
<path opacity="0.8" d="M540.096 253.45C550.608 253.45 559.129 244.929 559.129 234.417C559.129 223.905 550.608 215.384 540.096 215.384C529.584 215.384 521.063 223.905 521.063 234.417C521.063 244.929 529.584 253.45 540.096 253.45Z" fill="#476983"/>
<g opacity="0.8">
<path opacity="0.8" d="M547.477 225.58L540.096 238.358L532.719 225.58H527.8L540.096 246.878L552.396 225.58H547.477Z" fill="white"/>
<g opacity="0.8">
<path opacity="0.8" d="M542.938 225.58L540.096 230.499L537.254 225.58H532.715L540.091 238.358L547.468 225.58H542.938Z" fill="white"/>
</g>
</g>
</g>
<g opacity="0.2">
<path opacity="0.2" d="M592.433 235.744C602.945 235.744 611.466 227.223 611.466 216.711C611.466 206.199 602.945 197.678 592.433 197.678C581.921 197.678 573.4 206.199 573.4 216.711C573.4 227.223 581.921 235.744 592.433 235.744Z" fill="#476983"/>
<path opacity="0.5" fill-rule="evenodd" clip-rule="evenodd" d="M602.772 208.66L592.674 226.647L582.072 208.66H580.361L592.513 229.699L604.657 208.66H602.772Z" fill="white"/>
<path opacity="0.69" d="M580.11 205.237H604.746L592.388 226.643L580.11 205.237Z" fill="white"/>
<path opacity="0.2" fill-rule="evenodd" clip-rule="evenodd" d="M600.167 210.183L592.442 223.573L584.703 210.183H579.552L592.437 232.496L605.309 210.183H600.167Z" fill="white"/>
<path opacity="0.2" fill-rule="evenodd" clip-rule="evenodd" d="M589.234 207.713H593.514C594.296 207.713 594.926 207.891 595.409 208.253C595.887 208.606 596.114 209.151 596.114 209.879C596.114 210.335 596.012 210.71 595.797 211.028C595.583 211.345 595.266 211.582 594.863 211.76V211.787C595.404 211.899 595.811 212.154 596.101 212.556C596.378 212.949 596.517 213.454 596.517 214.044C596.517 214.396 596.454 214.714 596.329 215.018C596.204 215.321 596.012 215.572 595.748 215.786C595.484 216.014 595.154 216.179 594.738 216.304C594.336 216.443 593.84 216.505 593.273 216.505H589.234V207.713ZM590.775 211.399H593.286C593.653 211.399 593.97 211.287 594.207 211.081C594.457 210.867 594.573 210.563 594.573 210.174C594.573 209.732 594.47 209.419 594.247 209.227C594.032 209.048 593.706 208.964 593.286 208.964H590.775V211.399ZM590.775 215.245H593.501C593.97 215.245 594.332 215.12 594.586 214.879C594.837 214.638 594.98 214.298 594.98 213.856C594.98 213.414 594.854 213.087 594.586 212.846C594.323 212.605 593.97 212.493 593.501 212.493H590.775V215.245Z" fill="white"/>
</g>
<g opacity="0.7">
<path opacity="0.7" d="M436.646 282.644C447.158 282.644 455.68 274.122 455.68 263.61C455.68 253.099 447.158 244.577 436.646 244.577C426.135 244.577 417.613 253.099 417.613 263.61C417.613 274.122 426.135 282.644 436.646 282.644Z" fill="#476983"/>
<path opacity="0.7" d="M429.149 257.029L435.717 250.524L443.898 258.642L439.162 263.61L445.73 270.272L435.61 276.697L427.563 268.226L429.149 257.029Z" fill="white"/>
</g>
<g opacity="0.2">
<path opacity="0.2" d="M383.836 191.592C393.296 191.592 400.966 183.923 400.966 174.462C400.966 165.002 393.296 157.332 383.836 157.332C374.375 157.332 366.706 165.002 366.706 174.462C366.706 183.923 374.375 191.592 383.836 191.592Z" fill="#476983"/>
<path opacity="0.5" fill-rule="evenodd" clip-rule="evenodd" d="M393.138 167.215L384.05 183.403L374.507 167.215H372.97L383.907 186.15L394.836 167.215H393.138Z" fill="white"/>
<path opacity="0.69" d="M372.742 164.137H394.916L383.795 183.403L372.742 164.137Z" fill="white"/>
<path opacity="0.2" fill-rule="evenodd" clip-rule="evenodd" d="M390.792 168.592L383.84 180.646L376.875 168.592H372.241L383.84 188.675L395.425 168.592H390.792Z" fill="white"/>
<path opacity="0.2" fill-rule="evenodd" clip-rule="evenodd" d="M380.954 166.362H384.805C385.511 166.362 386.079 166.523 386.507 166.849C386.941 167.166 387.142 167.658 387.142 168.315C387.142 168.726 387.053 169.065 386.856 169.347C386.664 169.633 386.378 169.847 386.016 170.003V170.026C386.503 170.129 386.869 170.356 387.128 170.718C387.379 171.071 387.504 171.527 387.504 172.059C387.504 172.376 387.446 172.662 387.334 172.934C387.222 173.207 387.048 173.435 386.811 173.627C386.574 173.832 386.28 173.98 385.904 174.092C385.542 174.217 385.096 174.275 384.586 174.275H380.949V166.362H380.954ZM382.339 169.682H384.6C384.93 169.682 385.212 169.579 385.431 169.396C385.659 169.204 385.761 168.931 385.761 168.578C385.761 168.181 385.672 167.895 385.466 167.725C385.274 167.564 384.979 167.488 384.604 167.488H382.343V169.682H382.339ZM382.339 173.144H384.792C385.212 173.144 385.542 173.033 385.77 172.814C385.998 172.595 386.123 172.291 386.123 171.893C386.123 171.496 386.012 171.201 385.77 170.986C385.533 170.772 385.212 170.669 384.792 170.669H382.339V173.144Z" fill="white"/>
</g>
<g opacity="0.3">
<path opacity="0.3" d="M573.4 292.799C582.86 292.799 590.53 285.13 590.53 275.669C590.53 266.209 582.86 258.539 573.4 258.539C563.939 258.539 556.27 266.209 556.27 275.669C556.27 285.13 563.939 292.799 573.4 292.799Z" fill="#476983"/>
<g opacity="0.3">
<path opacity="0.3" d="M563.034 283.363C563.034 284.842 564.232 286.035 565.706 286.035H581.094C582.573 286.035 583.766 284.837 583.766 283.363V267.976C583.766 266.497 582.568 265.304 581.094 265.304H565.706C564.227 265.304 563.034 266.501 563.034 267.976V283.363Z" stroke="white" stroke-miterlimit="10"/>
<path opacity="0.3" d="M571.631 274.472V271.536H574.218C574.463 271.536 574.7 271.559 574.928 271.599C575.156 271.639 575.357 271.715 575.536 271.818C575.71 271.925 575.853 272.068 575.956 272.256C576.063 272.443 576.112 272.685 576.112 272.975C576.112 273.502 575.956 273.882 575.638 274.119C575.321 274.351 574.919 274.472 574.423 274.472H571.631ZM568.869 269.392V281.947H574.955C575.518 281.947 576.067 281.875 576.599 281.737C577.131 281.598 577.609 281.379 578.024 281.084C578.44 280.79 578.77 280.414 579.016 279.95C579.262 279.485 579.387 278.94 579.387 278.305C579.387 277.519 579.195 276.849 578.815 276.29C578.435 275.732 577.854 275.343 577.082 275.12C577.644 274.852 578.069 274.503 578.355 274.083C578.641 273.663 578.784 273.132 578.784 272.502C578.784 271.916 578.685 271.425 578.493 271.023C578.301 270.625 578.029 270.303 577.676 270.062C577.323 269.821 576.903 269.651 576.411 269.544C575.92 269.437 575.375 269.387 574.776 269.387H568.869V269.392ZM571.631 279.802V276.357H574.638C575.236 276.357 575.714 276.496 576.081 276.768C576.443 277.045 576.626 277.506 576.626 278.149C576.626 278.475 576.572 278.748 576.46 278.958C576.349 279.168 576.201 279.337 576.014 279.458C575.826 279.583 575.607 279.668 575.361 279.722C575.116 279.775 574.856 279.802 574.588 279.802H571.631Z" fill="white"/>
</g>
</g>
<g opacity="0.9">
<path opacity="0.9" d="M550.582 147.937C558.992 147.937 565.809 141.119 565.809 132.71C565.809 124.301 558.992 117.483 550.582 117.483C542.173 117.483 535.356 124.301 535.356 132.71C535.356 141.119 542.173 147.937 550.582 147.937Z" fill="#476983"/>
<g opacity="0.9">
<path opacity="0.9" d="M554.308 132.772C554.308 131.79 555.113 130.99 556.109 130.99H558.732C559.723 130.99 560.555 131.785 560.555 132.772C560.555 133.755 559.723 134.555 558.732 134.555H556.109C555.113 134.555 554.308 133.76 554.308 132.772Z" fill="white"/>
<path opacity="0.9" d="M548.804 132.777C548.804 131.794 549.604 130.994 550.591 130.994C551.579 130.994 552.378 131.794 552.378 132.777C552.378 133.76 551.579 134.56 550.591 134.56C549.604 134.56 548.804 133.76 548.804 132.777Z" fill="white"/>
<path opacity="0.9" fill-rule="evenodd" clip-rule="evenodd" d="M552.33 124.444C552.37 125.405 551.624 126.214 550.663 126.254C546.512 126.428 543.984 129.672 544.104 132.759C544.144 133.72 543.412 134.528 542.451 134.569C541.491 134.609 540.646 133.831 540.606 132.871C540.405 127.844 544.605 122.876 550.52 122.782C551.476 122.738 552.289 123.484 552.33 124.444Z" fill="white"/>
<path opacity="0.9" fill-rule="evenodd" clip-rule="evenodd" d="M540.596 132.683C540.619 138.755 545.609 142.767 550.654 142.642C556.609 142.428 560.907 137.263 560.55 132.652C560.465 131.696 559.616 130.95 558.656 130.999C557.695 131.043 556.953 131.861 556.998 132.822C557.132 135.623 554.545 139.059 550.564 139.166C547.401 139.242 544.238 136.762 544.099 132.906C544.064 133.8 543.358 134.533 542.446 134.569C541.486 134.609 540.641 133.831 540.601 132.871C540.601 132.808 540.596 132.746 540.596 132.683Z" fill="url(#paint1_linear)"/>
</g>
</g>
<g opacity="0.25">
<path opacity="0.25" d="M394.554 246.15C402.964 246.15 409.781 239.333 409.781 230.923C409.781 222.514 402.964 215.697 394.554 215.697C386.145 215.697 379.328 222.514 379.328 230.923C379.328 239.333 386.145 246.15 394.554 246.15Z" fill="#476983"/>
<g opacity="0.25">
<path opacity="0.25" d="M400.457 223.851L394.554 234.073L388.652 223.851H384.716L394.554 240.891L404.393 223.851H400.457Z" fill="white"/>
<g opacity="0.8">
<path opacity="0.8" d="M396.829 223.851L394.554 227.787L392.28 223.851H388.648L394.55 234.073L400.452 223.851H396.829Z" fill="white"/>
</g>
</g>
</g>
<g opacity="0.2">
<path opacity="0.2" d="M379.328 290.579C387.737 290.579 394.554 283.761 394.554 275.352C394.554 266.943 387.737 260.125 379.328 260.125C370.918 260.125 364.101 266.943 364.101 275.352C364.101 283.761 370.918 290.579 379.328 290.579Z" fill="#476983"/>
<g opacity="0.2">
<path opacity="0.2" d="M388.371 279.337L383.081 269.897C382.647 269.128 381.517 269.128 381.084 269.897L380.516 270.906L381.173 272.073L382.089 270.473L387.365 279.851H385.484C385.583 280.45 385.064 281.031 384.332 281.031H387.374C388.241 281.031 388.791 280.084 388.371 279.337Z" fill="white"/>
<path opacity="0.2" d="M375.602 279.847H371.299L377.795 268.284L379.909 272.006L380.521 270.906L378.671 267.623C378.278 266.926 377.295 266.93 376.906 267.627L370.271 279.485C369.883 280.182 370.396 281.031 371.205 281.031H376.754C376.017 281.031 375.503 280.445 375.602 279.847Z" fill="white"/>
<path opacity="0.2" d="M385.484 279.847C385.467 279.74 385.431 279.632 385.373 279.53L381.173 272.073L380.516 270.906L379.904 272.006L375.709 279.53C375.651 279.632 375.615 279.74 375.597 279.847C375.499 280.445 376.017 281.026 376.75 281.026H376.955H384.323C385.064 281.026 385.583 280.445 385.484 279.847ZM376.808 279.847L380.552 273.212L384.274 279.847H376.808Z" fill="white"/>
</g>
</g>
<g opacity="0.1">
<path opacity="0.1" d="M353.146 228.85C361.555 228.85 368.372 222.033 368.372 213.623C368.372 205.214 361.555 198.397 353.146 198.397C344.736 198.397 337.919 205.214 337.919 213.623C337.919 222.033 344.736 228.85 353.146 228.85Z" fill="#476983"/>
</g>
<g opacity="0.1">
<path opacity="0.1" d="M604.416 188.049C611.774 188.049 617.739 182.084 617.739 174.726C617.739 167.368 611.774 161.403 604.416 161.403C597.058 161.403 591.092 167.368 591.092 174.726C591.092 182.084 597.058 188.049 604.416 188.049Z" fill="#476983"/>
<path opacity="0.1" fill-rule="evenodd" clip-rule="evenodd" d="M599.818 172.885C600.43 170.437 601.963 169.208 604.411 169.208C608.088 169.208 608.548 171.965 610.385 172.425C611.609 172.733 612.681 172.273 613.602 171.049C612.99 173.497 611.457 174.726 609.009 174.726C605.332 174.726 604.871 171.969 603.035 171.509C601.811 171.201 600.739 171.661 599.818 172.885ZM595.225 178.399C595.837 175.95 597.37 174.721 599.818 174.721C603.495 174.721 603.956 177.478 605.792 177.938C607.016 178.247 608.088 177.786 609.009 176.562C608.397 179.011 606.864 180.239 604.416 180.239C600.739 180.239 600.278 177.483 598.442 177.022C597.218 176.714 596.146 177.174 595.225 178.399Z" fill="white"/>
</g>
<g opacity="0.1">
<path opacity="0.1" d="M596.517 147.892C603.875 147.892 609.84 141.927 609.84 134.569C609.84 127.21 603.875 121.245 596.517 121.245C589.158 121.245 583.193 127.21 583.193 134.569C583.193 141.927 589.158 147.892 596.517 147.892Z" fill="#476983"/>
<g opacity="0.1">
<path opacity="0.1" d="M601.682 128.376L596.517 137.325L591.352 128.376H587.911L596.517 143.29L605.126 128.376H601.682Z" fill="white"/>
<g opacity="0.8">
<path opacity="0.8" d="M598.505 128.376L596.517 131.821L594.529 128.376H591.352L596.517 137.321L601.682 128.376H598.505Z" fill="white"/>
</g>
</g>
</g>
<g opacity="0.9">
<path opacity="0.9" d="M518.382 122.93C525.74 122.93 531.705 116.965 531.705 109.606C531.705 102.248 525.74 96.2832 518.382 96.2832C511.024 96.2832 505.059 102.248 505.059 109.606C505.059 116.965 511.024 122.93 518.382 122.93Z" fill="#476983"/>
<g opacity="0.9">
<path opacity="0.9" d="M518.382 101.35H514.638L518.382 110.192" fill="white"/>
<path opacity="0.9" d="M518.382 101.35H522.122L518.382 110.192" fill="white"/>
<path opacity="0.9" d="M518.382 112.743V119.588L510.398 104.004H514.58" fill="white"/>
<path opacity="0.9" d="M518.382 112.747V119.588L526.362 104.004H522.18" fill="white"/>
</g>
</g>
<g opacity="0.3">
<path opacity="0.15" d="M366.706 150.649C374.064 150.649 380.029 144.683 380.029 137.325C380.029 129.967 374.064 124.002 366.706 124.002C359.348 124.002 353.383 129.967 353.383 137.325C353.383 144.683 359.348 150.649 366.706 150.649Z" fill="#476983"/>
<path opacity="0.15" d="M361.456 132.714L366.054 128.162L371.781 133.845L368.466 137.325L373.064 141.985L365.978 146.484L360.348 140.556L361.456 132.714Z" fill="white"/>
</g>
<path opacity="0.81" d="M476.667 333.583C555.137 333.583 618.75 269.97 618.75 191.5C618.75 113.03 555.137 49.4166 476.667 49.4166C398.196 49.4166 334.583 113.03 334.583 191.5C334.583 269.97 398.196 333.583 476.667 333.583Z" fill="url(#paint2_radial)"/>
<path d="M485.939 135.439H483.06V154.349H485.939V135.439Z" fill="#243746"/>
<path d="M488.191 134.177C488.191 136.215 486.539 137.867 484.501 137.867C482.464 137.867 480.811 136.215 480.811 134.177C480.811 132.139 482.464 130.487 484.501 130.487C486.539 130.487 488.191 132.139 488.191 134.177Z" fill="#1A2833"/>
<path d="M487.065 132.739C487.065 133.362 486.563 133.865 485.939 133.865C485.316 133.865 484.813 133.362 484.813 132.739C484.813 132.115 485.316 131.613 485.939 131.613C486.563 131.613 487.065 132.115 487.065 132.739Z" fill="white"/>
<path d="M496.378 156.044C496.285 156.056 496.226 155.518 495.778 154.684C495.778 154.684 495.568 154.295 495.326 153.963C494.551 152.9 491.932 152.923 491.726 152.923C487.642 152.958 485.016 152.701 485.016 152.724C485.016 152.744 486.933 152.705 488.336 152.678C492.294 152.596 494.652 152.385 495.665 153.445C496.086 153.886 496.296 154.458 496.296 154.458C496.585 155.238 496.487 156.029 496.378 156.044Z" fill="white"/>
<path opacity="0.59" d="M485.943 287.058C501.883 287.058 514.805 281.769 514.805 275.244C514.805 268.719 501.883 263.429 485.943 263.429C470.003 263.429 457.081 268.719 457.081 275.244C457.081 281.769 470.003 287.058 485.943 287.058Z" fill="#243746"/>
<path d="M444.141 226.439C457.681 230.149 460.877 229.109 463.292 232.74C463.569 233.157 464.984 235.285 464.699 238.02C464.473 240.198 463.261 241.878 462.498 242.618C457.861 247.107 445.099 241.616 437.79 235.608C436.196 234.299 431.921 230.784 432.782 228.29C433.137 227.269 434.232 226.759 435.019 226.408C438.495 224.846 442.099 225.878 444.141 226.439Z" fill="#243746"/>
<path d="M494.453 164.792H474.553C473.084 164.792 471.896 163.603 471.896 162.134V155.023C471.896 153.554 473.084 152.366 474.553 152.366H494.453C495.922 152.366 497.111 153.554 497.111 155.023V162.134C497.107 163.603 495.918 164.792 494.453 164.792Z" fill="#1A2833"/>
<path d="M529.612 206.123C529.612 217.61 520.299 226.923 508.812 226.923H460.191C448.75 226.923 439.391 217.563 439.391 206.123V195.318C439.391 174.962 456.045 158.308 476.4 158.308H492.61C512.966 158.308 529.62 174.962 529.62 195.318V206.123H529.612Z" fill="#243746"/>
<path d="M515.421 204.155C514.24 204.739 512.915 205.043 511.571 205.043H457.428C456.084 205.043 454.759 204.739 453.578 204.155C450.679 202.721 449.043 199.826 449.452 196.857L449.483 196.642C450.87 186.585 459.98 178.851 471.148 178.27C475.874 178.025 480.831 177.896 486.002 177.927C490.054 177.951 493.97 178.071 497.742 178.262C508.952 178.839 518.129 186.543 519.52 196.639C519.531 196.713 519.539 196.783 519.551 196.857C519.96 199.826 518.32 202.721 515.421 204.155Z" fill="#101F2B"/>
<path d="M470.165 202.538C475.819 202.538 480.402 197.954 480.402 192.301C480.402 186.647 475.819 182.064 470.165 182.064C464.512 182.064 459.928 186.647 459.928 192.301C459.928 197.954 464.512 202.538 470.165 202.538Z" fill="url(#paint3_radial)"/>
<path d="M470.232 199.947C474.28 199.947 477.562 196.665 477.562 192.617C477.562 188.569 474.28 185.288 470.232 185.288C466.184 185.288 462.903 188.569 462.903 192.617C462.903 196.665 466.184 199.947 470.232 199.947Z" fill="#EFF8FC"/>
<path d="M470.232 198.774C473.632 198.774 476.389 196.017 476.389 192.617C476.389 189.217 473.632 186.461 470.232 186.461C466.832 186.461 464.076 189.217 464.076 192.617C464.076 196.017 466.832 198.774 470.232 198.774Z" fill="#101F2B"/>
<path d="M474.176 191.024C474.176 192.282 473.155 193.303 471.896 193.303C470.637 193.303 469.617 192.282 469.617 191.024C469.617 189.765 470.637 188.744 471.896 188.744C473.155 188.74 474.176 189.761 474.176 191.024Z" fill="#EFF8FC"/>
<path d="M469.32 198.244C469.822 198.244 470.228 197.837 470.228 197.336C470.228 196.835 469.822 196.428 469.32 196.428C468.819 196.428 468.412 196.835 468.412 197.336C468.412 197.837 468.819 198.244 469.32 198.244Z" fill="#EFF8FC"/>
<path d="M467.064 195.972C467.064 196.222 466.862 196.428 466.608 196.428C466.359 196.428 466.153 196.225 466.153 195.972C466.153 195.723 466.355 195.516 466.608 195.516C466.862 195.516 467.064 195.719 467.064 195.972Z" fill="#EFF8FC"/>
<path d="M497.165 202.538C502.819 202.538 507.402 197.954 507.402 192.301C507.402 186.647 502.819 182.064 497.165 182.064C491.512 182.064 486.928 186.647 486.928 192.301C486.928 197.954 491.512 202.538 497.165 202.538Z" fill="url(#paint4_radial)"/>
<path d="M497.812 199.947C501.86 199.947 505.142 196.665 505.142 192.617C505.142 188.569 501.86 185.288 497.812 185.288C493.764 185.288 490.483 188.569 490.483 192.617C490.483 196.665 493.764 199.947 497.812 199.947Z" fill="#EFF8FC"/>
<path d="M497.812 198.774C501.212 198.774 503.969 196.017 503.969 192.617C503.969 189.217 501.212 186.461 497.812 186.461C494.412 186.461 491.656 189.217 491.656 192.617C491.656 196.017 494.412 198.774 497.812 198.774Z" fill="#101F2B"/>
<path d="M501.756 191.024C501.756 192.282 500.735 193.303 499.476 193.303C498.217 193.303 497.197 192.282 497.197 191.024C497.197 189.765 498.217 188.744 499.476 188.744C500.735 188.74 501.756 189.761 501.756 191.024Z" fill="#EFF8FC"/>
<path d="M496.904 198.244C497.406 198.244 497.812 197.837 497.812 197.336C497.812 196.835 497.406 196.428 496.904 196.428C496.403 196.428 495.996 196.835 495.996 197.336C495.996 197.837 496.403 198.244 496.904 198.244Z" fill="#EFF8FC"/>
<path d="M494.648 195.972C494.648 196.222 494.445 196.428 494.192 196.428C493.943 196.428 493.736 196.225 493.736 195.972C493.736 195.723 493.939 195.516 494.192 195.516C494.442 195.516 494.648 195.719 494.648 195.972Z" fill="#EFF8FC"/>
<path d="M516.289 170.146C516.34 171.868 514.933 173.929 513.32 174.109C511.808 174.272 510.604 172.729 509.358 171.139C508.13 169.569 505.449 165.54 506.517 164.402C507.928 162.894 516.173 166.082 516.289 170.146Z" fill="white"/>
<path d="M502.488 163.576C503.196 163.576 503.77 163.002 503.77 162.294C503.77 161.586 503.196 161.012 502.488 161.012C501.78 161.012 501.206 161.586 501.206 162.294C501.206 163.002 501.78 163.576 502.488 163.576Z" fill="white"/>
<path d="M516.106 194.055C515.693 194.347 512.825 188.499 505.122 183.429C502.414 181.648 499.741 180.378 499.901 180.008C500.06 179.634 503.072 180.331 505.484 181.45C513.161 185.015 516.597 193.712 516.106 194.055Z" fill="white"/>
<path d="M495.529 209.423C495.427 210.401 494.613 211.153 493.635 211.251L480.11 212.556C479.132 212.649 478.189 212.069 477.905 211.126C477.776 210.709 477.679 210.276 477.612 209.832C477.593 209.711 477.628 209.587 477.702 209.485C477.78 209.388 477.893 209.326 478.014 209.314L495.077 207.67C495.197 207.658 495.318 207.697 495.412 207.779C495.505 207.861 495.56 207.974 495.564 208.094C495.587 208.542 495.575 208.987 495.529 209.423Z" fill="#EFF8FC"/>
<path d="M495.529 209.427C495.096 213.62 491.765 217.068 487.408 217.481C483.114 217.898 479.233 215.233 477.959 211.29C478.298 212.131 479.187 212.646 480.11 212.552L493.639 211.251C494.617 211.153 495.427 210.401 495.529 209.427Z" fill="#101F2B"/>
<path d="M516.839 239.801C516.839 239.925 516.839 240.042 516.835 240.159C516.792 241.293 516.527 242.146 516.399 242.532C512.677 253.906 510.445 259.903 507.316 264.754C506.774 265.592 506.209 266.395 505.597 267.186C504.799 268.238 503.922 269.266 502.952 270.326C500.789 272.676 497.524 273.74 496.468 274.11C492.614 275.47 489.212 275.224 486.949 275.244H486.555C484.287 275.22 480.889 275.47 477.036 274.11C475.984 273.743 472.707 272.68 470.552 270.326C464.61 263.858 462.322 258.485 457.105 242.536C456.98 242.17 456.731 241.375 456.672 240.311C456.657 240.003 456.649 239.695 456.668 239.388C456.781 237.482 457.553 235.612 458.928 233.905C461.278 230.979 464.91 229.373 468.666 229.358L486.758 229.284L504.522 229.214C508.356 229.198 512.074 230.807 514.513 233.773C515.69 235.21 516.442 236.761 516.718 238.359C516.757 238.585 516.788 238.819 516.812 239.045C516.823 239.286 516.839 239.543 516.839 239.801Z" fill="#243746"/>
<path d="M486.75 229.272L468.658 229.346C464.902 229.362 461.274 230.967 458.921 233.893C457.549 235.6 456.777 237.47 456.661 239.376C456.754 237.42 457.557 235.503 458.991 233.757C461.422 230.792 465.143 229.182 468.981 229.198L486.75 229.272Z" fill="url(#paint5_linear)"/>
<path d="M504.732 255.928C504.467 241.893 502.57 239.119 505.371 235.779C505.695 235.398 507.335 233.438 510.036 232.939C512.19 232.541 514.143 233.231 515.066 233.753C520.681 236.937 519.017 250.73 515.315 259.435C514.509 261.333 512.346 266.426 509.708 266.305C508.629 266.254 507.83 265.346 507.273 264.692C504.799 261.797 504.771 258.044 504.732 255.928Z" fill="#243746"/>
<path d="M507.312 264.75C506.77 265.588 506.205 266.391 505.594 267.182C505.399 266.983 505.227 266.78 505.071 266.597C502.597 263.702 502.57 259.954 502.531 257.834C502.266 243.799 500.364 241.028 503.17 237.689C503.376 237.439 504.124 236.547 505.348 235.807C502.581 239.134 504.467 241.932 504.732 255.925C504.771 258.04 504.802 261.793 507.273 264.692C507.289 264.711 507.304 264.731 507.312 264.75Z" fill="#1A2833"/>
<path d="M515.234 244.243C515.156 242.735 514.871 241.624 514.306 239.407C513.566 236.504 512.639 235.09 513.242 234.529C513.636 234.162 514.408 234.412 514.583 234.466C517.236 235.312 518.059 240.288 517.942 243.405C517.872 245.31 517.408 247.446 516.706 247.539C516.597 247.555 516.321 247.539 516.126 247.368C515.347 246.678 515.296 245.388 515.234 244.243Z" fill="white"/>
<path d="M517.053 249.565C517.053 249.869 516.808 250.115 516.504 250.115C516.2 250.115 515.954 249.869 515.954 249.565C515.954 249.261 516.2 249.016 516.504 249.016C516.808 249.016 517.053 249.261 517.053 249.565Z" fill="white"/>
</g>
<defs>
<linearGradient id="paint0_linear" x1="431.994" y1="213.622" x2="431.994" y2="199.061" gradientUnits="userSpaceOnUse">
<stop stop-color="white" stop-opacity="0.95"/>
<stop offset="1" stop-color="white" stop-opacity="0.5"/>
</linearGradient>
<linearGradient id="paint1_linear" x1="550.585" y1="142.645" x2="550.585" y2="130.997" gradientUnits="userSpaceOnUse">
<stop stop-color="white" stop-opacity="0.95"/>
<stop offset="1" stop-color="white" stop-opacity="0.5"/>
</linearGradient>
<radialGradient id="paint2_radial" cx="0" cy="0" r="1" gradientUnits="userSpaceOnUse" gradientTransform="translate(476.667 191.501) scale(142.083)">
<stop offset="0.0397" stop-color="white"/>
<stop offset="1" stop-color="#2B4152" stop-opacity="0.3"/>
</radialGradient>
<radialGradient id="paint3_radial" cx="0" cy="0" r="1" gradientUnits="userSpaceOnUse" gradientTransform="translate(470.164 192.3) scale(10.1318)">
<stop offset="0.1296" stop-color="#4974B9"/>
<stop offset="1" stop-color="#101F2B"/>
</radialGradient>
<radialGradient id="paint4_radial" cx="0" cy="0" r="1" gradientUnits="userSpaceOnUse" gradientTransform="translate(497.164 192.3) scale(10.1318)">
<stop offset="0.1296" stop-color="#4974B9"/>
<stop offset="1" stop-color="#101F2B"/>
</radialGradient>
<linearGradient id="paint5_linear" x1="465.038" y1="240.66" x2="493.081" y2="207.914" gradientUnits="userSpaceOnUse">
<stop offset="0.0397" stop-color="#44BFE2"/>
<stop offset="1" stop-color="#DCE38C"/>
</linearGradient>
</defs>
</svg>
