<svg width="600" height="400" viewBox="0 0 600 400" fill="none" xmlns="http://www.w3.org/2000/svg">
<rect width="600" height="401" fill="#41B38A"/>
<mask id="mask0" mask-type="alpha" maskUnits="userSpaceOnUse" x="366" y="42" width="234" height="312">
<rect x="366" y="42" width="234" height="312" fill="#C4C4C4"/>
</mask>
<g mask="url(#mask0)">
<g opacity="0.9">
<path opacity="0.9" d="M426.811 221.953C437.347 221.953 445.889 213.431 445.889 202.92C445.889 192.408 437.347 183.886 426.811 183.886C416.274 183.886 407.732 192.408 407.732 202.92C407.732 213.431 416.274 221.953 426.811 221.953Z" fill="#158876"/>
<g opacity="0.9">
<path opacity="0.9" d="M431.477 203C431.477 201.771 432.485 200.775 433.73 200.775H437.017C438.262 200.775 439.301 201.771 439.301 203C439.301 204.229 438.262 205.225 437.017 205.225H433.73C432.485 205.225 431.477 204.229 431.477 203Z" fill="white"/>
<path opacity="0.9" d="M424.585 203.004C424.585 201.771 425.588 200.775 426.824 200.775C428.06 200.775 429.063 201.771 429.063 203.004C429.063 204.238 428.06 205.234 426.824 205.234C425.588 205.234 424.585 204.233 424.585 203.004Z" fill="white"/>
<path opacity="0.9" fill-rule="evenodd" clip-rule="evenodd" d="M429.001 192.585C429.05 193.787 428.114 194.797 426.91 194.846C421.71 195.061 418.539 199.122 418.692 202.973C418.741 204.175 417.823 205.185 416.618 205.234C415.413 205.283 414.357 204.314 414.307 203.112C414.056 196.83 419.319 190.619 426.731 190.499C427.931 190.454 428.947 191.388 429.001 192.585Z" fill="white"/>
<path opacity="0.9" fill-rule="evenodd" clip-rule="evenodd" d="M414.298 202.884C414.329 210.475 420.576 215.488 426.9 215.331C434.361 215.068 439.749 208.607 439.301 202.844C439.198 201.646 438.132 200.717 436.927 200.775C435.723 200.833 434.796 201.852 434.854 203.049C435.024 206.552 431.782 210.841 426.793 210.98C422.829 211.078 418.866 207.977 418.691 203.152C418.646 204.269 417.759 205.185 416.617 205.23C415.413 205.279 414.356 204.309 414.307 203.107C414.302 203.04 414.302 202.964 414.298 202.884Z" fill="url(#paint0_linear)"/>
</g>
</g>
<g opacity="0.8">
<path opacity="0.8" d="M462.105 138.233C472.642 138.233 481.184 129.712 481.184 119.2C481.184 108.688 472.642 100.167 462.105 100.167C451.569 100.167 443.027 108.688 443.027 119.2C443.027 129.712 451.569 138.233 462.105 138.233Z" fill="#158876"/>
<path opacity="0.8" fill-rule="evenodd" clip-rule="evenodd" d="M455.527 116.578C456.404 113.079 458.599 111.328 462.106 111.328C467.368 111.328 468.026 115.264 470.66 115.921C472.415 116.359 473.951 115.702 475.263 113.95C474.386 117.449 472.191 119.2 468.685 119.2C463.422 119.2 462.764 115.264 460.131 114.607C458.375 114.169 456.839 114.826 455.527 116.578ZM448.948 124.45C449.825 120.952 452.02 119.2 455.527 119.2C460.789 119.2 461.447 123.136 464.081 123.793C465.836 124.231 467.372 123.574 468.685 121.823C467.807 125.321 465.612 127.073 462.106 127.073C456.843 127.073 456.185 123.136 453.552 122.48C451.796 122.046 450.26 122.703 448.948 124.45Z" fill="white"/>
</g>
<g opacity="0.9">
<path opacity="0.9" d="M500.567 176.179C511.104 176.179 519.645 167.658 519.645 157.146C519.645 146.634 511.104 138.113 500.567 138.113C490.03 138.113 481.489 146.634 481.489 157.146C481.489 167.658 490.03 176.179 500.567 176.179Z" fill="#158876"/>
<g opacity="0.9">
<path opacity="0.9" d="M489.017 165.698C489.017 167.337 490.352 168.669 491.995 168.669H509.134C510.778 168.669 512.113 167.337 512.113 165.698V148.599C512.113 146.959 510.778 145.628 509.134 145.628H491.995C490.352 145.628 489.017 146.959 489.017 148.599V165.698Z" stroke="white" stroke-miterlimit="10"/>
<path opacity="0.9" d="M498.596 155.819V152.557H501.476C501.749 152.557 502.014 152.58 502.269 152.624C502.524 152.669 502.748 152.75 502.945 152.87C503.142 152.986 503.299 153.152 503.415 153.357C503.532 153.567 503.59 153.831 503.59 154.157C503.59 154.742 503.415 155.167 503.062 155.426C502.708 155.685 502.26 155.814 501.709 155.814H498.596V155.819ZM495.52 150.172V164.12H502.296C502.923 164.12 503.532 164.044 504.127 163.888C504.723 163.732 505.251 163.49 505.713 163.164C506.174 162.838 506.546 162.418 506.819 161.904C507.092 161.39 507.231 160.783 507.231 160.077C507.231 159.206 507.02 158.459 506.595 157.838C506.17 157.217 505.529 156.788 504.665 156.538C505.292 156.239 505.767 155.855 506.085 155.386C506.403 154.916 506.564 154.331 506.564 153.625C506.564 152.973 506.456 152.428 506.241 151.986C506.026 151.543 505.722 151.186 505.332 150.922C504.942 150.659 504.472 150.462 503.921 150.346C503.375 150.23 502.766 150.172 502.099 150.172H495.52ZM498.596 161.739V157.91H501.946C502.614 157.91 503.147 158.062 503.554 158.37C503.957 158.678 504.163 159.188 504.163 159.903C504.163 160.269 504.101 160.568 503.975 160.801C503.85 161.033 503.684 161.221 503.474 161.359C503.263 161.498 503.021 161.591 502.748 161.654C502.475 161.712 502.188 161.743 501.888 161.743H498.596V161.739Z" fill="white"/>
</g>
</g>
<g opacity="0.4">
<path opacity="0.4" d="M419.887 171.591C430.424 171.591 438.965 163.069 438.965 152.557C438.965 142.046 430.424 133.524 419.887 133.524C409.35 133.524 400.808 142.046 400.808 152.557C400.808 163.069 409.35 171.591 419.887 171.591Z" fill="#158876"/>
<g opacity="0.4">
<path opacity="0.4" d="M419.887 140.758H414.53L419.887 153.393" fill="white"/>
<path opacity="0.4" d="M419.887 140.758H425.248L419.887 153.393" fill="white"/>
<path opacity="0.4" d="M419.887 157.039V166.81L408.458 144.547H414.445" fill="white"/>
<path opacity="0.4" d="M419.887 157.039V166.81L431.316 144.547H425.333" fill="white"/>
</g>
</g>
<g opacity="0.9">
<path opacity="0.9" d="M554.251 199.301C564.788 199.301 573.329 190.779 573.329 180.267C573.329 169.756 564.788 161.234 554.251 161.234C543.714 161.234 535.173 169.756 535.173 180.267C535.173 190.779 543.714 199.301 554.251 199.301Z" fill="#158876"/>
<g opacity="0.9">
<path opacity="0.9" d="M565.586 185.249L558.958 173.445C558.411 172.484 557.001 172.484 556.454 173.445L555.747 174.705L556.571 176.166L557.717 174.164L564.328 185.888H561.972C562.093 186.634 561.448 187.367 560.525 187.367H564.337C565.42 187.362 566.11 186.183 565.586 185.249Z" fill="white"/>
<path opacity="0.9" d="M549.584 185.888H544.192L552.334 171.434L554.981 176.085L555.751 174.709L553.436 170.608C552.943 169.737 551.712 169.741 551.224 170.612L542.911 185.437C542.423 186.304 543.068 187.367 544.08 187.367H551.035C550.108 187.362 549.459 186.634 549.584 185.888Z" fill="white"/>
<path opacity="0.9" d="M561.967 185.888C561.945 185.754 561.9 185.62 561.829 185.49L556.571 176.166L555.747 174.705L554.977 176.081L549.723 185.49C549.652 185.62 549.607 185.754 549.584 185.884C549.464 186.63 550.108 187.362 551.031 187.362H551.291H560.521C561.444 187.362 562.088 186.634 561.967 185.888ZM551.094 185.888L555.787 177.596L560.454 185.888H551.094Z" fill="white"/>
</g>
</g>
<g opacity="0.8">
<path opacity="0.8" d="M535.173 255.167C545.709 255.167 554.251 246.646 554.251 236.134C554.251 225.622 545.709 217.101 535.173 217.101C524.636 217.101 516.094 225.622 516.094 236.134C516.094 246.646 524.636 255.167 535.173 255.167Z" fill="#158876"/>
<g opacity="0.8">
<path opacity="0.8" d="M542.571 227.296L535.172 240.075L527.778 227.296H522.848L535.172 248.595L547.502 227.296H542.571Z" fill="white"/>
<g opacity="0.8">
<path opacity="0.8" d="M538.021 227.296L535.172 232.216L532.324 227.296H527.774L535.168 240.075L542.562 227.296H538.021Z" fill="white"/>
</g>
</g>
</g>
<g opacity="0.2">
<path opacity="0.2" d="M587.634 237.461C598.17 237.461 606.712 228.939 606.712 218.428C606.712 207.916 598.17 199.394 587.634 199.394C577.097 199.394 568.555 207.916 568.555 218.428C568.555 228.939 577.097 237.461 587.634 237.461Z" fill="#158876"/>
<path opacity="0.5" fill-rule="evenodd" clip-rule="evenodd" d="M597.997 210.376L587.876 228.364L577.248 210.376H575.533L587.714 231.416L599.887 210.376H597.997Z" fill="white"/>
<path opacity="0.69" d="M575.282 206.954H599.976L587.589 228.36L575.282 206.954Z" fill="white"/>
<path opacity="0.2" fill-rule="evenodd" clip-rule="evenodd" d="M595.386 211.9L587.643 225.29L579.886 211.9H574.722L587.638 234.213L600.541 211.9H595.386Z" fill="white"/>
<path opacity="0.2" fill-rule="evenodd" clip-rule="evenodd" d="M584.427 209.429H588.717C589.501 209.429 590.133 209.608 590.616 209.97C591.096 210.323 591.324 210.868 591.324 211.596C591.324 212.052 591.221 212.427 591.006 212.745C590.791 213.062 590.473 213.299 590.07 213.477V213.504C590.612 213.616 591.019 213.87 591.311 214.273C591.588 214.666 591.727 215.171 591.727 215.76C591.727 216.113 591.664 216.431 591.539 216.734C591.414 217.038 591.221 217.288 590.957 217.503C590.692 217.731 590.361 217.896 589.945 218.021C589.542 218.16 589.044 218.222 588.476 218.222H584.427V209.429ZM585.972 213.115H588.489C588.856 213.115 589.174 213.004 589.412 212.798C589.662 212.584 589.779 212.28 589.779 211.891C589.779 211.449 589.676 211.136 589.452 210.944C589.237 210.765 588.91 210.68 588.489 210.68H585.972V213.115ZM585.972 216.962H588.704C589.174 216.962 589.537 216.837 589.792 216.596C590.043 216.355 590.186 216.015 590.186 215.573C590.186 215.13 590.061 214.804 589.792 214.563C589.528 214.322 589.174 214.21 588.704 214.21H585.972V216.962Z" fill="white"/>
</g>
<g opacity="0.7">
<path opacity="0.7" d="M431.477 284.36C442.014 284.36 450.556 275.839 450.556 265.327C450.556 254.815 442.014 246.294 431.477 246.294C420.94 246.294 412.399 254.815 412.399 265.327C412.399 275.839 420.94 284.36 431.477 284.36Z" fill="#158876"/>
<path opacity="0.7" d="M423.962 258.746L430.546 252.241L438.746 260.359L433.999 265.327L440.582 271.989L430.438 278.414L422.372 269.943L423.962 258.746Z" fill="white"/>
</g>
<g opacity="0.2">
<path opacity="0.2" d="M378.541 193.309C388.024 193.309 395.712 185.64 395.712 176.179C395.712 166.719 388.024 159.049 378.541 159.049C369.058 159.049 361.37 166.719 361.37 176.179C361.37 185.64 369.058 193.309 378.541 193.309Z" fill="#158876"/>
<path opacity="0.5" fill-rule="evenodd" clip-rule="evenodd" d="M387.865 168.932L378.756 185.119L369.19 168.932H367.649L378.613 187.867L389.567 168.932H387.865Z" fill="white"/>
<path opacity="0.69" d="M367.421 165.854H389.648L378.501 185.119L367.421 165.854Z" fill="white"/>
<path opacity="0.2" fill-rule="evenodd" clip-rule="evenodd" d="M385.514 170.308L378.545 182.363L371.563 170.308H366.919L378.545 190.392L390.158 170.308H385.514Z" fill="white"/>
<path opacity="0.2" fill-rule="evenodd" clip-rule="evenodd" d="M375.652 168.079H379.513C380.22 168.079 380.789 168.24 381.219 168.566C381.654 168.883 381.855 169.375 381.855 170.031C381.855 170.442 381.766 170.782 381.569 171.063C381.376 171.349 381.089 171.564 380.727 171.72V171.743C381.215 171.845 381.582 172.073 381.842 172.435C382.093 172.788 382.218 173.244 382.218 173.775C382.218 174.093 382.16 174.379 382.048 174.651C381.936 174.924 381.761 175.152 381.524 175.344C381.286 175.549 380.991 175.697 380.615 175.808C380.252 175.933 379.804 175.992 379.293 175.992H375.648V168.079H375.652ZM377.041 171.399H379.307C379.638 171.399 379.92 171.296 380.14 171.113C380.368 170.92 380.471 170.648 380.471 170.295C380.471 169.897 380.382 169.611 380.176 169.442C379.983 169.281 379.688 169.205 379.311 169.205H377.045V171.399H377.041ZM377.041 174.861H379.499C379.92 174.861 380.252 174.749 380.48 174.531C380.709 174.312 380.834 174.008 380.834 173.61C380.834 173.212 380.722 172.918 380.48 172.703C380.243 172.489 379.92 172.386 379.499 172.386H377.041V174.861Z" fill="white"/>
</g>
<g opacity="0.3">
<path opacity="0.3" d="M568.555 294.516C578.039 294.516 585.726 286.847 585.726 277.386C585.726 267.925 578.039 260.256 568.555 260.256C559.072 260.256 551.385 267.925 551.385 277.386C551.385 286.847 559.072 294.516 568.555 294.516Z" fill="#158876"/>
<g opacity="0.3">
<path opacity="0.3" d="M558.165 285.08C558.165 286.559 559.366 287.752 560.844 287.752H576.268C577.75 287.752 578.946 286.554 578.946 285.08V269.692C578.946 268.214 577.746 267.021 576.268 267.021H560.844C559.361 267.021 558.165 268.218 558.165 269.692V285.08Z" stroke="white" stroke-miterlimit="10"/>
<path opacity="0.3" d="M566.782 276.189V273.253H569.375C569.621 273.253 569.859 273.276 570.087 273.316C570.316 273.356 570.517 273.432 570.696 273.535C570.871 273.642 571.014 273.785 571.117 273.973C571.225 274.16 571.274 274.402 571.274 274.692C571.274 275.219 571.117 275.599 570.799 275.836C570.481 276.068 570.078 276.189 569.581 276.189H566.782ZM564.014 271.109V283.663H570.114C570.678 283.663 571.229 283.592 571.762 283.453C572.295 283.315 572.774 283.096 573.191 282.801C573.607 282.506 573.939 282.131 574.185 281.666C574.431 281.202 574.557 280.657 574.557 280.022C574.557 279.236 574.364 278.566 573.984 278.007C573.603 277.449 573.021 277.06 572.246 276.837C572.81 276.568 573.236 276.22 573.522 275.8C573.809 275.38 573.952 274.848 573.952 274.218C573.952 273.633 573.854 273.142 573.661 272.739C573.468 272.342 573.195 272.02 572.841 271.779C572.488 271.538 572.067 271.368 571.574 271.261C571.081 271.153 570.535 271.104 569.935 271.104H564.014V271.109ZM566.782 281.519V278.074H569.796C570.396 278.074 570.875 278.213 571.243 278.485C571.605 278.762 571.789 279.222 571.789 279.866C571.789 280.192 571.735 280.464 571.623 280.674C571.511 280.884 571.364 281.054 571.175 281.175C570.987 281.3 570.768 281.385 570.522 281.438C570.275 281.492 570.016 281.519 569.747 281.519H566.782Z" fill="white"/>
</g>
</g>
<g opacity="0.9">
<path opacity="0.9" d="M545.684 149.653C554.113 149.653 560.946 142.836 560.946 134.427C560.946 126.017 554.113 119.2 545.684 119.2C537.254 119.2 530.421 126.017 530.421 134.427C530.421 142.836 537.254 149.653 545.684 149.653Z" fill="#158876"/>
<g opacity="0.9">
<path opacity="0.9" d="M549.419 134.489C549.419 133.506 550.225 132.707 551.223 132.707H553.852C554.847 132.707 555.68 133.502 555.68 134.489C555.68 135.472 554.847 136.272 553.852 136.272H551.223C550.225 136.272 549.419 135.477 549.419 134.489Z" fill="white"/>
<path opacity="0.9" d="M543.901 134.494C543.901 133.511 544.703 132.711 545.693 132.711C546.682 132.711 547.484 133.511 547.484 134.494C547.484 135.477 546.682 136.276 545.693 136.276C544.703 136.276 543.901 135.477 543.901 134.494Z" fill="white"/>
<path opacity="0.9" fill-rule="evenodd" clip-rule="evenodd" d="M547.435 126.161C547.476 127.122 546.728 127.93 545.765 127.971C541.604 128.145 539.069 131.389 539.19 134.476C539.231 135.436 538.496 136.245 537.533 136.285C536.57 136.326 535.724 135.548 535.684 134.588C535.482 129.561 539.692 124.593 545.621 124.499C546.58 124.454 547.395 125.201 547.435 126.161Z" fill="white"/>
<path opacity="0.9" fill-rule="evenodd" clip-rule="evenodd" d="M535.674 134.4C535.697 140.472 540.699 144.484 545.755 144.359C551.725 144.144 556.033 138.979 555.675 134.369C555.59 133.412 554.739 132.666 553.776 132.715C552.813 132.76 552.07 133.578 552.115 134.538C552.249 137.34 549.656 140.776 545.666 140.883C542.495 140.959 539.324 138.479 539.185 134.623C539.149 135.517 538.442 136.25 537.528 136.285C536.565 136.326 535.719 135.548 535.679 134.588C535.679 134.525 535.674 134.462 535.674 134.4Z" fill="url(#paint1_linear)"/>
</g>
</g>
<g opacity="0.25">
<path opacity="0.25" d="M389.285 247.867C397.715 247.867 404.548 241.049 404.548 232.64C404.548 224.231 397.715 217.413 389.285 217.413C380.856 217.413 374.022 224.231 374.022 232.64C374.022 241.049 380.856 247.867 389.285 247.867Z" fill="#158876"/>
<g opacity="0.25">
<path opacity="0.25" d="M395.201 225.567L389.285 235.79L383.369 225.567H379.424L389.285 242.608L399.147 225.567H395.201Z" fill="white"/>
<g opacity="0.8">
<path opacity="0.8" d="M391.565 225.567L389.285 229.504L387.006 225.567H383.365L389.281 235.79L395.197 225.567H391.565Z" fill="white"/>
</g>
</g>
</g>
<g opacity="0.2">
<path opacity="0.2" d="M374.022 292.295C382.452 292.295 389.285 285.478 389.285 277.069C389.285 268.659 382.452 261.842 374.022 261.842C365.593 261.842 358.76 268.659 358.76 277.069C358.76 285.478 365.593 292.295 374.022 292.295Z" fill="#158876"/>
<g opacity="0.2">
<path opacity="0.2" d="M383.087 281.054L377.784 271.614C377.35 270.845 376.217 270.845 375.782 271.614L375.214 272.623L375.872 273.789L376.79 272.19L382.079 281.568H380.194C380.292 282.167 379.773 282.748 379.038 282.748H382.088C382.957 282.748 383.508 281.8 383.087 281.054Z" fill="white"/>
<path opacity="0.2" d="M370.287 281.564H365.975L372.486 270.001L374.605 273.722L375.218 272.623L373.364 269.339C372.97 268.642 371.985 268.647 371.595 269.344L364.945 281.202C364.555 281.899 365.07 282.748 365.881 282.748H371.443C370.704 282.748 370.189 282.162 370.287 281.564Z" fill="white"/>
<path opacity="0.2" d="M380.194 281.564C380.176 281.456 380.14 281.349 380.082 281.246L375.872 273.789L375.214 272.623L374.6 273.722L370.395 281.246C370.337 281.349 370.301 281.456 370.283 281.564C370.184 282.162 370.704 282.743 371.438 282.743H371.644H379.029C379.773 282.743 380.292 282.162 380.194 281.564ZM371.496 281.564L375.249 274.929L378.98 281.564H371.496Z" fill="white"/>
</g>
</g>
<g opacity="0.1">
<path opacity="0.1" d="M599.645 189.766C607.021 189.766 613 183.801 613 176.443C613 169.085 607.021 163.12 599.645 163.12C592.269 163.12 586.29 169.085 586.29 176.443C586.29 183.801 592.269 189.766 599.645 189.766Z" fill="#158876"/>
<path opacity="0.1" fill-rule="evenodd" clip-rule="evenodd" d="M595.037 174.602C595.65 172.154 597.186 170.925 599.64 170.925C603.326 170.925 603.788 173.682 605.628 174.142C606.855 174.45 607.93 173.99 608.853 172.766C608.239 175.214 606.703 176.443 604.249 176.443C600.563 176.443 600.102 173.686 598.261 173.226C597.034 172.918 595.959 173.378 595.037 174.602ZM590.433 180.115C591.046 177.667 592.582 176.438 595.037 176.438C598.722 176.438 599.184 179.195 601.024 179.655C602.251 179.963 603.326 179.503 604.249 178.279C603.635 180.727 602.099 181.956 599.645 181.956C595.959 181.956 595.498 179.199 593.657 178.739C592.43 178.431 591.355 178.891 590.433 180.115Z" fill="white"/>
</g>
<g opacity="0.1">
<path opacity="0.1" d="M591.727 149.609C599.103 149.609 605.082 143.644 605.082 136.285C605.082 128.927 599.103 122.962 591.727 122.962C584.351 122.962 578.372 128.927 578.372 136.285C578.372 143.644 584.351 149.609 591.727 149.609Z" fill="#158876"/>
<g opacity="0.1">
<path opacity="0.1" d="M596.904 130.093L591.727 139.042L586.55 130.093H583.102L591.727 145.007L600.357 130.093H596.904Z" fill="white"/>
<g opacity="0.8">
<path opacity="0.8" d="M593.72 130.093L591.727 133.538L589.734 130.093H586.55L591.727 139.038L596.904 130.093H593.72Z" fill="white"/>
</g>
</g>
</g>
<g opacity="0.9">
<path opacity="0.9" d="M513.407 124.647C520.783 124.647 526.762 118.682 526.762 111.323C526.762 103.965 520.783 98 513.407 98C506.031 98 500.052 103.965 500.052 111.323C500.052 118.682 506.031 124.647 513.407 124.647Z" fill="#158876"/>
<g opacity="0.9">
<path opacity="0.9" d="M513.407 103.067H509.654L513.407 111.909" fill="white"/>
<path opacity="0.9" d="M513.407 103.067H517.156L513.407 111.909" fill="white"/>
<path opacity="0.9" d="M513.407 114.46V121.305L505.404 105.721H509.596" fill="white"/>
<path opacity="0.9" d="M513.407 114.464V121.305L521.406 105.721H517.214" fill="white"/>
</g>
</g>
<g opacity="0.3">
<path opacity="0.15" d="M361.371 152.365C368.746 152.365 374.725 146.4 374.725 139.042C374.725 131.684 368.746 125.719 361.371 125.719C353.995 125.719 348.016 131.684 348.016 139.042C348.016 146.4 353.995 152.365 361.371 152.365Z" fill="#158876"/>
<path opacity="0.15" d="M356.108 134.431L360.717 129.878L366.458 135.562L363.135 139.042L367.743 143.702L360.641 148.201L354.998 142.272L356.108 134.431Z" fill="white"/>
</g>
<path opacity="0.81" d="M476.255 335.167C554.725 335.167 618.338 271.554 618.338 193.083C618.338 114.613 554.725 51 476.255 51C397.784 51 334.171 114.613 334.171 193.083C334.171 271.554 397.784 335.167 476.255 335.167Z" fill="url(#paint2_radial)"/>
<path d="M485.527 137.023H482.648V155.933H485.527V137.023Z" fill="#158876"/>
<path d="M487.779 135.76C487.779 137.798 486.127 139.45 484.089 139.45C482.052 139.45 480.399 137.798 480.399 135.76C480.399 133.722 482.052 132.07 484.089 132.07C486.127 132.07 487.779 133.722 487.779 135.76Z" fill="#137361"/>
<path d="M486.653 134.322C486.653 134.946 486.151 135.448 485.527 135.448C484.904 135.448 484.401 134.946 484.401 134.322C484.401 133.699 484.904 133.196 485.527 133.196C486.151 133.196 486.653 133.699 486.653 134.322Z" fill="white"/>
<path d="M495.966 157.628C495.873 157.639 495.814 157.102 495.366 156.268C495.366 156.268 495.156 155.878 494.914 155.547C494.139 154.483 491.52 154.506 491.314 154.506C487.23 154.541 484.604 154.284 484.604 154.308C484.604 154.327 486.521 154.288 487.924 154.261C491.882 154.179 494.24 153.969 495.253 155.029C495.674 155.469 495.884 156.042 495.884 156.042C496.173 156.821 496.075 157.612 495.966 157.628Z" fill="white"/>
<path opacity="0.59" d="M485.531 288.641C501.471 288.641 514.393 283.352 514.393 276.827C514.393 270.302 501.471 265.013 485.531 265.013C469.591 265.013 456.669 270.302 456.669 276.827C456.669 283.352 469.591 288.641 485.531 288.641Z" fill="#137361"/>
<path d="M443.729 228.023C457.269 231.732 460.465 230.692 462.88 234.323C463.157 234.74 464.572 236.868 464.287 239.603C464.061 241.781 462.849 243.461 462.086 244.201C457.449 248.69 444.687 243.2 437.378 237.191C435.784 235.882 431.509 232.367 432.37 229.874C432.725 228.853 433.82 228.342 434.607 227.992C438.083 226.429 441.687 227.462 443.729 228.023Z" fill="#158876"/>
<path d="M494.041 166.375H474.142C472.672 166.375 471.484 165.187 471.484 163.718V156.607C471.484 155.138 472.672 153.949 474.142 153.949H494.041C495.51 153.949 496.699 155.138 496.699 156.607V163.718C496.695 165.187 495.506 166.375 494.041 166.375Z" fill="#137361"/>
<path d="M529.2 207.706C529.2 219.193 519.887 228.506 508.4 228.506H459.779C448.338 228.506 438.979 219.146 438.979 207.706V196.901C438.979 176.545 455.633 159.891 475.988 159.891H492.198C512.554 159.891 529.208 176.545 529.208 196.901V207.706H529.2Z" fill="#158876"/>
<path d="M515.009 205.738C513.828 206.323 512.503 206.627 511.159 206.627H457.016C455.672 206.627 454.347 206.323 453.166 205.738C450.267 204.304 448.631 201.409 449.04 198.44L449.071 198.226C450.458 188.169 459.568 180.434 470.736 179.854C475.462 179.608 480.419 179.479 485.59 179.511C489.642 179.534 493.558 179.655 497.33 179.846C508.54 180.422 517.717 188.126 519.108 198.222C519.119 198.296 519.127 198.366 519.139 198.44C519.548 201.409 517.908 204.304 515.009 205.738Z" fill="#243746"/>
<path d="M469.82 204.41C475.459 204.41 480.029 199.839 480.029 194.201C480.029 188.562 475.459 183.992 469.82 183.992C464.182 183.992 459.611 188.562 459.611 194.201C459.611 199.839 464.182 204.41 469.82 204.41Z" fill="url(#paint3_radial)"/>
<path d="M469.82 201.53C473.868 201.53 477.15 198.249 477.15 194.201C477.15 190.153 473.868 186.871 469.82 186.871C465.772 186.871 462.491 190.153 462.491 194.201C462.491 198.249 465.772 201.53 469.82 201.53Z" fill="#EFF8FC"/>
<path d="M469.82 200.357C473.22 200.357 475.977 197.601 475.977 194.201C475.977 190.8 473.22 188.044 469.82 188.044C466.42 188.044 463.664 190.8 463.664 194.201C463.664 197.601 466.42 200.357 469.82 200.357Z" fill="#243746"/>
<path d="M473.764 192.607C473.764 193.865 472.743 194.886 471.484 194.886C470.225 194.886 469.205 193.865 469.205 192.607C469.205 191.348 470.225 190.327 471.484 190.327C472.743 190.324 473.764 191.344 473.764 192.607Z" fill="#EFF8FC"/>
<path d="M468.908 199.827C469.41 199.827 469.816 199.421 469.816 198.919C469.816 198.418 469.41 198.011 468.908 198.011C468.407 198.011 468 198.418 468 198.919C468 199.421 468.407 199.827 468.908 199.827Z" fill="#EFF8FC"/>
<path d="M466.652 197.556C466.652 197.805 466.45 198.011 466.196 198.011C465.947 198.011 465.741 197.809 465.741 197.556C465.741 197.306 465.943 197.1 466.196 197.1C466.45 197.1 466.652 197.302 466.652 197.556Z" fill="#EFF8FC"/>
<path d="M497.4 204.41C503.038 204.41 507.609 199.839 507.609 194.201C507.609 188.562 503.038 183.992 497.4 183.992C491.762 183.992 487.191 188.562 487.191 194.201C487.191 199.839 491.762 204.41 497.4 204.41Z" fill="url(#paint4_radial)"/>
<path d="M497.4 201.53C501.448 201.53 504.73 198.249 504.73 194.201C504.73 190.153 501.448 186.871 497.4 186.871C493.352 186.871 490.071 190.153 490.071 194.201C490.071 198.249 493.352 201.53 497.4 201.53Z" fill="#EFF8FC"/>
<path d="M497.4 200.357C500.8 200.357 503.557 197.601 503.557 194.201C503.557 190.8 500.8 188.044 497.4 188.044C494 188.044 491.244 190.8 491.244 194.201C491.244 197.601 494 200.357 497.4 200.357Z" fill="#243746"/>
<path d="M501.344 192.607C501.344 193.865 500.323 194.886 499.064 194.886C497.805 194.886 496.785 193.865 496.785 192.607C496.785 191.348 497.805 190.327 499.064 190.327C500.323 190.324 501.344 191.344 501.344 192.607Z" fill="#EFF8FC"/>
<path d="M496.492 199.827C496.994 199.827 497.4 199.421 497.4 198.919C497.4 198.418 496.994 198.011 496.492 198.011C495.991 198.011 495.584 198.418 495.584 198.919C495.584 199.421 495.991 199.827 496.492 199.827Z" fill="#EFF8FC"/>
<path d="M494.236 197.556C494.236 197.805 494.034 198.011 493.78 198.011C493.531 198.011 493.324 197.809 493.324 197.556C493.324 197.306 493.527 197.1 493.78 197.1C494.03 197.1 494.236 197.302 494.236 197.556Z" fill="#EFF8FC"/>
<path d="M515.877 171.729C515.928 173.451 514.521 175.513 512.908 175.692C511.396 175.856 510.192 174.313 508.946 172.723C507.718 171.152 505.037 167.123 506.105 165.986C507.516 164.478 515.761 167.665 515.877 171.729Z" fill="white"/>
<path d="M502.076 165.16C502.784 165.16 503.358 164.586 503.358 163.878C503.358 163.17 502.784 162.596 502.076 162.596C501.368 162.596 500.794 163.17 500.794 163.878C500.794 164.586 501.368 165.16 502.076 165.16Z" fill="white"/>
<path d="M515.694 195.638C515.281 195.931 512.413 190.082 504.71 185.013C502.002 183.232 499.329 181.962 499.489 181.591C499.648 181.217 502.66 181.915 505.072 183.033C512.749 186.598 516.185 195.296 515.694 195.638Z" fill="white"/>
<path d="M495.117 211.006C495.015 211.984 494.201 212.737 493.223 212.834L479.698 214.139C478.72 214.233 477.777 213.652 477.493 212.709C477.364 212.292 477.267 211.86 477.2 211.416C477.181 211.295 477.216 211.17 477.29 211.069C477.368 210.971 477.481 210.909 477.602 210.897L494.665 209.253C494.785 209.241 494.906 209.28 495 209.362C495.093 209.444 495.148 209.557 495.152 209.678C495.175 210.126 495.163 210.57 495.117 211.006Z" fill="#EFF8FC"/>
<path d="M495.117 211.01C494.684 215.203 491.353 218.651 486.996 219.065C482.702 219.481 478.821 216.816 477.547 212.873C477.886 213.715 478.775 214.229 479.698 214.135L493.227 212.834C494.205 212.737 495.015 211.984 495.117 211.01Z" fill="#243746"/>
<path d="M516.427 241.384C516.427 241.509 516.427 241.626 516.423 241.742C516.38 242.876 516.115 243.73 515.987 244.115C512.266 255.49 510.033 261.486 506.904 266.338C506.362 267.175 505.797 267.978 505.185 268.769C504.387 269.821 503.51 270.85 502.54 271.91C500.377 274.259 497.112 275.323 496.056 275.693C492.202 277.053 488.8 276.808 486.537 276.827H486.143C483.875 276.804 480.477 277.053 476.624 275.693C475.572 275.327 472.295 274.263 470.14 271.91C464.198 265.441 461.91 260.068 456.693 244.119C456.568 243.753 456.319 242.958 456.26 241.894C456.245 241.587 456.237 241.279 456.256 240.971C456.369 239.066 457.141 237.195 458.516 235.489C460.866 232.562 464.498 230.957 468.254 230.941L486.346 230.867L504.11 230.797C507.944 230.781 511.662 232.391 514.101 235.356C515.278 236.794 516.03 238.345 516.306 239.942C516.345 240.168 516.376 240.402 516.4 240.628C516.411 240.87 516.427 241.127 516.427 241.384Z" fill="#158876"/>
<path d="M486.338 230.856L468.246 230.93C464.49 230.945 460.862 232.551 458.509 235.477C457.137 237.184 456.365 239.054 456.249 240.959C456.342 239.003 457.145 237.086 458.579 235.34C461.01 232.375 464.731 230.766 468.569 230.781L486.338 230.856Z" fill="url(#paint5_linear)"/>
<path d="M504.32 257.512C504.055 243.476 502.158 240.702 504.959 237.363C505.283 236.981 506.923 235.021 509.624 234.522C511.778 234.125 513.731 234.814 514.654 235.337C520.269 238.52 518.605 252.314 514.903 261.019C514.097 262.916 511.934 268.009 509.296 267.888C508.217 267.838 507.418 266.93 506.861 266.275C504.387 263.38 504.359 259.628 504.32 257.512Z" fill="#158876"/>
<path d="M506.9 266.334C506.358 267.171 505.793 267.974 505.182 268.765C504.987 268.566 504.815 268.364 504.659 268.181C502.185 265.285 502.158 261.537 502.119 259.417C501.854 245.382 499.952 242.611 502.758 239.272C502.964 239.023 503.713 238.13 504.936 237.39C502.169 240.718 504.055 243.515 504.32 257.508C504.359 259.624 504.39 263.376 506.861 266.275C506.877 266.295 506.892 266.314 506.9 266.334Z" fill="#137361"/>
<path d="M514.822 245.826C514.744 244.318 514.459 243.208 513.894 240.99C513.154 238.088 512.227 236.673 512.831 236.112C513.224 235.746 513.996 235.995 514.171 236.05C516.824 236.895 517.647 241.871 517.53 244.988C517.46 246.894 516.996 249.029 516.295 249.123C516.185 249.138 515.909 249.123 515.714 248.951C514.935 248.261 514.884 246.972 514.822 245.826Z" fill="white"/>
<path d="M516.641 251.149C516.641 251.453 516.396 251.698 516.092 251.698C515.788 251.698 515.542 251.453 515.542 251.149C515.542 250.845 515.788 250.599 516.092 250.599C516.396 250.599 516.641 250.845 516.641 251.149Z" fill="white"/>
</g>
<defs>
<linearGradient id="paint0_linear" x1="426.814" y1="215.338" x2="426.814" y2="200.778" gradientUnits="userSpaceOnUse">
<stop stop-color="white" stop-opacity="0.95"/>
<stop offset="1" stop-color="white" stop-opacity="0.5"/>
</linearGradient>
<linearGradient id="paint1_linear" x1="545.686" y1="144.362" x2="545.686" y2="132.713" gradientUnits="userSpaceOnUse">
<stop stop-color="white" stop-opacity="0.95"/>
<stop offset="1" stop-color="white" stop-opacity="0.5"/>
</linearGradient>
<radialGradient id="paint2_radial" cx="0" cy="0" r="1" gradientUnits="userSpaceOnUse" gradientTransform="translate(476.255 193.085) scale(142.083)">
<stop offset="0.0397" stop-color="white"/>
<stop offset="1" stop-color="#41B38A" stop-opacity="0.3"/>
</radialGradient>
<radialGradient id="paint3_radial" cx="0" cy="0" r="1" gradientUnits="userSpaceOnUse" gradientTransform="translate(469.819 194.2) scale(10.1042)">
<stop offset="0.1296" stop-color="#4974B9"/>
<stop offset="1" stop-color="#020203"/>
</radialGradient>
<radialGradient id="paint4_radial" cx="0" cy="0" r="1" gradientUnits="userSpaceOnUse" gradientTransform="translate(497.401 194.2) scale(10.1042)">
<stop offset="0.1296" stop-color="#4974B9"/>
<stop offset="1" stop-color="#020203"/>
</radialGradient>
<linearGradient id="paint5_linear" x1="464.626" y1="242.244" x2="492.669" y2="209.497" gradientUnits="userSpaceOnUse">
<stop offset="0.0397" stop-color="#44BFE2"/>
<stop offset="1" stop-color="#DCE38C"/>
</linearGradient>
</defs>
</svg>
