<svg width="21" height="23" viewBox="0 0 21 23" fill="none" xmlns="http://www.w3.org/2000/svg">
<path d="M15.0441 21.9665V17.9181C15.0441 16.6768 14.6985 15.7686 14.0101 15.1935C14.7664 15.1167 15.4459 14.9999 16.0515 14.8491C16.6542 14.6953 17.2805 14.4448 17.9246 14.1003C18.5686 13.7558 19.1063 13.3288 19.5376 12.8248C19.9689 12.3181 20.3205 11.649 20.5923 10.8092C20.8641 9.97215 21 9.00986 21 7.92231C21 6.37354 20.4741 5.05538 19.4254 3.96783C19.9158 2.80341 19.8626 1.49948 19.2658 0.0532083C18.8936 -0.0606715 18.3559 0.00765794 17.6528 0.263888C16.9496 0.520117 16.3381 0.80197 15.8211 1.10945L15.0648 1.57066C13.8299 1.23756 12.5566 1.07243 11.2419 1.07243C9.92725 1.07243 8.65394 1.23756 7.41904 1.57066C7.20633 1.43116 6.92567 1.25749 6.57411 1.05251C6.22255 0.847523 5.66713 0.60268 4.91083 0.312286C4.15453 0.0247394 3.58435 -0.0606715 3.19733 0.0532083C2.61238 1.49948 2.56807 2.80341 3.05848 3.96783C2.0097 5.05538 1.48384 6.37354 1.48384 7.92231C1.48384 9.00986 1.61973 9.9693 1.89153 10.8006C2.16332 11.6319 2.51193 12.3038 2.93736 12.8163C3.36278 13.3288 3.8975 13.7558 4.54154 14.1031C5.18558 14.4476 5.80894 14.6982 6.41457 14.8519C7.02021 15.0056 7.6997 15.1195 8.456 15.1964C7.92423 15.6576 7.59925 16.3153 7.48108 17.1722C7.20337 17.3003 6.90204 17.3971 6.58592 17.4597C6.26686 17.5224 5.88871 17.5565 5.45147 17.5565C5.01423 17.5565 4.57995 17.4199 4.14862 17.1437C3.71729 16.8676 3.348 16.469 3.04371 15.9451C2.79259 15.5352 2.47057 15.2021 2.07765 14.9487C1.68473 14.6925 1.3568 14.5387 1.09091 14.4875L0.692079 14.4305C0.414374 14.4305 0.222345 14.459 0.11599 14.516C0.00963473 14.5729 -0.0228616 14.6469 0.0155444 14.738C0.0539505 14.8263 0.115991 14.9174 0.195757 15.0056C0.275524 15.0939 0.361196 15.1736 0.455734 15.2362L0.594586 15.333C0.887063 15.4612 1.17659 15.7031 1.4602 16.0619C1.74677 16.4206 1.95357 16.7451 2.08651 17.0412L2.28445 17.4825C2.4558 17.9694 2.74828 18.3622 3.16188 18.6612C3.57253 18.963 4.01863 19.1537 4.49723 19.2363C4.97583 19.3188 5.4367 19.3644 5.87984 19.3701C6.32594 19.3758 6.69228 19.3558 6.98476 19.3018L7.44268 19.2249C7.44268 19.7117 7.44563 20.2811 7.45154 20.9331C7.45745 21.585 7.4604 21.9295 7.4604 21.9694C7.4604 22.1687 7.39245 22.3395 7.26246 22.479C8.52986 22.8178 9.86521 23 11.2449 23C12.6275 23 13.9658 22.8149 15.2391 22.4762C15.1091 22.3338 15.0441 22.1658 15.0441 21.9665Z" fill="#fff"/>
</svg>
