<svg width="43" height="43" viewBox="0 0 43 43" fill="none" xmlns="http://www.w3.org/2000/svg">
<rect width="43" height="43" rx="8" fill="white"/>
<path d="M26.0441 31.9665V27.9181C26.0441 26.6768 25.6985 25.7686 25.0101 25.1935C25.7664 25.1167 26.4459 24.9999 27.0515 24.8491C27.6542 24.6953 28.2805 24.4448 28.9246 24.1003C29.5686 23.7558 30.1063 23.3288 30.5376 22.8248C30.9689 22.3181 31.3205 21.649 31.5923 20.8092C31.8641 19.9721 32 19.0099 32 17.9223C32 16.3735 31.4741 15.0554 30.4254 13.9678C30.9158 12.8034 30.8626 11.4995 30.2658 10.0532C29.8936 9.93933 29.3559 10.0077 28.6528 10.2639C27.9496 10.5201 27.3381 10.802 26.8211 11.1094L26.0648 11.5707C24.8299 11.2376 23.5566 11.0724 22.2419 11.0724C20.9272 11.0724 19.6539 11.2376 18.419 11.5707C18.2063 11.4312 17.9257 11.2575 17.5741 11.0525C17.2225 10.8475 16.6671 10.6027 15.9108 10.3123C15.1545 10.0247 14.5843 9.93933 14.1973 10.0532C13.6124 11.4995 13.5681 12.8034 14.0585 13.9678C13.0097 15.0554 12.4838 16.3735 12.4838 17.9223C12.4838 19.0099 12.6197 19.9693 12.8915 20.8006C13.1633 21.6319 13.5119 22.3038 13.9374 22.8163C14.3628 23.3288 14.8975 23.7558 15.5415 24.1031C16.1856 24.4476 16.8089 24.6982 17.4146 24.8519C18.0202 25.0056 18.6997 25.1195 19.456 25.1964C18.9242 25.6576 18.5993 26.3153 18.4811 27.1722C18.2034 27.3003 17.902 27.3971 17.5859 27.4597C17.2669 27.5224 16.8887 27.5565 16.4515 27.5565C16.0142 27.5565 15.5799 27.4199 15.1486 27.1437C14.7173 26.8676 14.348 26.469 14.0437 25.9451C13.7926 25.5352 13.4706 25.2021 13.0777 24.9487C12.6847 24.6925 12.3568 24.5387 12.0909 24.4875L11.6921 24.4305C11.4144 24.4305 11.2223 24.459 11.116 24.516C11.0096 24.5729 10.9771 24.6469 11.0155 24.738C11.054 24.8263 11.116 24.9174 11.1958 25.0056C11.2755 25.0939 11.3612 25.1736 11.4557 25.2362L11.5946 25.333C11.8871 25.4612 12.1766 25.7031 12.4602 26.0619C12.7468 26.4206 12.9536 26.7451 13.0865 27.0412L13.2845 27.4825C13.4558 27.9694 13.7483 28.3622 14.1619 28.6612C14.5725 28.963 15.0186 29.1537 15.4972 29.2363C15.9758 29.3188 16.4367 29.3644 16.8798 29.3701C17.3259 29.3758 17.6923 29.3558 17.9848 29.3018L18.4427 29.2249C18.4427 29.7117 18.4456 30.2811 18.4515 30.9331C18.4574 31.585 18.4604 31.9295 18.4604 31.9694C18.4604 32.1687 18.3925 32.3395 18.2625 32.479C19.5299 32.8178 20.8652 33 22.2449 33C23.6275 33 24.9658 32.8149 26.2391 32.4762C26.1091 32.3338 26.0441 32.1658 26.0441 31.9665Z" fill="#243746"/>
</svg>
