<svg width="234" height="301" viewBox="0 0 234 301" fill="none" xmlns="http://www.w3.org/2000/svg">
<mask id="mask0" mask-type="alpha" maskUnits="userSpaceOnUse" x="0" y="0" width="234" height="301">
<rect width="234" height="301" fill="#C4C4C4"/>
</mask>
<g mask="url(#mask0)">
<g opacity="0.9">
<path opacity="0.9" d="M60.8105 154.953C71.3473 154.953 79.889 146.431 79.889 135.92C79.889 125.408 71.3473 116.886 60.8105 116.886C50.2738 116.886 41.7321 125.408 41.7321 135.92C41.7321 146.431 50.2738 154.953 60.8105 154.953Z" fill="#158876"/>
<g opacity="0.9">
<path opacity="0.9" d="M65.4771 136C65.4771 134.771 66.4848 133.775 67.7298 133.775H71.017C72.2621 133.775 73.3011 134.771 73.3011 136C73.3011 137.229 72.2621 138.225 71.017 138.225H67.7298C66.4848 138.225 65.4771 137.229 65.4771 136Z" fill="white"/>
<path opacity="0.9" d="M58.5847 136.004C58.5847 134.771 59.5879 133.775 60.8239 133.775C62.06 133.775 63.0632 134.771 63.0632 136.004C63.0632 137.238 62.06 138.234 60.8239 138.234C59.5879 138.234 58.5847 137.233 58.5847 136.004Z" fill="white"/>
<path opacity="0.9" fill-rule="evenodd" clip-rule="evenodd" d="M63.0012 125.585C63.0505 126.787 62.1145 127.797 60.9098 127.846C55.7102 128.061 52.5394 132.122 52.6917 135.973C52.741 137.175 51.8229 138.185 50.6182 138.234C49.4134 138.283 48.3565 137.314 48.3073 136.112C48.0565 129.83 53.3187 123.619 60.7306 123.499C61.9308 123.454 62.9475 124.388 63.0012 125.585Z" fill="white"/>
<path opacity="0.9" fill-rule="evenodd" clip-rule="evenodd" d="M48.2975 135.884C48.3289 143.475 54.5764 148.488 60.9001 148.331C68.3613 148.068 73.7489 141.607 73.3011 135.844C73.1981 134.646 72.1322 133.717 70.9275 133.775C69.7227 133.833 68.7957 134.852 68.8539 136.049C69.0241 139.552 65.7817 143.841 60.7926 143.98C56.8291 144.078 52.8656 140.977 52.691 136.152C52.6462 137.269 51.7594 138.185 50.6174 138.23C49.4127 138.279 48.3558 137.309 48.3065 136.107C48.302 136.04 48.302 135.964 48.2975 135.884Z" fill="url(#paint0_linear)"/>
</g>
</g>
<g opacity="0.8">
<path opacity="0.8" d="M96.1055 71.2334C106.642 71.2334 115.184 62.7119 115.184 52.2001C115.184 41.6883 106.642 33.1669 96.1055 33.1669C85.5688 33.1669 77.0271 41.6883 77.0271 52.2001C77.0271 62.7119 85.5688 71.2334 96.1055 71.2334Z" fill="#158876"/>
<path opacity="0.8" fill-rule="evenodd" clip-rule="evenodd" d="M89.5266 49.5775C90.4044 46.0791 92.5989 44.3277 96.1056 44.3277C101.368 44.3277 102.026 48.2639 104.66 48.9207C106.415 49.3586 107.951 48.7018 109.263 46.9504C108.386 50.4487 106.191 52.2002 102.684 52.2002C97.4222 52.2002 96.7639 48.2639 94.1306 47.6072C92.375 47.1693 90.8388 47.8261 89.5266 49.5775ZM82.9477 57.4499C83.8255 53.9516 86.02 52.2002 89.5266 52.2002C94.7889 52.2002 95.4472 56.1364 98.0806 56.7932C99.8362 57.231 101.372 56.5742 102.684 54.8228C101.807 58.3212 99.6122 60.0726 96.1056 60.0726C90.8433 60.0726 90.185 56.1364 87.5516 55.4796C85.796 55.0462 84.2599 55.703 82.9477 57.4499Z" fill="white"/>
</g>
<g opacity="0.9">
<path opacity="0.9" d="M134.567 109.179C145.104 109.179 153.645 100.658 153.645 90.146C153.645 79.6342 145.104 71.1127 134.567 71.1127C124.03 71.1127 115.489 79.6342 115.489 90.146C115.489 100.658 124.03 109.179 134.567 109.179Z" fill="#158876"/>
<g opacity="0.9">
<path opacity="0.9" d="M123.017 98.6975C123.017 100.337 124.352 101.669 125.995 101.669H143.134C144.778 101.669 146.113 100.337 146.113 98.6975V81.5989C146.113 79.9591 144.778 78.6277 143.134 78.6277H125.995C124.352 78.6277 123.017 79.9591 123.017 81.5989V98.6975Z" stroke="white" stroke-miterlimit="10"/>
<path opacity="0.9" d="M132.596 88.819V85.5574H135.476C135.749 85.5574 136.014 85.5797 136.269 85.6244C136.524 85.6691 136.748 85.7495 136.945 85.8702C137.142 85.9863 137.299 86.1516 137.415 86.3571C137.532 86.5671 137.59 86.8307 137.59 87.1569C137.59 87.7422 137.415 88.1666 137.062 88.4258C136.708 88.6849 136.26 88.8145 135.709 88.8145H132.596V88.819ZM129.52 83.1715V97.1203H136.296C136.923 97.1203 137.532 97.0444 138.127 96.888C138.723 96.7316 139.251 96.4903 139.713 96.1642C140.174 95.838 140.546 95.418 140.819 94.9042C141.092 94.3904 141.231 93.7828 141.231 93.0769C141.231 92.2056 141.02 91.4595 140.595 90.8384C140.17 90.2174 139.529 89.7885 138.665 89.5383C139.292 89.2389 139.767 88.8547 140.085 88.3856C140.402 87.9164 140.564 87.3312 140.564 86.6252C140.564 85.9729 140.456 85.4278 140.241 84.9855C140.026 84.5432 139.722 84.1857 139.332 83.9221C138.942 83.6585 138.472 83.462 137.921 83.3458C137.375 83.2296 136.766 83.1715 136.099 83.1715H129.52ZM132.596 94.7389V90.9099H135.946C136.614 90.9099 137.147 91.0618 137.554 91.3701C137.957 91.6784 138.163 92.1877 138.163 92.9026C138.163 93.269 138.101 93.5683 137.975 93.8007C137.85 94.033 137.684 94.2206 137.474 94.3591C137.263 94.4977 137.021 94.5915 136.748 94.654C136.475 94.7121 136.188 94.7434 135.888 94.7434H132.596V94.7389Z" fill="white"/>
</g>
</g>
<g opacity="0.4">
<path opacity="0.4" d="M53.8868 104.591C64.4235 104.591 72.9652 96.0692 72.9652 85.5574C72.9652 75.0457 64.4235 66.5242 53.8868 66.5242C43.3501 66.5242 34.8084 75.0457 34.8084 85.5574C34.8084 96.0692 43.3501 104.591 53.8868 104.591Z" fill="#158876"/>
<g opacity="0.4">
<path opacity="0.4" d="M53.8867 73.7577H48.5305L53.8867 86.3929" fill="white"/>
<path opacity="0.4" d="M53.8867 73.7577H59.2475L53.8867 86.3929" fill="white"/>
<path opacity="0.4" d="M53.8867 90.0387V99.81L42.4576 77.5465H48.4454" fill="white"/>
<path opacity="0.4" d="M53.8867 90.0387V99.81L65.3159 77.5465H59.3326" fill="white"/>
</g>
</g>
<g opacity="0.9">
<path opacity="0.9" d="M188.251 132.301C198.788 132.301 207.329 123.779 207.329 113.267C207.329 102.756 198.788 94.2342 188.251 94.2342C177.714 94.2342 169.173 102.756 169.173 113.267C169.173 123.779 177.714 132.301 188.251 132.301Z" fill="#158876"/>
<g opacity="0.9">
<path opacity="0.9" d="M199.586 118.249L192.958 106.445C192.411 105.484 191.001 105.484 190.454 106.445L189.747 107.705L190.571 109.166L191.717 107.164L198.328 118.888H195.972C196.093 119.634 195.448 120.367 194.525 120.367H198.337C199.42 120.362 200.11 119.183 199.586 118.249Z" fill="white"/>
<path opacity="0.9" d="M183.584 118.888H178.192L186.334 104.434L188.981 109.085L189.751 107.709L187.436 103.608C186.943 102.737 185.712 102.741 185.224 103.612L176.911 118.437C176.423 119.304 177.068 120.367 178.08 120.367H185.035C184.108 120.362 183.459 119.634 183.584 118.888Z" fill="white"/>
<path opacity="0.9" d="M195.968 118.888C195.945 118.754 195.9 118.62 195.829 118.49L190.571 109.166L189.747 107.705L188.977 109.081L183.723 118.49C183.652 118.62 183.607 118.754 183.584 118.884C183.464 119.63 184.108 120.362 185.031 120.362H185.291H194.521C195.444 120.362 196.088 119.634 195.968 118.888ZM185.094 118.888L189.787 110.596L194.454 118.888H185.094Z" fill="white"/>
</g>
</g>
<g opacity="0.8">
<path opacity="0.8" d="M169.173 188.167C179.709 188.167 188.251 179.646 188.251 169.134C188.251 158.622 179.709 150.101 169.173 150.101C158.636 150.101 150.094 158.622 150.094 169.134C150.094 179.646 158.636 188.167 169.173 188.167Z" fill="#158876"/>
<g opacity="0.8">
<path opacity="0.8" d="M176.571 160.296L169.172 173.075L161.778 160.296H156.848L169.172 181.595L181.502 160.296H176.571Z" fill="white"/>
<g opacity="0.8">
<path opacity="0.8" d="M172.021 160.296L169.172 165.216L166.324 160.296H161.774L169.168 173.075L176.562 160.296H172.021Z" fill="white"/>
</g>
</g>
</g>
<g opacity="0.7">
<path opacity="0.7" d="M65.4772 217.36C76.0139 217.36 84.5556 208.839 84.5556 198.327C84.5556 187.815 76.0139 179.294 65.4772 179.294C54.9404 179.294 46.3987 187.815 46.3987 198.327C46.3987 208.839 54.9404 217.36 65.4772 217.36Z" fill="#158876"/>
<path opacity="0.7" d="M57.9622 191.746L64.5456 185.241L72.7458 193.359L67.9986 198.327L74.582 204.989L64.4382 211.414L56.3723 202.943L57.9622 191.746Z" fill="white"/>
</g>
<g opacity="0.9">
<path opacity="0.9" d="M179.684 82.6534C188.113 82.6534 194.946 75.8362 194.946 67.4268C194.946 59.0173 188.113 52.2002 179.684 52.2002C171.254 52.2002 164.421 59.0173 164.421 67.4268C164.421 75.8362 171.254 82.6534 179.684 82.6534Z" fill="#158876"/>
<g opacity="0.9">
<path opacity="0.9" d="M183.419 67.4893C183.419 66.5063 184.225 65.7066 185.223 65.7066H187.852C188.847 65.7066 189.68 66.5019 189.68 67.4893C189.68 68.4722 188.847 69.272 187.852 69.272H185.223C184.225 69.272 183.419 68.4767 183.419 67.4893Z" fill="white"/>
<path opacity="0.9" d="M177.901 67.4937C177.901 66.5108 178.703 65.7111 179.693 65.7111C180.682 65.7111 181.484 66.5108 181.484 67.4937C181.484 68.4767 180.682 69.2764 179.693 69.2764C178.703 69.2764 177.901 68.4767 177.901 67.4937Z" fill="white"/>
<path opacity="0.9" fill-rule="evenodd" clip-rule="evenodd" d="M181.435 59.1611C181.476 60.1217 180.728 60.9304 179.765 60.9706C175.604 61.1449 173.069 64.3886 173.19 67.4759C173.231 68.4365 172.496 69.2452 171.533 69.2854C170.57 69.3256 169.724 68.5482 169.684 67.5876C169.482 62.5612 173.692 57.5929 179.621 57.4991C180.58 57.4544 181.395 58.2005 181.435 59.1611Z" fill="white"/>
<path opacity="0.9" fill-rule="evenodd" clip-rule="evenodd" d="M169.674 67.3999C169.697 73.4718 174.699 77.4839 179.755 77.3588C185.725 77.1444 190.033 71.9795 189.675 67.3686C189.59 66.4125 188.739 65.6664 187.776 65.7155C186.813 65.7602 186.07 66.5778 186.115 67.5384C186.249 70.3398 183.656 73.7756 179.666 73.8828C176.495 73.9588 173.324 71.4791 173.185 67.6233C173.149 68.5169 172.442 69.2496 171.528 69.2854C170.565 69.3256 169.719 68.5481 169.679 67.5875C169.679 67.525 169.674 67.4625 169.674 67.3999Z" fill="url(#paint1_linear)"/>
</g>
</g>
<g opacity="0.9">
<path opacity="0.9" d="M147.407 57.6466C154.783 57.6466 160.762 51.6815 160.762 44.3233C160.762 36.965 154.783 31 147.407 31C140.031 31 134.052 36.965 134.052 44.3233C134.052 51.6815 140.031 57.6466 147.407 57.6466Z" fill="#158876"/>
<g opacity="0.9">
<path opacity="0.9" d="M147.407 36.0666H143.654L147.407 44.9086" fill="white"/>
<path opacity="0.9" d="M147.407 36.0666H151.156L147.407 44.9086" fill="white"/>
<path opacity="0.9" d="M147.407 47.4598V54.3046L139.404 38.7206H143.596" fill="white"/>
<path opacity="0.9" d="M147.407 47.4643V54.3046L155.406 38.7206H151.214" fill="white"/>
</g>
</g>
<path opacity="0.81" d="M110.663 266.587C189.134 266.587 252.747 202.974 252.747 124.503C252.747 46.0329 189.134 -17.58 110.663 -17.58C32.1929 -17.58 -31.42 46.0329 -31.42 124.503C-31.42 202.974 32.1929 266.587 110.663 266.587Z" fill="url(#paint2_radial)"/>
</g>
<path d="M120.191 69.9344H117.322V88.7754H120.191V69.9344Z" fill="#158876"/>
<path d="M122.435 68.6766C122.435 70.707 120.789 72.3531 118.758 72.3531C116.728 72.3531 115.082 70.707 115.082 68.6766C115.082 66.6461 116.728 65 118.758 65C120.789 65 122.435 66.6461 122.435 68.6766Z" fill="#137361"/>
<path d="M121.313 67.244C121.313 67.8652 120.812 68.366 120.191 68.366C119.57 68.366 119.069 67.8652 119.069 67.244C119.069 66.6228 119.57 66.122 120.191 66.122C120.812 66.122 121.313 66.6228 121.313 67.244Z" fill="white"/>
<path d="M130.591 90.4642C130.498 90.4759 130.44 89.9401 129.994 89.1093C129.994 89.1093 129.784 88.7211 129.543 88.3911C128.771 87.3312 126.162 87.3545 125.956 87.3545C121.887 87.3894 119.271 87.1332 119.271 87.1565C119.271 87.1759 121.181 87.1371 122.578 87.1099C126.523 87.0284 128.872 86.8187 129.881 87.8747C130.3 88.3134 130.51 88.8841 130.51 88.8841C130.797 89.6606 130.7 90.4487 130.591 90.4642Z" fill="white"/>
<path opacity="0.59" d="M120.195 221C136.076 221 148.951 215.73 148.951 209.229C148.951 202.728 136.076 197.458 120.195 197.458C104.313 197.458 91.4382 202.728 91.4382 209.229C91.4382 215.73 104.313 221 120.195 221Z" fill="#137361"/>
<path d="M84.2072 190.959C84.2855 176.971 82.4603 174.164 85.3324 170.903C85.6623 170.529 87.3451 168.619 90.0509 168.187C92.2055 167.843 94.1343 168.576 95.0437 169.12C100.56 172.425 98.5665 186.123 94.669 194.707C93.8199 196.578 91.5397 201.599 88.9176 201.413C87.8436 201.335 87.07 200.413 86.5295 199.746C84.1295 196.804 84.1938 193.069 84.2072 190.959Z" fill="#158876"/>
<path d="M128.674 99.1801H108.846C107.383 99.1801 106.199 97.9959 106.199 96.5323V89.447C106.199 87.9834 107.383 86.7993 108.846 86.7993H128.674C130.137 86.7993 131.321 87.9834 131.321 89.447V96.5323C131.318 97.9959 130.133 99.1801 128.674 99.1801Z" fill="#137361"/>
<path d="M163.704 140.36C163.704 151.805 154.425 161.084 142.98 161.084H94.5361C83.1376 161.084 73.8122 151.759 73.8122 140.36V129.594C73.8122 109.313 90.4053 92.7199 110.687 92.7199H126.837C147.118 92.7199 163.712 109.313 163.712 129.594V140.36H163.704Z" fill="#158876"/>
<path d="M149.564 138.399C148.388 138.982 147.068 139.285 145.729 139.285H91.7837C90.4443 139.285 89.1243 138.982 87.948 138.399C85.0595 136.971 83.4289 134.086 83.8366 131.128L83.8677 130.914C85.2498 120.894 94.3266 113.188 105.453 112.609C110.163 112.364 115.101 112.236 120.253 112.267C124.29 112.291 128.192 112.411 131.95 112.601C143.12 113.176 152.263 120.851 153.649 130.91C153.66 130.984 153.668 131.054 153.68 131.128C154.087 134.086 152.453 136.971 149.564 138.399Z" fill="#243746"/>
<rect x="104.341" y="146.839" width="27.7294" height="3.64861" fill="white"/>
<path d="M150.43 104.514C150.481 106.23 149.079 108.284 147.472 108.463C145.966 108.626 144.766 107.088 143.524 105.504C142.301 103.94 139.63 99.9255 140.693 98.7919C142.099 97.2894 150.314 100.465 150.43 104.514Z" fill="white"/>
<path d="M136.679 97.9688C137.385 97.9688 137.956 97.3969 137.956 96.6915C137.956 95.9861 137.385 95.4142 136.679 95.4142C135.974 95.4142 135.402 95.9861 135.402 96.6915C135.402 97.3969 135.974 97.9688 136.679 97.9688Z" fill="white"/>
<path d="M150.248 128.336C149.836 128.628 146.979 122.8 139.303 117.749C136.605 115.975 133.942 114.709 134.101 114.341C134.26 113.968 137.261 114.663 139.665 115.777C147.313 119.329 150.737 127.995 150.248 128.336Z" fill="white"/>
<path d="M150.978 173.915C150.978 174.039 150.978 174.156 150.974 174.272C150.931 175.402 150.667 176.252 150.539 176.636C146.831 187.969 144.607 193.944 141.489 198.777C140.95 199.612 140.387 200.412 139.777 201.2C138.981 202.248 138.108 203.273 137.141 204.329C134.986 206.67 131.733 207.73 130.681 208.099C126.841 209.454 123.452 209.209 121.196 209.229H120.804C118.545 209.205 115.159 209.454 111.32 208.099C110.271 207.734 107.006 206.674 104.859 204.329C98.9389 197.884 96.6599 192.531 91.4615 176.64C91.3373 176.275 91.0888 175.483 91.0305 174.424C91.015 174.117 91.0073 173.81 91.0267 173.503C91.1393 171.605 91.908 169.741 93.2784 168.041C95.6195 165.125 99.2378 163.526 102.98 163.51L121.006 163.437L138.706 163.367C142.526 163.351 146.23 164.955 148.66 167.909C149.832 169.342 150.582 170.887 150.857 172.478C150.896 172.704 150.927 172.937 150.951 173.162C150.962 173.402 150.978 173.659 150.978 173.915Z" fill="#158876"/>
<path d="M120.998 163.425L102.973 163.499C99.23 163.514 95.6155 165.114 93.2706 168.029C91.904 169.73 91.1353 171.593 91.0189 173.492C91.112 171.543 91.9118 169.633 93.3405 167.893C95.7631 164.939 99.4707 163.336 103.295 163.351L120.998 163.425Z" fill="url(#paint3_linear)"/>
<path d="M138.915 189.984C138.651 176 136.761 173.236 139.552 169.908C139.874 169.528 141.509 167.575 144.199 167.078C146.346 166.682 148.291 167.369 149.211 167.89C154.806 171.061 153.148 184.805 149.46 193.478C148.656 195.369 146.501 200.443 143.873 200.323C142.798 200.272 142.002 199.368 141.447 198.715C138.981 195.831 138.954 192.092 138.915 189.984Z" fill="#158876"/>
<path d="M141.485 198.774C140.946 199.608 140.383 200.408 139.773 201.196C139.579 200.998 139.408 200.796 139.253 200.614C136.788 197.729 136.761 193.994 136.722 191.882C136.458 177.898 134.563 175.138 137.358 171.811C137.564 171.562 138.31 170.673 139.529 169.936C136.772 173.251 138.651 176.039 138.915 189.98C138.954 192.088 138.985 195.827 141.447 198.715C141.462 198.735 141.478 198.754 141.485 198.774Z" fill="#137361"/>
<path d="M149.378 178.341C149.301 176.838 149.017 175.732 148.454 173.523C147.717 170.631 146.793 169.221 147.394 168.662C147.786 168.297 148.555 168.546 148.73 168.6C151.374 169.443 152.193 174.4 152.076 177.506C152.006 179.405 151.545 181.532 150.846 181.625C150.737 181.641 150.461 181.625 150.267 181.454C149.491 180.767 149.44 179.482 149.378 178.341Z" fill="white"/>
<path d="M151.191 183.644C151.191 183.947 150.947 184.192 150.644 184.192C150.341 184.192 150.096 183.947 150.096 183.644C150.096 183.341 150.341 183.097 150.644 183.097C150.947 183.097 151.191 183.341 151.191 183.644Z" fill="white"/>
<path d="M104.767 130.955H110.352V133H112.705V130.955H114.148V128.983H112.705V121.364H109.625L104.767 129.017V130.955ZM110.398 128.983H107.244V128.892L110.307 124.045H110.398V128.983ZM120.349 133.256C123.276 133.256 125.043 131.028 125.048 127.193C125.054 123.386 123.264 121.205 120.349 121.205C117.429 121.205 115.656 123.381 115.651 127.193C115.639 131.017 117.418 133.25 120.349 133.256ZM120.349 131.216C119.014 131.216 118.151 129.875 118.156 127.193C118.162 124.551 119.02 123.222 120.349 123.222C121.673 123.222 122.537 124.551 122.537 127.193C122.543 129.875 121.679 131.216 120.349 131.216ZM126.626 130.955H132.212V133H134.564V130.955H136.007V128.983H134.564V121.364H131.484L126.626 129.017V130.955ZM132.257 128.983H129.104V128.892L132.166 124.045H132.257V128.983Z" fill="white"/>
<defs>
<linearGradient id="paint0_linear" x1="60.8136" y1="148.338" x2="60.8136" y2="133.778" gradientUnits="userSpaceOnUse">
<stop stop-color="white" stop-opacity="0.95"/>
<stop offset="1" stop-color="white" stop-opacity="0.5"/>
</linearGradient>
<linearGradient id="paint1_linear" x1="179.686" y1="77.362" x2="179.686" y2="65.7134" gradientUnits="userSpaceOnUse">
<stop stop-color="white" stop-opacity="0.95"/>
<stop offset="1" stop-color="white" stop-opacity="0.5"/>
</linearGradient>
<radialGradient id="paint2_radial" cx="0" cy="0" r="1" gradientUnits="userSpaceOnUse" gradientTransform="translate(110.664 124.505) scale(142.083)">
<stop offset="0.0397" stop-color="white"/>
<stop offset="1" stop-color="#41B38A" stop-opacity="0.3"/>
</radialGradient>
<linearGradient id="paint3_linear" x1="99.3662" y1="174.772" x2="127.307" y2="142.144" gradientUnits="userSpaceOnUse">
<stop offset="0.0397" stop-color="#44BFE2"/>
<stop offset="1" stop-color="#DCE38C"/>
</linearGradient>
</defs>
</svg>
