<svg width="234" height="301" viewBox="0 0 234 301" fill="none" xmlns="http://www.w3.org/2000/svg">
<mask id="mask0" mask-type="alpha" maskUnits="userSpaceOnUse" x="0" y="0" width="234" height="301">
<rect width="234" height="301" fill="#C4C4C4"/>
</mask>
<g mask="url(#mask0)">
<g opacity="0.9">
<path opacity="0.9" d="M60.8106 173.608C71.3473 173.608 79.889 165.387 79.889 155.246C79.889 145.105 71.3473 136.884 60.8106 136.884C50.2738 136.884 41.7321 145.105 41.7321 155.246C41.7321 165.387 50.2738 173.608 60.8106 173.608Z" fill="#476983"/>
<g opacity="0.9">
<path opacity="0.9" d="M65.4771 155.324C65.4771 154.138 66.4848 153.177 67.7298 153.177H71.017C72.2621 153.177 73.3011 154.138 73.3011 155.324C73.3011 156.509 72.2621 157.47 71.017 157.47H67.7298C66.4848 157.47 65.4771 156.509 65.4771 155.324Z" fill="white"/>
<path opacity="0.9" d="M58.5847 155.328C58.5847 154.138 59.5879 153.177 60.8239 153.177C62.06 153.177 63.0632 154.138 63.0632 155.328C63.0632 156.518 62.06 157.479 60.8239 157.479C59.5879 157.479 58.5847 156.513 58.5847 155.328Z" fill="white"/>
<path opacity="0.9" fill-rule="evenodd" clip-rule="evenodd" d="M63.0012 145.276C63.0504 146.436 62.1144 147.41 60.9097 147.457C55.7102 147.664 52.5394 151.582 52.6917 155.298C52.7409 156.457 51.8228 157.431 50.6181 157.479C49.4134 157.526 48.3565 156.591 48.3072 155.431C48.0564 149.371 53.3187 143.38 60.7306 143.263C61.9308 143.22 62.9474 144.121 63.0012 145.276Z" fill="white"/>
<path opacity="0.9" fill-rule="evenodd" clip-rule="evenodd" d="M48.2975 155.212C48.3289 162.535 54.5764 167.371 60.9001 167.22C68.3613 166.966 73.7489 160.733 73.3011 155.173C73.1981 154.018 72.1322 153.121 70.9275 153.177C69.7227 153.233 68.7957 154.216 68.8539 155.371C69.0241 158.751 65.7817 162.888 60.7926 163.022C56.8291 163.117 52.8656 160.126 52.691 155.47C52.6462 156.548 51.7594 157.432 50.6174 157.475C49.4127 157.522 48.3558 156.587 48.3065 155.427C48.302 155.363 48.302 155.289 48.2975 155.212Z" fill="url(#paint0_linear)"/>
</g>
</g>
<g opacity="0.8">
<path opacity="0.8" d="M96.1055 92.8405C106.642 92.8405 115.184 84.6195 115.184 74.4783C115.184 64.3372 106.642 56.1161 96.1055 56.1161C85.5687 56.1161 77.027 64.3372 77.027 74.4783C77.027 84.6195 85.5687 92.8405 96.1055 92.8405Z" fill="#476983"/>
<path opacity="0.8" fill-rule="evenodd" clip-rule="evenodd" d="M89.5266 71.9482C90.4044 68.5732 92.5989 66.8835 96.1056 66.8835C101.368 66.8835 102.026 70.6809 104.66 71.3145C106.415 71.737 107.951 71.1033 109.263 69.4137C108.386 72.7887 106.191 74.4784 102.684 74.4784C97.4222 74.4784 96.7639 70.6809 94.1305 70.0473C92.375 69.6249 90.8388 70.2585 89.5266 71.9482ZM82.9477 79.543C83.8255 76.168 86.02 74.4784 89.5266 74.4784C94.7889 74.4784 95.4472 78.2758 98.0806 78.9094C99.8362 79.3318 101.372 78.6982 102.684 77.0085C101.807 80.3836 99.6122 82.0732 96.1056 82.0732C90.8433 82.0732 90.185 78.2758 87.5516 77.6422C85.796 77.2241 84.2599 77.8577 82.9477 79.543Z" fill="white"/>
</g>
<g opacity="0.9">
<path opacity="0.9" d="M134.567 129.449C145.104 129.449 153.645 121.227 153.645 111.086C153.645 100.945 145.104 92.7241 134.567 92.7241C124.03 92.7241 115.489 100.945 115.489 111.086C115.489 121.227 124.03 129.449 134.567 129.449Z" fill="#476983"/>
<g opacity="0.9">
<path opacity="0.9" d="M123.017 119.336C123.017 120.918 124.352 122.203 125.995 122.203H143.134C144.778 122.203 146.113 120.918 146.113 119.336V102.841C146.113 101.259 144.778 99.9742 143.134 99.9742H125.995C124.352 99.9742 123.017 101.259 123.017 102.841V119.336Z" stroke="white" stroke-miterlimit="10"/>
<path opacity="0.9" d="M132.596 109.806V106.66H135.476C135.749 106.66 136.014 106.681 136.269 106.724C136.524 106.767 136.748 106.845 136.945 106.961C137.142 107.073 137.299 107.233 137.415 107.431C137.532 107.634 137.59 107.888 137.59 108.203C137.59 108.767 137.415 109.177 137.062 109.427C136.708 109.677 136.26 109.802 135.709 109.802H132.596V109.806ZM129.52 104.358V117.815H136.296C136.923 117.815 137.532 117.741 138.127 117.591C138.723 117.44 139.251 117.207 139.713 116.892C140.174 116.578 140.546 116.173 140.819 115.677C141.092 115.181 141.231 114.595 141.231 113.914C141.231 113.073 141.02 112.354 140.595 111.754C140.17 111.155 139.529 110.741 138.665 110.5C139.292 110.211 139.767 109.841 140.085 109.388C140.402 108.935 140.564 108.371 140.564 107.69C140.564 107.06 140.456 106.535 140.241 106.108C140.026 105.681 139.722 105.336 139.332 105.082C138.942 104.828 138.472 104.638 137.921 104.526C137.375 104.414 136.766 104.358 136.099 104.358H129.52ZM132.596 115.517V111.823H135.946C136.614 111.823 137.147 111.97 137.554 112.267C137.957 112.565 138.163 113.056 138.163 113.746C138.163 114.099 138.101 114.388 137.975 114.612C137.85 114.836 137.684 115.017 137.474 115.151C137.263 115.285 137.021 115.375 136.748 115.435C136.475 115.491 136.188 115.522 135.888 115.522H132.596V115.517Z" fill="white"/>
</g>
</g>
<g opacity="0.4">
<path opacity="0.4" d="M53.8868 125.022C64.4235 125.022 72.9652 116.801 72.9652 106.66C72.9652 96.5184 64.4235 88.2974 53.8868 88.2974C43.3501 88.2974 34.8083 96.5184 34.8083 106.66C34.8083 116.801 43.3501 125.022 53.8868 125.022Z" fill="#476983"/>
<g opacity="0.4">
<path opacity="0.4" d="M53.8867 95.2758H48.5305L53.8867 107.466" fill="white"/>
<path opacity="0.4" d="M53.8867 95.2758H59.2475L53.8867 107.466" fill="white"/>
<path opacity="0.4" d="M53.8867 110.983V120.41L42.4576 98.9311H48.4453" fill="white"/>
<path opacity="0.4" d="M53.8867 110.983V120.41L65.3158 98.9311H59.3326" fill="white"/>
</g>
</g>
<g opacity="0.9">
<path opacity="0.9" d="M188.251 151.755C198.788 151.755 207.329 143.534 207.329 133.393C207.329 123.251 198.788 115.03 188.251 115.03C177.714 115.03 169.172 123.251 169.172 133.393C169.172 143.534 177.714 151.755 188.251 151.755Z" fill="#476983"/>
<g opacity="0.9">
<path opacity="0.9" d="M199.586 138.199L192.958 126.811C192.411 125.884 191.001 125.884 190.454 126.811L189.747 128.026L190.571 129.436L191.717 127.505L198.328 138.815H195.972C196.093 139.535 195.448 140.242 194.525 140.242H198.337C199.42 140.238 200.11 139.1 199.586 138.199Z" fill="white"/>
<path opacity="0.9" d="M183.584 138.815H178.192L186.334 124.871L188.981 129.358L189.751 128.031L187.436 124.074C186.943 123.233 185.712 123.237 185.223 124.078L176.911 138.38C176.423 139.216 177.068 140.242 178.08 140.242H185.035C184.108 140.237 183.459 139.535 183.584 138.815Z" fill="white"/>
<path opacity="0.9" d="M195.967 138.815C195.945 138.686 195.9 138.556 195.829 138.431L190.571 129.436L189.747 128.026L188.977 129.354L183.723 138.431C183.652 138.556 183.607 138.686 183.584 138.811C183.464 139.531 184.108 140.237 185.031 140.237H185.291H194.521C195.443 140.237 196.088 139.535 195.967 138.815ZM185.094 138.815L189.787 130.815L194.454 138.815H185.094Z" fill="white"/>
</g>
</g>
<g opacity="0.8">
<path opacity="0.8" d="M169.173 205.652C179.709 205.652 188.251 197.431 188.251 187.29C188.251 177.148 179.709 168.927 169.173 168.927C158.636 168.927 150.094 177.148 150.094 187.29C150.094 197.431 158.636 205.652 169.173 205.652Z" fill="#476983"/>
<g opacity="0.8">
<path opacity="0.8" d="M176.571 178.764L169.172 191.091L161.778 178.764H156.848L169.172 199.311L181.502 178.764H176.571Z" fill="white"/>
<g opacity="0.8">
<path opacity="0.8" d="M172.021 178.764L169.172 183.509L166.324 178.764H161.774L169.168 191.091L176.562 178.764H172.021Z" fill="white"/>
</g>
</g>
</g>
<g opacity="0.7">
<path opacity="0.7" d="M65.4772 233.816C76.0139 233.816 84.5556 225.595 84.5556 215.453C84.5556 205.312 76.0139 197.091 65.4772 197.091C54.9404 197.091 46.3987 205.312 46.3987 215.453C46.3987 225.595 54.9404 233.816 65.4772 233.816Z" fill="#476983"/>
<path opacity="0.7" d="M57.9622 209.104L64.5456 202.828L72.7458 210.66L67.9985 215.453L74.582 221.88L64.4381 228.079L56.3723 219.906L57.9622 209.104Z" fill="white"/>
</g>
<g opacity="0.9">
<path opacity="0.9" d="M179.684 103.858C188.113 103.858 194.946 97.2811 194.946 89.1681C194.946 81.0552 188.113 74.4784 179.684 74.4784C171.254 74.4784 164.421 81.0552 164.421 89.1681C164.421 97.2811 171.254 103.858 179.684 103.858Z" fill="#476983"/>
<g opacity="0.9">
<path opacity="0.9" d="M183.419 89.2284C183.419 88.2802 184.225 87.5086 185.223 87.5086H187.852C188.847 87.5086 189.68 88.2758 189.68 89.2284C189.68 90.1767 188.847 90.9483 187.852 90.9483H185.223C184.225 90.9483 183.419 90.181 183.419 89.2284Z" fill="white"/>
<path opacity="0.9" d="M177.901 89.2327C177.901 88.2845 178.703 87.5129 179.693 87.5129C180.682 87.5129 181.484 88.2845 181.484 89.2327C181.484 90.181 180.682 90.9526 179.693 90.9526C178.703 90.9526 177.901 90.181 177.901 89.2327Z" fill="white"/>
<path opacity="0.9" fill-rule="evenodd" clip-rule="evenodd" d="M181.435 81.1939C181.476 82.1206 180.728 82.9008 179.765 82.9396C175.604 83.1077 173.069 86.237 173.19 89.2155C173.231 90.1422 172.496 90.9224 171.533 90.9612C170.57 91 169.724 90.25 169.684 89.3232C169.482 84.4741 173.692 79.6809 179.621 79.5904C180.58 79.5473 181.395 80.2672 181.435 81.1939Z" fill="white"/>
<path opacity="0.9" fill-rule="evenodd" clip-rule="evenodd" d="M169.674 89.1422C169.697 95 174.699 98.8707 179.755 98.75C185.725 98.5431 190.033 93.5603 189.675 89.112C189.59 88.1896 188.739 87.4698 187.776 87.5172C186.813 87.5603 186.07 88.3491 186.115 89.2758C186.249 91.9784 183.656 95.2931 179.666 95.3966C176.495 95.4698 173.324 93.0776 173.185 89.3577C173.149 90.2198 172.442 90.9267 171.528 90.9612C170.565 91 169.719 90.25 169.679 89.3232C169.679 89.2629 169.674 89.2026 169.674 89.1422Z" fill="url(#paint1_linear)"/>
</g>
</g>
<g opacity="0.9">
<path opacity="0.9" d="M147.407 79.7327C154.783 79.7327 160.762 73.978 160.762 66.8792C160.762 59.7804 154.783 54.0256 147.407 54.0256C140.031 54.0256 134.052 59.7804 134.052 66.8792C134.052 73.978 140.031 79.7327 147.407 79.7327Z" fill="#476983"/>
<g opacity="0.9">
<path opacity="0.9" d="M147.407 58.9136H143.654L147.407 67.4439" fill="white"/>
<path opacity="0.9" d="M147.407 58.9136H151.156L147.407 67.4439" fill="white"/>
<path opacity="0.9" d="M147.407 69.9051V76.5086L139.404 61.474H143.596" fill="white"/>
<path opacity="0.9" d="M147.407 69.9094V76.5086L155.406 61.474H151.214" fill="white"/>
</g>
</g>
<path opacity="0.81" d="M110.663 281.306C189.134 281.306 252.747 219.936 252.747 144.232C252.747 68.5285 189.134 7.15842 110.663 7.15842C32.1929 7.15842 -31.42 68.5285 -31.42 144.232C-31.42 219.936 32.1929 281.306 110.663 281.306Z" fill="url(#paint2_radial)"/>
</g>
<path d="M119.527 70.0226H116.648V88.9326H119.527V70.0226Z" fill="#243746"/>
<path d="M121.779 68.7601C121.779 70.798 120.127 72.4501 118.089 72.4501C116.052 72.4501 114.399 70.798 114.399 68.7601C114.399 66.7222 116.052 65.0701 118.089 65.0701C120.127 65.0701 121.779 66.7222 121.779 68.7601Z" fill="#101F2B"/>
<path d="M120.653 67.3223C120.653 67.9457 120.151 68.4484 119.527 68.4484C118.904 68.4484 118.401 67.9457 118.401 67.3223C118.401 66.6988 118.904 66.1962 119.527 66.1962C120.151 66.1962 120.653 66.6988 120.653 67.3223Z" fill="white"/>
<path d="M129.966 90.6276C129.873 90.6393 129.814 90.1015 129.366 89.2677C129.366 89.2677 129.156 88.878 128.914 88.5468C128.139 87.4831 125.52 87.5064 125.314 87.5064C121.23 87.5415 118.604 87.2843 118.604 87.3077C118.604 87.3272 120.521 87.2882 121.924 87.2609C125.883 87.1791 128.24 86.9687 129.253 88.0286C129.674 88.4689 129.884 89.0417 129.884 89.0417C130.173 89.821 130.075 90.612 129.966 90.6276Z" fill="white"/>
<path opacity="0.59" d="M119.531 221.641C135.471 221.641 148.393 216.352 148.393 209.827C148.393 203.302 135.471 198.013 119.531 198.013C103.591 198.013 90.6694 203.302 90.6694 209.827C90.6694 216.352 103.591 221.641 119.531 221.641Z" fill="#243746"/>
<path d="M77.7289 161.023C91.2694 164.732 94.4646 163.692 96.8805 167.323C97.1572 167.74 98.5716 169.868 98.2871 172.603C98.0611 174.781 96.8493 176.461 96.0856 177.201C91.4487 181.69 78.6875 176.2 71.3775 170.191C69.7838 168.882 65.5093 165.367 66.3704 162.874C66.725 161.853 67.82 161.342 68.6071 160.992C72.0828 159.429 75.6871 160.462 77.7289 161.023Z" fill="#243746"/>
<path d="M128.041 99.3753H108.141C106.672 99.3753 105.484 98.1868 105.484 96.7178V89.6066C105.484 88.1376 106.672 86.9492 108.141 86.9492H128.041C129.51 86.9492 130.699 88.1376 130.699 89.6066V96.7178C130.695 98.1868 129.506 99.3753 128.041 99.3753Z" fill="#101F2B"/>
<path d="M163.2 140.706C163.2 152.193 153.887 161.506 142.4 161.506H93.7787C82.3384 161.506 72.9789 152.146 72.9789 140.706V129.901C72.9789 109.545 89.6327 92.8915 109.988 92.8915H126.198C146.554 92.8915 163.208 109.545 163.208 129.901V140.706H163.2Z" fill="#243746"/>
<path d="M126.922 145.755C126.82 146.734 126.006 147.486 125.028 147.583L111.503 148.888C110.525 148.982 109.582 148.401 109.298 147.458C109.169 147.041 109.072 146.609 109.005 146.165C108.986 146.044 109.021 145.919 109.095 145.818C109.173 145.72 109.286 145.658 109.407 145.646L126.47 144.002C126.59 143.99 126.711 144.029 126.805 144.111C126.898 144.193 126.953 144.306 126.957 144.427C126.98 144.875 126.968 145.319 126.922 145.755Z" fill="#EFF8FC"/>
<path d="M126.922 145.759C126.489 149.952 123.158 153.401 118.801 153.814C114.507 154.231 110.626 151.565 109.352 147.622C109.691 148.464 110.579 148.978 111.503 148.884L125.032 147.583C126.01 147.486 126.82 146.734 126.922 145.759Z" fill="#243746"/>
<path d="M149.009 138.738C147.828 139.323 146.503 139.627 145.159 139.627H91.0162C89.6719 139.627 88.347 139.323 87.1664 138.738C84.2674 137.304 82.6308 134.409 83.04 131.44L83.0711 131.226C84.4583 121.169 93.5684 113.434 104.736 112.854C109.462 112.608 114.419 112.479 119.59 112.511C123.642 112.534 127.558 112.655 131.33 112.846C142.54 113.422 151.717 121.126 153.108 131.222C153.119 131.296 153.127 131.366 153.139 131.44C153.548 134.409 151.908 137.304 149.009 138.738Z" fill="#101F2B"/>
<path d="M149.878 104.729C149.928 106.451 148.522 108.513 146.908 108.692C145.397 108.856 144.193 107.313 142.946 105.723C141.718 104.152 139.037 100.123 140.105 98.9857C141.516 97.4777 149.761 100.665 149.878 104.729Z" fill="white"/>
<path d="M136.076 98.1596C136.784 98.1596 137.358 97.5856 137.358 96.8776C137.358 96.1696 136.784 95.5957 136.076 95.5957C135.368 95.5957 134.794 96.1696 134.794 96.8776C134.794 97.5856 135.368 98.1596 136.076 98.1596Z" fill="white"/>
<path d="M149.694 128.638C149.281 128.931 146.413 123.082 138.71 118.013C136.002 116.232 133.329 114.962 133.489 114.591C133.648 114.217 136.66 114.915 139.072 116.033C146.749 119.598 150.185 128.296 149.694 128.638Z" fill="white"/>
<path d="M150.427 174.384C150.427 174.509 150.427 174.626 150.423 174.742C150.38 175.876 150.115 176.73 149.987 177.115C146.266 188.49 144.033 194.486 140.904 199.338C140.362 200.175 139.797 200.978 139.185 201.769C138.387 202.821 137.51 203.85 136.54 204.91C134.377 207.259 131.112 208.323 130.056 208.693C126.202 210.053 122.8 209.808 120.537 209.827H120.143C117.875 209.804 114.477 210.053 110.624 208.693C109.572 208.327 106.295 207.263 104.14 204.91C98.1975 198.441 95.9103 193.068 90.6928 177.119C90.5681 176.753 90.3187 175.958 90.2603 174.894C90.2447 174.587 90.2369 174.279 90.2564 173.971C90.3694 172.066 91.1409 170.195 92.5164 168.489C94.866 165.562 98.4976 163.957 102.254 163.941L120.346 163.867L138.11 163.797C141.944 163.781 145.662 165.391 148.101 168.356C149.278 169.794 150.03 171.345 150.306 172.942C150.345 173.168 150.376 173.402 150.4 173.628C150.411 173.87 150.427 174.127 150.427 174.384Z" fill="#243746"/>
<path d="M120.338 163.856L102.246 163.93C98.4898 163.945 94.8621 165.551 92.5085 168.477C91.1369 170.184 90.3654 172.054 90.2485 173.959C90.3421 172.003 91.1447 170.086 92.5787 168.34C95.0101 165.375 98.7313 163.766 102.569 163.781L120.338 163.856Z" fill="url(#paint3_linear)"/>
<path d="M138.32 190.512C138.055 176.476 136.158 173.702 138.959 170.363C139.283 169.981 140.923 168.021 143.624 167.522C145.778 167.125 147.731 167.814 148.654 168.337C154.269 171.52 152.605 185.314 148.903 194.019C148.097 195.916 145.934 201.009 143.296 200.888C142.217 200.838 141.418 199.93 140.861 199.275C138.387 196.38 138.359 192.628 138.32 190.512Z" fill="#243746"/>
<path d="M140.9 199.334C140.358 200.171 139.793 200.974 139.182 201.765C138.987 201.566 138.815 201.364 138.659 201.181C136.185 198.285 136.158 194.537 136.119 192.417C135.854 178.382 133.952 175.611 136.758 172.272C136.964 172.023 137.713 171.13 138.936 170.39C136.169 173.718 138.055 176.515 138.32 190.508C138.359 192.624 138.39 196.376 140.861 199.275C140.877 199.295 140.892 199.314 140.9 199.334Z" fill="#101F2B"/>
<path d="M148.822 178.826C148.744 177.318 148.459 176.208 147.894 173.99C147.154 171.088 146.227 169.673 146.831 169.112C147.224 168.746 147.996 168.995 148.171 169.05C150.824 169.895 151.647 174.871 151.53 177.988C151.46 179.894 150.996 182.029 150.295 182.123C150.185 182.138 149.909 182.123 149.714 181.951C148.935 181.261 148.884 179.972 148.822 178.826Z" fill="white"/>
<path d="M150.641 184.149C150.641 184.453 150.396 184.698 150.092 184.698C149.788 184.698 149.542 184.453 149.542 184.149C149.542 183.845 149.788 183.599 150.092 183.599C150.396 183.599 150.641 183.845 150.641 184.149Z" fill="white"/>
<path d="M104 135C108.971 135 113 130.971 113 126C113 121.029 108.971 117 104 117C99.0294 117 95 121.029 95 126C95 130.971 99.0294 135 104 135Z" fill="url(#paint4_radial)"/>
<path d="M104 132.461C107.569 132.461 110.461 129.569 110.461 126C110.461 122.431 107.569 119.539 104 119.539C100.431 119.539 97.5386 122.431 97.5386 126C97.5386 129.569 100.431 132.461 104 132.461Z" fill="#EFF8FC"/>
<path d="M104 131.427C106.997 131.427 109.427 128.998 109.427 126C109.427 123.002 106.997 120.573 104 120.573C101.002 120.573 98.5724 123.002 98.5724 126C98.5724 128.998 101.002 131.427 104 131.427Z" fill="#101F2B"/>
<path d="M107.476 124.595C107.476 125.705 106.576 126.605 105.467 126.605C104.357 126.605 103.457 125.705 103.457 124.595C103.457 123.485 104.357 122.585 105.467 122.585C106.576 122.582 107.476 123.482 107.476 124.595Z" fill="#EFF8FC"/>
<path d="M103.196 130.96C103.638 130.96 103.997 130.602 103.997 130.16C103.997 129.718 103.638 129.36 103.196 129.36C102.754 129.36 102.396 129.718 102.396 130.16C102.396 130.602 102.754 130.96 103.196 130.96Z" fill="#EFF8FC"/>
<path d="M101.207 128.958C101.207 129.177 101.029 129.36 100.805 129.36C100.585 129.36 100.403 129.181 100.403 128.958C100.403 128.738 100.582 128.556 100.805 128.556C101.029 128.556 101.207 128.734 101.207 128.958Z" fill="#EFF8FC"/>
<path d="M129 135C133.971 135 138 130.971 138 126C138 121.029 133.971 117 129 117C124.029 117 120 121.029 120 126C120 130.971 124.029 135 129 135Z" fill="url(#paint5_radial)"/>
<path d="M129 132.461C132.569 132.461 135.461 129.569 135.461 126C135.461 122.431 132.569 119.539 129 119.539C125.431 119.539 122.539 122.431 122.539 126C122.539 129.569 125.431 132.461 129 132.461Z" fill="#EFF8FC"/>
<path d="M129 131.427C131.998 131.427 134.427 128.997 134.427 126C134.427 123.002 131.998 120.572 129 120.572C126.002 120.572 123.573 123.002 123.573 126C123.573 128.997 126.002 131.427 129 131.427Z" fill="#101F2B"/>
<path d="M132.476 124.595C132.476 125.705 131.576 126.605 130.467 126.605C129.357 126.605 128.457 125.705 128.457 124.595C128.457 123.485 129.357 122.585 130.467 122.585C131.576 122.582 132.476 123.482 132.476 124.595Z" fill="#EFF8FC"/>
<path d="M128.2 130.96C128.642 130.96 129 130.602 129 130.16C129 129.718 128.642 129.36 128.2 129.36C127.758 129.36 127.399 129.718 127.399 130.16C127.399 130.602 127.758 130.96 128.2 130.96Z" fill="#EFF8FC"/>
<path d="M126.211 128.958C126.211 129.177 126.032 129.36 125.809 129.36C125.589 129.36 125.407 129.181 125.407 128.958C125.407 128.738 125.586 128.556 125.809 128.556C126.029 128.556 126.211 128.734 126.211 128.958Z" fill="#EFF8FC"/>
<defs>
<linearGradient id="paint0_linear" x1="60.8136" y1="167.227" x2="60.8136" y2="153.18" gradientUnits="userSpaceOnUse">
<stop stop-color="white" stop-opacity="0.95"/>
<stop offset="1" stop-color="white" stop-opacity="0.5"/>
</linearGradient>
<linearGradient id="paint1_linear" x1="179.686" y1="98.7531" x2="179.686" y2="87.5152" gradientUnits="userSpaceOnUse">
<stop stop-color="white" stop-opacity="0.95"/>
<stop offset="1" stop-color="white" stop-opacity="0.5"/>
</linearGradient>
<radialGradient id="paint2_radial" cx="0" cy="0" r="1" gradientUnits="userSpaceOnUse" gradientTransform="translate(110.664 144.234) scale(142.083 137.074)">
<stop offset="0.0397" stop-color="white"/>
<stop offset="1" stop-color="#2B4152" stop-opacity="0.3"/>
</radialGradient>
<linearGradient id="paint3_linear" x1="98.6264" y1="175.244" x2="126.669" y2="142.497" gradientUnits="userSpaceOnUse">
<stop offset="0.0397" stop-color="#44BFE2"/>
<stop offset="1" stop-color="#DCE38C"/>
</linearGradient>
<radialGradient id="paint4_radial" cx="0" cy="0" r="1" gradientUnits="userSpaceOnUse" gradientTransform="translate(103.999 125.999) scale(8.90763)">
<stop offset="0.1296" stop-color="#4974B9"/>
<stop offset="1" stop-color="#020203"/>
</radialGradient>
<radialGradient id="paint5_radial" cx="0" cy="0" r="1" gradientUnits="userSpaceOnUse" gradientTransform="translate(129 125.999) scale(8.90763)">
<stop offset="0.1296" stop-color="#4974B9"/>
<stop offset="1" stop-color="#020203"/>
</radialGradient>
</defs>
</svg>
