<svg width="156" height="16" viewBox="0 0 156 16" fill="none" xmlns="http://www.w3.org/2000/svg">
<path d="M14.3954 0.377647L7.24045 16H7.1258L0 0.377647H3.2549L7.17438 9.22889L11.1016 0.377647H14.3954Z" fill="white"/>
<path d="M15.7906 9.98619V0.377647H18.8843V9.9765C18.8843 11.6402 20.2037 12.8507 21.6825 12.8507C23.1613 12.8507 24.5002 11.6305 24.5002 9.9765V0.377647H27.5938V9.98619C27.5938 13.4376 24.9471 15.9535 21.6922 15.9535C18.4373 15.9535 15.7906 13.4395 15.7906 9.98619Z" fill="white"/>
<path d="M33.1921 3.3952V6.37403H38.4679V9.42838H33.1921V12.5776H39.3404V15.6223H30.1179V0.377647H39.3404V3.3952H33.1921Z" fill="white"/>
<path d="M56.9694 3.41467H53.2112V15.6244H50.1273V3.41467H46.3614V0.379677H56.9694V3.41467Z" fill="white"/>
<path d="M61.771 3.3952V6.37403H67.0468V9.42838H61.771V12.5776H67.9193V15.6223H58.6968V0.377647H67.9193V3.3952H61.771Z" fill="white"/>
<path d="M79.4 12.5776V15.6223H70.1774V0.377647H73.2516V12.5776H79.4Z" fill="white"/>
<path d="M84.2017 3.3952V6.37403H89.4776V9.42838H84.2017V12.5776H90.3501V15.6223H81.1276V0.377647H90.3501V3.3952H84.2017Z" fill="white"/>
<path d="M107.591 0V15.6224H104.516V8.98295L100.113 15.3667H100.094L95.6805 8.98295V15.6224H92.6063V0H92.7773L100.103 10.0714L107.42 0H107.591Z" fill="white"/>
<path d="M113.321 3.3952V6.37403H118.597V9.42838H113.321V12.5776H119.469V15.6223H110.247V0.377647H119.469V3.3952H113.321Z" fill="white"/>
<path d="M131.407 3.41467H127.648V15.6244H124.565V3.41467H120.799V0.379677H131.407V3.41467Z" fill="white"/>
<path d="M141.084 15.6244L136.216 8.41746V15.6244H133.142L133.132 0.379677H138.122C140.979 0.379677 143.322 2.57409 143.322 5.31662C143.322 7.27474 142.137 8.98689 140.495 9.56212L144.84 15.6244H141.084ZM136.208 7.24375L138.183 7.25344C139.226 7.26312 140.157 6.42061 140.157 5.33405C140.157 4.2475 139.218 3.41467 138.183 3.41467H136.208V7.24375Z" fill="white"/>
<path d="M148.2 9.07985L143.464 0.379677H146.937L149.727 5.67493L152.518 0.379677H156L151.257 9.07985V15.6244H148.202V9.07985H148.2Z" fill="white"/>
</svg>
