<svg width="111" height="183" viewBox="0 0 111 183" fill="none" xmlns="http://www.w3.org/2000/svg">
<path opacity="0.59" d="M58.6583 182.629C77.3517 182.629 92.5057 176.426 92.5057 168.774C92.5057 161.122 77.3517 154.919 58.6583 154.919C39.9649 154.919 24.8109 161.122 24.8109 168.774C24.8109 176.426 39.9649 182.629 58.6583 182.629Z" fill="#292728"/>
<path d="M16.2999 147.27C16.3921 130.805 14.2437 127.502 17.6242 123.663C18.0125 123.223 19.9932 120.975 23.1781 120.467C25.7141 120.062 27.9844 120.925 29.0548 121.565C35.5471 125.455 33.2013 141.577 28.6137 151.682C27.6144 153.884 24.9304 159.793 21.8441 159.575C20.5801 159.483 19.6695 158.397 19.0333 157.612C16.2083 154.149 16.284 149.753 16.2999 147.27Z" fill="#6D6E71"/>
<path d="M94.8912 127.209C94.8912 127.355 94.8912 127.492 94.8867 127.629C94.8364 128.959 94.5257 129.959 94.3749 130.412C90.0108 143.751 87.3924 150.783 83.723 156.473C83.0878 157.455 82.4252 158.396 81.7078 159.324C80.771 160.558 79.7428 161.764 78.605 163.007C76.0688 165.763 72.2394 167.01 71.0011 167.444C66.4817 169.039 62.4924 168.751 59.8374 168.774H59.3759C56.7163 168.747 52.7316 169.039 48.2122 167.444C46.9784 167.015 43.1353 165.767 40.6083 163.007C33.6395 155.422 30.9572 149.12 24.8384 130.416C24.6922 129.987 24.3997 129.055 24.3312 127.807C24.3129 127.446 24.3038 127.085 24.3266 126.724C24.4591 124.49 25.3639 122.296 26.977 120.295C29.7325 116.863 33.9914 114.98 38.3966 114.962L59.6135 114.875L80.4466 114.793C84.9431 114.775 89.3026 116.662 92.1632 120.139C93.5432 121.825 94.4251 123.644 94.7496 125.518C94.7953 125.783 94.8318 126.057 94.8592 126.322C94.8729 126.605 94.8912 126.907 94.8912 127.209Z" fill="#6D6E71"/>
<path d="M59.6043 114.861L38.3874 114.948C33.9822 114.966 29.7279 116.849 26.9678 120.281C25.3593 122.282 24.4545 124.476 24.3174 126.71C24.4271 124.417 25.3684 122.168 27.05 120.121C29.9015 116.644 34.2655 114.756 38.7666 114.775L59.6043 114.861Z" fill="url(#paint0_linear)"/>
<path d="M80.6933 146.122C80.3825 129.663 78.1571 126.409 81.4427 122.493C81.822 122.045 83.7458 119.746 86.9126 119.161C89.4396 118.695 91.729 119.504 92.812 120.116C99.3969 123.85 97.4457 140.026 93.1045 150.235C92.1586 152.461 89.6224 158.433 86.5287 158.291C85.2629 158.232 84.3261 157.167 83.6727 156.4C80.7709 153.004 80.739 148.604 80.6933 146.122Z" fill="#6D6E71"/>
<path d="M83.7184 156.468C83.0832 157.451 82.4206 158.392 81.7032 159.32C81.4747 159.087 81.2736 158.849 81.0908 158.634C78.1891 155.239 78.1571 150.843 78.1114 148.357C77.8006 131.897 75.5706 128.648 78.8608 124.732C79.103 124.439 79.9804 123.393 81.4153 122.525C78.1708 126.427 80.3825 129.708 80.6932 146.118C80.7389 148.599 80.7755 153 83.6727 156.4C83.691 156.422 83.7093 156.445 83.7184 156.468Z" fill="#292728"/>
<path d="M93.0086 132.418C92.9172 130.65 92.5836 129.347 91.921 126.747C91.0528 123.343 89.9652 121.684 90.6735 121.026C91.135 120.596 92.0398 120.889 92.2454 120.953C95.3573 121.944 96.3215 127.78 96.1844 131.435C96.1021 133.67 95.5584 136.174 94.7359 136.284C94.6079 136.302 94.2835 136.284 94.055 136.083C93.1411 135.274 93.0817 133.761 93.0086 132.418Z" fill="white"/>
<path d="M95.1425 138.66C95.1425 139.017 94.8545 139.304 94.4981 139.304C94.1417 139.304 93.8538 139.017 93.8538 138.66C93.8538 138.304 94.1417 138.016 94.4981 138.016C94.8545 138.016 95.1425 138.304 95.1425 138.66Z" fill="white"/>
<path d="M73.0593 8.64119L70.5602 6.20245L54.5451 22.6144L57.0443 25.0531L73.0593 8.64119Z" fill="#6D6E71"/>
<path d="M76.0832 9.45284C74.3573 11.2215 71.5242 11.2562 69.7555 9.53029C67.9868 7.80437 67.9521 4.97125 69.678 3.20256C71.404 1.43388 74.2371 1.39923 76.0057 3.12515C77.7744 4.85107 77.8091 7.68415 76.0832 9.45284Z" fill="#292828"/>
<path d="M76.3235 7.25122C75.7955 7.7923 74.9335 7.80286 74.3924 7.27486C73.8513 6.74685 73.8408 5.88489 74.3688 5.3438C74.8968 4.80271 75.7588 4.79216 76.2999 5.32017C76.8409 5.84818 76.8515 6.71013 76.3235 7.25122Z" fill="white"/>
<path d="M70.0918 26.95C69.9784 26.9641 69.9075 26.3121 69.3641 25.3009C69.3641 25.3009 69.109 24.8284 68.816 24.4268C67.8757 23.1368 64.7004 23.1651 64.45 23.1651C59.498 23.2077 56.3133 22.8958 56.3133 22.9241C56.3133 22.9478 58.638 22.9005 60.3391 22.8675C65.1398 22.7682 67.9986 22.5131 69.2271 23.7983C69.7374 24.3322 69.9926 25.0268 69.9926 25.0268C70.3422 25.9719 70.2241 26.9311 70.0918 26.95Z" fill="white"/>
<path d="M67.7578 37.558H43.6265C41.8451 37.558 40.4039 36.1168 40.4039 34.3354V25.712C40.4039 23.9307 41.8451 22.4895 43.6265 22.4895H67.7578C69.5391 22.4895 70.9803 23.9307 70.9803 25.712V34.3354C70.9756 36.1168 69.5344 37.558 67.7578 37.558Z" fill="#292728"/>
<path d="M110.392 87.6774C110.392 101.607 99.0994 112.9 85.1697 112.9H26.2095C12.3365 112.9 0.986694 101.55 0.986694 87.6774V74.5746C0.986694 49.8905 21.1819 29.6953 45.866 29.6953H65.5226C90.2067 29.6953 110.402 49.8905 110.402 74.5746V87.6774H110.392Z" fill="#6D6E71"/>
<path d="M93.1836 85.2912C91.7519 85.9999 90.1454 86.3685 88.5152 86.3685H22.8594C21.2293 86.3685 19.6227 85.9999 18.191 85.2912C14.6755 83.5523 12.691 80.0415 13.1871 76.441L13.2249 76.1811C14.9071 63.9855 25.9544 54.6061 39.4966 53.9021C45.2282 53.6044 51.2386 53.4485 57.5089 53.4863C62.423 53.5146 67.1718 53.6611 71.7457 53.8926C85.3399 54.592 96.4676 63.9336 98.1545 76.1764C98.1686 76.2662 98.1781 76.3512 98.1923 76.441C98.6884 80.0415 96.6991 83.5523 93.1836 85.2912Z" fill="#292728"/>
<path d="M38.3863 83.68C45.2235 83.68 50.7661 78.1373 50.7661 71.3001C50.7661 64.4629 45.2235 58.9203 38.3863 58.9203C31.5491 58.9203 26.0064 64.4629 26.0064 71.3001C26.0064 78.1373 31.5491 83.68 38.3863 83.68Z" fill="url(#paint1_radial)"/>
<path d="M38.3863 80.1881C43.295 80.1881 47.2742 76.2088 47.2742 71.3001C47.2742 66.3914 43.295 62.4121 38.3863 62.4121C33.4776 62.4121 29.4983 66.3914 29.4983 71.3001C29.4983 76.2088 33.4776 80.1881 38.3863 80.1881Z" fill="#EFF8FC"/>
<path d="M38.3861 78.7658C42.5093 78.7658 45.8518 75.4233 45.8518 71.3001C45.8518 67.1769 42.5093 63.8344 38.3861 63.8344C34.2629 63.8344 30.9203 67.1769 30.9203 71.3001C30.9203 75.4233 34.2629 78.7658 38.3861 78.7658Z" fill="#292728"/>
<path d="M43.1681 69.3676C43.1681 70.8938 41.9301 72.1318 40.4038 72.1318C38.8776 72.1318 37.6396 70.8938 37.6396 69.3676C37.6396 67.8413 38.8776 66.6033 40.4038 66.6033C41.9301 66.5986 43.1681 67.8366 43.1681 69.3676Z" fill="#EFF8FC"/>
<path d="M37.2805 78.1232C37.8886 78.1232 38.3815 77.6303 38.3815 77.0222C38.3815 76.4142 37.8886 75.9213 37.2805 75.9213C36.6725 75.9213 36.1796 76.4142 36.1796 77.0222C36.1796 77.6303 36.6725 78.1232 37.2805 78.1232Z" fill="#EFF8FC"/>
<path d="M34.5447 75.3685C34.5447 75.6709 34.299 75.9213 33.9919 75.9213C33.6894 75.9213 33.439 75.6756 33.439 75.3685C33.439 75.0661 33.6847 74.8156 33.9919 74.8156C34.299 74.8156 34.5447 75.0613 34.5447 75.3685Z" fill="#EFF8FC"/>
<path d="M71.8307 83.68C78.6679 83.68 84.2105 78.1373 84.2105 71.3001C84.2105 64.4629 78.6679 58.9203 71.8307 58.9203C64.9935 58.9203 59.4508 64.4629 59.4508 71.3001C59.4508 78.1373 64.9935 83.68 71.8307 83.68Z" fill="url(#paint2_radial)"/>
<path d="M71.8308 80.1881C76.7395 80.1881 80.7187 76.2088 80.7187 71.3001C80.7187 66.3914 76.7395 62.4121 71.8308 62.4121C66.9221 62.4121 62.9427 66.3914 62.9427 71.3001C62.9427 76.2088 66.9221 80.1881 71.8308 80.1881Z" fill="#EFF8FC"/>
<path d="M71.8307 78.7658C75.9539 78.7658 79.2964 75.4233 79.2964 71.3001C79.2964 67.1769 75.9539 63.8344 71.8307 63.8344C67.7075 63.8344 64.365 67.1769 64.365 71.3001C64.365 75.4233 67.7075 78.7658 71.8307 78.7658Z" fill="#292728"/>
<path d="M76.6127 69.3676C76.6127 70.8938 75.3746 72.1318 73.8484 72.1318C72.3222 72.1318 71.0842 70.8938 71.0842 69.3676C71.0842 67.8413 72.3222 66.6033 73.8484 66.6033C75.3746 66.5986 76.6127 67.8366 76.6127 69.3676Z" fill="#EFF8FC"/>
<path d="M70.7298 78.1232C71.3378 78.1232 71.8308 77.6303 71.8308 77.0222C71.8308 76.4142 71.3378 75.9213 70.7298 75.9213C70.1217 75.9213 69.6288 76.4142 69.6288 77.0222C69.6288 77.6303 70.1217 78.1232 70.7298 78.1232Z" fill="#EFF8FC"/>
<path d="M67.9939 75.3685C67.9939 75.6709 67.7482 75.9213 67.441 75.9213C67.1386 75.9213 66.8882 75.6756 66.8882 75.3685C66.8882 75.0661 67.1339 74.8156 67.441 74.8156C67.7435 74.8156 67.9939 75.0613 67.9939 75.3685Z" fill="#EFF8FC"/>
<path d="M94.2373 44.0503C94.2987 46.1388 92.593 48.6384 90.6368 48.8557C88.8034 49.0542 87.3434 47.183 85.8313 45.2552C84.3429 43.3509 81.092 38.4651 82.3867 37.0854C84.0972 35.2568 94.0956 39.1219 94.2373 44.0503Z" fill="white"/>
<path d="M77.5009 36.0837C78.3595 36.0837 79.0555 35.3877 79.0555 34.5291C79.0555 33.6705 78.3595 32.9745 77.5009 32.9745C76.6424 32.9745 75.9464 33.6705 75.9464 34.5291C75.9464 35.3877 76.6424 36.0837 77.5009 36.0837Z" fill="white"/>
<path d="M94.0152 73.0437C93.5143 73.3981 90.0366 66.3056 80.695 60.1582C77.411 57.9988 74.1696 56.4585 74.3634 56.0096C74.5571 55.556 78.2096 56.4017 81.1345 57.7579C90.443 62.0814 94.6106 72.6279 94.0152 73.0437Z" fill="white"/>
<rect x="42.3516" y="96.001" width="26.7792" height="4.54742" fill="#292728"/>
<defs>
<linearGradient id="paint0_linear" x1="34.1425" y1="128.217" x2="67.0296" y2="89.8132" gradientUnits="userSpaceOnUse">
<stop offset="0.0397" stop-color="#44BFE2"/>
<stop offset="1" stop-color="#DCE38C"/>
</linearGradient>
<radialGradient id="paint1_radial" cx="0" cy="0" r="1" gradientUnits="userSpaceOnUse" gradientTransform="translate(38.3846 71.2993) scale(12.2528)">
<stop offset="0.1296" stop-color="#333132"/>
<stop offset="1" stop-color="#020203"/>
</radialGradient>
<radialGradient id="paint2_radial" cx="0" cy="0" r="1" gradientUnits="userSpaceOnUse" gradientTransform="translate(71.8311 71.2993) scale(12.2528)">
<stop offset="0.1296" stop-color="#333132"/>
<stop offset="1" stop-color="#020203"/>
</radialGradient>
</defs>
</svg>
