<svg width="110" height="183" viewBox="0 0 110 183" fill="none" xmlns="http://www.w3.org/2000/svg">
<path opacity="0.59" d="M58.1698 182.629C76.8632 182.629 92.0172 176.426 92.0172 168.774C92.0172 161.122 76.8632 154.919 58.1698 154.919C39.4764 154.919 24.3225 161.122 24.3225 168.774C24.3225 176.426 39.4764 182.629 58.1698 182.629Z" fill="#414042"/>
<path d="M15.8114 147.27C15.9036 130.805 13.7552 127.502 17.1357 123.663C17.5241 123.223 19.5047 120.975 22.6897 120.467C25.2257 120.062 27.4959 120.925 28.5664 121.565C35.0587 125.455 32.7128 141.577 28.1253 151.682C27.1259 153.884 24.442 159.793 21.3557 159.575C20.0916 159.483 19.181 158.397 18.5448 157.612C15.7199 154.149 15.7956 149.753 15.8114 147.27Z" fill="#BCBEC0"/>
<path d="M94.4028 127.209C94.4028 127.355 94.4028 127.492 94.3982 127.629C94.3479 128.959 94.0372 129.959 93.8864 130.412C89.5224 143.751 86.9039 150.783 83.2345 156.473C82.5993 157.455 81.9368 158.396 81.2193 159.324C80.2825 160.558 79.2544 161.764 78.1165 163.007C75.5803 165.763 71.751 167.01 70.5126 167.444C65.9932 169.039 62.0039 168.751 59.3489 168.774H58.8874C56.2278 168.747 52.2431 169.039 47.7237 167.444C46.4899 167.015 42.6468 165.767 40.1198 163.007C33.1511 155.422 30.4687 149.12 24.3499 130.416C24.2037 129.987 23.9112 129.055 23.8427 127.807C23.8244 127.446 23.8153 127.085 23.8381 126.724C23.9707 124.49 24.8754 122.296 26.4885 120.295C29.244 116.863 33.503 114.98 37.9081 114.962L59.125 114.875L79.9581 114.793C84.4546 114.775 88.8141 116.662 91.6747 120.139C93.0547 121.825 93.9366 123.644 94.2611 125.518C94.3068 125.783 94.3433 126.057 94.3708 126.322C94.3845 126.605 94.4028 126.907 94.4028 127.209Z" fill="#BCBEC0"/>
<path d="M59.1158 114.861L37.8989 114.948C33.4938 114.966 29.2394 116.849 26.4793 120.281C24.8708 122.282 23.966 124.476 23.8289 126.71C23.9386 124.417 24.88 122.168 26.5616 120.121C29.4131 116.644 33.7771 114.756 38.2782 114.775L59.1158 114.861Z" fill="url(#paint0_linear)"/>
<path d="M80.2048 146.122C79.894 129.663 77.6686 126.409 80.9542 122.493C81.3335 122.045 83.2574 119.746 86.4241 119.161C88.9512 118.695 91.2405 119.504 92.3235 120.116C98.9084 123.85 96.9572 140.026 92.616 150.235C91.6701 152.461 89.1339 158.433 86.0402 158.291C84.7745 158.232 83.8377 157.167 83.1842 156.4C80.2825 153.004 80.2505 148.604 80.2048 146.122Z" fill="#BCBEC0"/>
<path d="M83.23 156.468C82.5948 157.451 81.9322 158.392 81.2147 159.32C80.9862 159.087 80.7852 158.849 80.6024 158.634C77.7006 155.239 77.6686 150.843 77.6229 148.357C77.3122 131.897 75.0821 128.648 78.3724 124.732C78.6146 124.439 79.4919 123.393 80.9268 122.525C77.6823 126.427 79.894 129.708 80.2048 146.118C80.2505 148.599 80.287 153 83.1842 156.4C83.2025 156.422 83.2208 156.445 83.23 156.468Z" fill="#414042"/>
<path d="M92.5201 132.418C92.4287 130.65 92.0951 129.347 91.4325 126.747C90.5643 123.343 89.4767 121.684 90.185 121.026C90.6465 120.596 91.5513 120.889 91.7569 120.953C94.8688 121.944 95.833 127.78 95.6959 131.435C95.6137 133.67 95.0699 136.174 94.2474 136.284C94.1194 136.302 93.795 136.284 93.5665 136.083C92.6526 135.274 92.5932 133.761 92.5201 132.418Z" fill="white"/>
<path d="M94.654 138.66C94.654 139.017 94.3661 139.304 94.0096 139.304C93.6532 139.304 93.3653 139.017 93.3653 138.66C93.3653 138.304 93.6532 138.016 94.0096 138.016C94.3661 138.016 94.654 138.304 94.654 138.66Z" fill="white"/>
<path d="M72.0727 8.64119L69.5735 6.20245L53.5584 22.6144L56.0576 25.0531L72.0727 8.64119Z" fill="#BCBEC0"/>
<path d="M75.0965 9.45284C73.3706 11.2215 70.5375 11.2562 68.7688 9.53029C67.0001 7.80437 66.9655 4.97125 68.6914 3.20256C70.4173 1.43388 73.2504 1.39923 75.0191 3.12515C76.7878 4.85107 76.8225 7.68415 75.0965 9.45284Z" fill="#414042"/>
<path d="M75.3369 7.25121C74.8089 7.7923 73.9469 7.80286 73.4058 7.27486C72.8648 6.74685 72.8542 5.88489 73.3822 5.3438C73.9102 4.80271 74.7722 4.79216 75.3133 5.32017C75.8544 5.84818 75.8649 6.71013 75.3369 7.25121Z" fill="white"/>
<path d="M69.1051 26.95C68.9917 26.9641 68.9208 26.3121 68.3774 25.3009C68.3774 25.3009 68.1223 24.8284 67.8294 24.4268C66.8891 23.1368 63.7138 23.1651 63.4633 23.1651C58.5114 23.2077 55.3266 22.8958 55.3266 22.9241C55.3266 22.9478 57.6514 22.9005 59.3524 22.8675C64.1532 22.7682 67.0119 22.5131 68.2404 23.7983C68.7508 24.3322 69.0059 25.0268 69.0059 25.0268C69.3556 25.9719 69.2374 26.9311 69.1051 26.95Z" fill="white"/>
<path d="M66.771 37.558H42.6397C40.8584 37.558 39.4172 36.1168 39.4172 34.3354V25.712C39.4172 23.9307 40.8584 22.4895 42.6397 22.4895H66.771C68.5524 22.4895 69.9936 23.9307 69.9936 25.712V34.3354C69.9888 36.1168 68.5477 37.558 66.771 37.558Z" fill="#414042"/>
<path d="M109.406 87.6774C109.406 101.607 98.1127 112.9 84.183 112.9H25.2228C11.3498 112.9 0 101.55 0 87.6774V74.5746C0 49.8905 20.1952 29.6953 44.8793 29.6953H64.5359C89.22 29.6953 109.415 49.8905 109.415 74.5746V87.6774H109.406Z" fill="#BCBEC0"/>
<path d="M92.197 85.2912C90.7652 85.9999 89.1587 86.3685 87.5285 86.3685H21.8728C20.2426 86.3685 18.636 85.9999 17.2043 85.2912C13.6888 83.5523 11.7043 80.0415 12.2004 76.441L12.2382 76.1811C13.9204 63.9855 24.9677 54.6061 38.51 53.9021C44.2416 53.6044 50.2519 53.4485 56.5222 53.4863C61.4363 53.5146 66.1851 53.6611 70.759 53.8926C84.3532 54.592 95.4809 63.9336 97.1678 76.1764C97.182 76.2662 97.1914 76.3512 97.2056 76.441C97.7017 80.0415 95.7124 83.5523 92.197 85.2912Z" fill="#414042"/>
<path d="M37.3996 83.68C44.2368 83.68 49.7794 78.1373 49.7794 71.3001C49.7794 64.4629 44.2368 58.9203 37.3996 58.9203C30.5624 58.9203 25.0197 64.4629 25.0197 71.3001C25.0197 78.1373 30.5624 83.68 37.3996 83.68Z" fill="url(#paint1_radial)" fill-opacity="0.3"/>
<path d="M37.3996 80.1881C42.3083 80.1881 46.2876 76.2088 46.2876 71.3001C46.2876 66.3914 42.3083 62.4121 37.3996 62.4121C32.4909 62.4121 28.5116 66.3914 28.5116 71.3001C28.5116 76.2088 32.4909 80.1881 37.3996 80.1881Z" fill="#EFF8FC"/>
<path d="M37.3995 78.7658C41.5227 78.7658 44.8652 75.4233 44.8652 71.3001C44.8652 67.1769 41.5227 63.8344 37.3995 63.8344C33.2763 63.8344 29.9338 67.1769 29.9338 71.3001C29.9338 75.4233 33.2763 78.7658 37.3995 78.7658Z" fill="#414042"/>
<path d="M42.1814 69.3676C42.1814 70.8938 40.9434 72.1318 39.4172 72.1318C37.891 72.1318 36.653 70.8938 36.653 69.3676C36.653 67.8413 37.891 66.6033 39.4172 66.6033C40.9434 66.5986 42.1814 67.8366 42.1814 69.3676Z" fill="#EFF8FC"/>
<path d="M36.2939 78.1232C36.9019 78.1232 37.3948 77.6303 37.3948 77.0222C37.3948 76.4142 36.9019 75.9213 36.2939 75.9213C35.6858 75.9213 35.1929 76.4142 35.1929 77.0222C35.1929 77.6303 35.6858 78.1232 36.2939 78.1232Z" fill="#EFF8FC"/>
<path d="M33.558 75.3685C33.558 75.6709 33.3123 75.9213 33.0052 75.9213C32.7028 75.9213 32.4524 75.6756 32.4524 75.3685C32.4524 75.0661 32.6981 74.8156 33.0052 74.8156C33.3123 74.8156 33.558 75.0613 33.558 75.3685Z" fill="#EFF8FC"/>
<path d="M70.844 83.68C77.6812 83.68 83.2239 78.1373 83.2239 71.3001C83.2239 64.4629 77.6812 58.9203 70.844 58.9203C64.0068 58.9203 58.4642 64.4629 58.4642 71.3001C58.4642 78.1373 64.0068 83.68 70.844 83.68Z" fill="url(#paint2_radial)" fill-opacity="0.3"/>
<path d="M70.8441 80.1881C75.7528 80.1881 79.732 76.2088 79.732 71.3001C79.732 66.3914 75.7528 62.4121 70.8441 62.4121C65.9354 62.4121 61.9561 66.3914 61.9561 71.3001C61.9561 76.2088 65.9354 80.1881 70.8441 80.1881Z" fill="#EFF8FC"/>
<path d="M70.844 78.7658C74.9672 78.7658 78.3097 75.4233 78.3097 71.3001C78.3097 67.1769 74.9672 63.8344 70.844 63.8344C66.7208 63.8344 63.3783 67.1769 63.3783 71.3001C63.3783 75.4233 66.7208 78.7658 70.844 78.7658Z" fill="#414042"/>
<path d="M75.626 69.3676C75.626 70.8938 74.3879 72.1318 72.8617 72.1318C71.3355 72.1318 70.0975 70.8938 70.0975 69.3676C70.0975 67.8413 71.3355 66.6033 72.8617 66.6033C74.3879 66.5986 75.626 67.8366 75.626 69.3676Z" fill="#EFF8FC"/>
<path d="M69.7431 78.1232C70.3511 78.1232 70.8441 77.6303 70.8441 77.0222C70.8441 76.4142 70.3511 75.9213 69.7431 75.9213C69.1351 75.9213 68.6422 76.4142 68.6422 77.0222C68.6422 77.6303 69.1351 78.1232 69.7431 78.1232Z" fill="#EFF8FC"/>
<path d="M67.0072 75.3685C67.0072 75.6709 66.7615 75.9213 66.4544 75.9213C66.152 75.9213 65.9015 75.6756 65.9015 75.3685C65.9015 75.0661 66.1472 74.8156 66.4544 74.8156C66.7568 74.8156 67.0072 75.0613 67.0072 75.3685Z" fill="#EFF8FC"/>
<path d="M93.2506 44.0503C93.312 46.1388 91.6063 48.6384 89.6501 48.8557C87.8167 49.0542 86.3567 47.183 84.8446 45.2552C83.3562 43.3509 80.1053 38.4651 81.4 37.0854C83.1105 35.2568 93.1089 39.1219 93.2506 44.0503Z" fill="white"/>
<path d="M76.5142 36.0837C77.3728 36.0837 78.0687 35.3877 78.0687 34.5291C78.0687 33.6705 77.3728 32.9745 76.5142 32.9745C75.6556 32.9745 74.9596 33.6705 74.9596 34.5291C74.9596 35.3877 75.6556 36.0837 76.5142 36.0837Z" fill="white"/>
<path d="M93.0286 73.0437C92.5277 73.3981 89.05 66.3056 79.7084 60.1582C76.4244 57.9988 73.183 56.4585 73.3767 56.0096C73.5705 55.556 77.223 56.4017 80.1478 57.7579C89.4563 62.0814 93.6239 72.6279 93.0286 73.0437Z" fill="white"/>
<rect x="41.3649" y="96.001" width="26.7792" height="4.54742" fill="#414042"/>
<defs>
<linearGradient id="paint0_linear" x1="33.654" y1="128.217" x2="66.5411" y2="89.8132" gradientUnits="userSpaceOnUse">
<stop offset="0.0397" stop-color="#44BFE2"/>
<stop offset="1" stop-color="#DCE38C"/>
</linearGradient>
<radialGradient id="paint1_radial" cx="0" cy="0" r="1" gradientUnits="userSpaceOnUse" gradientTransform="translate(37.3979 71.2993) scale(12.2528)">
<stop offset="0.1296" stop-color="#414042"/>
<stop offset="1" stop-color="#020203"/>
</radialGradient>
<radialGradient id="paint2_radial" cx="0" cy="0" r="1" gradientUnits="userSpaceOnUse" gradientTransform="translate(70.8445 71.2993) scale(12.2528)">
<stop offset="0.1296" stop-color="#414042"/>
<stop offset="1" stop-color="#020203"/>
</radialGradient>
</defs>
</svg>
