<svg width="234" height="301" viewBox="0 0 234 301" fill="none" xmlns="http://www.w3.org/2000/svg">
<mask id="mask0" mask-type="alpha" maskUnits="userSpaceOnUse" x="0" y="0" width="234" height="301">
<rect width="234" height="301" fill="#C4C4C4"/>
</mask>
<g mask="url(#mask0)">
<g opacity="0.9">
<path opacity="0.9" d="M60.8106 173.608C71.3473 173.608 79.889 165.387 79.889 155.246C79.889 145.105 71.3473 136.884 60.8106 136.884C50.2738 136.884 41.7321 145.105 41.7321 155.246C41.7321 165.387 50.2738 173.608 60.8106 173.608Z" fill="#476983"/>
<g opacity="0.9">
<path opacity="0.9" d="M65.4771 155.324C65.4771 154.138 66.4848 153.177 67.7298 153.177H71.017C72.2621 153.177 73.3011 154.138 73.3011 155.324C73.3011 156.509 72.2621 157.47 71.017 157.47H67.7298C66.4848 157.47 65.4771 156.509 65.4771 155.324Z" fill="white"/>
<path opacity="0.9" d="M58.5847 155.328C58.5847 154.138 59.5879 153.177 60.8239 153.177C62.06 153.177 63.0632 154.138 63.0632 155.328C63.0632 156.518 62.06 157.479 60.8239 157.479C59.5879 157.479 58.5847 156.513 58.5847 155.328Z" fill="white"/>
<path opacity="0.9" fill-rule="evenodd" clip-rule="evenodd" d="M63.0012 145.276C63.0504 146.436 62.1144 147.41 60.9097 147.457C55.7102 147.664 52.5394 151.582 52.6917 155.298C52.7409 156.457 51.8228 157.432 50.6181 157.479C49.4134 157.526 48.3565 156.591 48.3072 155.431C48.0564 149.371 53.3187 143.38 60.7306 143.263C61.9308 143.22 62.9474 144.121 63.0012 145.276Z" fill="white"/>
<path opacity="0.9" fill-rule="evenodd" clip-rule="evenodd" d="M48.2975 155.212C48.3289 162.535 54.5764 167.371 60.9001 167.22C68.3613 166.966 73.7489 160.733 73.3011 155.173C73.1981 154.018 72.1322 153.121 70.9275 153.177C69.7227 153.233 68.7957 154.216 68.8539 155.371C69.0241 158.75 65.7817 162.888 60.7926 163.022C56.8291 163.117 52.8656 160.126 52.691 155.47C52.6462 156.548 51.7594 157.432 50.6174 157.475C49.4127 157.522 48.3558 156.587 48.3065 155.427C48.302 155.363 48.302 155.289 48.2975 155.212Z" fill="url(#paint0_linear)"/>
</g>
</g>
<g opacity="0.8">
<path opacity="0.8" d="M96.1055 92.8405C106.642 92.8405 115.184 84.6195 115.184 74.4783C115.184 64.3372 106.642 56.1161 96.1055 56.1161C85.5687 56.1161 77.027 64.3372 77.027 74.4783C77.027 84.6195 85.5687 92.8405 96.1055 92.8405Z" fill="#476983"/>
<path opacity="0.8" fill-rule="evenodd" clip-rule="evenodd" d="M89.5266 71.9482C90.4044 68.5732 92.5989 66.8835 96.1056 66.8835C101.368 66.8835 102.026 70.6809 104.66 71.3145C106.415 71.737 107.951 71.1033 109.263 69.4137C108.386 72.7887 106.191 74.4784 102.684 74.4784C97.4222 74.4784 96.7639 70.6809 94.1305 70.0473C92.375 69.6249 90.8388 70.2585 89.5266 71.9482ZM82.9477 79.543C83.8255 76.168 86.02 74.4784 89.5266 74.4784C94.7889 74.4784 95.4472 78.2758 98.0806 78.9094C99.8362 79.3318 101.372 78.6982 102.684 77.0085C101.807 80.3836 99.6122 82.0732 96.1056 82.0732C90.8433 82.0732 90.185 78.2758 87.5516 77.6422C85.796 77.2241 84.2599 77.8577 82.9477 79.543Z" fill="white"/>
</g>
<g opacity="0.9">
<path opacity="0.9" d="M134.567 129.449C145.104 129.449 153.645 121.227 153.645 111.086C153.645 100.945 145.104 92.7241 134.567 92.7241C124.03 92.7241 115.489 100.945 115.489 111.086C115.489 121.227 124.03 129.449 134.567 129.449Z" fill="#476983"/>
<g opacity="0.9">
<path opacity="0.9" d="M123.017 119.336C123.017 120.918 124.352 122.203 125.995 122.203H143.134C144.778 122.203 146.113 120.918 146.113 119.336V102.841C146.113 101.259 144.778 99.9742 143.134 99.9742H125.995C124.352 99.9742 123.017 101.259 123.017 102.841V119.336Z" stroke="white" stroke-miterlimit="10"/>
<path opacity="0.9" d="M132.596 109.806V106.66H135.476C135.749 106.66 136.014 106.681 136.269 106.724C136.524 106.767 136.748 106.845 136.945 106.961C137.142 107.073 137.299 107.233 137.415 107.431C137.532 107.634 137.59 107.888 137.59 108.203C137.59 108.767 137.415 109.177 137.062 109.427C136.708 109.677 136.26 109.802 135.709 109.802H132.596V109.806ZM129.52 104.358V117.815H136.296C136.923 117.815 137.532 117.742 138.127 117.591C138.723 117.44 139.251 117.207 139.713 116.892C140.174 116.578 140.546 116.173 140.819 115.677C141.092 115.181 141.231 114.595 141.231 113.914C141.231 113.073 141.02 112.354 140.595 111.754C140.17 111.155 139.529 110.741 138.665 110.5C139.292 110.211 139.767 109.841 140.085 109.388C140.402 108.935 140.564 108.371 140.564 107.69C140.564 107.06 140.456 106.535 140.241 106.108C140.026 105.681 139.722 105.336 139.332 105.082C138.942 104.828 138.472 104.638 137.921 104.526C137.375 104.414 136.766 104.358 136.099 104.358H129.52ZM132.596 115.517V111.823H135.946C136.614 111.823 137.147 111.97 137.554 112.267C137.957 112.565 138.163 113.056 138.163 113.746C138.163 114.099 138.101 114.388 137.975 114.612C137.85 114.836 137.684 115.017 137.474 115.151C137.263 115.285 137.021 115.375 136.748 115.435C136.475 115.491 136.188 115.522 135.888 115.522H132.596V115.517Z" fill="white"/>
</g>
</g>
<g opacity="0.4">
<path opacity="0.4" d="M53.8868 125.022C64.4235 125.022 72.9652 116.801 72.9652 106.66C72.9652 96.5184 64.4235 88.2974 53.8868 88.2974C43.3501 88.2974 34.8083 96.5184 34.8083 106.66C34.8083 116.801 43.3501 125.022 53.8868 125.022Z" fill="#476983"/>
<g opacity="0.4">
<path opacity="0.4" d="M53.8867 95.2758H48.5305L53.8867 107.466" fill="white"/>
<path opacity="0.4" d="M53.8867 95.2758H59.2475L53.8867 107.466" fill="white"/>
<path opacity="0.4" d="M53.8867 110.983V120.41L42.4576 98.9311H48.4453" fill="white"/>
<path opacity="0.4" d="M53.8867 110.983V120.41L65.3158 98.9311H59.3326" fill="white"/>
</g>
</g>
<g opacity="0.9">
<path opacity="0.9" d="M188.251 151.755C198.788 151.755 207.329 143.534 207.329 133.393C207.329 123.251 198.788 115.03 188.251 115.03C177.714 115.03 169.172 123.251 169.172 133.393C169.172 143.534 177.714 151.755 188.251 151.755Z" fill="#476983"/>
<g opacity="0.9">
<path opacity="0.9" d="M199.586 138.199L192.958 126.811C192.411 125.884 191.001 125.884 190.454 126.811L189.747 128.026L190.571 129.436L191.717 127.505L198.328 138.815H195.972C196.093 139.535 195.448 140.242 194.525 140.242H198.337C199.42 140.238 200.11 139.1 199.586 138.199Z" fill="white"/>
<path opacity="0.9" d="M183.584 138.815H178.192L186.334 124.871L188.981 129.358L189.751 128.031L187.436 124.074C186.943 123.233 185.712 123.237 185.223 124.078L176.911 138.38C176.423 139.216 177.068 140.242 178.08 140.242H185.035C184.108 140.237 183.459 139.535 183.584 138.815Z" fill="white"/>
<path opacity="0.9" d="M195.967 138.815C195.945 138.686 195.9 138.556 195.829 138.431L190.571 129.436L189.747 128.026L188.977 129.354L183.723 138.431C183.652 138.556 183.607 138.686 183.584 138.811C183.464 139.531 184.108 140.237 185.031 140.237H185.291H194.521C195.443 140.237 196.088 139.535 195.967 138.815ZM185.094 138.815L189.787 130.815L194.454 138.815H185.094Z" fill="white"/>
</g>
</g>
<g opacity="0.8">
<path opacity="0.8" d="M169.173 205.652C179.709 205.652 188.251 197.431 188.251 187.29C188.251 177.148 179.709 168.927 169.173 168.927C158.636 168.927 150.094 177.148 150.094 187.29C150.094 197.431 158.636 205.652 169.173 205.652Z" fill="#476983"/>
<g opacity="0.8">
<path opacity="0.8" d="M176.571 178.764L169.172 191.091L161.778 178.764H156.848L169.172 199.311L181.502 178.764H176.571Z" fill="white"/>
<g opacity="0.8">
<path opacity="0.8" d="M172.021 178.764L169.172 183.509L166.324 178.764H161.774L169.168 191.091L176.562 178.764H172.021Z" fill="white"/>
</g>
</g>
</g>
<g opacity="0.7">
<path opacity="0.7" d="M65.4772 233.816C76.0139 233.816 84.5556 225.595 84.5556 215.453C84.5556 205.312 76.0139 197.091 65.4772 197.091C54.9404 197.091 46.3987 205.312 46.3987 215.453C46.3987 225.595 54.9404 233.816 65.4772 233.816Z" fill="#476983"/>
<path opacity="0.7" d="M57.9622 209.104L64.5456 202.828L72.7458 210.66L67.9985 215.453L74.582 221.88L64.4381 228.079L56.3723 219.906L57.9622 209.104Z" fill="white"/>
</g>
<g opacity="0.9">
<path opacity="0.9" d="M179.684 103.858C188.113 103.858 194.946 97.2811 194.946 89.1681C194.946 81.0552 188.113 74.4784 179.684 74.4784C171.254 74.4784 164.421 81.0552 164.421 89.1681C164.421 97.2811 171.254 103.858 179.684 103.858Z" fill="#476983"/>
<g opacity="0.9">
<path opacity="0.9" d="M183.419 89.2284C183.419 88.2802 184.225 87.5086 185.223 87.5086H187.852C188.847 87.5086 189.68 88.2759 189.68 89.2284C189.68 90.1767 188.847 90.9483 187.852 90.9483H185.223C184.225 90.9483 183.419 90.181 183.419 89.2284Z" fill="white"/>
<path opacity="0.9" d="M177.901 89.2328C177.901 88.2845 178.703 87.5129 179.693 87.5129C180.682 87.5129 181.484 88.2845 181.484 89.2328C181.484 90.181 180.682 90.9526 179.693 90.9526C178.703 90.9526 177.901 90.181 177.901 89.2328Z" fill="white"/>
<path opacity="0.9" fill-rule="evenodd" clip-rule="evenodd" d="M181.435 81.1939C181.476 82.1206 180.728 82.9008 179.765 82.9396C175.604 83.1077 173.069 86.237 173.19 89.2155C173.231 90.1422 172.496 90.9224 171.533 90.9612C170.57 91 169.724 90.25 169.684 89.3233C169.482 84.4741 173.692 79.681 179.621 79.5904C180.58 79.5473 181.395 80.2672 181.435 81.1939Z" fill="white"/>
<path opacity="0.9" fill-rule="evenodd" clip-rule="evenodd" d="M169.674 89.1422C169.697 95 174.699 98.8707 179.755 98.75C185.725 98.5431 190.033 93.5603 189.675 89.112C189.59 88.1896 188.739 87.4698 187.776 87.5172C186.813 87.5603 186.07 88.3491 186.115 89.2758C186.249 91.9784 183.656 95.2931 179.666 95.3966C176.495 95.4698 173.324 93.0776 173.185 89.3577C173.149 90.2198 172.442 90.9267 171.528 90.9612C170.565 91 169.719 90.25 169.679 89.3232C169.679 89.2629 169.674 89.2025 169.674 89.1422Z" fill="url(#paint1_linear)"/>
</g>
</g>
<g opacity="0.9">
<path opacity="0.9" d="M147.407 79.7327C154.783 79.7327 160.762 73.978 160.762 66.8792C160.762 59.7804 154.783 54.0256 147.407 54.0256C140.031 54.0256 134.052 59.7804 134.052 66.8792C134.052 73.978 140.031 79.7327 147.407 79.7327Z" fill="#476983"/>
<g opacity="0.9">
<path opacity="0.9" d="M147.407 58.9136H143.654L147.407 67.4439" fill="white"/>
<path opacity="0.9" d="M147.407 58.9136H151.156L147.407 67.4439" fill="white"/>
<path opacity="0.9" d="M147.407 69.9051V76.5086L139.404 61.474H143.596" fill="white"/>
<path opacity="0.9" d="M147.407 69.9094V76.5086L155.406 61.474H151.214" fill="white"/>
</g>
</g>
<path opacity="0.81" d="M110.663 281.306C189.134 281.306 252.747 219.936 252.747 144.232C252.747 68.5285 189.134 7.15839 110.663 7.15839C32.1929 7.15839 -31.42 68.5285 -31.42 144.232C-31.42 219.936 32.1929 281.306 110.663 281.306Z" fill="url(#paint2_radial)"/>
</g>
<path d="M120.379 69.9344H117.509V88.7754H120.379V69.9344Z" fill="#243746"/>
<path d="M122.622 68.6766C122.622 70.707 120.976 72.3531 118.946 72.3531C116.915 72.3531 115.269 70.707 115.269 68.6766C115.269 66.6461 116.915 65 118.946 65C120.976 65 122.622 66.6461 122.622 68.6766Z" fill="#101F2B"/>
<path d="M121.5 67.244C121.5 67.8652 121 68.366 120.378 68.366C119.757 68.366 119.256 67.8652 119.256 67.244C119.256 66.6228 119.757 66.122 120.378 66.122C121 66.122 121.5 66.6228 121.5 67.244Z" fill="white"/>
<path d="M130.779 90.4642C130.686 90.4759 130.628 89.9401 130.181 89.1093C130.181 89.1093 129.972 88.7211 129.731 88.3911C128.958 87.3312 126.35 87.3545 126.144 87.3545C122.075 87.3894 119.458 87.1332 119.458 87.1565C119.458 87.1759 121.368 87.1371 122.766 87.1099C126.711 87.0284 129.059 86.8187 130.069 87.8747C130.488 88.3134 130.698 88.8841 130.698 88.8841C130.985 89.6606 130.888 90.4487 130.779 90.4642Z" fill="white"/>
<path opacity="0.59" d="M120.382 221C136.264 221 149.139 215.73 149.139 209.229C149.139 202.728 136.264 197.458 120.382 197.458C104.501 197.458 91.6259 202.728 91.6259 209.229C91.6259 215.73 104.501 221 120.382 221Z" fill="#243746"/>
<path d="M84.395 190.959C84.4733 176.971 82.6481 174.164 85.5201 170.903C85.85 170.529 87.5328 168.619 90.2387 168.187C92.3933 167.843 94.322 168.576 95.2315 169.12C100.747 172.425 98.7543 186.123 94.8567 194.707C94.0077 196.578 91.7274 201.599 89.1053 201.413C88.0314 201.335 87.2578 200.413 86.7173 199.746C84.3172 196.804 84.3815 193.069 84.395 190.959Z" fill="#243746"/>
<path d="M128.475 99.3808H108.648C107.184 99.3808 106 98.1966 106 96.733V89.6477C106 88.1841 107.184 87 108.648 87H128.475C129.939 87 131.123 88.1841 131.123 89.6477V96.733C131.119 98.1966 129.935 99.3808 128.475 99.3808Z" fill="#101F2B"/>
<path d="M163.892 140.36C163.892 151.805 154.613 161.084 143.168 161.084H94.7239C83.3254 161.084 74 151.759 74 140.36V129.594C74 109.313 90.5931 92.7199 110.874 92.7199H127.025C147.306 92.7199 163.899 109.313 163.899 129.594V140.36H163.892Z" fill="#243746"/>
<path d="M149.752 138.399C148.576 138.982 147.256 139.285 145.916 139.285H91.9715C90.6321 139.285 89.3121 138.982 88.1357 138.399C85.2473 136.971 83.6167 134.086 84.0244 131.128L84.0554 130.914C85.4375 120.894 94.5144 113.188 105.641 112.609C110.35 112.364 115.289 112.236 120.441 112.267C124.478 112.291 128.38 112.411 132.138 112.601C143.308 113.176 152.45 120.851 153.836 130.91C153.848 130.984 153.856 131.054 153.867 131.128C154.275 134.086 152.641 136.971 149.752 138.399Z" fill="#101F2B"/>
<rect x="104.529" y="146.839" width="27.7294" height="3.64861" fill="white"/>
<path d="M150.618 104.514C150.668 106.23 149.267 108.284 147.66 108.463C146.153 108.626 144.954 107.088 143.711 105.504C142.488 103.94 139.817 99.9255 140.881 98.7919C142.287 97.2894 150.502 100.465 150.618 104.514Z" fill="white"/>
<path d="M136.867 97.9688C137.572 97.9688 138.144 97.3969 138.144 96.6915C138.144 95.9861 137.572 95.4142 136.867 95.4142C136.161 95.4142 135.59 95.9861 135.59 96.6915C135.59 97.3969 136.161 97.9688 136.867 97.9688Z" fill="white"/>
<path d="M150.436 128.336C150.024 128.628 147.167 122.8 139.491 117.749C136.793 115.975 134.13 114.709 134.289 114.341C134.448 113.968 137.449 114.663 139.852 115.777C147.5 119.329 150.925 127.995 150.436 128.336Z" fill="white"/>
<path d="M151.166 173.915C151.166 174.039 151.166 174.156 151.162 174.272C151.119 175.402 150.855 176.252 150.727 176.636C147.019 187.969 144.795 193.944 141.677 198.777C141.137 199.612 140.575 200.412 139.965 201.2C139.169 202.248 138.296 203.273 137.329 204.329C135.174 206.67 131.921 207.73 130.869 208.099C127.029 209.454 123.64 209.209 121.384 209.229H120.992C118.732 209.205 115.347 209.454 111.507 208.099C110.459 207.734 107.194 206.674 105.047 204.329C99.1266 197.884 96.8477 192.531 91.6493 176.64C91.525 176.275 91.2766 175.483 91.2183 174.424C91.2028 174.117 91.1951 173.81 91.2145 173.503C91.3271 171.605 92.0958 169.741 93.4662 168.041C95.8073 165.125 99.4256 163.526 103.168 163.51L121.194 163.437L138.893 163.367C142.714 163.351 146.417 164.955 148.848 167.909C150.02 169.342 150.77 170.887 151.045 172.478C151.084 172.704 151.115 172.937 151.138 173.162C151.15 173.402 151.166 173.659 151.166 173.915Z" fill="#243746"/>
<path d="M121.186 163.425L103.16 163.499C99.4177 163.514 95.8033 165.114 93.4584 168.029C92.0918 169.73 91.3231 171.593 91.2066 173.492C91.2998 171.543 92.0995 169.633 93.5282 167.893C95.9508 164.939 99.6585 163.336 103.483 163.351L121.186 163.425Z" fill="url(#paint3_linear)"/>
<path d="M139.103 189.984C138.839 176 136.948 173.236 139.74 169.908C140.062 169.528 141.696 167.575 144.387 167.078C146.534 166.682 148.479 167.369 149.399 167.89C154.993 171.061 153.336 184.805 149.647 193.478C148.844 195.369 146.689 200.443 144.061 200.323C142.985 200.272 142.189 199.368 141.634 198.715C139.169 195.831 139.142 192.092 139.103 189.984Z" fill="#243746"/>
<path d="M141.673 198.774C141.134 199.608 140.571 200.408 139.961 201.196C139.767 200.998 139.596 200.796 139.441 200.614C136.975 197.729 136.948 193.994 136.909 191.882C136.645 177.898 134.751 175.138 137.546 171.811C137.752 171.562 138.497 170.673 139.716 169.936C136.96 173.251 138.839 176.039 139.103 189.98C139.142 192.088 139.173 195.827 141.634 198.715C141.65 198.735 141.665 198.754 141.673 198.774Z" fill="#101F2B"/>
<path d="M149.566 178.341C149.488 176.838 149.205 175.732 148.642 173.523C147.904 170.631 146.98 169.221 147.582 168.662C147.974 168.297 148.743 168.546 148.918 168.6C151.561 169.443 152.381 174.4 152.264 177.506C152.194 179.405 151.732 181.532 151.034 181.625C150.925 181.641 150.649 181.625 150.455 181.454C149.679 180.767 149.628 179.482 149.566 178.341Z" fill="white"/>
<path d="M151.379 183.644C151.379 183.947 151.134 184.192 150.831 184.192C150.529 184.192 150.284 183.947 150.284 183.644C150.284 183.341 150.529 183.097 150.831 183.097C151.134 183.097 151.379 183.341 151.379 183.644Z" fill="white"/>
<path d="M104.767 130.955H110.352V133H112.705V130.955H114.148V128.983H112.705V121.364H109.625L104.767 129.017V130.955ZM110.398 128.983H107.244V128.892L110.307 124.045H110.398V128.983ZM120.349 133.256C123.276 133.256 125.043 131.028 125.048 127.193C125.054 123.386 123.264 121.205 120.349 121.205C117.429 121.205 115.656 123.381 115.651 127.193C115.639 131.017 117.418 133.25 120.349 133.256ZM120.349 131.216C119.014 131.216 118.151 129.875 118.156 127.193C118.162 124.551 119.02 123.222 120.349 123.222C121.673 123.222 122.537 124.551 122.537 127.193C122.543 129.875 121.679 131.216 120.349 131.216ZM126.626 130.955H132.212V133H134.564V130.955H136.007V128.983H134.564V121.364H131.484L126.626 129.017V130.955ZM132.257 128.983H129.104V128.892L132.166 124.045H132.257V128.983Z" fill="white"/>
<defs>
<linearGradient id="paint0_linear" x1="60.8136" y1="167.227" x2="60.8136" y2="153.18" gradientUnits="userSpaceOnUse">
<stop stop-color="white" stop-opacity="0.95"/>
<stop offset="1" stop-color="white" stop-opacity="0.5"/>
</linearGradient>
<linearGradient id="paint1_linear" x1="179.686" y1="98.753" x2="179.686" y2="87.5152" gradientUnits="userSpaceOnUse">
<stop stop-color="white" stop-opacity="0.95"/>
<stop offset="1" stop-color="white" stop-opacity="0.5"/>
</linearGradient>
<radialGradient id="paint2_radial" cx="0" cy="0" r="1" gradientUnits="userSpaceOnUse" gradientTransform="translate(110.664 144.234) scale(142.083 137.074)">
<stop offset="0.0397" stop-color="white"/>
<stop offset="1" stop-color="#2B4152" stop-opacity="0.3"/>
</radialGradient>
<linearGradient id="paint3_linear" x1="99.5539" y1="174.772" x2="127.494" y2="142.144" gradientUnits="userSpaceOnUse">
<stop offset="0.0397" stop-color="#44BFE2"/>
<stop offset="1" stop-color="#DCE38C"/>
</linearGradient>
</defs>
</svg>
