<svg width="234" height="301" fill="#7ca2a2" xmlns="http://www.w3.org/2000/svg"><mask id="a" maskUnits="userSpaceOnUse" x="0" y="0" width="234" height="301"><path fill="#C4C4C4" d="M0 0h234v301H0z"/></mask><g mask="url(#a)"><g opacity=".9"><path opacity=".9" d="M60.81 173.608c10.537 0 19.079-8.221 19.079-18.362 0-10.141-8.542-18.362-19.078-18.362-10.537 0-19.079 8.221-19.079 18.362 0 10.141 8.542 18.362 19.078 18.362z" fill="#158876"/><g opacity=".9"><path opacity=".9" d="M65.477 155.324c0-1.186 1.008-2.147 2.253-2.147h3.287c1.245 0 2.284.961 2.284 2.147 0 1.185-1.039 2.146-2.284 2.146H67.73c-1.245 0-2.253-.961-2.253-2.146zM58.585 155.328c0-1.19 1.003-2.151 2.239-2.151s2.24.961 2.24 2.151-1.004 2.151-2.24 2.151c-1.236 0-2.24-.966-2.24-2.151z" fill="#fff"/><path opacity=".9" fill-rule="evenodd" clip-rule="evenodd" d="M63.001 145.276c.05 1.16-.886 2.134-2.091 2.181-5.2.207-8.37 4.125-8.218 7.841.049 1.159-.87 2.133-2.074 2.181-1.205.047-2.262-.888-2.31-2.048-.252-6.06 5.01-12.051 12.423-12.168 1.2-.043 2.216.858 2.27 2.013z" fill="#fff"/><path opacity=".9" fill-rule="evenodd" clip-rule="evenodd" d="M48.298 155.212c.03 7.323 6.278 12.159 12.602 12.008 7.461-.254 12.849-6.487 12.401-12.047-.103-1.155-1.169-2.052-2.374-1.996-1.204.056-2.131 1.039-2.073 2.194.17 3.379-3.072 7.517-8.061 7.651-3.964.095-7.927-2.897-8.102-7.552-.045 1.078-.932 1.961-2.074 2.005-1.204.047-2.261-.888-2.31-2.048-.005-.064-.005-.138-.01-.215z" fill="url(#paint0_linear)"/></g></g><g opacity=".8"><path opacity=".8" d="M96.106 92.84c10.536 0 19.078-8.22 19.078-18.362 0-10.14-8.542-18.362-19.078-18.362-10.537 0-19.079 8.221-19.079 18.362 0 10.142 8.542 18.363 19.079 18.363z" fill="#158876"/><path opacity=".8" fill-rule="evenodd" clip-rule="evenodd" d="M89.527 71.948c.877-3.375 3.072-5.064 6.579-5.064 5.262 0 5.92 3.797 8.554 4.43 1.755.423 3.291-.21 4.603-1.9-.877 3.375-3.072 5.064-6.578 5.064-5.263 0-5.921-3.797-8.554-4.43-1.756-.423-3.292.21-4.604 1.9zm-6.58 7.595c.879-3.375 3.073-5.065 6.58-5.065 5.262 0 5.92 3.798 8.554 4.431 1.755.423 3.291-.21 4.604-1.9-.878 3.375-3.073 5.064-6.58 5.064-5.262 0-5.92-3.797-8.553-4.43-1.756-.419-3.292.215-4.604 1.9z" fill="#fff"/></g><g opacity=".9"><path opacity=".9" d="M134.567 129.449c10.537 0 19.078-8.222 19.078-18.363s-8.541-18.362-19.078-18.362c-10.537 0-19.078 8.221-19.078 18.362 0 10.141 8.541 18.363 19.078 18.363z" fill="#158876"/><g opacity=".9"><path opacity=".9" d="M123.017 119.336c0 1.582 1.335 2.867 2.978 2.867h17.139c1.644 0 2.979-1.285 2.979-2.867v-16.495c0-1.582-1.335-2.867-2.979-2.867h-17.139c-1.643 0-2.978 1.285-2.978 2.867v16.495z" stroke="#fff" stroke-miterlimit="10"/><path opacity=".9" d="M132.596 109.806v-3.146h2.88c.273 0 .538.021.793.064s.479.121.676.237c.197.112.354.272.47.47.117.203.175.457.175.772 0 .564-.175.974-.528 1.224-.354.25-.802.375-1.353.375h-3.113v.004zm-3.076-5.448v13.457h6.776c.627 0 1.236-.074 1.831-.224a4.941 4.941 0 001.586-.699 3.49 3.49 0 001.106-1.215c.273-.496.412-1.082.412-1.763 0-.841-.211-1.56-.636-2.16-.425-.599-1.066-1.013-1.93-1.254.627-.289 1.102-.659 1.42-1.112.318-.453.479-1.017.479-1.698 0-.63-.108-1.155-.323-1.582a2.595 2.595 0 00-.909-1.026 4.038 4.038 0 00-1.411-.556 9.104 9.104 0 00-1.822-.168h-6.579zm3.076 11.159v-3.694h3.35c.668 0 1.201.147 1.608.444.403.298.609.789.609 1.479 0 .353-.062.642-.188.866a1.484 1.484 0 01-.501.539 2.23 2.23 0 01-.726.284c-.273.056-.56.087-.86.087h-3.292v-.005z" fill="#fff"/></g></g><g opacity=".4"><path opacity=".4" d="M53.887 125.022c10.537 0 19.078-8.221 19.078-18.362 0-10.142-8.541-18.363-19.078-18.363-10.537 0-19.079 8.221-19.079 18.363 0 10.141 8.542 18.362 19.079 18.362z" fill="#158876"/><g opacity=".4" fill="#fff"><path opacity=".4" d="M53.887 95.276H48.53l5.356 12.19M53.887 95.276h5.36l-5.36 12.19M53.887 110.983v9.427l-11.43-21.479h5.988M53.887 110.983v9.427l11.429-21.479h-5.983"/></g></g><g opacity=".9"><path opacity=".9" d="M188.251 151.755c10.537 0 19.078-8.221 19.078-18.362 0-10.142-8.541-18.363-19.078-18.363-10.537 0-19.078 8.221-19.078 18.363 0 10.141 8.541 18.362 19.078 18.362z" fill="#158876"/><g opacity=".9" fill="#fff"><path opacity=".9" d="M199.586 138.199l-6.628-11.388c-.547-.927-1.957-.927-2.504 0l-.707 1.215.824 1.41 1.146-1.931 6.611 11.31h-2.356c.121.72-.524 1.427-1.447 1.427h3.812c1.083-.004 1.773-1.142 1.249-2.043z"/><path opacity=".9" d="M183.584 138.815h-5.392l8.142-13.944 2.647 4.487.77-1.327-2.315-3.957c-.493-.841-1.724-.837-2.212.004l-8.313 14.302c-.488.836.157 1.862 1.169 1.862h6.955c-.927-.005-1.576-.707-1.451-1.427z"/><path opacity=".9" d="M195.967 138.815a1.178 1.178 0 00-.138-.384l-5.258-8.995-.824-1.41-.77 1.328-5.254 9.077a1.218 1.218 0 00-.139.38c-.12.72.524 1.426 1.447 1.426h9.49c.923 0 1.567-.702 1.446-1.422zm-10.873 0l4.693-8 4.667 8h-9.36z"/></g></g><g opacity=".8"><path opacity=".8" d="M169.173 205.652c10.536 0 19.078-8.221 19.078-18.362 0-10.142-8.542-18.363-19.078-18.363-10.537 0-19.079 8.221-19.079 18.363 0 10.141 8.542 18.362 19.079 18.362z" fill="#158876"/><g opacity=".8"><path opacity=".8" d="M176.571 178.764l-7.399 12.327-7.394-12.327h-4.93l12.324 20.547 12.33-20.547h-4.931z" fill="#fff"/><path opacity=".8" d="M172.021 178.764l-2.849 4.745-2.848-4.745h-4.55l7.394 12.327 7.394-12.327h-4.541z" fill="#fff"/></g></g><g opacity=".7"><path opacity=".7" d="M65.477 233.816c10.537 0 19.079-8.221 19.079-18.363 0-10.141-8.542-18.362-19.079-18.362S46.4 205.312 46.4 215.453c0 10.142 8.541 18.363 19.078 18.363z" fill="#158876"/><path opacity=".7" d="M57.962 209.104l6.584-6.276 8.2 7.832-4.747 4.793 6.583 6.427-10.144 6.199-8.066-8.173 1.59-10.802z" fill="#fff"/></g><g opacity=".9"><path opacity=".9" d="M179.684 103.858c8.429 0 15.262-6.577 15.262-14.69s-6.833-14.69-15.262-14.69c-8.43 0-15.263 6.577-15.263 14.69s6.833 14.69 15.263 14.69z" fill="#158876"/><g opacity=".9"><path opacity=".9" d="M183.419 89.228c0-.948.806-1.72 1.804-1.72h2.629c.995 0 1.828.768 1.828 1.72 0 .949-.833 1.72-1.828 1.72h-2.629c-.998 0-1.804-.767-1.804-1.72zM177.901 89.233c0-.949.802-1.72 1.792-1.72.989 0 1.791.771 1.791 1.72 0 .948-.802 1.72-1.791 1.72-.99 0-1.792-.772-1.792-1.72z" fill="#fff"/><path opacity=".9" fill-rule="evenodd" clip-rule="evenodd" d="M181.435 81.194c.041.927-.707 1.707-1.67 1.746-4.161.168-6.696 3.297-6.575 6.276.041.926-.694 1.706-1.657 1.745-.963.039-1.809-.711-1.849-1.638-.202-4.849 4.008-9.642 9.937-9.733.959-.043 1.774.677 1.814 1.604z" fill="#fff"/><path opacity=".9" fill-rule="evenodd" clip-rule="evenodd" d="M169.674 89.142c.023 5.858 5.025 9.729 10.081 9.608 5.97-.207 10.278-5.19 9.92-9.638-.085-.922-.936-1.642-1.899-1.595-.963.043-1.706.832-1.661 1.759.134 2.702-2.459 6.017-6.449 6.12-3.171.074-6.342-2.318-6.481-6.038-.036.862-.743 1.569-1.657 1.603-.963.039-1.809-.711-1.849-1.638 0-.06-.005-.12-.005-.18z" fill="url(#paint1_linear)"/></g></g><g opacity=".25"><path opacity=".25" d="M23.285 198.609c8.43 0 15.263-6.577 15.263-14.69s-6.833-14.69-15.263-14.69-15.263 6.577-15.263 14.69 6.834 14.69 15.263 14.69z" fill="#158876"/><g opacity=".25"><path opacity=".25" d="M29.201 177.095l-5.916 9.863-5.916-9.863h-3.945l9.861 16.44 9.862-16.44h-3.946z" fill="#fff"/><path opacity=".8" d="M25.565 177.095l-2.28 3.798-2.28-3.798h-3.64l5.916 9.863 5.916-9.863h-3.632z" fill="#fff"/></g></g><g opacity=".9"><path opacity=".9" d="M147.407 79.733c7.376 0 13.355-5.755 13.355-12.854 0-7.099-5.979-12.853-13.355-12.853s-13.355 5.754-13.355 12.853 5.979 12.854 13.355 12.854z" fill="#158876"/><g opacity=".9" fill="#fff"><path opacity=".9" d="M147.407 58.914h-3.753l3.753 8.53M147.407 58.914h3.749l-3.749 8.53M147.407 69.905v6.604l-8.003-15.035h4.192M147.407 69.91v6.599l7.999-15.035h-4.192"/></g></g><path opacity=".81" d="M110.663 281.306c78.471 0 142.084-61.37 142.084-137.074 0-75.704-63.613-137.074-142.084-137.074-78.47 0-142.083 61.37-142.083 137.074 0 75.704 63.613 137.074 142.083 137.074z" fill="url(#paint2_radial)"/></g><path d="M119.527 70.023h-2.879v18.91h2.879v-18.91z" fill="#158876"/><path d="M121.779 68.76a3.69 3.69 0 11-7.38 0 3.69 3.69 0 017.38 0z" fill="#137361"/><path d="M120.653 67.322c0 .624-.502 1.126-1.126 1.126a1.124 1.124 0 01-1.126-1.126c0-.623.503-1.126 1.126-1.126.624 0 1.126.503 1.126 1.126zM129.966 90.628c-.093.011-.152-.526-.6-1.36 0 0-.21-.39-.452-.721-.775-1.064-3.394-1.04-3.6-1.04-4.084.034-6.71-.223-6.71-.2 0 .02 1.917-.019 3.32-.046 3.958-.082 6.316-.292 7.329.768.421.44.631 1.013.631 1.013.289.779.191 1.57.082 1.586z" fill="#fff"/><path opacity=".59" d="M119.531 221.641c15.94 0 28.862-5.289 28.862-11.814s-12.922-11.814-28.862-11.814c-15.94 0-28.862 5.289-28.862 11.814s12.922 11.814 28.862 11.814z" fill="#137361"/><path d="M77.729 161.023c13.54 3.709 16.736 2.669 19.151 6.3.277.417 1.692 2.545 1.407 5.28-.226 2.178-1.438 3.858-2.201 4.598-4.637 4.489-17.398-1.001-24.709-7.01-1.593-1.309-5.868-4.824-5.007-7.317.355-1.021 1.45-1.532 2.237-1.882 3.476-1.563 7.08-.53 9.122.031z" fill="#158876"/><path d="M128.041 99.375h-19.899a2.656 2.656 0 01-2.658-2.657v-7.111a2.656 2.656 0 012.658-2.658h19.899a2.656 2.656 0 012.658 2.658v7.11a2.661 2.661 0 01-2.658 2.658z" fill="#137361"/><path d="M163.2 140.706c0 11.487-9.313 20.8-20.8 20.8H93.779c-11.44 0-20.8-9.36-20.8-20.8v-10.805c0-20.356 16.654-37.01 37.009-37.01h16.21c20.356 0 37.01 16.654 37.01 37.01v10.805h-.008z" fill="#158876"/><path d="M126.922 145.755c-.102.979-.916 1.731-1.894 1.828l-13.525 1.305c-.978.094-1.921-.487-2.205-1.43a8.831 8.831 0 01-.293-1.293.468.468 0 01.09-.347.458.458 0 01.312-.172l17.063-1.644a.443.443 0 01.335.109.44.44 0 01.152.316c.023.448.011.892-.035 1.328z" fill="#EFF8FC"/><path d="M126.922 145.759c-.433 4.193-3.764 7.642-8.121 8.055a9.017 9.017 0 01-9.449-6.192c.339.842 1.227 1.356 2.151 1.262l13.529-1.301c.978-.097 1.788-.849 1.89-1.824zM149.009 138.738a8.692 8.692 0 01-3.85.889H91.016a8.69 8.69 0 01-3.85-.889c-2.899-1.434-4.535-4.329-4.126-7.298l.031-.214c1.387-10.057 10.498-17.792 21.665-18.372a255.26 255.26 0 0114.854-.343c4.052.023 7.968.144 11.74.335 11.21.576 20.387 8.28 21.778 18.376.011.074.019.144.031.218.409 2.969-1.231 5.864-4.13 7.298z" fill="#243746"/><path d="M149.877 104.729c.051 1.722-1.356 3.784-2.969 3.963-1.512.164-2.716-1.379-3.962-2.969-1.228-1.571-3.909-5.6-2.841-6.737 1.411-1.508 9.656 1.679 9.772 5.743zM136.076 98.16a1.282 1.282 0 100-2.564 1.282 1.282 0 000 2.564zM149.694 128.638c-.413.293-3.281-5.556-10.984-10.625-2.708-1.781-5.381-3.051-5.221-3.422.159-.374 3.171.324 5.583 1.442 7.677 3.565 11.113 12.263 10.622 12.605z" fill="#fff"/><path d="M150.427 174.384c0 .125 0 .242-.004.358a8.462 8.462 0 01-.436 2.373c-3.721 11.375-5.954 17.371-9.083 22.223a35.314 35.314 0 01-1.719 2.431 44.466 44.466 0 01-2.645 3.141c-2.163 2.349-5.428 3.413-6.484 3.783-3.854 1.36-7.256 1.115-9.519 1.134h-.394c-2.268-.023-5.666.226-9.519-1.134-1.052-.366-4.329-1.43-6.484-3.783-5.942-6.469-8.23-11.842-13.447-27.791a8.25 8.25 0 01-.433-2.225 8.096 8.096 0 01-.004-.923c.113-1.905.885-3.776 2.26-5.482 2.35-2.927 5.982-4.532 9.738-4.548l18.092-.074 17.764-.07c3.834-.016 7.552 1.594 9.991 4.559 1.177 1.438 1.929 2.989 2.205 4.586.039.226.07.46.094.686.011.242.027.499.027.756z" fill="#158876"/><path d="M120.338 163.856l-18.092.074c-3.756.015-7.384 1.621-9.737 4.547-1.372 1.707-2.144 3.577-2.26 5.482.093-1.956.896-3.873 2.33-5.619 2.431-2.965 6.152-4.574 9.99-4.559l17.769.075z" fill="url(#paint3_linear)"/><path d="M138.32 190.512c-.265-14.036-2.162-16.81.639-20.149.324-.382 1.964-2.342 4.665-2.841 2.154-.397 4.107.292 5.03.815 5.615 3.183 3.951 16.977.249 25.682-.806 1.897-2.969 6.99-5.607 6.869-1.079-.05-1.878-.958-2.435-1.613-2.474-2.895-2.502-6.647-2.541-8.763z" fill="#158876"/><path d="M140.9 199.334a35.647 35.647 0 01-1.718 2.431c-.195-.199-.367-.401-.523-.584-2.474-2.896-2.501-6.644-2.54-8.764-.265-14.035-2.167-16.806.639-20.145a8.717 8.717 0 012.178-1.882c-2.767 3.328-.881 6.125-.616 20.118.039 2.116.07 5.868 2.541 8.767a.25.25 0 01.039.059z" fill="#137361"/><path d="M148.822 178.826c-.078-1.508-.363-2.618-.928-4.836-.74-2.902-1.667-4.317-1.063-4.878.393-.366 1.165-.117 1.34-.062 2.653.845 3.476 5.821 3.359 8.938-.07 1.906-.534 4.041-1.235 4.135a.797.797 0 01-.581-.172c-.779-.69-.83-1.979-.892-3.125zM150.641 184.149a.549.549 0 11-1.1 0 .549.549 0 011.1 0z" fill="#fff"/><path d="M104 135a9 9 0 009-9 9 9 0 00-9-9 9 9 0 00-9 9 9 9 0 009 9z" fill="url(#paint4_radial)"/><path d="M104 132.461a6.46 6.46 0 006.461-6.461 6.46 6.46 0 00-6.461-6.461A6.46 6.46 0 0097.539 126a6.46 6.46 0 006.461 6.461z" fill="#EFF8FC"/><path d="M104 131.427a5.427 5.427 0 100-10.854 5.427 5.427 0 100 10.854z" fill="#243746"/><path d="M107.476 124.595a2.01 2.01 0 11-4.02 0 2.01 2.01 0 014.02 0zM103.196 130.96a.8.8 0 100-1.601.8.8 0 000 1.601zM101.207 128.958a.403.403 0 11-.805-.001.403.403 0 01.805.001z" fill="#EFF8FC"/><path d="M129 135a9 9 0 009-9 9 9 0 00-9-9 9 9 0 00-9 9 9 9 0 009 9z" fill="url(#paint5_radial)"/><path d="M129 132.461a6.46 6.46 0 006.461-6.461 6.46 6.46 0 00-6.461-6.461 6.46 6.46 0 00-6.461 6.461 6.46 6.46 0 006.461 6.461z" fill="#EFF8FC"/><path d="M129 131.427a5.427 5.427 0 005.427-5.427 5.427 5.427 0 10-10.854 0 5.427 5.427 0 005.427 5.427z" fill="#243746"/><path d="M132.476 124.595a2.01 2.01 0 11-4.02 0 2.01 2.01 0 014.02 0zM128.2 130.96a.8.8 0 100-1.6.8.8 0 000 1.6zM126.211 128.958a.403.403 0 11-.803-.001.403.403 0 01.803.001z" fill="#EFF8FC"/><defs><radialGradient id="paint2_radial" cx="0" cy="0" r="1" gradientUnits="userSpaceOnUse" gradientTransform="matrix(142.083 0 0 137.074 110.664 144.234)"><stop offset=".04" stop-color="#fff"/><stop offset="1" stop-color="#41B38A" stop-opacity=".3"/></radialGradient><radialGradient id="paint4_radial" cx="0" cy="0" r="1" gradientUnits="userSpaceOnUse" gradientTransform="translate(103.999 125.999) scale(8.90763)"><stop offset=".13" stop-color="#4974B9"/><stop offset="1" stop-color="#020203"/></radialGradient><radialGradient id="paint5_radial" cx="0" cy="0" r="1" gradientUnits="userSpaceOnUse" gradientTransform="translate(129 125.999) scale(8.90763)"><stop offset=".13" stop-color="#4974B9"/><stop offset="1" stop-color="#020203"/></radialGradient><linearGradient id="paint0_linear" x1="60.814" y1="167.227" x2="60.814" y2="153.18" gradientUnits="userSpaceOnUse"><stop stop-color="#fff" stop-opacity=".95"/><stop offset="1" stop-color="#fff" stop-opacity=".5"/></linearGradient><linearGradient id="paint1_linear" x1="179.686" y1="98.753" x2="179.686" y2="87.515" gradientUnits="userSpaceOnUse"><stop stop-color="#fff" stop-opacity=".95"/><stop offset="1" stop-color="#fff" stop-opacity=".5"/></linearGradient><linearGradient id="paint3_linear" x1="98.626" y1="175.244" x2="126.669" y2="142.497" gradientUnits="userSpaceOnUse"><stop offset=".04" stop-color="#44BFE2"/><stop offset="1" stop-color="#DCE38C"/></linearGradient></defs></svg>