<svg viewBox="0 0 24 25" fill="none" xmlns="http://www.w3.org/2000/svg">
<path fill="currentColor" d="M11.844 17.4139L13.3458 15.8894C11.8553 15.7765 10.8841 15.3248 10.1501 14.5908C8.17403 12.6147 8.18532 9.81426 10.1389 7.86072L13.8201 4.17949C15.7962 2.21466 18.5741 2.20337 20.5502 4.17949C22.5263 6.15561 22.5037 8.94476 20.5502 10.8983L18.3369 13.1116C18.6531 13.8343 18.7209 14.6699 18.6079 15.4039L21.9278 12.0953C24.6267 9.38516 24.6492 5.55713 21.9165 2.81314C19.1726 0.0691551 15.3332 0.0917393 12.6231 2.80185L8.77251 6.66376C6.0624 9.37387 6.03982 13.2132 8.7838 15.9459C9.49521 16.6573 10.3986 17.1654 11.844 17.4139ZM12.1263 8.10915L10.6244 9.63358C12.115 9.7578 13.0861 10.1982 13.8201 10.9322C15.7962 12.9083 15.7849 15.7087 13.8314 17.6623L10.1389 21.3435C8.17403 23.3083 5.39616 23.3196 3.42004 21.3548C1.44392 19.3674 1.45521 16.5895 3.42004 14.6247L5.6333 12.4114C5.31712 11.7 5.23807 10.8531 5.36229 10.1191L2.0424 13.4277C-0.656414 16.1378 -0.678998 19.9772 2.0537 22.7099C4.79768 25.4539 8.637 25.4313 11.3358 22.7324L15.1977 18.8592C17.9078 16.1491 17.9304 12.3098 15.1864 9.57712C14.475 8.86572 13.5717 8.35757 12.1263 8.10915Z" />
</svg>
