<svg viewBox="0 0 323 51" fill="none" xmlns="http://www.w3.org/2000/svg">
<g clip-path="url(#clip0)">
<path d="M0.705566 50.9082L29.5739 0.908203V24.9555L10.5208 45.25L37.5993 38.8701L58.4423 50.9082H0.705566Z" fill="#212121"/>
<path d="M31.9699 5.06543L56.0461 46.7513L37.9745 36.3299L17.7378 41.0643L31.9699 25.9084V5.06543Z" fill="#0BDCA0"/>
<path d="M61.6108 17.9649H67.2108L72.9886 34.5872L78.4997 17.9649H83.8331L76.0553 40.1872H69.8331L61.6108 17.9649Z" fill="#0BDCA0"/>
<path d="M94.4893 40.5872C91.8819 40.5872 89.8226 39.7872 88.3115 38.1872C86.8004 36.5575 86.0449 34.1131 86.0449 30.8538V17.9649H91.2004V30.8538C91.2004 32.4835 91.5856 33.7131 92.356 34.5427C93.1264 35.3724 94.1338 35.7872 95.3782 35.7872C96.8893 35.7872 98.0893 35.3575 98.9782 34.4983C99.8967 33.639 100.386 32.4983 100.445 31.0761V17.9649H105.6V40.1872H101.556L101.156 37.7427C100.356 38.6612 99.393 39.3724 98.2671 39.8761C97.1412 40.3501 95.8819 40.5872 94.4893 40.5872Z" fill="#0BDCA0"/>
<path d="M119.842 40.5872C118.242 40.5872 116.805 40.3501 115.531 39.8761C114.257 39.3724 113.16 38.6612 112.242 37.7427C111.323 36.7946 110.612 35.6538 110.108 34.3205C109.634 32.9872 109.397 31.4761 109.397 29.7872V28.3649C109.397 26.6761 109.634 25.1649 110.108 23.8316C110.612 22.4983 111.323 21.3723 112.242 20.4538C113.16 19.5057 114.257 18.7946 115.531 18.3205C116.805 17.8168 118.242 17.5649 119.842 17.5649C123.071 17.5649 125.62 18.5575 127.486 20.5427C129.353 22.5279 130.286 25.3724 130.286 29.0761V30.8094H114.553C114.701 32.6761 115.22 34.0242 116.108 34.8538C116.997 35.6538 118.242 36.0538 119.842 36.0538C121.412 36.0538 122.553 35.7872 123.264 35.2538C124.005 34.6909 124.494 34.039 124.731 33.2983H130.064C129.827 34.3353 129.457 35.2983 128.953 36.1872C128.449 37.0761 127.782 37.8464 126.953 38.4983C126.123 39.1501 125.116 39.6687 123.931 40.0538C122.745 40.4094 121.382 40.5872 119.842 40.5872ZM119.842 22.0983C118.331 22.0983 117.145 22.4686 116.286 23.2094C115.427 23.9501 114.879 25.1205 114.642 26.7205H125.042C124.834 25.0612 124.286 23.8761 123.397 23.1649C122.538 22.4538 121.353 22.0983 119.842 22.0983Z" fill="#0BDCA0"/>
<path d="M132.128 17.9656H136.128V11.7433H141.284V17.9656H146.795V22.4989H141.284V32.3211C141.284 33.4767 141.536 34.3211 142.04 34.8544C142.573 35.3878 143.358 35.6544 144.395 35.6544H147.24V40.1878H143.462C141.091 40.1878 139.269 39.5656 137.995 38.3211C136.751 37.047 136.128 35.2248 136.128 32.8544V22.4989H132.128V17.9656Z" fill="#212121"/>
<path d="M159.255 40.5878C157.655 40.5878 156.218 40.3507 154.944 39.8767C153.67 39.373 152.574 38.6618 151.655 37.7433C150.737 36.7952 150.026 35.6544 149.522 34.3211C149.048 32.9878 148.811 31.4767 148.811 29.7878V28.3656C148.811 26.6767 149.048 25.1656 149.522 23.8322C150.026 22.4989 150.737 21.373 151.655 20.4544C152.574 19.5063 153.67 18.7952 154.944 18.3211C156.218 17.8174 157.655 17.5656 159.255 17.5656C162.485 17.5656 165.033 18.5581 166.9 20.5433C168.766 22.5285 169.7 25.373 169.7 29.0767V30.81H153.966C154.114 32.6767 154.633 34.0248 155.522 34.8544C156.411 35.6544 157.655 36.0544 159.255 36.0544C160.826 36.0544 161.966 35.7878 162.677 35.2544C163.418 34.6915 163.907 34.0396 164.144 33.2989H169.477C169.24 34.3359 168.87 35.2989 168.366 36.1878C167.863 37.0767 167.196 37.847 166.366 38.4989C165.537 39.1507 164.529 39.6693 163.344 40.0544C162.159 40.41 160.796 40.5878 159.255 40.5878ZM159.255 22.0989C157.744 22.0989 156.559 22.4693 155.7 23.21C154.84 23.9507 154.292 25.1211 154.055 26.7211H164.455C164.248 25.0618 163.7 23.8767 162.811 23.1656C161.951 22.4544 160.766 22.0989 159.255 22.0989Z" fill="#212121"/>
<path d="M180.768 40.1878C178.427 40.1878 176.62 39.5656 175.346 38.3211C174.101 37.047 173.479 35.2248 173.479 32.8544V9.07666H178.635V32.3211C178.635 33.4767 178.887 34.3211 179.39 34.8544C179.894 35.3878 180.664 35.6544 181.701 35.6544H182.812V40.1878H180.768Z" fill="#212121"/>
<path d="M194.597 40.5878C192.997 40.5878 191.56 40.3507 190.286 39.8767C189.012 39.373 187.916 38.6618 186.997 37.7433C186.079 36.7952 185.368 35.6544 184.864 34.3211C184.39 32.9878 184.153 31.4767 184.153 29.7878V28.3656C184.153 26.6767 184.39 25.1656 184.864 23.8322C185.368 22.4989 186.079 21.373 186.997 20.4544C187.916 19.5063 189.012 18.7952 190.286 18.3211C191.56 17.8174 192.997 17.5656 194.597 17.5656C197.827 17.5656 200.375 18.5581 202.242 20.5433C204.108 22.5285 205.042 25.373 205.042 29.0767V30.81H189.308C189.456 32.6767 189.975 34.0248 190.864 34.8544C191.753 35.6544 192.997 36.0544 194.597 36.0544C196.168 36.0544 197.308 35.7878 198.019 35.2544C198.76 34.6915 199.249 34.0396 199.486 33.2989H204.819C204.582 34.3359 204.212 35.2989 203.708 36.1878C203.205 37.0767 202.538 37.847 201.708 38.4989C200.879 39.1507 199.871 39.6693 198.686 40.0544C197.501 40.41 196.138 40.5878 194.597 40.5878ZM194.597 22.0989C193.086 22.0989 191.901 22.4693 191.042 23.21C190.182 23.9507 189.634 25.1211 189.397 26.7211H199.797C199.59 25.0618 199.042 23.8767 198.153 23.1656C197.293 22.4544 196.108 22.0989 194.597 22.0989Z" fill="#212121"/>
<path d="M208.821 17.9656H212.866L213.266 20.41C214.036 19.4915 214.969 18.7952 216.066 18.3211C217.192 17.8174 218.421 17.5656 219.754 17.5656C221.266 17.5656 222.599 17.8767 223.754 18.4989C224.94 19.0915 225.888 19.9804 226.599 21.1656C227.369 20.01 228.377 19.1211 229.621 18.4989C230.866 17.8767 232.273 17.5656 233.843 17.5656C236.362 17.5656 238.377 18.3804 239.888 20.01C241.399 21.6396 242.154 24.0693 242.154 27.2989V40.1878H236.999V27.2989C236.999 25.6396 236.614 24.41 235.843 23.61C235.103 22.7804 234.066 22.3655 232.732 22.3655C231.399 22.3655 230.288 22.8248 229.399 23.7433C228.51 24.6322 228.066 25.8174 228.066 27.2989V40.1878H222.91V27.2989C222.91 25.6693 222.525 24.4396 221.754 23.61C220.984 22.7804 219.947 22.3655 218.643 22.3655C217.31 22.3655 216.214 22.7952 215.354 23.6544C214.495 24.5137 214.036 25.6544 213.977 27.0767V40.1878H208.821V17.9656Z" fill="#212121"/>
<path d="M256.154 40.5878C254.554 40.5878 253.117 40.3507 251.843 39.8767C250.569 39.373 249.473 38.6618 248.554 37.7433C247.636 36.7952 246.925 35.6544 246.421 34.3211C245.947 32.9878 245.71 31.4767 245.71 29.7878V28.3656C245.71 26.6767 245.947 25.1656 246.421 23.8322C246.925 22.4989 247.636 21.373 248.554 20.4544C249.473 19.5063 250.569 18.7952 251.843 18.3211C253.117 17.8174 254.554 17.5656 256.154 17.5656C259.384 17.5656 261.932 18.5581 263.799 20.5433C265.666 22.5285 266.599 25.373 266.599 29.0767V30.81H250.866C251.014 32.6767 251.532 34.0248 252.421 34.8544C253.31 35.6544 254.554 36.0544 256.154 36.0544C257.725 36.0544 258.866 35.7878 259.577 35.2544C260.317 34.6915 260.806 34.0396 261.043 33.2989H266.377C266.14 34.3359 265.769 35.2989 265.266 36.1878C264.762 37.0767 264.095 37.847 263.266 38.4989C262.436 39.1507 261.429 39.6693 260.243 40.0544C259.058 40.41 257.695 40.5878 256.154 40.5878ZM256.154 22.0989C254.643 22.0989 253.458 22.4693 252.599 23.21C251.74 23.9507 251.192 25.1211 250.954 26.7211H261.354C261.147 25.0618 260.599 23.8767 259.71 23.1656C258.851 22.4544 257.666 22.0989 256.154 22.0989Z" fill="#212121"/>
<path d="M267.712 17.9656H271.712V11.7433H276.867V17.9656H282.378V22.4989H276.867V32.3211C276.867 33.4767 277.119 34.3211 277.623 34.8544C278.156 35.3878 278.941 35.6544 279.978 35.6544H282.823V40.1878H279.045C276.675 40.1878 274.853 39.5656 273.578 38.3211C272.334 37.047 271.712 35.2248 271.712 32.8544V22.4989H267.712V17.9656Z" fill="#212121"/>
<path d="M285.727 17.9656H289.772L290.172 20.4544C290.942 19.5063 291.89 18.7952 293.016 18.3211C294.172 17.8174 295.446 17.5656 296.839 17.5656H299.061V22.3655H296.839C294.794 22.3655 293.283 22.81 292.305 23.6989C291.357 24.5878 290.883 25.7878 290.883 27.2989V40.1878H285.727V17.9656Z" fill="#212121"/>
<path d="M309.079 40.1878L300.146 17.9656H305.746L311.79 33.8767L317.479 17.9656H322.812L311.035 49.0767H305.701L309.079 40.1878Z" fill="#212121"/>
</g>
<defs>
<clipPath id="clip0">
<rect width="322.107" height="50" fill="white" transform="translate(0.705566 0.908203)"/>
</clipPath>
</defs>
</svg>
