<svg viewBox="0 0 488 96" fill="none" xmlns="http://www.w3.org/2000/svg">
<path d="M32.6731 72.0079L42.6014 89.2041C45.0008 93.36 50.9992 93.36 53.3986 89.2041L90.4557 25.0195H59.8019L32.6731 72.0079Z" fill="#0BDCA0"/>
<path d="M64.1792 17.4378H94.8329L95.1555 16.879C97.555 12.7232 94.5557 7.52832 89.7569 7.52832H69.9004L64.1792 17.4378Z" fill="#0BDCA0"/>
<path d="M61.1459 7.52832L55.4247 17.4378H1.1671L0.844457 16.879C-1.55491 12.7232 1.44434 7.52832 6.24308 7.52832H61.1459Z" fill="#0BDCA0"/>
<path d="M51.0474 25.0195L28.2959 64.4263L5.54431 25.0195H51.0474Z" fill="#0BDCA0"/>
<path d="M106.62 28.6H114.68L127.08 63.32L138.488 28.6H146.3L131.42 72H122.74L106.62 28.6ZM158.736 72.558C155.099 72.558 152.226 71.442 150.118 69.21C148.01 66.9367 146.956 63.5267 146.956 58.98V41H154.148V58.98C154.148 61.2533 154.686 62.9687 155.76 64.126C156.835 65.2833 158.24 65.862 159.976 65.862C162.084 65.862 163.758 65.2627 164.998 64.064C166.28 62.8653 166.962 61.274 167.044 59.29V41H174.236V72H168.594L168.036 68.59C166.92 69.8713 165.577 70.8633 164.006 71.566C162.436 72.2273 160.679 72.558 158.736 72.558ZM195.033 72.558C192.801 72.558 190.796 72.2273 189.019 71.566C187.242 70.8633 185.712 69.8713 184.431 68.59C183.15 67.2673 182.158 65.676 181.455 63.816C180.794 61.956 180.463 59.848 180.463 57.492V55.508C180.463 53.152 180.794 51.044 181.455 49.184C182.158 47.324 183.15 45.7533 184.431 44.472C185.712 43.1493 187.242 42.1573 189.019 41.496C190.796 40.7933 192.801 40.442 195.033 40.442C199.538 40.442 203.093 41.8267 205.697 44.596C208.301 47.3653 209.603 51.3333 209.603 56.5V58.918H187.655C187.862 61.522 188.585 63.4027 189.825 64.56C191.065 65.676 192.801 66.234 195.033 66.234C197.224 66.234 198.815 65.862 199.807 65.118C200.84 64.3327 201.522 63.4233 201.853 62.39H209.293C208.962 63.8367 208.446 65.18 207.743 66.42C207.04 67.66 206.11 68.7347 204.953 69.644C203.796 70.5533 202.39 71.2767 200.737 71.814C199.084 72.31 197.182 72.558 195.033 72.558ZM195.033 46.766C192.925 46.766 191.272 47.2827 190.073 48.316C188.874 49.3493 188.11 50.982 187.779 53.214H202.287C201.998 50.8993 201.233 49.246 199.993 48.254C198.794 47.262 197.141 46.766 195.033 46.766Z" fill="#0BDCA0"/>
<path d="M212.93 28.6H247.03V35.172H233.7V72H226.26V35.172H212.93V28.6ZM256.047 72.558C253.815 72.558 251.81 72.2273 250.033 71.566C248.255 70.8633 246.726 69.8713 245.445 68.59C244.163 67.2673 243.171 65.676 242.469 63.816C241.807 61.956 241.477 59.848 241.477 57.492V55.508C241.477 53.152 241.807 51.044 242.469 49.184C243.171 47.324 244.163 45.7533 245.445 44.472C246.726 43.1493 248.255 42.1573 250.033 41.496C251.81 40.7933 253.815 40.442 256.047 40.442C260.552 40.442 264.107 41.8267 266.711 44.596C269.315 47.3653 270.617 51.3333 270.617 56.5V58.918H248.669C248.875 61.522 249.599 63.4027 250.839 64.56C252.079 65.676 253.815 66.234 256.047 66.234C258.237 66.234 259.829 65.862 260.821 65.118C261.854 64.3327 262.536 63.4233 262.867 62.39H270.307C269.976 63.8367 269.459 65.18 268.757 66.42C268.054 67.66 267.124 68.7347 265.967 69.644C264.809 70.5533 263.404 71.2767 261.751 71.814C260.097 72.31 258.196 72.558 256.047 72.558ZM256.047 46.766C253.939 46.766 252.285 47.2827 251.087 48.316C249.888 49.3493 249.123 50.982 248.793 53.214H263.301C263.011 50.8993 262.247 49.246 261.007 48.254C259.808 47.262 258.155 46.766 256.047 46.766ZM286.987 72C283.722 72 281.2 71.132 279.423 69.396C277.687 67.6187 276.819 65.0767 276.819 61.77V28.6H284.011V61.026C284.011 62.638 284.362 63.816 285.065 64.56C285.768 65.304 286.842 65.676 288.289 65.676H289.839V72H286.987ZM307.209 72.558C304.977 72.558 302.972 72.2273 301.195 71.566C299.417 70.8633 297.888 69.8713 296.607 68.59C295.325 67.2673 294.333 65.676 293.631 63.816C292.969 61.956 292.639 59.848 292.639 57.492V55.508C292.639 53.152 292.969 51.044 293.631 49.184C294.333 47.324 295.325 45.7533 296.607 44.472C297.888 43.1493 299.417 42.1573 301.195 41.496C302.972 40.7933 304.977 40.442 307.209 40.442C311.714 40.442 315.269 41.8267 317.873 44.596C320.477 47.3653 321.779 51.3333 321.779 56.5V58.918H299.831C300.037 61.522 300.761 63.4027 302.001 64.56C303.241 65.676 304.977 66.234 307.209 66.234C309.399 66.234 310.991 65.862 311.983 65.118C313.016 64.3327 313.698 63.4233 314.029 62.39H321.469C321.138 63.8367 320.621 65.18 319.919 66.42C319.216 67.66 318.286 68.7347 317.129 69.644C315.971 70.5533 314.566 71.2767 312.913 71.814C311.259 72.31 309.358 72.558 307.209 72.558ZM307.209 46.766C305.101 46.766 303.447 47.2827 302.249 48.316C301.05 49.3493 300.285 50.982 299.955 53.214H314.463C314.173 50.8993 313.409 49.246 312.169 48.254C310.97 47.262 309.317 46.766 307.209 46.766ZM339.141 72.558C334.884 72.558 331.722 71.628 329.655 69.768C327.63 67.8667 326.452 65.2007 326.121 61.77H333.685C334.016 63.5473 334.553 64.808 335.297 65.552C336.083 66.2547 337.364 66.606 339.141 66.606C341.249 66.606 342.675 66.3167 343.419 65.738C344.205 65.118 344.597 64.312 344.597 63.32C344.597 62.204 344.143 61.3567 343.233 60.778C342.365 60.1993 341.27 59.7447 339.947 59.414C338.625 59.042 337.199 58.7113 335.669 58.422C334.14 58.0913 332.714 57.616 331.391 56.996C330.069 56.3347 328.953 55.446 328.043 54.33C327.175 53.1727 326.741 51.5813 326.741 49.556C326.741 48.2747 326.989 47.076 327.485 45.96C327.981 44.844 328.746 43.8933 329.779 43.108C330.813 42.2813 332.094 41.6407 333.623 41.186C335.194 40.69 337.033 40.442 339.141 40.442C343.109 40.442 346.085 41.372 348.069 43.232C350.053 45.0507 351.211 47.6133 351.541 50.92H343.977C343.647 49.2253 343.13 48.0473 342.427 47.386C341.766 46.7247 340.671 46.394 339.141 46.394C337.364 46.394 336.103 46.6833 335.359 47.262C334.657 47.8407 334.305 48.5433 334.305 49.37C334.305 50.4033 334.739 51.168 335.607 51.664C336.517 52.1187 337.633 52.5113 338.955 52.842C340.278 53.1313 341.704 53.4413 343.233 53.772C344.763 54.0613 346.189 54.5573 347.511 55.26C348.834 55.9213 349.929 56.872 350.797 58.112C351.707 59.352 352.161 61.026 352.161 63.134C352.161 64.498 351.893 65.7587 351.355 66.916C350.859 68.0733 350.074 69.0653 348.999 69.892C347.966 70.7187 346.623 71.38 344.969 71.876C343.357 72.3307 341.415 72.558 339.141 72.558ZM371.086 72.558C368.854 72.558 366.828 72.2273 365.01 71.566C363.232 70.8633 361.703 69.8713 360.422 68.59C359.182 67.2673 358.21 65.676 357.508 63.816C356.846 61.956 356.516 59.848 356.516 57.492V55.508C356.516 53.1933 356.846 51.106 357.508 49.246C358.21 47.386 359.202 45.8153 360.484 44.534C361.765 43.2113 363.294 42.1987 365.072 41.496C366.89 40.7933 368.895 40.442 371.086 40.442C375.012 40.442 378.05 41.4133 380.2 43.356C382.39 45.2987 383.796 47.82 384.416 50.92H376.728C376.397 49.804 375.715 48.8947 374.682 48.192C373.648 47.4893 372.346 47.138 370.776 47.138C369.866 47.138 368.998 47.3033 368.172 47.634C367.386 47.9233 366.684 48.4193 366.064 49.122C365.444 49.7833 364.948 50.6513 364.576 51.726C364.245 52.7593 364.08 54.02 364.08 55.508V57.492C364.08 58.9387 364.266 60.1993 364.638 61.274C365.01 62.3073 365.506 63.1753 366.126 63.878C366.746 64.5393 367.448 65.0353 368.234 65.366C369.06 65.6967 369.908 65.862 370.776 65.862C372.553 65.862 373.896 65.4693 374.806 64.684C375.756 63.8987 376.397 62.9273 376.728 61.77H384.416C383.796 65.0353 382.39 67.66 380.2 69.644C378.05 71.5867 375.012 72.558 371.086 72.558ZM402.698 72.558C398.028 72.558 394.37 71.2353 391.724 68.59C389.12 65.9447 387.818 62.2453 387.818 57.492V55.508C387.818 53.152 388.149 51.044 388.81 49.184C389.513 47.324 390.505 45.7533 391.786 44.472C393.109 43.1493 394.68 42.1573 396.498 41.496C398.317 40.7933 400.384 40.442 402.698 40.442C407.369 40.442 411.006 41.7647 413.61 44.41C416.256 47.0553 417.578 50.7547 417.578 55.508V57.492C417.578 59.848 417.227 61.956 416.524 63.816C415.863 65.676 414.871 67.2673 413.548 68.59C412.267 69.8713 410.696 70.8633 408.836 71.566C407.018 72.2273 404.972 72.558 402.698 72.558ZM402.698 65.862C405.054 65.862 406.852 65.18 408.092 63.816C409.374 62.452 410.014 60.344 410.014 57.492V55.508C410.014 52.6973 409.353 50.61 408.03 49.246C406.749 47.8407 404.972 47.138 402.698 47.138C400.342 47.138 398.524 47.82 397.242 49.184C396.002 50.548 395.382 52.656 395.382 55.508V57.492C395.382 60.3027 396.023 62.4107 397.304 63.816C398.627 65.18 400.425 65.862 402.698 65.862ZM440.01 72.558C436.125 72.558 433.108 71.3387 430.958 68.9V84.4H423.766V41H429.408L430.09 45.216C431.165 43.604 432.529 42.4053 434.182 41.62C435.877 40.8347 437.82 40.442 440.01 40.442C441.788 40.442 443.42 40.7727 444.908 41.434C446.438 42.054 447.74 43.0047 448.814 44.286C449.889 45.526 450.736 47.0967 451.356 48.998C451.976 50.858 452.286 53.028 452.286 55.508V57.492C452.286 59.972 451.976 62.142 451.356 64.002C450.736 65.862 449.868 67.4327 448.752 68.714C447.678 69.9953 446.396 70.9667 444.908 71.628C443.42 72.248 441.788 72.558 440.01 72.558ZM437.84 65.862C440.031 65.862 441.726 65.2007 442.924 63.878C444.123 62.5553 444.722 60.4267 444.722 57.492V55.508C444.722 52.656 444.102 50.548 442.862 49.184C441.622 47.82 439.948 47.138 437.84 47.138C435.856 47.138 434.224 47.82 432.942 49.184C431.702 50.548 431.041 52.532 430.958 55.136V57.492C430.958 60.22 431.599 62.3073 432.88 63.754C434.203 65.1593 435.856 65.862 437.84 65.862ZM471.17 72.558C468.938 72.558 466.933 72.2273 465.156 71.566C463.378 70.8633 461.849 69.8713 460.568 68.59C459.286 67.2673 458.294 65.676 457.592 63.816C456.93 61.956 456.6 59.848 456.6 57.492V55.508C456.6 53.152 456.93 51.044 457.592 49.184C458.294 47.324 459.286 45.7533 460.568 44.472C461.849 43.1493 463.378 42.1573 465.156 41.496C466.933 40.7933 468.938 40.442 471.17 40.442C475.675 40.442 479.23 41.8267 481.834 44.596C484.438 47.3653 485.74 51.3333 485.74 56.5V58.918H463.792C463.998 61.522 464.722 63.4027 465.962 64.56C467.202 65.676 468.938 66.234 471.17 66.234C473.36 66.234 474.952 65.862 475.944 65.118C476.977 64.3327 477.659 63.4233 477.99 62.39H485.43C485.099 63.8367 484.582 65.18 483.88 66.42C483.177 67.66 482.247 68.7347 481.09 69.644C479.932 70.5533 478.527 71.2767 476.874 71.814C475.22 72.31 473.319 72.558 471.17 72.558ZM471.17 46.766C469.062 46.766 467.408 47.2827 466.21 48.316C465.011 49.3493 464.246 50.982 463.916 53.214H478.424C478.134 50.8993 477.37 49.246 476.13 48.254C474.931 47.262 473.278 46.766 471.17 46.766Z" fill="black"/>
</svg>
