<svg viewBox="0 0 504 100" fill="none" xmlns="http://www.w3.org/2000/svg">
<path d="M39.6731 72.0079L49.6014 89.2041C52.0008 93.36 57.9992 93.36 60.3986 89.2041L97.4557 25.0195H66.8019L39.6731 72.0079Z" fill="#0BDCA0"/>
<path d="M71.1792 17.4378H101.833L102.156 16.879C104.555 12.7232 101.556 7.52832 96.7569 7.52832H76.9004L71.1792 17.4378Z" fill="#0BDCA0"/>
<path d="M68.1459 7.52832L62.4247 17.4378H8.1671L7.84446 16.879C5.44509 12.7232 8.44434 7.52832 13.2431 7.52832H68.1459Z" fill="#0BDCA0"/>
<path d="M58.0474 25.0195L35.2959 64.4263L12.5443 25.0195H58.0474Z" fill="#0BDCA0"/>
<path d="M113 30H121.06L133.46 64.72L144.868 30H152.68L137.8 73.4H129.12L113 30Z" fill="#0BDCA0"/>
<path d="M165.116 73.958C161.479 73.958 158.606 72.842 156.498 70.61C154.39 68.3367 153.336 64.9267 153.336 60.38V42.4H160.528V60.38C160.528 62.6533 161.066 64.3687 162.14 65.526C163.215 66.6833 164.62 67.262 166.356 67.262C168.464 67.262 170.138 66.6627 171.378 65.464C172.66 64.2653 173.342 62.674 173.424 60.69V42.4H180.616V73.4H174.974L174.416 69.99C173.3 71.2713 171.957 72.2633 170.386 72.966C168.816 73.6273 167.059 73.958 165.116 73.958Z" fill="#0BDCA0"/>
<path d="M201.413 73.958C199.181 73.958 197.176 73.6273 195.399 72.966C193.622 72.2633 192.092 71.2713 190.811 69.99C189.53 68.6673 188.538 67.076 187.835 65.216C187.174 63.356 186.843 61.248 186.843 58.892V56.908C186.843 54.552 187.174 52.444 187.835 50.584C188.538 48.724 189.53 47.1533 190.811 45.872C192.092 44.5493 193.622 43.5573 195.399 42.896C197.176 42.1933 199.181 41.842 201.413 41.842C205.918 41.842 209.473 43.2267 212.077 45.996C214.681 48.7653 215.983 52.7333 215.983 57.9V60.318H194.035C194.242 62.922 194.965 64.8027 196.205 65.96C197.445 67.076 199.181 67.634 201.413 67.634C203.604 67.634 205.195 67.262 206.187 66.518C207.22 65.7327 207.902 64.8233 208.233 63.79H215.673C215.342 65.2367 214.826 66.58 214.123 67.82C213.42 69.06 212.49 70.1347 211.333 71.044C210.176 71.9533 208.77 72.6767 207.117 73.214C205.464 73.71 203.562 73.958 201.413 73.958ZM201.413 48.166C199.305 48.166 197.652 48.6827 196.453 49.716C195.254 50.7493 194.49 52.382 194.159 54.614H208.667C208.378 52.2993 207.613 50.646 206.373 49.654C205.174 48.662 203.521 48.166 201.413 48.166Z" fill="#0BDCA0"/>
<path d="M216 30H250.1V36.572H236.77V73.4H229.33V36.572H216V30Z" fill="black"/>
<path d="M259.117 73.958C256.885 73.958 254.88 73.6273 253.103 72.966C251.325 72.2633 249.796 71.2713 248.515 69.99C247.233 68.6673 246.241 67.076 245.539 65.216C244.877 63.356 244.547 61.248 244.547 58.892V56.908C244.547 54.552 244.877 52.444 245.539 50.584C246.241 48.724 247.233 47.1533 248.515 45.872C249.796 44.5493 251.325 43.5573 253.103 42.896C254.88 42.1933 256.885 41.842 259.117 41.842C263.622 41.842 267.177 43.2267 269.781 45.996C272.385 48.7653 273.687 52.7333 273.687 57.9V60.318H251.739C251.945 62.922 252.669 64.8027 253.909 65.96C255.149 67.076 256.885 67.634 259.117 67.634C261.307 67.634 262.899 67.262 263.891 66.518C264.924 65.7327 265.606 64.8233 265.937 63.79H273.377C273.046 65.2367 272.529 66.58 271.827 67.82C271.124 69.06 270.194 70.1347 269.037 71.044C267.879 71.9533 266.474 72.6767 264.821 73.214C263.167 73.71 261.266 73.958 259.117 73.958ZM259.117 48.166C257.009 48.166 255.355 48.6827 254.157 49.716C252.958 50.7493 252.193 52.382 251.863 54.614H266.371C266.081 52.2993 265.317 50.646 264.077 49.654C262.878 48.662 261.225 48.166 259.117 48.166Z" fill="black"/>
<path d="M290.057 73.4C286.792 73.4 284.27 72.532 282.493 70.796C280.757 69.0187 279.889 66.4767 279.889 63.17V30H287.081V62.426C287.081 64.038 287.432 65.216 288.135 65.96C288.838 66.704 289.912 67.076 291.359 67.076H292.909V73.4H290.057Z" fill="black"/>
<path d="M310.279 73.958C308.047 73.958 306.042 73.6273 304.265 72.966C302.487 72.2633 300.958 71.2713 299.677 69.99C298.395 68.6673 297.403 67.076 296.701 65.216C296.039 63.356 295.709 61.248 295.709 58.892V56.908C295.709 54.552 296.039 52.444 296.701 50.584C297.403 48.724 298.395 47.1533 299.677 45.872C300.958 44.5493 302.487 43.5573 304.265 42.896C306.042 42.1933 308.047 41.842 310.279 41.842C314.784 41.842 318.339 43.2267 320.943 45.996C323.547 48.7653 324.849 52.7333 324.849 57.9V60.318H302.901C303.107 62.922 303.831 64.8027 305.071 65.96C306.311 67.076 308.047 67.634 310.279 67.634C312.469 67.634 314.061 67.262 315.053 66.518C316.086 65.7327 316.768 64.8233 317.099 63.79H324.539C324.208 65.2367 323.691 66.58 322.989 67.82C322.286 69.06 321.356 70.1347 320.199 71.044C319.041 71.9533 317.636 72.6767 315.983 73.214C314.329 73.71 312.428 73.958 310.279 73.958ZM310.279 48.166C308.171 48.166 306.517 48.6827 305.319 49.716C304.12 50.7493 303.355 52.382 303.025 54.614H317.533C317.243 52.2993 316.479 50.646 315.239 49.654C314.04 48.662 312.387 48.166 310.279 48.166Z" fill="black"/>
<path d="M331.051 42.4H336.693L337.251 45.81C338.326 44.5287 339.628 43.5573 341.157 42.896C342.728 42.1933 344.443 41.842 346.303 41.842C348.411 41.842 350.271 42.276 351.883 43.144C353.537 43.9707 354.859 45.2107 355.851 46.864C356.926 45.252 358.331 44.012 360.067 43.144C361.803 42.276 363.767 41.842 365.957 41.842C369.471 41.842 372.281 42.9787 374.389 45.252C376.497 47.5253 377.551 50.9147 377.551 55.42V73.4H370.359V55.42C370.359 53.1053 369.822 51.39 368.747 50.274C367.714 49.1167 366.267 48.538 364.407 48.538C362.547 48.538 360.997 49.1787 359.757 50.46C358.517 51.7 357.897 53.3533 357.897 55.42V73.4H350.705V55.42C350.705 53.1467 350.168 51.4313 349.093 50.274C348.019 49.1167 346.572 48.538 344.753 48.538C342.893 48.538 341.364 49.1373 340.165 50.336C338.967 51.5347 338.326 53.126 338.243 55.11V73.4H331.051V42.4Z" fill="black"/>
<path d="M398.011 73.958C395.779 73.958 393.775 73.6273 391.997 72.966C390.22 72.2633 388.691 71.2713 387.409 69.99C386.128 68.6673 385.136 67.076 384.433 65.216C383.772 63.356 383.441 61.248 383.441 58.892V56.908C383.441 54.552 383.772 52.444 384.433 50.584C385.136 48.724 386.128 47.1533 387.409 45.872C388.691 44.5493 390.22 43.5573 391.997 42.896C393.775 42.1933 395.779 41.842 398.011 41.842C402.517 41.842 406.071 43.2267 408.675 45.996C411.279 48.7653 412.581 52.7333 412.581 57.9V60.318H390.633C390.84 62.922 391.563 64.8027 392.803 65.96C394.043 67.076 395.779 67.634 398.011 67.634C400.202 67.634 401.793 67.262 402.785 66.518C403.819 65.7327 404.501 64.8233 404.831 63.79H412.271C411.941 65.2367 411.424 66.58 410.721 67.82C410.019 69.06 409.089 70.1347 407.931 71.044C406.774 71.9533 405.369 72.6767 403.715 73.214C402.062 73.71 400.161 73.958 398.011 73.958ZM398.011 48.166C395.903 48.166 394.25 48.6827 393.051 49.716C391.853 50.7493 391.088 52.382 390.757 54.614H405.265C404.976 52.2993 404.211 50.646 402.971 49.654C401.773 48.662 400.119 48.166 398.011 48.166Z" fill="black"/>
<path d="M415.064 42.4H420.644V33.72H427.836V42.4H435.524V48.724H427.836V62.426C427.836 64.038 428.187 65.216 428.89 65.96C429.634 66.704 430.729 67.076 432.176 67.076H436.144V73.4H430.874C427.567 73.4 425.025 72.532 423.248 70.796C421.512 69.0187 420.644 66.4767 420.644 63.17V48.724H415.064V42.4Z" fill="black"/>
<path d="M441.125 42.4H446.767L447.325 45.872C448.4 44.5493 449.723 43.5573 451.293 42.896C452.905 42.1933 454.683 41.842 456.625 41.842H459.725V48.538H456.625C453.773 48.538 451.665 49.158 450.301 50.398C448.979 51.638 448.317 53.312 448.317 55.42V73.4H441.125V42.4Z" fill="black"/>
<path d="M474.631 73.4L462.169 42.4H469.981L478.413 64.596L486.349 42.4H493.789L477.359 85.8H469.919L474.631 73.4Z" fill="black"/>
</svg>
