<svg viewBox="0 0 19 26" fill="none" xmlns="http://www.w3.org/2000/svg">
<path d="M17.6036 12.2118H1.48657C1.21774 12.2118 1 11.9946 1 11.7255V8.69413C1 8.42531 1.21774 8.20757 1.48657 8.20757H17.6039C17.8722 8.20757 18.0899 8.42531 18.0899 8.69413V11.7255C18.0897 11.9946 17.8719 12.2118 17.6036 12.2118ZM1.97236 11.2392H17.1171V9.1807H1.97236V11.2392Z" fill="currentColor"/>
<path d="M6.45224 9.18056H4.5003C4.23225 9.18056 4.01451 8.96333 4.01451 8.69425V2.46305C4.01451 1.65632 4.67031 1 5.47704 1C6.28377 1 6.93906 1.65632 6.93906 2.46305V8.69425C6.93881 8.96333 6.72132 9.18056 6.45224 9.18056ZM4.98687 8.20768H5.96645V2.46305C5.96645 2.19242 5.74638 1.97287 5.47704 1.97287C5.20667 1.97287 4.98712 2.19242 4.98712 2.46305L4.98687 8.20768Z" fill="currentColor"/>
<path d="M14.8642 9.18056H12.9123C12.6432 9.18056 12.4254 8.96333 12.4254 8.69425V2.46305C12.4254 1.65632 13.082 1 13.8882 1C14.695 1 15.35 1.65632 15.35 2.46305V8.69425C15.35 8.96333 15.1323 9.18056 14.8642 9.18056ZM13.3981 8.20768H14.3776V2.46305C14.3776 2.19242 14.1578 1.97287 13.8885 1.97287C13.6181 1.97287 13.3983 2.19242 13.3983 2.46305L13.3981 8.20768Z" fill="currentColor"/>
<path d="M9.68224 23.0254C5.50231 23.0254 2.10176 19.6246 2.10176 15.4439V11.7255C2.10176 11.4567 2.3195 11.2389 2.58833 11.2389H16.7761C17.0445 11.2389 17.2622 11.4567 17.2622 11.7255V15.4441C17.2622 19.6248 13.8616 23.0254 9.68224 23.0254ZM3.07438 12.2115V15.4439C3.07438 19.088 6.03789 22.0523 9.68224 22.0523C13.3261 22.0523 16.2896 19.088 16.2896 15.4439V12.2115H3.07438Z" fill="currentColor"/>
<path d="M10.9444 25.0001H8.41975C8.15092 25.0001 7.93318 24.7824 7.93318 24.5133V22.4208C7.93318 22.2765 7.99716 22.1406 8.10758 22.0474C8.21851 21.9561 8.3635 21.9174 8.50514 21.9422C9.34463 22.0923 10.0198 22.0923 10.8593 21.9422C11.0014 21.9174 11.1457 21.9564 11.2568 22.0474C11.3673 22.1406 11.4312 22.2768 11.4312 22.4208V24.5133C11.4312 24.7824 11.2135 25.0001 10.9444 25.0001ZM8.90631 24.027H10.4579V22.9819C9.9264 23.041 9.43777 23.041 8.90631 22.9819V24.027Z" fill="currentColor"/>
<path d="M17.6036 12.2118H1.48657C1.21774 12.2118 1 11.9946 1 11.7255V8.69413C1 8.42531 1.21774 8.20757 1.48657 8.20757H17.6039C17.8722 8.20757 18.0899 8.42531 18.0899 8.69413V11.7255C18.0897 11.9946 17.8719 12.2118 17.6036 12.2118ZM1.97236 11.2392H17.1171V9.1807H1.97236V11.2392Z" stroke="currentColor" stroke-width="0.2"/>
<path d="M6.45224 9.18056H4.5003C4.23225 9.18056 4.01451 8.96333 4.01451 8.69425V2.46305C4.01451 1.65632 4.67031 1 5.47704 1C6.28377 1 6.93906 1.65632 6.93906 2.46305V8.69425C6.93881 8.96333 6.72132 9.18056 6.45224 9.18056ZM4.98687 8.20768H5.96645V2.46305C5.96645 2.19242 5.74638 1.97287 5.47704 1.97287C5.20667 1.97287 4.98712 2.19242 4.98712 2.46305L4.98687 8.20768Z" stroke="currentColor" stroke-width="0.2"/>
<path d="M14.8642 9.18056H12.9123C12.6432 9.18056 12.4254 8.96333 12.4254 8.69425V2.46305C12.4254 1.65632 13.082 1 13.8882 1C14.695 1 15.35 1.65632 15.35 2.46305V8.69425C15.35 8.96333 15.1323 9.18056 14.8642 9.18056ZM13.3981 8.20768H14.3776V2.46305C14.3776 2.19242 14.1578 1.97287 13.8885 1.97287C13.6181 1.97287 13.3983 2.19242 13.3983 2.46305L13.3981 8.20768Z" stroke="currentColor" stroke-width="0.2"/>
<path d="M9.68224 23.0254C5.50231 23.0254 2.10176 19.6246 2.10176 15.4439V11.7255C2.10176 11.4567 2.3195 11.2389 2.58833 11.2389H16.7761C17.0445 11.2389 17.2622 11.4567 17.2622 11.7255V15.4441C17.2622 19.6248 13.8616 23.0254 9.68224 23.0254ZM3.07438 12.2115V15.4439C3.07438 19.088 6.03789 22.0523 9.68224 22.0523C13.3261 22.0523 16.2896 19.088 16.2896 15.4439V12.2115H3.07438Z" stroke="currentColor" stroke-width="0.2"/>
<path d="M10.9444 25.0001H8.41975C8.15092 25.0001 7.93318 24.7824 7.93318 24.5133V22.4208C7.93318 22.2765 7.99716 22.1406 8.10758 22.0474C8.21851 21.9561 8.3635 21.9174 8.50514 21.9422C9.34463 22.0923 10.0198 22.0923 10.8593 21.9422C11.0014 21.9174 11.1457 21.9564 11.2568 22.0474C11.3673 22.1406 11.4312 22.2768 11.4312 22.4208V24.5133C11.4312 24.7824 11.2135 25.0001 10.9444 25.0001ZM8.90631 24.027H10.4579V22.9819C9.9264 23.041 9.43777 23.041 8.90631 22.9819V24.027Z" stroke="currentColor" stroke-width="0.2"/>
</svg>
