<svg viewBox="0 0 24 24" fill="none" xmlns="http://www.w3.org/2000/svg">
<path d="M12.0057 24C18.5861 24 24 18.5975 24 12.0057C24 5.41387 18.5861 0 11.9943 0C5.40255 0 0 5.41387 0 12.0057C0 18.5975 5.41387 24 12.0057 24ZM10.488 18.1331C9.96697 18.1331 9.55923 17.8839 9.21944 17.4875L5.95753 13.6253C5.69703 13.3195 5.58377 13.0137 5.58377 12.6739C5.58377 11.949 6.18405 11.3827 6.88627 11.3827C7.30533 11.3827 7.62246 11.5639 7.92827 11.9037L10.454 14.9618L15.2902 7.29401C15.6074 6.80698 15.9811 6.55781 16.4455 6.55781C17.1364 6.55781 17.782 7.06748 17.782 7.79235C17.782 8.07551 17.6574 8.39264 17.4648 8.68712L11.7338 17.4309C11.428 17.8726 10.9863 18.1331 10.488 18.1331Z" fill="currentColor"/>
</svg>
