<svg
  class="-ml-1 mr-3"
  fill="currentColor"
  enable-background="new 0 0 512 512"
  viewBox="0 0 512 512"
>
  <g>
    <path
      d="m437.02 74.98c-48.353-48.351-112.64-74.98-181.02-74.98s-132.667 26.629-181.02 74.98c-48.351 48.353-74.98 112.64-74.98 181.02s26.629 132.667 74.98 181.02c48.353 48.351 112.64 74.98 181.02 74.98s132.667-26.629 181.02-74.98c48.351-48.353 74.98-112.64 74.98-181.02s-26.629-132.667-74.98-181.02zm-181.02-44.98c60.367 0 117.12 23.508 159.806 66.194 13.616 13.615 25.27 28.667 34.843 44.806h-194.649c-54.974 0-101.054 38.777-112.345 90.413l-65.988-114.295c5.7-7.289 11.881-14.278 18.528-20.924 42.685-42.686 99.438-66.194 159.805-66.194zm85 226c0 46.869-38.131 85-85 85s-85-38.131-85-85 38.131-85 85-85 85 38.131 85 85zm-311 0c0-39.562 10.098-77.572 29.073-111.087l96.615 167.34c.132.228.273.447.415.665 19.829 34.668 57.179 58.082 99.897 58.082 12.155 0 23.874-1.902 34.88-5.413l-65.984 114.287c-48.571-6.646-93.439-28.805-128.702-64.068-42.686-42.686-66.194-99.439-66.194-159.806zm385.806 159.806c-42.136 42.136-97.983 65.569-157.48 66.166l96.614-167.34c.111-.193.199-.392.301-.588 10.009-17.049 15.759-36.886 15.759-58.044 0-33.64-14.52-63.952-37.621-85h132.144c10.806 26.642 16.477 55.384 16.477 85 0 60.367-23.508 117.12-66.194 159.806z"
    />
  </g>
</svg>