<svg viewBox="0 0 26 26" fill="none" xmlns="http://www.w3.org/2000/svg">
<path d="M13.0171 9.4286C12.2807 9.35588 11.5399 9.51253 10.8961 9.8771C10.2522 10.2417 9.73677 10.7963 9.42032 11.4652C9.10388 12.134 9.0019 12.8843 9.12835 13.6133C9.2548 14.3423 9.60349 15.0145 10.1267 15.5377C10.6499 16.0609 11.322 16.4096 12.051 16.536C12.7801 16.6624 13.5303 16.5605 14.1992 16.244C14.868 15.9276 15.4227 15.4121 15.7873 14.7683C16.1518 14.1244 16.3085 13.3836 16.2358 12.6473C16.1528 11.8219 15.7871 11.0505 15.2005 10.4639C14.6139 9.87725 13.8425 9.5115 13.0171 9.4286ZM21.6582 13C21.6559 13.3901 21.6272 13.7796 21.5724 14.1658L24.1075 16.1542C24.2179 16.2457 24.2923 16.3734 24.3175 16.5146C24.3426 16.6557 24.3169 16.8012 24.2449 16.9252L21.8466 21.0748C21.7738 21.1976 21.6599 21.2907 21.5251 21.3378C21.3903 21.3849 21.2432 21.3829 21.1098 21.3321L18.592 20.3183C18.4532 20.263 18.3028 20.2431 18.1543 20.2602C18.0059 20.2773 17.864 20.331 17.7414 20.4164C17.3571 20.6811 16.9533 20.9161 16.5335 21.1196C16.4015 21.1838 16.2874 21.2794 16.2011 21.3982C16.1148 21.5169 16.0591 21.655 16.0389 21.8004L15.6615 24.4858C15.6368 24.6276 15.5635 24.7564 15.4543 24.8502C15.345 24.944 15.2066 24.997 15.0627 25H10.266C10.1245 24.9976 9.98796 24.947 9.87899 24.8565C9.77003 24.7661 9.69512 24.6413 9.66659 24.5026L9.28977 21.8211C9.26861 21.6742 9.21147 21.5347 9.12342 21.4152C9.03538 21.2956 8.91916 21.1997 8.7851 21.1359C8.36578 20.9335 7.96337 20.6978 7.58173 20.431C7.45954 20.346 7.31812 20.2927 7.17021 20.276C7.02229 20.2593 6.87254 20.2796 6.73444 20.3351L4.21725 21.3484C4.08385 21.3992 3.9368 21.4013 3.80202 21.3543C3.66723 21.3073 3.55334 21.2143 3.48042 21.0916L1.08211 16.9421C1.01 16.8181 0.984234 16.6725 1.00939 16.5313C1.03455 16.3902 1.109 16.2625 1.21949 16.171L3.36211 14.4888C3.47949 14.3956 3.57175 14.2746 3.6305 14.1367C3.68925 13.9988 3.71265 13.8485 3.69855 13.6993C3.67837 13.4654 3.66603 13.2321 3.66603 12.9983C3.66603 12.7645 3.67781 12.5346 3.69855 12.3058C3.71111 12.1575 3.68657 12.0084 3.62715 11.8719C3.56773 11.7355 3.4753 11.616 3.35818 11.5241L1.21669 9.84187C1.10799 9.74996 1.03511 9.62273 1.01081 9.48247C0.986511 9.34222 1.01235 9.19788 1.08379 9.07477L3.48211 4.92523C3.55494 4.80242 3.66879 4.70927 3.80358 4.66218C3.93838 4.61509 4.08547 4.6171 4.21893 4.66785L6.73669 5.68168C6.87553 5.73696 7.02592 5.75694 7.17438 5.73981C7.32284 5.72268 7.46473 5.66899 7.58734 5.58355C7.97159 5.31895 8.37537 5.08388 8.79519 4.88037C8.92718 4.81622 9.04134 4.72056 9.12759 4.60184C9.21385 4.48311 9.26955 4.34498 9.28977 4.19963L9.66715 1.51421C9.69194 1.37238 9.76521 1.24357 9.87444 1.14978C9.98368 1.05599 10.1221 1.00305 10.266 1H15.0627C15.2042 1.00245 15.3407 1.05305 15.4497 1.14346C15.5587 1.23387 15.6336 1.3587 15.6621 1.49738L16.0389 4.17888C16.0601 4.32583 16.1172 4.46528 16.2053 4.58482C16.2933 4.70437 16.4095 4.80031 16.5436 4.86411C16.9629 5.06652 17.3653 5.30223 17.747 5.56897C17.8692 5.65399 18.0106 5.70727 18.1585 5.72401C18.3064 5.74075 18.4562 5.72042 18.5943 5.66486L21.1115 4.65159C21.2448 4.60079 21.3919 4.5987 21.5267 4.64568C21.6615 4.69266 21.7754 4.7857 21.8483 4.90841L24.2466 9.05794C24.3187 9.18192 24.3445 9.32746 24.3193 9.46865C24.2941 9.60985 24.2197 9.73753 24.1092 9.82897L21.9666 11.5112C21.8487 11.6041 21.7559 11.725 21.6966 11.8629C21.6374 12.0008 21.6136 12.1513 21.6273 12.3007C21.6458 12.5329 21.6582 12.7662 21.6582 13Z" stroke="currentColor" stroke-width="1.5" stroke-linecap="round" stroke-linejoin="round"/>
</svg>
