<svg
  x="0px"
  y="0px"
  fill="currentColor"
  class="-ml-1 mr-3"
  viewBox="0 0 512 512"
  style="enable-background: new 0 0 512 512;"
  xml:space="preserve"
>
  <g>
    <g>
      <path
        d="M356.192,11.136c49.44,33.6,77.92,122.208,77.92,189.216c0,17.12-2.24,33.824-6.24,49.408 c-3.584-38.944-23.616-73.216-53.44-95.488c16.48,22.24,26.272,49.632,26.272,79.456c0,73.696-59.872,133.568-133.568,133.568 c-29.824,0-44.512-5.792-66.784-22.272c45.184,0,72.992-44.512,111.296-44.512c0,0-5.536-22.272-33.376-22.272 c-27.84,0-14.688,22.272-66.784,22.272s-77.92-31.392-77.92-55.648c0-24.256,36.064-41.856,44.512-33.376 c7.584-7.584,0-22.272,0-22.272l66.816-44.512c0,0-11.136,0-22.272,0c-98.848,0-42.08-69.248-22.272-89.056 c-35.392,0-57.664,32.736-66.816,44.512c-5.568-2.656-44.512-2.656-55.648,0c-4.896,1.12-11.776-7.552-18.24-19.584 c-8-15.136-15.136-35.392-15.136-47.2c-28.256,28.288-23.36,70.592-12.224,87.264c-0.448,0.448-0.896,1.12-1.12,1.792 C11.36,158.72,0,200.576,0,244.864c0,141.344,114.656,256,256,256S512,397.344,512,256c0-2.464,0-19.808,0-22.272 C512,101.568,427.424,32.48,356.192,11.136z"
      />
    </g>
  </g>
</svg>