<svg viewBox="0 0 24 22" fill="none" xmlns="http://www.w3.org/2000/svg">
<path d="M23.9959 12.3803C24.0174 12.1637 23.9037 11.9473 23.6919 11.8492L18.2689 9.33529V3.27329C18.2689 3.26091 18.2648 3.24903 18.264 3.23689C18.2858 3.02026 18.1716 2.80413 17.9603 2.70605L12.2291 0.0487872C12.2222 0.045501 12.215 0.0442371 12.2081 0.0414565C12.1896 0.0336202 12.1706 0.0273006 12.1516 0.0217394C12.1359 0.0171893 12.1208 0.0131447 12.1051 0.0101113C12.0872 0.00657236 12.0694 0.00455002 12.0512 0.00278054C12.034 0.00126384 12.0173 0 12.0001 0C11.9829 0 11.9662 0.00126384 11.949 0.00278054C11.9311 0.00455002 11.9133 0.00657236 11.8956 0.0101113C11.8797 0.0131447 11.8643 0.0171893 11.8484 0.0217394C11.8296 0.0273006 11.8109 0.0336201 11.7927 0.0412036C11.7857 0.0439842 11.7783 0.045501 11.7711 0.0487872L6.03973 2.70605C5.82817 2.80413 5.71417 3.02051 5.736 3.23715C5.73497 3.24928 5.73112 3.26116 5.73112 3.27355V9.33555L0.308354 11.8492C0.0970505 11.9473 -0.0174589 12.1637 0.00462137 12.3803C0.00385112 12.3922 0 12.4043 0 12.417V18.8142C0 19.0192 0.120158 19.2055 0.308354 19.2929L6.03973 21.9497C6.05719 21.9578 6.07542 21.9618 6.09365 21.9676C6.10725 21.9722 6.12009 21.9778 6.13421 21.9815C6.17837 21.9927 6.22356 22 6.26875 22C6.31419 22 6.35912 21.9927 6.40303 21.9815C6.41715 21.9778 6.43024 21.9722 6.44385 21.9676C6.46182 21.9618 6.48031 21.9578 6.49751 21.9497L12.0001 19.3984L17.5025 21.9497C17.5202 21.9578 17.5389 21.9618 17.5567 21.9676C17.5705 21.9722 17.5834 21.9778 17.5967 21.981C17.6411 21.9927 17.6863 22 17.7312 22C17.7772 22 17.8219 21.9927 17.8663 21.981C17.8799 21.9778 17.8927 21.9722 17.9063 21.9676C17.9243 21.9618 17.9425 21.9578 17.9603 21.9497L23.6916 19.2924C23.8796 19.205 24 19.0187 24 18.8137V12.4167C24.0002 12.4043 23.9966 12.3922 23.9959 12.3803ZM17.7312 14.4893L13.1658 12.3722L17.7312 10.2557L22.297 12.3722L17.7312 14.4893ZM6.26875 14.4893L1.70275 12.3722L6.26875 10.2557L10.8345 12.3722L6.26875 14.4893ZM12.0001 1.11199L16.5659 3.2288L12.0001 5.34587L7.43412 3.2288L12.0001 1.11199ZM11.463 11.4941L6.80612 9.33529V4.10723L11.463 6.26625V11.4941ZM12.5375 6.26625L17.1944 4.10723V9.33529L12.5375 11.4941V6.26625ZM12.5375 13.2504L17.1944 15.4094V20.6372L12.5375 18.4785V13.2504ZM1.07449 13.2504L5.73137 15.4094V20.6372L1.07449 18.4785V13.2504V13.2504ZM11.463 18.4785L6.80612 20.6372V15.4094L11.463 13.2504V18.4785ZM22.9258 18.4785L18.2689 20.6372V15.4094L22.9258 13.2504V18.4785Z" fill="currentColor"/>
</svg>
