<svg viewBox="0 0 24 24" fill="none" xmlns="http://www.w3.org/2000/svg">
<path d="M12.0057 24C18.5861 24 24 18.5975 24 12.0057C24 5.41387 18.5861 0 11.9943 0C5.40255 0 0 5.41387 0 12.0057C0 18.5975 5.41387 24 12.0057 24ZM8.31336 16.9891C7.56583 16.9891 6.99953 16.4228 6.99953 15.6753C6.99953 15.3355 7.13544 15.0184 7.38462 14.7692L10.1369 12.017L7.38462 9.26475C7.13544 9.01557 6.99953 8.69844 6.99953 8.35866C6.99953 7.61114 7.56583 7.04483 8.31336 7.04483C8.69844 7.04483 9.00425 7.16942 9.26475 7.42992L11.9943 10.1595L14.7466 7.41859C15.0071 7.14677 15.3129 7.03351 15.698 7.03351C16.4455 7.03351 17.0118 7.59981 17.0118 8.34733C17.0118 8.68712 16.8759 9.00425 16.6154 9.25342L13.8745 12.017L16.6154 14.7579C16.8646 15.0071 17.0005 15.3242 17.0005 15.6753C17.0005 16.4228 16.4342 16.9891 15.698 16.9891C15.3016 16.9891 14.9844 16.8646 14.7353 16.6041L11.9943 13.8858L9.27607 16.6041C9.01557 16.8646 8.69844 16.9891 8.31336 16.9891Z" fill="currentColor"/>
</svg>
