<svg width="24" height="24" viewBox="0 0 24 24" fill="none" xmlns="http://www.w3.org/2000/svg">
<path d="M22 18.6667C22 20.5 20.5 22 18.6667 22H5.33333C3.5 22 2 20.5 2 18.6667V5.33333C2 3.5 3.5 2 5.33333 2H18.6667C20.5 2 22 3.5 22 5.33333V18.6667Z" fill="#563D7C"/>
<path d="M7.43555 6.34641H13.1055C14.1512 6.34641 14.9911 6.58497 15.6218 7.06536C16.2525 7.54575 16.5695 8.26797 16.5695 9.23856C16.5695 9.8268 16.4257 10.3301 16.1382 10.7484C15.8506 11.1667 15.4388 11.4935 14.9029 11.7222V11.7549C15.6218 11.9085 16.1676 12.2484 16.5369 12.7745C16.9061 13.3039 17.0924 13.9641 17.0924 14.7614C17.0924 15.219 17.0107 15.6471 16.8473 16.0425C16.6839 16.4412 16.429 16.7843 16.0793 17.0719C15.7297 17.3595 15.2852 17.5882 14.7395 17.7582C14.1937 17.9281 13.5467 18.0131 12.795 18.0131H7.43555V6.34641ZM9.47803 11.232H12.8114C13.3016 11.232 13.7101 11.0948 14.0369 10.8137C14.3637 10.5327 14.527 10.134 14.527 9.61111C14.527 9.02288 14.38 8.60784 14.0859 8.36928C13.7918 8.13072 13.3669 8.0098 12.8114 8.0098H9.47803V11.232ZM9.47803 16.3464H13.0891C13.7101 16.3464 14.1937 16.1863 14.5336 15.8627C14.8767 15.5425 15.0499 15.085 15.0499 14.4967C15.0499 13.9183 14.88 13.4771 14.5336 13.1634C14.1872 12.8497 13.7101 12.6993 13.0891 12.6993H9.47803V16.3464Z" fill="white"/>
</svg>
