<svg width="24" height="24" viewBox="0 0 24 24" fill="none" xmlns="http://www.w3.org/2000/svg">
<path d="M5.87552 21.6531C5.92652 21.4694 6.8648 17.4592 7.96627 12.7449C9.06773 8.03069 9.98562 4.12255 10.006 4.05112C10.0774 3.85724 9.09833 4.27561 8.33342 4.7756C7.40533 5.37764 6.54864 6.31641 6.15089 7.15314C5.87552 7.75518 5.82453 7.95926 5.82453 8.66334C5.82453 9.3164 5.87552 9.5817 6.0693 9.96945C6.20188 10.2348 6.29367 10.4695 6.27327 10.4899C6.25288 10.5103 5.32479 10.8776 4.20293 11.3164C2.57113 11.949 2.16318 12.0817 2.09179 11.9694C2.04079 11.8878 2 11.3878 2 10.847C2 8.8266 2.68332 7.21437 4.19273 5.69397C6.64043 3.21439 10.3426 1.86746 14.3405 2.01031C16.0335 2.06133 17.033 2.28582 18.1752 2.84704C21.5 4.47969 21.4694 8.03069 18.1038 10.2246L17.4817 10.6327L17.8285 10.7041C18.012 10.745 18.5424 10.9592 19.0115 11.1735C21.3062 12.2756 22.4485 14.6531 21.8366 17.0306C21.3164 19 19.5622 20.6939 17.3491 21.3571C15.6765 21.8571 15.1462 21.898 10.3426 21.949L5.78373 22L5.87552 21.6531ZM13.188 19.8367C14.3915 19.5204 15.4113 18.9694 16.1865 18.2041C17.0635 17.3368 17.4205 16.6021 17.4817 15.5409C17.5429 14.5511 17.3389 13.898 16.7678 13.2654C16.0539 12.449 15.1462 12.0307 13.749 11.8674C12.3517 11.7041 12.5761 11.296 11.5358 15.8878C11.0463 18.0919 10.6179 19.949 10.5873 20.0306C10.516 20.2245 12.107 20.1123 13.188 19.8367ZM13.9631 9.97966C15.289 9.64292 16.3598 8.83681 16.8596 7.8062C17.1145 7.3062 17.1451 7.12253 17.1451 6.25519C17.1451 5.34703 17.1247 5.24499 16.8392 4.7756C16.4822 4.20418 15.7071 3.68377 14.9728 3.52051C14.7076 3.46949 14.4833 3.43888 14.4629 3.44908C14.4425 3.47969 13.1676 8.89803 12.9637 9.81639C12.9025 10.1021 12.9229 10.1429 13.1166 10.1429C13.239 10.1429 13.6164 10.0715 13.9631 9.97966Z" fill="#7957D5"/>
</svg>
