<svg width="24" height="25" viewBox="0 0 24 25" fill="none" xmlns="http://www.w3.org/2000/svg">
<path fill-rule="evenodd" clip-rule="evenodd" d="M20.7575 17.1316C20.7525 17.9616 20.3214 18.1468 20.3214 18.1468C20.3214 18.1468 12.8815 22.4458 12.3978 22.7152C11.9185 22.9209 11.5981 22.7152 11.5981 22.7152C11.5981 22.7152 3.81332 18.2003 3.52917 18.0018C3.24496 17.8033 3.23837 17.4942 3.23837 17.4942C3.23837 17.4942 3.24619 8.55394 3.23837 8.13995C3.23055 7.72588 3.74721 7.41479 3.74721 7.41479L11.5254 2.91895C12.0043 2.66619 12.4705 2.91895 12.4705 2.91895C12.4705 2.91895 19.3418 6.91298 20.1033 7.34226C20.8496 7.69711 20.7575 8.42995 20.7575 8.42995C20.7575 8.42995 20.7621 16.3603 20.7575 17.1316ZM17.652 8.15879C16.0593 7.24211 12.3075 5.06825 12.3075 5.06825C12.3075 5.06825 11.9415 4.87042 11.5655 5.06825L5.45867 8.58669C5.45867 8.58669 5.05302 8.83024 5.05918 9.15423C5.06533 9.47822 5.05918 16.475 5.05918 16.475C5.05918 16.475 5.06432 16.7169 5.28749 16.8722C5.51059 17.0275 11.6226 20.561 11.6226 20.561C11.6226 20.561 11.8742 20.722 12.2504 20.561C12.6302 20.3502 18.4715 16.9857 18.4715 16.9857C18.4715 16.9857 18.81 16.8408 18.8139 16.1912C18.815 16.0039 18.8154 15.2768 18.8155 14.3632L11.9383 18.5304V16.9362C11.9383 16.2814 12.4452 15.8492 12.4452 15.8492L18.5282 12.1838C18.7577 11.944 18.8051 11.5601 18.8148 11.4148C18.8146 10.749 18.8143 10.1673 18.8141 9.7988L11.9383 13.9652V12.2985C11.9383 11.6437 12.3728 11.3564 12.3728 11.3564L17.652 8.15879Z" fill="#409EFF"/>
</svg>
