<svg width="25" height="25" viewBox="0 0 25 25" fill="none" xmlns="http://www.w3.org/2000/svg">
<path d="M20.6581 11.0733C21.6199 11.027 22.4713 11.7743 22.5543 12.7384C22.9141 17.4025 18.6521 22.6274 12.6461 22.7944C7.58486 22.9195 2.5791 18.8613 2.5791 12.7251C2.5791 11.758 3.37699 10.9741 4.33988 10.9741C5.30278 10.9741 6.08336 11.758 6.08336 12.7251C6.08336 16.7613 9.32379 19.3735 12.5604 19.2935C16.5448 19.1827 19.135 15.7274 19.0003 12.9062C18.954 11.9403 19.6964 11.1197 20.6581 11.0733Z" fill="url(#paint0_linear)"/>
<path d="M16.3018 12.8608C16.3018 11.8708 17.1081 11.0682 18.1028 11.0682H20.7274C21.7221 11.0682 22.5534 11.8708 22.5534 12.8608C22.5534 13.8509 21.7221 14.6535 20.7274 14.6535H18.1028C17.1081 14.6535 16.3018 13.8509 16.3018 12.8608Z" fill="#00A672"/>
<path d="M10.7949 12.8634C10.7949 11.8719 11.5961 11.0682 12.5833 11.0682C13.5706 11.0682 14.3719 11.8719 14.3719 12.8634C14.3719 13.8549 13.5706 14.6588 12.5833 14.6588C11.5961 14.6588 10.7949 13.8549 10.7949 12.8634Z" fill="#00A672"/>
<path fill-rule="evenodd" clip-rule="evenodd" d="M14.3223 4.47562C14.3623 5.44184 13.6148 6.25763 12.6527 6.29776C8.49962 6.47098 5.9642 9.74017 6.08761 12.8443C6.12603 13.8106 5.39283 14.6252 4.4307 14.6638C3.46857 14.7024 2.62248 13.9225 2.58406 12.9563C2.38295 7.89773 6.58848 2.89699 12.508 2.79878C13.4701 2.75865 14.2824 3.5094 14.3223 4.47562Z" fill="#00A672"/>
<defs>
<linearGradient id="paint0_linear" x1="12.5773" y1="10.9741" x2="12.5773" y2="22.7973" gradientUnits="userSpaceOnUse">
<stop stop-color="#00583E"/>
<stop offset="1" stop-color="#00835C"/>
</linearGradient>
</defs>
</svg>
