<svg width="24" height="24" viewBox="0 0 24 24" fill="none" xmlns="http://www.w3.org/2000/svg">
<path d="M11.5701 20.4767C11.1387 19.0517 11.0373 18.9267 9.94621 18.4517C9.05815 18.0767 8.42382 17.9767 7.28203 18.0517C5.93725 18.1517 5.65815 18.2517 4.87158 19.0767C4.16113 19.8517 3.9074 19.9517 3.50143 19.7517C1.5477 18.7017 5.73427 16.2017 8.65218 16.6517C9.46412 16.8017 9.79397 17.0017 10.1746 17.6517C10.4537 18.1267 10.7328 18.5017 10.7835 18.5017C10.8343 18.5017 10.2507 17.3017 9.46412 15.8517C7.86561 12.9267 7.94173 13.5517 8.7283 8.42671C9.10889 5.95171 9.10889 5.65171 8.75367 4.72671C8.52531 4.17671 8.3477 3.35171 8.3477 2.87671C8.3477 1.90171 8.77904 1.75171 9.87009 2.37671C10.7328 2.85171 13.8537 2.85171 15.0208 2.37671C16.5686 1.75171 16.797 1.85171 16.594 3.07671C16.4925 3.65171 16.2641 4.45171 16.0611 4.85171C15.7567 5.47671 15.7567 5.92671 16.1119 8.10171C16.3149 9.50171 16.594 11.1517 16.6701 11.7767C16.8223 12.7767 17.0253 13.0767 17.9641 13.7767C19.3343 14.8267 20.0193 16.0267 20.0193 17.4517C20.0193 20.1267 17.4313 22.3767 14.894 21.9017C13.5999 21.6767 13.1686 21.2517 13.4477 20.5267C13.6507 20.0517 13.7522 20.0017 14.0567 20.2517C14.6149 20.7267 16.2895 20.6267 17.1775 20.1017C18.0149 19.6267 18.7507 18.4267 18.7507 17.5267C18.7507 16.0517 17.2537 14.2517 16.3402 14.6017C15.8835 14.7767 13.2447 19.9767 13.0164 21.2017C12.7626 22.5517 12.1029 22.2267 11.5701 20.4767ZM12.9656 11.8267C13.3208 11.4017 12.7626 10.7267 12.2552 10.9267C11.8492 11.0767 11.7731 11.9017 12.1537 12.1267C12.3059 12.2017 12.4328 12.7517 12.4581 13.3267L12.4835 14.3767L12.585 13.2517C12.6611 12.6517 12.8134 12.0017 12.9656 11.8267Z" fill="#191919"/>
</svg>
