<svg viewBox="0 0 24 24" fill="none" xmlns="http://www.w3.org/2000/svg">
<path d="M13.7018 7.88565L12.8788 9.31384L10.0644 4.42823L1.42473 19.4243H7.27438C7.27438 20.213 7.91238 20.8525 8.69939 20.8525H1.42473C0.915676 20.8525 0.445332 20.5801 0.190846 20.1382C-0.0636398 19.6964 -0.0636139 19.152 0.190915 18.7102L8.83061 3.71414C9.08515 3.27223 9.5556 3 10.0647 3C10.5738 3 11.0443 3.27223 11.2988 3.71414L13.7018 7.88565V7.88565Z" fill="#00C58E"/>
<path d="M19.9393 18.71L14.5254 9.31369L13.7025 7.8855L12.8795 9.31369L7.4663 18.71C7.21178 19.1519 7.21175 19.6962 7.46624 20.1381C7.72072 20.58 8.19107 20.8523 8.70012 20.8523H18.7037C19.2128 20.8523 19.6834 20.5802 19.938 20.1383C20.1926 19.6964 20.1927 19.1519 19.9381 18.71H19.9393ZM8.70012 19.4241L13.7025 10.7419L18.7037 19.4241H8.70012L8.70012 19.4241Z" fill="#2F495E"/>
<path d="M23.8086 20.1382C23.5541 20.58 23.0838 20.8523 22.5748 20.8523H18.7023C19.4894 20.8523 20.1273 20.2128 20.1273 19.4241H22.5718L15.6356 7.3838L14.5241 9.31365L13.7012 7.88545L14.4018 6.6697C14.6563 6.2278 15.1268 5.95557 15.6359 5.95557C16.145 5.95557 16.6155 6.2278 16.87 6.6697L23.8086 18.71C24.0632 19.1519 24.0632 19.6963 23.8086 20.1382V20.1382Z" fill="#108775"/>
</svg>
