<svg width="24" height="24" viewBox="0 0 24 24" fill="none" xmlns="http://www.w3.org/2000/svg">
<path d="M13.9357 12C13.9357 13.0779 13.0704 13.9508 12.002 13.9508C10.9336 13.9508 10.0684 13.0769 10.0684 12C10.0684 10.9221 10.9347 10.0492 12.002 10.0492C13.0694 10.0492 13.9357 10.9221 13.9357 12Z" fill="#263238"/>
<path d="M20.5856 6.99898C20.1652 6.26948 19.6543 5.59632 19.0663 4.99591L16.831 6.29817C16.1343 5.69776 15.3421 5.23771 14.4972 4.93341C13.7334 5.71415 13.1271 6.58607 12.6904 7.53382C15.1786 7.36271 17.7491 8.27153 20.1347 10.1527L21.5413 9.333C21.3219 8.51743 21.001 7.73362 20.5856 6.99898Z" fill="#1976D2"/>
<path d="M20.5854 17C21.0018 16.2674 21.3247 15.4846 21.5461 14.6711L19.3108 13.3688C19.4784 12.46 19.4763 11.5379 19.3149 10.6475C18.2637 10.3709 17.2116 10.2766 16.1787 10.3699C17.5701 12.459 18.0748 15.1588 17.6534 18.1834L19.0599 19.0031C19.651 18.4016 20.1639 17.7295 20.5854 17Z" fill="#42A5F5"/>
<path d="M12.0016 22C12.8384 21.998 13.6712 21.8883 14.4806 21.6742V19.0697C15.3449 18.7613 16.1351 18.2992 16.8196 17.7131C16.5311 16.6558 16.0863 15.6906 15.4901 14.834C14.3923 17.0933 12.3276 18.8853 9.52051 20.0297V21.6691C10.3299 21.8853 11.1637 21.9959 12.0016 22Z" fill="#1976D2"/>
<path d="M3.41661 17.001C3.83706 17.7305 4.3479 18.4037 4.93593 19.0041L7.17124 17.7018C7.86794 18.3022 8.6601 18.7623 9.50507 19.0666C10.2688 18.2858 10.8751 17.4139 11.3118 16.4662C8.82361 16.6373 6.25315 15.7285 3.86753 13.8473L2.46094 14.667C2.68031 15.4826 3.00123 16.2664 3.41661 17.001Z" fill="#42A5F5"/>
<path d="M3.41583 7.00002C2.99944 7.7326 2.67648 8.51539 2.45508 9.32891L4.69039 10.6312C4.52282 11.54 4.52485 12.4621 4.68633 13.3525C5.73747 13.6291 6.78962 13.7234 7.82247 13.6301C6.43112 11.541 5.92636 8.84121 6.34783 5.81662L4.94124 4.99695C4.35118 5.59736 3.83831 6.27051 3.41583 7.00002Z" fill="#1976D2"/>
<path d="M12.0006 2C11.1637 2.00205 10.3309 2.11168 9.52152 2.32582V4.93033C8.65725 5.23873 7.86713 5.70082 7.18262 6.28688C7.47104 7.34426 7.91587 8.30942 8.51202 9.16598C9.60988 6.90676 11.6746 5.11475 14.4817 3.97028V2.33094C13.6722 2.11475 12.8384 2.0041 12.0006 2Z" fill="#42A5F5"/>
</svg>
