<svg width="24" height="24" viewBox="0 0 24 24" fill="none" xmlns="http://www.w3.org/2000/svg">
<path fill-rule="evenodd" clip-rule="evenodd" d="M12 6C9.33333 6 7.66667 7.33333 7 10C8 8.66667 9.16667 8.16667 10.5 8.5C11.2607 8.69019 11.8045 9.24207 12.4063 9.853C13.3868 10.8482 14.5215 12 17 12C19.6667 12 21.3333 10.6667 22 8C21 9.33333 19.8333 9.83333 18.5 9.5C17.7393 9.30981 17.1955 8.75793 16.5937 8.147C15.6132 7.15181 14.4785 6 12 6ZM7 12C4.33333 12 2.66667 13.3333 2 16C3 14.6667 4.16667 14.1667 5.5 14.5C6.26074 14.6902 6.80448 15.2421 7.40633 15.853C8.38678 16.8482 9.52152 18 12 18C14.6667 18 16.3333 16.6667 17 14C16 15.3333 14.8333 15.8333 13.5 15.5C12.7393 15.3098 12.1955 14.7579 11.5937 14.147C10.6132 13.1518 9.47848 12 7 12Z" fill="url(#paint0_linear)"/>
<defs>
<linearGradient id="paint0_linear" x1="1.44444" y1="6" x2="22" y2="17.8519" gradientUnits="userSpaceOnUse">
<stop stop-color="#2298BD"/>
<stop offset="1" stop-color="#0ED7B5"/>
</linearGradient>
</defs>
</svg>
