<svg width="24" height="24" viewBox="0 0 24 24" fill="none" xmlns="http://www.w3.org/2000/svg">
<g filter="url(#filter0_d)">
<path d="M3.45142 9.36773C3.21112 8.50266 3.77948 7.62167 4.66669 7.484L13.2493 6.15222C13.9651 6.04115 14.658 6.45751 14.896 7.1417L18.6685 17.9876C18.9687 18.8507 18.434 19.7794 17.5368 19.953L8.32005 21.7369C7.55222 21.8855 6.79906 21.4192 6.58974 20.6657L3.45142 9.36773Z" fill="#454C68"/>
</g>
<g filter="url(#filter1_d)">
<path d="M4.63941 7.38726C4.39911 6.52219 4.96747 5.6412 5.85468 5.50353L14.4373 4.17176C15.1531 4.06068 15.846 4.47704 16.084 5.16123L19.8565 16.0071C20.1567 16.8702 19.6219 17.7989 18.7248 17.9725L9.50804 19.7564C8.74021 19.905 7.98705 19.4388 7.77773 18.6852L4.63941 7.38726Z" fill="#79D292"/>
</g>
<g filter="url(#filter2_d)">
<path d="M5.82739 5.40728C5.5871 4.54221 6.15546 3.66122 7.04266 3.52355L15.6252 2.19177C16.3411 2.0807 17.034 2.49706 17.272 3.18125L21.0445 14.0271C21.3447 14.8902 20.8099 15.8189 19.9128 15.9926L10.696 17.7764C9.9282 17.9251 9.17504 17.4588 8.96572 16.7052L5.82739 5.40728Z" fill="white"/>
</g>
<path d="M12.9659 4.44534L12.7029 6.15841L11.1582 4.72501L8.1482 5.19069L14.0891 10.9109L15.9759 3.97966L12.9659 4.44534Z" fill="#41B883"/>
<path d="M12.9657 4.44544L12.7026 6.15847L11.158 4.72511L9.71351 4.94858L13.4947 8.53471L14.4101 4.22196L12.9657 4.44544Z" fill="#34495E"/>
<defs>
<filter id="filter0_d" x="2.396" y="5.13428" width="17.3563" height="17.6301" filterUnits="userSpaceOnUse" color-interpolation-filters="sRGB">
<feFlood flood-opacity="0" result="BackgroundImageFix"/>
<feColorMatrix in="SourceAlpha" type="matrix" values="0 0 0 0 0 0 0 0 0 0 0 0 0 0 0 0 0 0 127 0"/>
<feOffset/>
<feGaussianBlur stdDeviation="0.5"/>
<feColorMatrix type="matrix" values="0 0 0 0 0 0 0 0 0 0 0 0 0 0 0 0 0 0 0.25 0"/>
<feBlend mode="normal" in2="BackgroundImageFix" result="effect1_dropShadow"/>
<feBlend mode="normal" in="SourceGraphic" in2="effect1_dropShadow" result="shape"/>
</filter>
<filter id="filter1_d" x="3.58398" y="3.15381" width="17.3563" height="17.6301" filterUnits="userSpaceOnUse" color-interpolation-filters="sRGB">
<feFlood flood-opacity="0" result="BackgroundImageFix"/>
<feColorMatrix in="SourceAlpha" type="matrix" values="0 0 0 0 0 0 0 0 0 0 0 0 0 0 0 0 0 0 127 0"/>
<feOffset/>
<feGaussianBlur stdDeviation="0.5"/>
<feColorMatrix type="matrix" values="0 0 0 0 0 0 0 0 0 0 0 0 0 0 0 0 0 0 0.25 0"/>
<feBlend mode="normal" in2="BackgroundImageFix" result="effect1_dropShadow"/>
<feBlend mode="normal" in="SourceGraphic" in2="effect1_dropShadow" result="shape"/>
</filter>
<filter id="filter2_d" x="4.77197" y="1.17383" width="17.3563" height="17.6301" filterUnits="userSpaceOnUse" color-interpolation-filters="sRGB">
<feFlood flood-opacity="0" result="BackgroundImageFix"/>
<feColorMatrix in="SourceAlpha" type="matrix" values="0 0 0 0 0 0 0 0 0 0 0 0 0 0 0 0 0 0 127 0"/>
<feOffset/>
<feGaussianBlur stdDeviation="0.5"/>
<feColorMatrix type="matrix" values="0 0 0 0 0 0 0 0 0 0 0 0 0 0 0 0 0 0 0.25 0"/>
<feBlend mode="normal" in2="BackgroundImageFix" result="effect1_dropShadow"/>
<feBlend mode="normal" in="SourceGraphic" in2="effect1_dropShadow" result="shape"/>
</filter>
</defs>
</svg>
